%TF.GenerationSoftware,KiCad,Pcbnew,7.0.8*%
%TF.CreationDate,2024-01-29T15:42:29-05:00*%
%TF.ProjectId,cc_laser_supply_rev-B,63635f6c-6173-4657-925f-737570706c79,rev?*%
%TF.SameCoordinates,Original*%
%TF.FileFunction,Copper,L1,Top*%
%TF.FilePolarity,Positive*%
%FSLAX46Y46*%
G04 Gerber Fmt 4.6, Leading zero omitted, Abs format (unit mm)*
G04 Created by KiCad (PCBNEW 7.0.8) date 2024-01-29 15:42:29*
%MOMM*%
%LPD*%
G01*
G04 APERTURE LIST*
G04 Aperture macros list*
%AMRoundRect*
0 Rectangle with rounded corners*
0 $1 Rounding radius*
0 $2 $3 $4 $5 $6 $7 $8 $9 X,Y pos of 4 corners*
0 Add a 4 corners polygon primitive as box body*
4,1,4,$2,$3,$4,$5,$6,$7,$8,$9,$2,$3,0*
0 Add four circle primitives for the rounded corners*
1,1,$1+$1,$2,$3*
1,1,$1+$1,$4,$5*
1,1,$1+$1,$6,$7*
1,1,$1+$1,$8,$9*
0 Add four rect primitives between the rounded corners*
20,1,$1+$1,$2,$3,$4,$5,0*
20,1,$1+$1,$4,$5,$6,$7,0*
20,1,$1+$1,$6,$7,$8,$9,0*
20,1,$1+$1,$8,$9,$2,$3,0*%
%AMFreePoly0*
4,1,225,0.080760,1.704684,0.081581,1.704743,0.083812,1.704000,0.085000,1.704000,0.085760,1.703684,0.086581,1.703743,0.088812,1.703000,0.090000,1.703000,0.090760,1.702684,0.091581,1.702743,0.094581,1.701744,0.094863,1.701498,0.095236,1.701472,0.096919,1.700630,0.099581,1.699744,0.100459,1.698982,0.101536,1.698536,0.102962,1.697108,0.104236,1.696472,0.104774,1.695851,
0.105536,1.695536,0.106962,1.694108,0.108236,1.693472,0.108774,1.692851,0.109536,1.692536,0.117535,1.684536,0.117850,1.683775,0.118472,1.683236,0.119108,1.681963,0.120535,1.680536,0.120850,1.679775,0.121472,1.679236,0.122108,1.677963,0.123535,1.676536,0.123980,1.675460,0.124743,1.674581,0.125630,1.671920,0.126472,1.670236,0.126498,1.669862,0.126743,1.669581,
0.127743,1.666581,0.127684,1.665760,0.128000,1.665000,0.128000,1.663810,0.128743,1.661581,0.128684,1.660760,0.129000,1.660000,0.129000,1.658810,0.129743,1.656581,0.129684,1.655760,0.130000,1.655000,0.130000,1.180000,0.165000,1.180000,0.168536,1.178536,0.170000,1.175000,0.170000,-1.175000,0.168536,-1.178536,0.165000,-1.180000,0.130000,-1.180000,0.130000,-1.655000,
0.129684,-1.655760,0.129743,-1.656581,0.129000,-1.658810,0.129000,-1.660000,0.128684,-1.660760,0.128743,-1.661581,0.128000,-1.663810,0.128000,-1.665000,0.127684,-1.665760,0.127743,-1.666581,0.126743,-1.669581,0.126498,-1.669862,0.126472,-1.670236,0.125630,-1.671920,0.124743,-1.674581,0.123980,-1.675460,0.123535,-1.676536,0.122108,-1.677963,0.121472,-1.679236,0.120850,-1.679775,
0.120535,-1.680536,0.119108,-1.681963,0.118472,-1.683236,0.117850,-1.683775,0.117535,-1.684536,0.109536,-1.692536,0.108774,-1.692851,0.108236,-1.693472,0.106962,-1.694108,0.105536,-1.695536,0.104774,-1.695851,0.104236,-1.696472,0.102962,-1.697108,0.101536,-1.698536,0.100459,-1.698982,0.099581,-1.699744,0.096919,-1.700630,0.095236,-1.701472,0.094863,-1.701498,0.094581,-1.701744,
0.091581,-1.702743,0.090760,-1.702684,0.090000,-1.703000,0.088812,-1.703000,0.086581,-1.703743,0.085760,-1.703684,0.085000,-1.704000,0.083812,-1.704000,0.081581,-1.704743,0.080760,-1.704684,0.080000,-1.705000,-0.080000,-1.705000,-0.080760,-1.704684,-0.081581,-1.704743,-0.083810,-1.704000,-0.085000,-1.704000,-0.085760,-1.703684,-0.086581,-1.703743,-0.088810,-1.703000,-0.090000,-1.703000,
-0.090760,-1.702684,-0.091581,-1.702743,-0.094581,-1.701743,-0.094862,-1.701498,-0.095236,-1.701472,-0.096920,-1.700630,-0.099581,-1.699743,-0.100460,-1.698980,-0.101536,-1.698535,-0.102963,-1.697108,-0.104236,-1.696472,-0.104775,-1.695850,-0.105536,-1.695535,-0.106963,-1.694108,-0.108236,-1.693472,-0.108775,-1.692850,-0.109536,-1.692535,-0.117536,-1.684536,-0.117851,-1.683774,-0.118472,-1.683236,
-0.119108,-1.681962,-0.120536,-1.680536,-0.120851,-1.679774,-0.121472,-1.679236,-0.122108,-1.677962,-0.123536,-1.676536,-0.123982,-1.675459,-0.124744,-1.674581,-0.125630,-1.671919,-0.126472,-1.670236,-0.126498,-1.669863,-0.126744,-1.669581,-0.127743,-1.666581,-0.127684,-1.665760,-0.128000,-1.665000,-0.128000,-1.663812,-0.128743,-1.661581,-0.128684,-1.660760,-0.129000,-1.660000,-0.129000,-1.658812,
-0.129743,-1.656581,-0.129684,-1.655760,-0.130000,-1.655000,-0.130000,-1.180000,-0.165000,-1.180000,-0.168536,-1.178536,-0.170000,-1.175000,-0.170000,1.175000,-0.168536,1.178536,-0.165000,1.180000,-0.130000,1.180000,-0.130000,1.655000,-0.129684,1.655760,-0.129743,1.656581,-0.129000,1.658812,-0.129000,1.660000,-0.128684,1.660760,-0.128743,1.661581,-0.128000,1.663812,-0.128000,1.665000,
-0.127684,1.665760,-0.127743,1.666581,-0.126744,1.669581,-0.126498,1.669863,-0.126472,1.670236,-0.125630,1.671919,-0.124744,1.674581,-0.123982,1.675459,-0.123536,1.676536,-0.122108,1.677962,-0.121472,1.679236,-0.120851,1.679774,-0.120536,1.680536,-0.119108,1.681962,-0.118472,1.683236,-0.117851,1.683774,-0.117536,1.684536,-0.109536,1.692535,-0.108775,1.692850,-0.108236,1.693472,
-0.106963,1.694108,-0.105536,1.695535,-0.104775,1.695850,-0.104236,1.696472,-0.102963,1.697108,-0.101536,1.698535,-0.100460,1.698980,-0.099581,1.699743,-0.096920,1.700630,-0.095236,1.701472,-0.094862,1.701498,-0.094581,1.701743,-0.091581,1.702743,-0.090760,1.702684,-0.090000,1.703000,-0.088810,1.703000,-0.086581,1.703743,-0.085760,1.703684,-0.085000,1.704000,-0.083810,1.704000,
-0.081581,1.704743,-0.080760,1.704684,-0.080000,1.705000,0.080000,1.705000,0.080760,1.704684,0.080760,1.704684,$1*%
%AMFreePoly1*
4,1,9,3.862500,-0.866500,0.737500,-0.866500,0.737500,-0.450000,-0.737500,-0.450000,-0.737500,0.450000,0.737500,0.450000,0.737500,0.866500,3.862500,0.866500,3.862500,-0.866500,3.862500,-0.866500,$1*%
G04 Aperture macros list end*
%TA.AperFunction,SMDPad,CuDef*%
%ADD10R,2.540000X6.350000*%
%TD*%
%TA.AperFunction,SMDPad,CuDef*%
%ADD11RoundRect,0.062500X-0.350000X-0.062500X0.350000X-0.062500X0.350000X0.062500X-0.350000X0.062500X0*%
%TD*%
%TA.AperFunction,SMDPad,CuDef*%
%ADD12RoundRect,0.062500X-0.062500X-0.350000X0.062500X-0.350000X0.062500X0.350000X-0.062500X0.350000X0*%
%TD*%
%TA.AperFunction,SMDPad,CuDef*%
%ADD13R,2.600000X2.600000*%
%TD*%
%TA.AperFunction,SMDPad,CuDef*%
%ADD14RoundRect,0.100000X0.712500X0.100000X-0.712500X0.100000X-0.712500X-0.100000X0.712500X-0.100000X0*%
%TD*%
%TA.AperFunction,SMDPad,CuDef*%
%ADD15R,0.310000X0.850000*%
%TD*%
%TA.AperFunction,SMDPad,CuDef*%
%ADD16R,2.950000X0.654000*%
%TD*%
%TA.AperFunction,SMDPad,CuDef*%
%ADD17R,2.200000X0.850000*%
%TD*%
%TA.AperFunction,SMDPad,CuDef*%
%ADD18RoundRect,0.012500X-0.287500X-0.112500X0.287500X-0.112500X0.287500X0.112500X-0.287500X0.112500X0*%
%TD*%
%TA.AperFunction,SMDPad,CuDef*%
%ADD19RoundRect,0.032500X-0.092500X-0.292500X0.092500X-0.292500X0.092500X0.292500X-0.092500X0.292500X0*%
%TD*%
%TA.AperFunction,SMDPad,CuDef*%
%ADD20RoundRect,0.030000X-0.095000X-0.270000X0.095000X-0.270000X0.095000X0.270000X-0.095000X0.270000X0*%
%TD*%
%TA.AperFunction,SMDPad,CuDef*%
%ADD21RoundRect,0.125000X0.000000X-1.575000X0.000000X-1.575000X0.000000X1.575000X0.000000X1.575000X0*%
%TD*%
%TA.AperFunction,SMDPad,CuDef*%
%ADD22FreePoly0,0.000000*%
%TD*%
%TA.AperFunction,SMDPad,CuDef*%
%ADD23RoundRect,0.100000X-0.100000X0.637500X-0.100000X-0.637500X0.100000X-0.637500X0.100000X0.637500X0*%
%TD*%
%TA.AperFunction,ComponentPad*%
%ADD24C,3.048000*%
%TD*%
%TA.AperFunction,SMDPad,CuDef*%
%ADD25RoundRect,0.237500X0.237500X-0.300000X0.237500X0.300000X-0.237500X0.300000X-0.237500X-0.300000X0*%
%TD*%
%TA.AperFunction,SMDPad,CuDef*%
%ADD26R,3.810000X1.498600*%
%TD*%
%TA.AperFunction,SMDPad,CuDef*%
%ADD27RoundRect,0.237500X-0.237500X0.250000X-0.237500X-0.250000X0.237500X-0.250000X0.237500X0.250000X0*%
%TD*%
%TA.AperFunction,SMDPad,CuDef*%
%ADD28RoundRect,0.150000X0.587500X0.150000X-0.587500X0.150000X-0.587500X-0.150000X0.587500X-0.150000X0*%
%TD*%
%TA.AperFunction,SMDPad,CuDef*%
%ADD29RoundRect,0.237500X-0.300000X-0.237500X0.300000X-0.237500X0.300000X0.237500X-0.300000X0.237500X0*%
%TD*%
%TA.AperFunction,SMDPad,CuDef*%
%ADD30RoundRect,0.237500X-0.237500X0.300000X-0.237500X-0.300000X0.237500X-0.300000X0.237500X0.300000X0*%
%TD*%
%TA.AperFunction,SMDPad,CuDef*%
%ADD31RoundRect,0.249999X-1.075001X0.450001X-1.075001X-0.450001X1.075001X-0.450001X1.075001X0.450001X0*%
%TD*%
%TA.AperFunction,SMDPad,CuDef*%
%ADD32RoundRect,0.237500X0.300000X0.237500X-0.300000X0.237500X-0.300000X-0.237500X0.300000X-0.237500X0*%
%TD*%
%TA.AperFunction,SMDPad,CuDef*%
%ADD33RoundRect,0.250000X-0.650000X1.000000X-0.650000X-1.000000X0.650000X-1.000000X0.650000X1.000000X0*%
%TD*%
%TA.AperFunction,SMDPad,CuDef*%
%ADD34RoundRect,0.237500X-0.250000X-0.237500X0.250000X-0.237500X0.250000X0.237500X-0.250000X0.237500X0*%
%TD*%
%TA.AperFunction,SMDPad,CuDef*%
%ADD35RoundRect,0.237500X0.250000X0.237500X-0.250000X0.237500X-0.250000X-0.237500X0.250000X-0.237500X0*%
%TD*%
%TA.AperFunction,SMDPad,CuDef*%
%ADD36RoundRect,0.237500X-0.287500X-0.237500X0.287500X-0.237500X0.287500X0.237500X-0.287500X0.237500X0*%
%TD*%
%TA.AperFunction,SMDPad,CuDef*%
%ADD37RoundRect,0.250000X-0.625000X0.400000X-0.625000X-0.400000X0.625000X-0.400000X0.625000X0.400000X0*%
%TD*%
%TA.AperFunction,SMDPad,CuDef*%
%ADD38RoundRect,0.125000X-0.125000X0.125000X-0.125000X-0.125000X0.125000X-0.125000X0.125000X0.125000X0*%
%TD*%
%TA.AperFunction,SMDPad,CuDef*%
%ADD39RoundRect,0.237500X0.237500X-0.250000X0.237500X0.250000X-0.237500X0.250000X-0.237500X-0.250000X0*%
%TD*%
%TA.AperFunction,SMDPad,CuDef*%
%ADD40RoundRect,0.250000X-0.475000X0.337500X-0.475000X-0.337500X0.475000X-0.337500X0.475000X0.337500X0*%
%TD*%
%TA.AperFunction,SMDPad,CuDef*%
%ADD41R,0.690000X0.320000*%
%TD*%
%TA.AperFunction,SMDPad,CuDef*%
%ADD42R,1.000000X1.600000*%
%TD*%
%TA.AperFunction,ComponentPad*%
%ADD43R,4.000000X4.000000*%
%TD*%
%TA.AperFunction,ComponentPad*%
%ADD44C,4.000000*%
%TD*%
%TA.AperFunction,SMDPad,CuDef*%
%ADD45R,1.000000X0.900000*%
%TD*%
%TA.AperFunction,SMDPad,CuDef*%
%ADD46R,0.550000X1.700000*%
%TD*%
%TA.AperFunction,SMDPad,CuDef*%
%ADD47RoundRect,0.250000X-0.412500X-0.650000X0.412500X-0.650000X0.412500X0.650000X-0.412500X0.650000X0*%
%TD*%
%TA.AperFunction,SMDPad,CuDef*%
%ADD48RoundRect,0.150000X-0.150000X0.512500X-0.150000X-0.512500X0.150000X-0.512500X0.150000X0.512500X0*%
%TD*%
%TA.AperFunction,WasherPad*%
%ADD49C,3.000000*%
%TD*%
%TA.AperFunction,ComponentPad*%
%ADD50C,1.524000*%
%TD*%
%TA.AperFunction,SMDPad,CuDef*%
%ADD51RoundRect,0.250000X-0.650000X-2.450000X0.650000X-2.450000X0.650000X2.450000X-0.650000X2.450000X0*%
%TD*%
%TA.AperFunction,SMDPad,CuDef*%
%ADD52RoundRect,0.155000X-0.212500X-0.155000X0.212500X-0.155000X0.212500X0.155000X-0.212500X0.155000X0*%
%TD*%
%TA.AperFunction,SMDPad,CuDef*%
%ADD53RoundRect,0.150000X-0.150000X0.587500X-0.150000X-0.587500X0.150000X-0.587500X0.150000X0.587500X0*%
%TD*%
%TA.AperFunction,SMDPad,CuDef*%
%ADD54R,1.300000X1.900000*%
%TD*%
%TA.AperFunction,SMDPad,CuDef*%
%ADD55R,2.000000X1.900000*%
%TD*%
%TA.AperFunction,SMDPad,CuDef*%
%ADD56RoundRect,0.250000X0.300000X0.300000X-0.300000X0.300000X-0.300000X-0.300000X0.300000X-0.300000X0*%
%TD*%
%TA.AperFunction,SMDPad,CuDef*%
%ADD57RoundRect,0.250000X0.650000X2.450000X-0.650000X2.450000X-0.650000X-2.450000X0.650000X-2.450000X0*%
%TD*%
%TA.AperFunction,SMDPad,CuDef*%
%ADD58RoundRect,0.250000X-0.350000X-0.450000X0.350000X-0.450000X0.350000X0.450000X-0.350000X0.450000X0*%
%TD*%
%TA.AperFunction,SMDPad,CuDef*%
%ADD59R,1.920000X6.500000*%
%TD*%
%TA.AperFunction,SMDPad,CuDef*%
%ADD60C,2.500000*%
%TD*%
%TA.AperFunction,SMDPad,CuDef*%
%ADD61RoundRect,0.150000X-0.587500X-0.150000X0.587500X-0.150000X0.587500X0.150000X-0.587500X0.150000X0*%
%TD*%
%TA.AperFunction,SMDPad,CuDef*%
%ADD62RoundRect,0.155000X0.212500X0.155000X-0.212500X0.155000X-0.212500X-0.155000X0.212500X-0.155000X0*%
%TD*%
%TA.AperFunction,SMDPad,CuDef*%
%ADD63R,1.300000X0.900000*%
%TD*%
%TA.AperFunction,SMDPad,CuDef*%
%ADD64FreePoly1,180.000000*%
%TD*%
%TA.AperFunction,SMDPad,CuDef*%
%ADD65R,1.350000X0.400000*%
%TD*%
%TA.AperFunction,ComponentPad*%
%ADD66O,1.550000X0.890000*%
%TD*%
%TA.AperFunction,SMDPad,CuDef*%
%ADD67R,1.550000X1.200000*%
%TD*%
%TA.AperFunction,ComponentPad*%
%ADD68O,0.950000X1.250000*%
%TD*%
%TA.AperFunction,SMDPad,CuDef*%
%ADD69R,1.550000X1.500000*%
%TD*%
%TA.AperFunction,ComponentPad*%
%ADD70R,1.700000X1.700000*%
%TD*%
%TA.AperFunction,ComponentPad*%
%ADD71O,1.700000X1.700000*%
%TD*%
%TA.AperFunction,SMDPad,CuDef*%
%ADD72RoundRect,0.250000X-0.337500X-0.475000X0.337500X-0.475000X0.337500X0.475000X-0.337500X0.475000X0*%
%TD*%
%TA.AperFunction,SMDPad,CuDef*%
%ADD73RoundRect,0.237500X0.287500X0.237500X-0.287500X0.237500X-0.287500X-0.237500X0.287500X-0.237500X0*%
%TD*%
%TA.AperFunction,SMDPad,CuDef*%
%ADD74RoundRect,0.250000X-0.550000X1.500000X-0.550000X-1.500000X0.550000X-1.500000X0.550000X1.500000X0*%
%TD*%
%TA.AperFunction,SMDPad,CuDef*%
%ADD75R,1.500000X0.900000*%
%TD*%
%TA.AperFunction,SMDPad,CuDef*%
%ADD76R,0.900000X1.500000*%
%TD*%
%TA.AperFunction,SMDPad,CuDef*%
%ADD77R,0.900000X0.900000*%
%TD*%
%TA.AperFunction,SMDPad,CuDef*%
%ADD78R,3.800000X3.800000*%
%TD*%
%TA.AperFunction,HeatsinkPad*%
%ADD79C,0.600000*%
%TD*%
%TA.AperFunction,SMDPad,CuDef*%
%ADD80RoundRect,0.250000X-0.400000X-0.625000X0.400000X-0.625000X0.400000X0.625000X-0.400000X0.625000X0*%
%TD*%
%TA.AperFunction,SMDPad,CuDef*%
%ADD81RoundRect,0.155000X-0.155000X0.212500X-0.155000X-0.212500X0.155000X-0.212500X0.155000X0.212500X0*%
%TD*%
%TA.AperFunction,ViaPad*%
%ADD82C,0.700000*%
%TD*%
%TA.AperFunction,ViaPad*%
%ADD83C,0.800000*%
%TD*%
%TA.AperFunction,Conductor*%
%ADD84C,0.254000*%
%TD*%
%TA.AperFunction,Conductor*%
%ADD85C,0.508000*%
%TD*%
%TA.AperFunction,Conductor*%
%ADD86C,0.381000*%
%TD*%
%TA.AperFunction,Conductor*%
%ADD87C,2.032000*%
%TD*%
%TA.AperFunction,Conductor*%
%ADD88C,1.016000*%
%TD*%
G04 APERTURE END LIST*
D10*
%TO.P,JP3,1,A*%
%TO.N,/Buck Boost Supply/tps_out*%
X159385000Y-71120000D03*
%TO.P,JP3,2,C*%
%TO.N,VCAP*%
X162560000Y-71120000D03*
%TO.P,JP3,3,B*%
%TO.N,VCAP_EXT*%
X165735000Y-71120000D03*
%TD*%
D11*
%TO.P,U3,1,~{RI}*%
%TO.N,unconnected-(U3-~{RI}-Pad1)*%
X91407500Y-73680000D03*
%TO.P,U3,2,GND*%
%TO.N,GND*%
X91407500Y-74180000D03*
%TO.P,U3,3,D+*%
%TO.N,/ESP32/d+*%
X91407500Y-74680000D03*
%TO.P,U3,4,D-*%
%TO.N,/ESP32/d-*%
X91407500Y-75180000D03*
%TO.P,U3,5,VIO*%
%TO.N,+3V3*%
X91407500Y-75680000D03*
%TO.P,U3,6,VDD*%
X91407500Y-76180000D03*
D12*
%TO.P,U3,7,REGIN*%
X92095000Y-76867500D03*
%TO.P,U3,8,VBUS*%
%TO.N,VBUS*%
X92595000Y-76867500D03*
%TO.P,U3,9,~{RST}*%
%TO.N,unconnected-(U3-~{RST}-Pad9)*%
X93095000Y-76867500D03*
%TO.P,U3,10,NC*%
%TO.N,unconnected-(U3-NC-Pad10)*%
X93595000Y-76867500D03*
%TO.P,U3,11,GPIO.3*%
%TO.N,unconnected-(U3-GPIO.3-Pad11)*%
X94095000Y-76867500D03*
%TO.P,U3,12,RS485/GPIO.2*%
%TO.N,unconnected-(U3-RS485{slash}GPIO.2-Pad12)*%
X94595000Y-76867500D03*
D11*
%TO.P,U3,13,RXT/GPIO.1*%
%TO.N,Net-(U3-RXT{slash}GPIO.1)*%
X95282500Y-76180000D03*
%TO.P,U3,14,TXT/GPIO.0*%
%TO.N,Net-(U3-TXT{slash}GPIO.0)*%
X95282500Y-75680000D03*
%TO.P,U3,15,~{SUSPEND}*%
%TO.N,unconnected-(U3-~{SUSPEND}-Pad15)*%
X95282500Y-75180000D03*
%TO.P,U3,16,VPP*%
%TO.N,Net-(U3-VPP)*%
X95282500Y-74680000D03*
%TO.P,U3,17,SUSPEND*%
%TO.N,unconnected-(U3-SUSPEND-Pad17)*%
X95282500Y-74180000D03*
%TO.P,U3,18,~{CTS}*%
%TO.N,unconnected-(U3-~{CTS}-Pad18)*%
X95282500Y-73680000D03*
D12*
%TO.P,U3,19,~{RTS}*%
%TO.N,/ESP32/RTS*%
X94595000Y-72992500D03*
%TO.P,U3,20,RXD*%
%TO.N,/ESP32/TXD0*%
X94095000Y-72992500D03*
%TO.P,U3,21,TXD*%
%TO.N,/ESP32/RXD0*%
X93595000Y-72992500D03*
%TO.P,U3,22,~{DSR}*%
%TO.N,unconnected-(U3-~{DSR}-Pad22)*%
X93095000Y-72992500D03*
%TO.P,U3,23,~{DTR}*%
%TO.N,/ESP32/DTR*%
X92595000Y-72992500D03*
%TO.P,U3,24,~{DCD}*%
%TO.N,unconnected-(U3-~{DCD}-Pad24)*%
X92095000Y-72992500D03*
D13*
%TO.P,U3,25,GND*%
%TO.N,GND*%
X93345000Y-74930000D03*
%TD*%
D14*
%TO.P,U8,1*%
%TO.N,Net-(D11-A)*%
X105440250Y-122895000D03*
%TO.P,U8,2,-*%
%TO.N,Net-(D9-A)*%
X105440250Y-122245000D03*
%TO.P,U8,3,+*%
%TO.N,Net-(U8A-+)*%
X105440250Y-121595000D03*
%TO.P,U8,4,V-*%
%TO.N,GND*%
X105440250Y-120945000D03*
%TO.P,U8,5,+*%
%TO.N,Net-(D11-K)*%
X101215250Y-120945000D03*
%TO.P,U8,6,-*%
%TO.N,Net-(U8B--)*%
X101215250Y-121595000D03*
%TO.P,U8,7*%
X101215250Y-122245000D03*
%TO.P,U8,8,V+*%
%TO.N,+5V*%
X101215250Y-122895000D03*
%TD*%
D15*
%TO.P,Q3,1,G*%
%TO.N,/GaN FET and Current Sensing/vgate*%
X188164000Y-128360000D03*
D16*
%TO.P,Q3,2,S*%
%TO.N,GND*%
X189484000Y-129555000D03*
D17*
%TO.P,Q3,3,D*%
%TO.N,Net-(D5-A)*%
X189859000Y-128360000D03*
%TD*%
D14*
%TO.P,U11,1*%
%TO.N,Net-(D16-K)*%
X169117500Y-116418000D03*
%TO.P,U11,2,-*%
%TO.N,Net-(D16-A)*%
X169117500Y-115768000D03*
%TO.P,U11,3,+*%
%TO.N,Net-(U11A-+)*%
X169117500Y-115118000D03*
%TO.P,U11,4,V-*%
%TO.N,GND*%
X169117500Y-114468000D03*
%TO.P,U11,5,+*%
%TO.N,Net-(D17-K)*%
X164892500Y-114468000D03*
%TO.P,U11,6,-*%
%TO.N,Net-(U11B--)*%
X164892500Y-115118000D03*
%TO.P,U11,7*%
X164892500Y-115768000D03*
%TO.P,U11,8,V+*%
%TO.N,+5V*%
X164892500Y-116418000D03*
%TD*%
%TO.P,U10,1*%
%TO.N,Net-(D14-K)*%
X169117500Y-105320500D03*
%TO.P,U10,2,-*%
%TO.N,Net-(D14-A)*%
X169117500Y-104670500D03*
%TO.P,U10,3,+*%
%TO.N,Net-(U10A-+)*%
X169117500Y-104020500D03*
%TO.P,U10,4,V-*%
%TO.N,GND*%
X169117500Y-103370500D03*
%TO.P,U10,5,+*%
%TO.N,Net-(D15-K)*%
X164892500Y-103370500D03*
%TO.P,U10,6,-*%
%TO.N,Net-(U10B--)*%
X164892500Y-104020500D03*
%TO.P,U10,7*%
X164892500Y-104670500D03*
%TO.P,U10,8,V+*%
%TO.N,+5V*%
X164892500Y-105320500D03*
%TD*%
%TO.P,U9,1*%
%TO.N,Net-(D12-K)*%
X169117500Y-94828000D03*
%TO.P,U9,2,-*%
%TO.N,Net-(D12-A)*%
X169117500Y-94178000D03*
%TO.P,U9,3,+*%
%TO.N,Net-(U9A-+)*%
X169117500Y-93528000D03*
%TO.P,U9,4,V-*%
%TO.N,GND*%
X169117500Y-92878000D03*
%TO.P,U9,5,+*%
%TO.N,Net-(D13-K)*%
X164892500Y-92878000D03*
%TO.P,U9,6,-*%
%TO.N,Net-(U9B--)*%
X164892500Y-93528000D03*
%TO.P,U9,7*%
X164892500Y-94178000D03*
%TO.P,U9,8,V+*%
%TO.N,+5V*%
X164892500Y-94828000D03*
%TD*%
%TO.P,U7,1*%
%TO.N,Net-(D10-A)*%
X174879000Y-84089000D03*
%TO.P,U7,2,-*%
%TO.N,Net-(D8-A)*%
X174879000Y-83439000D03*
%TO.P,U7,3,+*%
%TO.N,Net-(U7A-+)*%
X174879000Y-82789000D03*
%TO.P,U7,4,V-*%
%TO.N,GND*%
X174879000Y-82139000D03*
%TO.P,U7,5,+*%
%TO.N,Net-(D10-K)*%
X170654000Y-82139000D03*
%TO.P,U7,6,-*%
%TO.N,Net-(U7B--)*%
X170654000Y-82789000D03*
%TO.P,U7,7*%
X170654000Y-83439000D03*
%TO.P,U7,8,V+*%
%TO.N,+5V*%
X170654000Y-84089000D03*
%TD*%
D18*
%TO.P,U12,1,EN/UVLO*%
%TO.N,EN{slash}UVLO*%
X131990000Y-76720000D03*
%TO.P,U12,2,MODE*%
%TO.N,/Buck Boost Supply/Vcc*%
X131990000Y-77220000D03*
%TO.P,U12,3,PG*%
%TO.N,SCL*%
X131990000Y-77720000D03*
%TO.P,U12,4,~{CC}*%
%TO.N,SDA*%
X131990000Y-78220000D03*
D19*
%TO.P,U12,5,DITH/SYNC*%
%TO.N,GND*%
X132350000Y-78845000D03*
D20*
%TO.P,U12,6,FSW*%
%TO.N,Net-(U12-FSW)*%
X132850000Y-78870000D03*
D21*
%TO.P,U12,7,VIN*%
%TO.N,+5V*%
X133350000Y-77470000D03*
%TO.P,U12,8,SW1*%
%TO.N,/Buck Boost Supply/SW1*%
X133850000Y-77470000D03*
D22*
%TO.P,U12,9,PGND*%
%TO.N,GND*%
X134390000Y-77470000D03*
D21*
%TO.P,U12,10,SW2*%
%TO.N,/Buck Boost Supply/SW2*%
X134930000Y-77470000D03*
%TO.P,U12,11,VOUT*%
%TO.N,/Buck Boost Supply/Vout*%
X135430000Y-77470000D03*
D20*
%TO.P,U12,12,ISP*%
%TO.N,/Buck Boost Supply/ISP*%
X135930000Y-78870000D03*
D19*
%TO.P,U12,13,ISN*%
%TO.N,/Buck Boost Supply/ISN*%
X136430000Y-78845000D03*
D18*
%TO.P,U12,14,FB*%
%TO.N,Net-(U12-FB)*%
X136790000Y-78220000D03*
%TO.P,U12,15,COMP*%
%TO.N,/Buck Boost Supply/COMP*%
X136790000Y-77720000D03*
%TO.P,U12,16,CDC*%
%TO.N,Net-(U12-CDC)*%
X136790000Y-77220000D03*
%TO.P,U12,17,AGND*%
%TO.N,GND*%
X136790000Y-76720000D03*
D19*
%TO.P,U12,18,VCC*%
%TO.N,/Buck Boost Supply/Vcc*%
X136430000Y-76095000D03*
D20*
%TO.P,U12,19,BOOT2*%
%TO.N,/Buck Boost Supply/BOOT2*%
X135930000Y-76070000D03*
%TO.P,U12,20,BOOT1*%
%TO.N,/Buck Boost Supply/BOOT1*%
X132850000Y-76070000D03*
D19*
%TO.P,U12,21,EXTVCC*%
%TO.N,Net-(U12-EXTVCC)*%
X132350000Y-76095000D03*
%TD*%
D23*
%TO.P,U4,1*%
%TO.N,SENSE_1A*%
X182925000Y-99245500D03*
%TO.P,U4,2,-*%
%TO.N,Net-(U4A--)*%
X182275000Y-99245500D03*
%TO.P,U4,3,+*%
%TO.N,VCAP*%
X181625000Y-99245500D03*
%TO.P,U4,4,VCC*%
%TO.N,Net-(U4A-VCC)*%
X180975000Y-99245500D03*
%TO.P,U4,5,+*%
%TO.N,Net-(U4A--)*%
X180325000Y-99245500D03*
%TO.P,U4,6,-*%
%TO.N,Net-(U4B--)*%
X179675000Y-99245500D03*
%TO.P,U4,7*%
%TO.N,SENSE_5A*%
X179025000Y-99245500D03*
%TO.P,U4,8*%
%TO.N,SENSE_10A*%
X179025000Y-104970500D03*
%TO.P,U4,9,-*%
%TO.N,Net-(U4C--)*%
X179675000Y-104970500D03*
%TO.P,U4,10,+*%
%TO.N,Net-(U4B--)*%
X180325000Y-104970500D03*
%TO.P,U4,11,GND*%
%TO.N,GND*%
X180975000Y-104970500D03*
%TO.P,U4,12,+*%
%TO.N,Net-(U4C--)*%
X181625000Y-104970500D03*
%TO.P,U4,13,-*%
%TO.N,/GaN FET and Current Sensing/sense_out*%
X182275000Y-104970500D03*
%TO.P,U4,14*%
%TO.N,SENSE_20A*%
X182925000Y-104970500D03*
%TD*%
D24*
%TO.P,TP15,1,1*%
%TO.N,VIN*%
X127000000Y-144145000D03*
%TD*%
D25*
%TO.P,C14,1*%
%TO.N,GND*%
X177165000Y-99160500D03*
%TO.P,C14,2*%
%TO.N,Net-(U4A-VCC)*%
X177165000Y-97435500D03*
%TD*%
D26*
%TO.P,C45,1*%
%TO.N,+5V*%
X138964500Y-94627000D03*
%TO.P,C45,2*%
%TO.N,GND*%
X131750900Y-94627000D03*
%TD*%
D27*
%TO.P,R35,1*%
%TO.N,Net-(C31-Pad2)*%
X168148000Y-98020500D03*
%TO.P,R35,2*%
%TO.N,GND*%
X168148000Y-99845500D03*
%TD*%
D28*
%TO.P,D15,1,A*%
%TO.N,Net-(D14-K)*%
X173022500Y-109105500D03*
%TO.P,D15,2,NC*%
%TO.N,unconnected-(D15-NC-Pad2)*%
X173022500Y-107205500D03*
%TO.P,D15,3,K*%
%TO.N,Net-(D15-K)*%
X171147500Y-108155500D03*
%TD*%
D29*
%TO.P,C32,1*%
%TO.N,+5V*%
X164872500Y-106885500D03*
%TO.P,C32,2*%
%TO.N,GND*%
X166597500Y-106885500D03*
%TD*%
D30*
%TO.P,C36,1*%
%TO.N,ADC_20A*%
X161036000Y-116612500D03*
%TO.P,C36,2*%
%TO.N,GND*%
X161036000Y-118337500D03*
%TD*%
D31*
%TO.P,R15,1*%
%TO.N,Net-(U4A--)*%
X190030000Y-97168000D03*
%TO.P,R15,2*%
%TO.N,Net-(U4B--)*%
X190030000Y-101968000D03*
%TD*%
D30*
%TO.P,C31,1*%
%TO.N,Net-(D13-K)*%
X166370000Y-98070500D03*
%TO.P,C31,2*%
%TO.N,Net-(C31-Pad2)*%
X166370000Y-99795500D03*
%TD*%
%TO.P,C34,1*%
%TO.N,Net-(D15-K)*%
X167005000Y-108563000D03*
%TO.P,C34,2*%
%TO.N,Net-(C34-Pad2)*%
X167005000Y-110288000D03*
%TD*%
D32*
%TO.P,C42,1*%
%TO.N,+5V*%
X133821000Y-87134000D03*
%TO.P,C42,2*%
%TO.N,GND*%
X132096000Y-87134000D03*
%TD*%
D33*
%TO.P,D7,1,K*%
%TO.N,Net-(D5-A)*%
X193294000Y-128937000D03*
%TO.P,D7,2,A*%
%TO.N,GND*%
X193294000Y-132937000D03*
%TD*%
D34*
%TO.P,R6,1*%
%TO.N,SCL*%
X121007500Y-62230000D03*
%TO.P,R6,2*%
%TO.N,+3V3*%
X122832500Y-62230000D03*
%TD*%
D24*
%TO.P,TP9,1,1*%
%TO.N,/GaN FET and Current Sensing/sig_ext*%
X83185000Y-118110000D03*
%TD*%
%TO.P,TP21,1,1*%
%TO.N,ADC_20A*%
X173990000Y-53340000D03*
%TD*%
D25*
%TO.P,C15,1*%
%TO.N,GND*%
X175260000Y-99160500D03*
%TO.P,C15,2*%
%TO.N,Net-(U4A-VCC)*%
X175260000Y-97435500D03*
%TD*%
D29*
%TO.P,C23,1*%
%TO.N,+5V*%
X170634000Y-85654000D03*
%TO.P,C23,2*%
%TO.N,GND*%
X172359000Y-85654000D03*
%TD*%
D34*
%TO.P,R33,1*%
%TO.N,SENSE_5A*%
X167362500Y-91313000D03*
%TO.P,R33,2*%
%TO.N,Net-(U9A-+)*%
X169187500Y-91313000D03*
%TD*%
D35*
%TO.P,R42,1*%
%TO.N,Net-(U11B--)*%
X162964500Y-114808000D03*
%TO.P,R42,2*%
%TO.N,ADC_20A*%
X161139500Y-114808000D03*
%TD*%
D29*
%TO.P,C2,1*%
%TO.N,+3V3*%
X87021500Y-88138000D03*
%TO.P,C2,2*%
%TO.N,GND*%
X88746500Y-88138000D03*
%TD*%
D36*
%TO.P,D3,1,K*%
%TO.N,Net-(D3-K)*%
X98185000Y-82550000D03*
%TO.P,D3,2,A*%
%TO.N,+3V3*%
X99935000Y-82550000D03*
%TD*%
D34*
%TO.P,R51,1*%
%TO.N,/Buck Boost Supply/ISN*%
X146511000Y-74422000D03*
%TO.P,R51,2*%
%TO.N,/Buck Boost Supply/tps_out*%
X148336000Y-74422000D03*
%TD*%
D37*
%TO.P,R18,1*%
%TO.N,Net-(U4B--)*%
X186690000Y-104241000D03*
%TO.P,R18,2*%
%TO.N,Net-(U4C--)*%
X186690000Y-107341000D03*
%TD*%
D38*
%TO.P,D6,1,K*%
%TO.N,VCAP*%
X186690000Y-122768000D03*
%TO.P,D6,2,A*%
%TO.N,Net-(D5-A)*%
X186690000Y-124968000D03*
%TD*%
D35*
%TO.P,R32,1*%
%TO.N,Net-(U9B--)*%
X162837500Y-93218000D03*
%TO.P,R32,2*%
%TO.N,ADC_5A*%
X161012500Y-93218000D03*
%TD*%
D39*
%TO.P,R41,1*%
%TO.N,Net-(D16-A)*%
X162814000Y-118387500D03*
%TO.P,R41,2*%
%TO.N,Net-(U11B--)*%
X162814000Y-116562500D03*
%TD*%
D37*
%TO.P,R19,1*%
%TO.N,Net-(U4C--)*%
X189460000Y-109448000D03*
%TO.P,R19,2*%
%TO.N,/GaN FET and Current Sensing/sense_out*%
X189460000Y-112548000D03*
%TD*%
D39*
%TO.P,R1,1*%
%TO.N,/ESP32/RTS*%
X91440000Y-61872500D03*
%TO.P,R1,2*%
%TO.N,Net-(Q1-Pad1)*%
X91440000Y-60047500D03*
%TD*%
D24*
%TO.P,TP22,1,1*%
%TO.N,Net-(J3-In)*%
X117475000Y-144145000D03*
%TD*%
D39*
%TO.P,R36,1*%
%TO.N,Net-(D14-A)*%
X162560000Y-107163000D03*
%TO.P,R36,2*%
%TO.N,Net-(U10B--)*%
X162560000Y-105338000D03*
%TD*%
D40*
%TO.P,C19,1*%
%TO.N,VIN*%
X161544000Y-128121500D03*
%TO.P,C19,2*%
%TO.N,GND*%
X161544000Y-130196500D03*
%TD*%
D24*
%TO.P,TP17,1,1*%
%TO.N,ADC_1A*%
X143510000Y-53340000D03*
%TD*%
D41*
%TO.P,U5,1,VDD*%
%TO.N,Net-(U5-VDD)*%
X179320000Y-126625500D03*
%TO.P,U5,2,IN-*%
%TO.N,GND*%
X179320000Y-127275500D03*
%TO.P,U5,3,IN+*%
%TO.N,/GaN FET and Current Sensing/in+*%
X179320000Y-127925500D03*
%TO.P,U5,4,OUTL*%
%TO.N,/GaN FET and Current Sensing/OUTL*%
X181360000Y-127925500D03*
%TO.P,U5,5,OUTH*%
%TO.N,/GaN FET and Current Sensing/OUTH*%
X181360000Y-127275500D03*
%TO.P,U5,6,VREF*%
%TO.N,/GaN FET and Current Sensing/vref*%
X181360000Y-126625500D03*
D42*
%TO.P,U5,7,GND_PAD*%
%TO.N,GND*%
X180340000Y-127275500D03*
%TD*%
D35*
%TO.P,R4,1*%
%TO.N,GND*%
X84732500Y-89916000D03*
%TO.P,R4,2*%
%TO.N,Net-(D1-K)*%
X82907500Y-89916000D03*
%TD*%
D30*
%TO.P,C16,1*%
%TO.N,Net-(U5-VDD)*%
X176022000Y-126640500D03*
%TO.P,C16,2*%
%TO.N,GND*%
X176022000Y-128365500D03*
%TD*%
%TO.P,C53,1*%
%TO.N,/Buck Boost Supply/Vout*%
X135546000Y-84086000D03*
%TO.P,C53,2*%
%TO.N,GND*%
X135546000Y-85811000D03*
%TD*%
D24*
%TO.P,TP16,1,1*%
%TO.N,GND*%
X134620000Y-144145000D03*
%TD*%
D27*
%TO.P,R29,1*%
%TO.N,Net-(C27-Pad2)*%
X173875500Y-87225500D03*
%TO.P,R29,2*%
%TO.N,GND*%
X173875500Y-89050500D03*
%TD*%
D37*
%TO.P,R20,1*%
%TO.N,Net-(U4C--)*%
X186690000Y-109448000D03*
%TO.P,R20,2*%
%TO.N,/GaN FET and Current Sensing/sense_out*%
X186690000Y-112548000D03*
%TD*%
D43*
%TO.P,C13,1*%
%TO.N,VCAP*%
X140320499Y-117348000D03*
D44*
%TO.P,C13,2*%
%TO.N,GND*%
X130320499Y-117348000D03*
%TD*%
D45*
%TO.P,SW1,1,1*%
%TO.N,GND*%
X86195000Y-62085000D03*
X86195000Y-66185000D03*
%TO.P,SW1,2,2*%
%TO.N,/ESP32/RESET*%
X87795000Y-62085000D03*
X87795000Y-66185000D03*
D46*
%TO.P,SW1,SH*%
%TO.N,N/C*%
X85570000Y-64135000D03*
%TD*%
D47*
%TO.P,C56,1*%
%TO.N,/Buck Boost Supply/Vout*%
X145249500Y-81620126D03*
%TO.P,C56,2*%
%TO.N,GND*%
X148374500Y-81620126D03*
%TD*%
D24*
%TO.P,TP18,1,1*%
%TO.N,OPT_IN_ADC*%
X90805000Y-137795000D03*
%TD*%
D48*
%TO.P,U1,1,VIN*%
%TO.N,VBUS*%
X86675000Y-83952500D03*
%TO.P,U1,2,GND*%
%TO.N,GND*%
X85725000Y-83952500D03*
%TO.P,U1,3,EN*%
%TO.N,Net-(U1-EN)*%
X84775000Y-83952500D03*
%TO.P,U1,4,NC*%
%TO.N,unconnected-(U1-NC-Pad4)*%
X84775000Y-86227500D03*
%TO.P,U1,5,VOUT*%
%TO.N,+3V3*%
X86675000Y-86227500D03*
%TD*%
D34*
%TO.P,R7,1*%
%TO.N,SDA*%
X121007500Y-59055000D03*
%TO.P,R7,2*%
%TO.N,+3V3*%
X122832500Y-59055000D03*
%TD*%
D49*
%TO.P,J3,*%
%TO.N,*%
X98425000Y-140335000D03*
X108585000Y-140335000D03*
D50*
%TO.P,J3,1,In*%
%TO.N,Net-(J3-In)*%
X103505000Y-135255000D03*
%TO.P,J3,2,Ext*%
%TO.N,GND*%
X106045000Y-135255000D03*
%TD*%
D51*
%TO.P,C11,1*%
%TO.N,VCAP*%
X194808000Y-68326000D03*
%TO.P,C11,2*%
%TO.N,GND*%
X199908000Y-68326000D03*
%TD*%
D52*
%TO.P,FB1,1*%
%TO.N,+3V3*%
X176030000Y-95758000D03*
%TO.P,FB1,2*%
%TO.N,Net-(U4A-VCC)*%
X177165000Y-95758000D03*
%TD*%
D53*
%TO.P,D16,1,A*%
%TO.N,Net-(D16-A)*%
X173162000Y-114330000D03*
%TO.P,D16,2,NC*%
%TO.N,unconnected-(D16-NC-Pad2)*%
X171262000Y-114330000D03*
%TO.P,D16,3,K*%
%TO.N,Net-(D16-K)*%
X172212000Y-116205000D03*
%TD*%
D40*
%TO.P,C21,1*%
%TO.N,/GaN FET and Current Sensing/vout_5v*%
X170434000Y-127635000D03*
%TO.P,C21,2*%
%TO.N,GND*%
X170434000Y-129710000D03*
%TD*%
D47*
%TO.P,C54,1*%
%TO.N,/Buck Boost Supply/Vout*%
X145249500Y-86700126D03*
%TO.P,C54,2*%
%TO.N,GND*%
X148374500Y-86700126D03*
%TD*%
D54*
%TO.P,RV1,1,1*%
%TO.N,Net-(J3-In)*%
X115570000Y-120650000D03*
D55*
%TO.P,RV1,2,2*%
%TO.N,Net-(U8A-+)*%
X114420000Y-125750000D03*
D54*
%TO.P,RV1,3,3*%
%TO.N,GND*%
X113270000Y-120650000D03*
%TD*%
D30*
%TO.P,C27,1*%
%TO.N,Net-(D10-K)*%
X172178000Y-87275500D03*
%TO.P,C27,2*%
%TO.N,Net-(C27-Pad2)*%
X172178000Y-89000500D03*
%TD*%
%TO.P,C51,1*%
%TO.N,/Buck Boost Supply/Vout*%
X139356000Y-84086000D03*
%TO.P,C51,2*%
%TO.N,GND*%
X139356000Y-85811000D03*
%TD*%
%TO.P,C37,1*%
%TO.N,Net-(D17-K)*%
X166624000Y-119660500D03*
%TO.P,C37,2*%
%TO.N,Net-(C37-Pad2)*%
X166624000Y-121385500D03*
%TD*%
D38*
%TO.P,D5,1,K*%
%TO.N,VCAP*%
X189230000Y-122768000D03*
%TO.P,D5,2,A*%
%TO.N,Net-(D5-A)*%
X189230000Y-124968000D03*
%TD*%
D39*
%TO.P,R31,1*%
%TO.N,Net-(D12-A)*%
X162814000Y-96670500D03*
%TO.P,R31,2*%
%TO.N,Net-(U9B--)*%
X162814000Y-94845500D03*
%TD*%
D24*
%TO.P,TP2,1,1*%
%TO.N,SDA*%
X130810000Y-60325000D03*
%TD*%
%TO.P,TP7,1,1*%
%TO.N,Net-(D5-A)*%
X194310000Y-122428000D03*
%TD*%
D30*
%TO.P,C52,1*%
%TO.N,/Buck Boost Supply/Vout*%
X137451000Y-84086000D03*
%TO.P,C52,2*%
%TO.N,GND*%
X137451000Y-85811000D03*
%TD*%
D56*
%TO.P,D2,1,K*%
%TO.N,VBUS*%
X87125000Y-73660000D03*
%TO.P,D2,2,A*%
%TO.N,Net-(D2-A)*%
X84325000Y-73660000D03*
%TD*%
D24*
%TO.P,TP14,1,1*%
%TO.N,+5V*%
X140335000Y-144145000D03*
%TD*%
%TO.P,TP19,1,1*%
%TO.N,ADC_5A*%
X153670000Y-53340000D03*
%TD*%
D39*
%TO.P,R23,1*%
%TO.N,Net-(D9-A)*%
X99263750Y-124229500D03*
%TO.P,R23,2*%
%TO.N,Net-(U8B--)*%
X99263750Y-122404500D03*
%TD*%
D57*
%TO.P,C8,1*%
%TO.N,VCAP*%
X191780000Y-81915000D03*
%TO.P,C8,2*%
%TO.N,GND*%
X186680000Y-81915000D03*
%TD*%
D32*
%TO.P,C4,1*%
%TO.N,/ESP32/RESET*%
X87567500Y-67945000D03*
%TO.P,C4,2*%
%TO.N,GND*%
X85842500Y-67945000D03*
%TD*%
D57*
%TO.P,C9,1*%
%TO.N,VCAP*%
X191780000Y-74930000D03*
%TO.P,C9,2*%
%TO.N,GND*%
X186680000Y-74930000D03*
%TD*%
D30*
%TO.P,C30,1*%
%TO.N,ADC_5A*%
X161036000Y-94895500D03*
%TO.P,C30,2*%
%TO.N,GND*%
X161036000Y-96620500D03*
%TD*%
D32*
%TO.P,C43,1*%
%TO.N,+5V*%
X133794500Y-88658000D03*
%TO.P,C43,2*%
%TO.N,GND*%
X132069500Y-88658000D03*
%TD*%
D58*
%TO.P,R13,1*%
%TO.N,/GaN FET and Current Sensing/OUTL*%
X182997600Y-129180500D03*
%TO.P,R13,2*%
%TO.N,/GaN FET and Current Sensing/vgate*%
X184997600Y-129180500D03*
%TD*%
D30*
%TO.P,C57,1*%
%TO.N,/Buck Boost Supply/tps_out*%
X150622000Y-78217626D03*
%TO.P,C57,2*%
%TO.N,GND*%
X150622000Y-79942626D03*
%TD*%
D32*
%TO.P,C41,1*%
%TO.N,+5V*%
X133794500Y-85610000D03*
%TO.P,C41,2*%
%TO.N,GND*%
X132069500Y-85610000D03*
%TD*%
D29*
%TO.P,C38,1*%
%TO.N,/Buck Boost Supply/Vcc*%
X138837500Y-75082400D03*
%TO.P,C38,2*%
%TO.N,GND*%
X140562500Y-75082400D03*
%TD*%
D49*
%TO.P,J2,*%
%TO.N,*%
X83185000Y-99060000D03*
X83185000Y-109220000D03*
D50*
%TO.P,J2,1,In*%
%TO.N,/GaN FET and Current Sensing/sig_ext*%
X88265000Y-104140000D03*
%TO.P,J2,2,Ext*%
%TO.N,GND*%
X88265000Y-106680000D03*
%TD*%
D24*
%TO.P,TP8,1,1*%
%TO.N,SENSE_1A*%
X147955000Y-60325000D03*
%TD*%
D51*
%TO.P,C10,1*%
%TO.N,VCAP*%
X194808000Y-74930000D03*
%TO.P,C10,2*%
%TO.N,GND*%
X199908000Y-74930000D03*
%TD*%
D30*
%TO.P,C25,1*%
%TO.N,ADC_1A*%
X166844000Y-83465500D03*
%TO.P,C25,2*%
%TO.N,GND*%
X166844000Y-85190500D03*
%TD*%
D27*
%TO.P,R28,1*%
%TO.N,Net-(D11-K)*%
X104724750Y-126087500D03*
%TO.P,R28,2*%
%TO.N,GND*%
X104724750Y-127912500D03*
%TD*%
D30*
%TO.P,C26,1*%
%TO.N,OPT_IN_ADC*%
X97358750Y-122454500D03*
%TO.P,C26,2*%
%TO.N,GND*%
X97358750Y-124179500D03*
%TD*%
D47*
%TO.P,C44,1*%
%TO.N,+5V*%
X135687500Y-88277000D03*
%TO.P,C44,2*%
%TO.N,GND*%
X138812500Y-88277000D03*
%TD*%
D59*
%TO.P,L1,1,1*%
%TO.N,/Buck Boost Supply/SW1*%
X131996000Y-69989000D03*
%TO.P,L1,2,2*%
%TO.N,/Buck Boost Supply/SW2*%
X136816000Y-69989000D03*
%TD*%
D53*
%TO.P,D14,1,A*%
%TO.N,Net-(D14-A)*%
X173035000Y-103408000D03*
%TO.P,D14,2,NC*%
%TO.N,unconnected-(D14-NC-Pad2)*%
X171135000Y-103408000D03*
%TO.P,D14,3,K*%
%TO.N,Net-(D14-K)*%
X172085000Y-105283000D03*
%TD*%
D30*
%TO.P,C17,1*%
%TO.N,Net-(U5-VDD)*%
X177546000Y-126640500D03*
%TO.P,C17,2*%
%TO.N,GND*%
X177546000Y-128365500D03*
%TD*%
D39*
%TO.P,R40,1*%
%TO.N,Net-(C34-Pad2)*%
X165100000Y-110338000D03*
%TO.P,R40,2*%
%TO.N,GND*%
X165100000Y-108513000D03*
%TD*%
D35*
%TO.P,R24,1*%
%TO.N,Net-(U7B--)*%
X168599000Y-81844000D03*
%TO.P,R24,2*%
%TO.N,ADC_1A*%
X166774000Y-81844000D03*
%TD*%
D24*
%TO.P,TP3,1,1*%
%TO.N,VCAP_EXT*%
X172720000Y-71120000D03*
%TD*%
D60*
%TO.P,TP23,1,1*%
%TO.N,/Buck Boost Supply/tps_out*%
X155956000Y-65024000D03*
%TD*%
D24*
%TO.P,TP5,1,1*%
%TO.N,/GaN FET and Current Sensing/sense_out*%
X194310000Y-111973000D03*
%TD*%
D37*
%TO.P,R17,1*%
%TO.N,Net-(U4B--)*%
X189460000Y-104241000D03*
%TO.P,R17,2*%
%TO.N,Net-(U4C--)*%
X189460000Y-107341000D03*
%TD*%
D24*
%TO.P,TP4,1,1*%
%TO.N,GND*%
X184150000Y-53340000D03*
%TD*%
D61*
%TO.P,Q2,1*%
%TO.N,Net-(Q2-Pad1)*%
X93677500Y-63820000D03*
%TO.P,Q2,2*%
%TO.N,/ESP32/RTS*%
X93677500Y-65720000D03*
%TO.P,Q2,3*%
%TO.N,/ESP32/RESET*%
X95552500Y-64770000D03*
%TD*%
D24*
%TO.P,TP20,1,1*%
%TO.N,ADC_10A*%
X163830000Y-53340000D03*
%TD*%
D28*
%TO.P,D11,1,A*%
%TO.N,Net-(D11-A)*%
X108456250Y-126807000D03*
%TO.P,D11,2,NC*%
%TO.N,unconnected-(D11-NC-Pad2)*%
X108456250Y-124907000D03*
%TO.P,D11,3,K*%
%TO.N,Net-(D11-K)*%
X106581250Y-125857000D03*
%TD*%
D62*
%TO.P,C46,1*%
%TO.N,/Buck Boost Supply/SW1*%
X133573500Y-74815000D03*
%TO.P,C46,2*%
%TO.N,/Buck Boost Supply/BOOT1*%
X132438500Y-74815000D03*
%TD*%
D30*
%TO.P,C5,1*%
%TO.N,+3V3*%
X88265000Y-76607500D03*
%TO.P,C5,2*%
%TO.N,GND*%
X88265000Y-78332500D03*
%TD*%
D58*
%TO.P,R12,1*%
%TO.N,/GaN FET and Current Sensing/OUTH*%
X182997600Y-127228600D03*
%TO.P,R12,2*%
%TO.N,/GaN FET and Current Sensing/vgate*%
X184997600Y-127228600D03*
%TD*%
D31*
%TO.P,R10,1*%
%TO.N,VCAP*%
X190030000Y-90183000D03*
%TO.P,R10,2*%
%TO.N,Net-(U4A--)*%
X190030000Y-94983000D03*
%TD*%
D52*
%TO.P,C47,1*%
%TO.N,/Buck Boost Supply/COMP*%
X138848000Y-78371000D03*
%TO.P,C47,2*%
%TO.N,GND*%
X139983000Y-78371000D03*
%TD*%
D63*
%TO.P,U6,1,GND*%
%TO.N,GND*%
X168320000Y-129643000D03*
D64*
%TO.P,U6,2,VI*%
%TO.N,VIN*%
X168232500Y-128143000D03*
D63*
%TO.P,U6,3,VO*%
%TO.N,/GaN FET and Current Sensing/vout_5v*%
X168320000Y-126643000D03*
%TD*%
D30*
%TO.P,C6,1*%
%TO.N,+3V3*%
X89916000Y-76607500D03*
%TO.P,C6,2*%
%TO.N,GND*%
X89916000Y-78332500D03*
%TD*%
D24*
%TO.P,TP12,1,1*%
%TO.N,SENSE_10A*%
X168275000Y-60325000D03*
%TD*%
D35*
%TO.P,R48,1*%
%TO.N,Net-(U12-FSW)*%
X130362500Y-79641000D03*
%TO.P,R48,2*%
%TO.N,GND*%
X128537500Y-79641000D03*
%TD*%
D30*
%TO.P,C28,1*%
%TO.N,Net-(D11-K)*%
X102946750Y-126137500D03*
%TO.P,C28,2*%
%TO.N,Net-(C28-Pad2)*%
X102946750Y-127862500D03*
%TD*%
D24*
%TO.P,TP6,1,1*%
%TO.N,/GaN FET and Current Sensing/vgate*%
X175895000Y-132588000D03*
%TD*%
D28*
%TO.P,D17,1,A*%
%TO.N,Net-(D16-K)*%
X172133500Y-119949000D03*
%TO.P,D17,2,NC*%
%TO.N,unconnected-(D17-NC-Pad2)*%
X172133500Y-118049000D03*
%TO.P,D17,3,K*%
%TO.N,Net-(D17-K)*%
X170258500Y-118999000D03*
%TD*%
D65*
%TO.P,J1,1,VBUS*%
%TO.N,Net-(D2-A)*%
X81410000Y-76170000D03*
%TO.P,J1,2,D-*%
%TO.N,/ESP32/d-*%
X81410000Y-76820000D03*
%TO.P,J1,3,D+*%
%TO.N,/ESP32/d+*%
X81410000Y-77470000D03*
%TO.P,J1,4,ID*%
%TO.N,unconnected-(J1-ID-Pad4)*%
X81410000Y-78120000D03*
%TO.P,J1,5,GND*%
%TO.N,GND*%
X81410000Y-78770000D03*
D66*
%TO.P,J1,6,Shield*%
%TO.N,unconnected-(J1-Shield-Pad6)*%
X78710000Y-73970000D03*
D67*
X78710000Y-74570000D03*
D68*
X81410000Y-74970000D03*
D69*
X78710000Y-76470000D03*
X78710000Y-78470000D03*
D68*
X81410000Y-79970000D03*
D67*
X78710000Y-80370000D03*
D66*
X78710000Y-80970000D03*
%TD*%
D27*
%TO.P,R8,1*%
%TO.N,Net-(U3-TXT{slash}GPIO.0)*%
X97790000Y-78462500D03*
%TO.P,R8,2*%
%TO.N,Net-(D3-K)*%
X97790000Y-80287500D03*
%TD*%
D24*
%TO.P,TP1,1,1*%
%TO.N,SCL*%
X137160000Y-60325000D03*
%TD*%
D35*
%TO.P,R38,1*%
%TO.N,SENSE_10A*%
X169465000Y-101805500D03*
%TO.P,R38,2*%
%TO.N,Net-(U10A-+)*%
X167640000Y-101805500D03*
%TD*%
D27*
%TO.P,R27,1*%
%TO.N,Net-(D10-K)*%
X170573500Y-87225500D03*
%TO.P,R27,2*%
%TO.N,GND*%
X170573500Y-89050500D03*
%TD*%
D29*
%TO.P,C29,1*%
%TO.N,+5V*%
X164872500Y-96393000D03*
%TO.P,C29,2*%
%TO.N,GND*%
X166597500Y-96393000D03*
%TD*%
D70*
%TO.P,JP2,1,A*%
%TO.N,Net-(JP2-A)*%
X151130000Y-138430000D03*
D71*
%TO.P,JP2,2,C*%
%TO.N,+5V*%
X148590000Y-138430000D03*
%TO.P,JP2,3,B*%
%TO.N,VBUS*%
X146050000Y-138430000D03*
%TD*%
D29*
%TO.P,C35,1*%
%TO.N,+5V*%
X164872500Y-117983000D03*
%TO.P,C35,2*%
%TO.N,GND*%
X166597500Y-117983000D03*
%TD*%
D35*
%TO.P,R37,1*%
%TO.N,Net-(U10B--)*%
X162837500Y-103710500D03*
%TO.P,R37,2*%
%TO.N,ADC_10A*%
X161012500Y-103710500D03*
%TD*%
D28*
%TO.P,D10,1,A*%
%TO.N,Net-(D10-A)*%
X177941500Y-87564000D03*
%TO.P,D10,2,NC*%
%TO.N,unconnected-(D10-NC-Pad2)*%
X177941500Y-85664000D03*
%TO.P,D10,3,K*%
%TO.N,Net-(D10-K)*%
X176066500Y-86614000D03*
%TD*%
D35*
%TO.P,R43,1*%
%TO.N,SENSE_20A*%
X169465000Y-112903000D03*
%TO.P,R43,2*%
%TO.N,Net-(U11A-+)*%
X167640000Y-112903000D03*
%TD*%
D53*
%TO.P,D12,1,A*%
%TO.N,Net-(D12-A)*%
X172908000Y-92661500D03*
%TO.P,D12,2,NC*%
%TO.N,unconnected-(D12-NC-Pad2)*%
X171008000Y-92661500D03*
%TO.P,D12,3,K*%
%TO.N,Net-(D12-K)*%
X171958000Y-94536500D03*
%TD*%
D72*
%TO.P,C3,1*%
%TO.N,+3V3*%
X87100500Y-89916000D03*
%TO.P,C3,2*%
%TO.N,GND*%
X89175500Y-89916000D03*
%TD*%
D27*
%TO.P,R39,1*%
%TO.N,Net-(D15-K)*%
X168910000Y-108513000D03*
%TO.P,R39,2*%
%TO.N,GND*%
X168910000Y-110338000D03*
%TD*%
D34*
%TO.P,R49,1*%
%TO.N,Net-(U12-CDC)*%
X138848000Y-77101000D03*
%TO.P,R49,2*%
%TO.N,GND*%
X140673000Y-77101000D03*
%TD*%
D35*
%TO.P,R25,1*%
%TO.N,Net-(U8B--)*%
X99287250Y-120777000D03*
%TO.P,R25,2*%
%TO.N,OPT_IN_ADC*%
X97462250Y-120777000D03*
%TD*%
D39*
%TO.P,R22,1*%
%TO.N,Net-(D8-A)*%
X168622000Y-85240500D03*
%TO.P,R22,2*%
%TO.N,Net-(U7B--)*%
X168622000Y-83415500D03*
%TD*%
%TO.P,R30,1*%
%TO.N,Net-(C28-Pad2)*%
X101168750Y-127912500D03*
%TO.P,R30,2*%
%TO.N,GND*%
X101168750Y-126087500D03*
%TD*%
D24*
%TO.P,TP11,1,1*%
%TO.N,SENSE_5A*%
X158115000Y-60325000D03*
%TD*%
%TO.P,TP10,1,1*%
%TO.N,GND*%
X83185000Y-125730000D03*
%TD*%
D28*
%TO.P,D13,1,A*%
%TO.N,Net-(D12-K)*%
X172212000Y-98359000D03*
%TO.P,D13,2,NC*%
%TO.N,unconnected-(D13-NC-Pad2)*%
X172212000Y-96459000D03*
%TO.P,D13,3,K*%
%TO.N,Net-(D13-K)*%
X170337000Y-97409000D03*
%TD*%
D36*
%TO.P,D1,1,K*%
%TO.N,Net-(D1-K)*%
X82945000Y-88265000D03*
%TO.P,D1,2,A*%
%TO.N,+3V3*%
X84695000Y-88265000D03*
%TD*%
D35*
%TO.P,R26,1*%
%TO.N,SENSE_1A*%
X174949000Y-80574000D03*
%TO.P,R26,2*%
%TO.N,Net-(U7A-+)*%
X173124000Y-80574000D03*
%TD*%
D29*
%TO.P,C24,1*%
%TO.N,+5V*%
X101195250Y-124460000D03*
%TO.P,C24,2*%
%TO.N,GND*%
X102920250Y-124460000D03*
%TD*%
D27*
%TO.P,R44,1*%
%TO.N,Net-(D17-K)*%
X168275000Y-119610500D03*
%TO.P,R44,2*%
%TO.N,GND*%
X168275000Y-121435500D03*
%TD*%
D39*
%TO.P,R45,1*%
%TO.N,Net-(C37-Pad2)*%
X164846000Y-121435500D03*
%TO.P,R45,2*%
%TO.N,GND*%
X164846000Y-119610500D03*
%TD*%
D40*
%TO.P,C22,1*%
%TO.N,/GaN FET and Current Sensing/vout_5v*%
X172466000Y-127635000D03*
%TO.P,C22,2*%
%TO.N,GND*%
X172466000Y-129710000D03*
%TD*%
D34*
%TO.P,R46,1*%
%TO.N,Net-(U12-FB)*%
X140372000Y-81165000D03*
%TO.P,R46,2*%
%TO.N,GND*%
X142197000Y-81165000D03*
%TD*%
D52*
%TO.P,C49,1*%
%TO.N,/Buck Boost Supply/SW2*%
X135486500Y-74815000D03*
%TO.P,C49,2*%
%TO.N,/Buck Boost Supply/BOOT2*%
X136621500Y-74815000D03*
%TD*%
D40*
%TO.P,C1,1*%
%TO.N,VBUS*%
X88646000Y-84052500D03*
%TO.P,C1,2*%
%TO.N,GND*%
X88646000Y-86127500D03*
%TD*%
D32*
%TO.P,C18,1*%
%TO.N,/GaN FET and Current Sensing/vref*%
X181202500Y-124735500D03*
%TO.P,C18,2*%
%TO.N,GND*%
X179477500Y-124735500D03*
%TD*%
D51*
%TO.P,C12,1*%
%TO.N,VCAP*%
X194808000Y-81915000D03*
%TO.P,C12,2*%
%TO.N,GND*%
X199908000Y-81915000D03*
%TD*%
D27*
%TO.P,R34,1*%
%TO.N,Net-(D13-K)*%
X164846000Y-98020500D03*
%TO.P,R34,2*%
%TO.N,GND*%
X164846000Y-99845500D03*
%TD*%
D53*
%TO.P,D8,1,A*%
%TO.N,Net-(D8-A)*%
X178796500Y-81866500D03*
%TO.P,D8,2,NC*%
%TO.N,unconnected-(D8-NC-Pad2)*%
X176896500Y-81866500D03*
%TO.P,D8,3,K*%
%TO.N,Net-(D10-A)*%
X177846500Y-83741500D03*
%TD*%
D47*
%TO.P,C55,1*%
%TO.N,/Buck Boost Supply/Vout*%
X145249500Y-84160126D03*
%TO.P,C55,2*%
%TO.N,GND*%
X148374500Y-84160126D03*
%TD*%
D27*
%TO.P,R9,1*%
%TO.N,Net-(U3-RXT{slash}GPIO.1)*%
X95885000Y-78462500D03*
%TO.P,R9,2*%
%TO.N,Net-(D4-K)*%
X95885000Y-80287500D03*
%TD*%
D31*
%TO.P,R11,1*%
%TO.N,VCAP*%
X186055000Y-90183000D03*
%TO.P,R11,2*%
%TO.N,Net-(U4A--)*%
X186055000Y-94983000D03*
%TD*%
D73*
%TO.P,D4,1,K*%
%TO.N,Net-(D4-K)*%
X95490000Y-82550000D03*
%TO.P,D4,2,A*%
%TO.N,+3V3*%
X93740000Y-82550000D03*
%TD*%
D31*
%TO.P,R16,1*%
%TO.N,Net-(U4A--)*%
X186055000Y-97168000D03*
%TO.P,R16,2*%
%TO.N,Net-(U4B--)*%
X186055000Y-101968000D03*
%TD*%
D34*
%TO.P,R50,1*%
%TO.N,/Buck Boost Supply/ISP*%
X142597500Y-74422000D03*
%TO.P,R50,2*%
%TO.N,/Buck Boost Supply/Vout*%
X144422500Y-74422000D03*
%TD*%
D27*
%TO.P,R2,1*%
%TO.N,/ESP32/RESET*%
X89880000Y-63857500D03*
%TO.P,R2,2*%
%TO.N,+3V3*%
X89880000Y-65682500D03*
%TD*%
D32*
%TO.P,C50,1*%
%TO.N,/Buck Boost Supply/ISN*%
X138530500Y-81280000D03*
%TO.P,C50,2*%
%TO.N,/Buck Boost Supply/ISP*%
X136805500Y-81280000D03*
%TD*%
D53*
%TO.P,D9,1,A*%
%TO.N,Net-(D9-A)*%
X109357750Y-121109500D03*
%TO.P,D9,2,NC*%
%TO.N,unconnected-(D9-NC-Pad2)*%
X107457750Y-121109500D03*
%TO.P,D9,3,K*%
%TO.N,Net-(D11-A)*%
X108407750Y-122984500D03*
%TD*%
D32*
%TO.P,C40,1*%
%TO.N,+5V*%
X133768000Y-84086000D03*
%TO.P,C40,2*%
%TO.N,GND*%
X132043000Y-84086000D03*
%TD*%
D52*
%TO.P,FB2,1*%
%TO.N,+5V*%
X175708500Y-125349000D03*
%TO.P,FB2,2*%
%TO.N,Net-(U5-VDD)*%
X176843500Y-125349000D03*
%TD*%
D30*
%TO.P,C33,1*%
%TO.N,ADC_10A*%
X160655000Y-105388000D03*
%TO.P,C33,2*%
%TO.N,GND*%
X160655000Y-107113000D03*
%TD*%
D35*
%TO.P,R3,1*%
%TO.N,VBUS*%
X86637500Y-82042000D03*
%TO.P,R3,2*%
%TO.N,Net-(U1-EN)*%
X84812500Y-82042000D03*
%TD*%
D30*
%TO.P,C20,1*%
%TO.N,VIN*%
X163322000Y-128042500D03*
%TO.P,C20,2*%
%TO.N,GND*%
X163322000Y-129767500D03*
%TD*%
D25*
%TO.P,C59,1*%
%TO.N,EN{slash}UVLO*%
X126492000Y-77455500D03*
%TO.P,C59,2*%
%TO.N,GND*%
X126492000Y-75730500D03*
%TD*%
%TO.P,C7,1*%
%TO.N,Net-(U3-VPP)*%
X96774000Y-74776500D03*
%TO.P,C7,2*%
%TO.N,GND*%
X96774000Y-73051500D03*
%TD*%
D74*
%TO.P,C58,1*%
%TO.N,/Buck Boost Supply/tps_out*%
X155702000Y-82095126D03*
%TO.P,C58,2*%
%TO.N,GND*%
X155702000Y-87495126D03*
%TD*%
D27*
%TO.P,R14,1*%
%TO.N,/GaN FET and Current Sensing/vgate*%
X186690000Y-128268000D03*
%TO.P,R14,2*%
%TO.N,GND*%
X186690000Y-130093000D03*
%TD*%
%TO.P,R5,1*%
%TO.N,/ESP32/DTR*%
X91440000Y-63857500D03*
%TO.P,R5,2*%
%TO.N,Net-(Q2-Pad1)*%
X91440000Y-65682500D03*
%TD*%
%TO.P,R21,1*%
%TO.N,Net-(JP2-A)*%
X174244000Y-125452500D03*
%TO.P,R21,2*%
%TO.N,/GaN FET and Current Sensing/vout_5v*%
X174244000Y-127277500D03*
%TD*%
D75*
%TO.P,U2,1,GND*%
%TO.N,GND*%
X100570000Y-58586200D03*
%TO.P,U2,2,VDD*%
%TO.N,+3V3*%
X100570000Y-59856200D03*
%TO.P,U2,3,EN*%
%TO.N,/ESP32/RESET*%
X100570000Y-61126200D03*
%TO.P,U2,4,SENSOR_VP*%
%TO.N,ADC_1A*%
X100570000Y-62396200D03*
%TO.P,U2,5,SENSOR_VN*%
%TO.N,ADC_5A*%
X100570000Y-63666200D03*
%TO.P,U2,6,IO34*%
%TO.N,unconnected-(U2-IO34-Pad6)*%
X100570000Y-64936200D03*
%TO.P,U2,7,IO35*%
%TO.N,unconnected-(U2-IO35-Pad7)*%
X100570000Y-66206200D03*
%TO.P,U2,8,IO32*%
%TO.N,ADC_10A*%
X100570000Y-67476200D03*
%TO.P,U2,9,IO33*%
%TO.N,ADC_20A*%
X100570000Y-68746200D03*
%TO.P,U2,10,IO25*%
%TO.N,unconnected-(U2-IO25-Pad10)*%
X100570000Y-70016200D03*
%TO.P,U2,11,IO26*%
%TO.N,unconnected-(U2-IO26-Pad11)*%
X100570000Y-71286200D03*
%TO.P,U2,12,IO27*%
%TO.N,unconnected-(U2-IO27-Pad12)*%
X100570000Y-72556200D03*
%TO.P,U2,13,IO14*%
%TO.N,OPT_IN_ADC*%
X100570000Y-73826200D03*
%TO.P,U2,14,IO12*%
%TO.N,unconnected-(U2-IO12-Pad14)*%
X100570000Y-75096200D03*
D76*
%TO.P,U2,15,GND*%
%TO.N,GND*%
X103610000Y-76346200D03*
%TO.P,U2,16,IO13*%
%TO.N,unconnected-(U2-IO13-Pad16)*%
X104880000Y-76346200D03*
%TO.P,U2,17,SHD/SD2*%
%TO.N,unconnected-(U2-SHD{slash}SD2-Pad17)*%
X106150000Y-76346200D03*
%TO.P,U2,18,SWP/SD3*%
%TO.N,unconnected-(U2-SWP{slash}SD3-Pad18)*%
X107420000Y-76346200D03*
%TO.P,U2,19,SCS/CMD*%
%TO.N,unconnected-(U2-SCS{slash}CMD-Pad19)*%
X108690000Y-76346200D03*
%TO.P,U2,20,SCK/CLK*%
%TO.N,unconnected-(U2-SCK{slash}CLK-Pad20)*%
X109960000Y-76346200D03*
%TO.P,U2,21,SDO/SD0*%
%TO.N,unconnected-(U2-SDO{slash}SD0-Pad21)*%
X111230000Y-76346200D03*
%TO.P,U2,22,SDI/SD1*%
%TO.N,unconnected-(U2-SDI{slash}SD1-Pad22)*%
X112500000Y-76346200D03*
%TO.P,U2,23,IO15*%
%TO.N,unconnected-(U2-IO15-Pad23)*%
X113770000Y-76346200D03*
%TO.P,U2,24,IO2*%
%TO.N,unconnected-(U2-IO2-Pad24)*%
X115040000Y-76346200D03*
D75*
%TO.P,U2,25,IO0*%
%TO.N,/ESP32/GPIO0*%
X118070000Y-75096200D03*
%TO.P,U2,26,IO4*%
%TO.N,EN{slash}UVLO*%
X118070000Y-73826200D03*
%TO.P,U2,27,IO16*%
%TO.N,unconnected-(U2-IO16-Pad27)*%
X118070000Y-72556200D03*
%TO.P,U2,28,IO17*%
%TO.N,unconnected-(U2-IO17-Pad28)*%
X118070000Y-71286200D03*
%TO.P,U2,29,IO5*%
%TO.N,unconnected-(U2-IO5-Pad29)*%
X118070000Y-70016200D03*
%TO.P,U2,30,IO18*%
%TO.N,unconnected-(U2-IO18-Pad30)*%
X118070000Y-68746200D03*
%TO.P,U2,31,IO19*%
%TO.N,unconnected-(U2-IO19-Pad31)*%
X118070000Y-67476200D03*
%TO.P,U2,32,NC*%
%TO.N,unconnected-(U2-NC-Pad32)*%
X118070000Y-66206200D03*
%TO.P,U2,33,IO21*%
%TO.N,PULSE_IN*%
X118070000Y-64936200D03*
%TO.P,U2,34,RXD0/IO3*%
%TO.N,/ESP32/RXD0*%
X118070000Y-63666200D03*
%TO.P,U2,35,TXD0/IO1*%
%TO.N,/ESP32/TXD0*%
X118070000Y-62396200D03*
%TO.P,U2,36,IO22*%
%TO.N,SCL*%
X118070000Y-61126200D03*
%TO.P,U2,37,IO23*%
%TO.N,SDA*%
X118070000Y-59856200D03*
%TO.P,U2,38,GND*%
%TO.N,GND*%
X118070000Y-58586200D03*
D77*
%TO.P,U2,39,GND*%
X106420000Y-67706200D03*
X106420000Y-64906200D03*
D78*
X107820000Y-66306200D03*
D79*
X106420000Y-65606200D03*
D77*
X109220000Y-67706200D03*
D79*
X108520000Y-66306200D03*
D77*
X107820000Y-64906200D03*
D79*
X109220000Y-67006200D03*
D77*
X109220000Y-64906200D03*
D79*
X107120000Y-67706200D03*
X106420000Y-67006200D03*
X107120000Y-66306200D03*
X109220000Y-65606200D03*
X107120000Y-64906200D03*
X107795000Y-65606200D03*
D77*
X106420000Y-66306200D03*
D79*
X108520000Y-64906200D03*
X108520000Y-67706200D03*
D77*
X107820000Y-66306200D03*
X109220000Y-66306200D03*
X107820000Y-67706200D03*
D79*
X107795000Y-67006200D03*
%TD*%
D80*
%TO.P,R52,1*%
%TO.N,/Buck Boost Supply/Vout*%
X145262000Y-77810126D03*
%TO.P,R52,2*%
%TO.N,/Buck Boost Supply/tps_out*%
X148362000Y-77810126D03*
%TD*%
D32*
%TO.P,C39,1*%
%TO.N,Net-(U12-EXTVCC)*%
X130250100Y-75082400D03*
%TO.P,C39,2*%
%TO.N,GND*%
X128525100Y-75082400D03*
%TD*%
D81*
%TO.P,C48,1*%
%TO.N,Net-(C48-Pad1)*%
X143614500Y-79895000D03*
%TO.P,C48,2*%
%TO.N,GND*%
X143614500Y-81030000D03*
%TD*%
D61*
%TO.P,Q1,1*%
%TO.N,Net-(Q1-Pad1)*%
X93677500Y-60010000D03*
%TO.P,Q1,2*%
%TO.N,/ESP32/DTR*%
X93677500Y-61910000D03*
%TO.P,Q1,3*%
%TO.N,/ESP32/GPIO0*%
X95552500Y-60960000D03*
%TD*%
D24*
%TO.P,TP13,1,1*%
%TO.N,SENSE_20A*%
X178435000Y-60325000D03*
%TD*%
D70*
%TO.P,JP1,1,A*%
%TO.N,PULSE_IN*%
X102235000Y-99060000D03*
D71*
%TO.P,JP1,2,C*%
%TO.N,/GaN FET and Current Sensing/in+*%
X99695000Y-99060000D03*
%TO.P,JP1,3,B*%
%TO.N,/GaN FET and Current Sensing/sig_ext*%
X97155000Y-99060000D03*
%TD*%
D34*
%TO.P,R47,1*%
%TO.N,/Buck Boost Supply/COMP*%
X140372000Y-79641000D03*
%TO.P,R47,2*%
%TO.N,Net-(C48-Pad1)*%
X142197000Y-79641000D03*
%TD*%
D82*
%TO.N,GND*%
X190500000Y-131191000D03*
X189484000Y-131191000D03*
X190500000Y-130429000D03*
X188468000Y-131191000D03*
X189484000Y-130429000D03*
D83*
X149860000Y-87630000D03*
X134518400Y-71628000D03*
X134518400Y-72694800D03*
D82*
X105410000Y-120142000D03*
X90170000Y-73660000D03*
X116332000Y-58420000D03*
D83*
X181102000Y-69850000D03*
X201676000Y-72136000D03*
X201676000Y-66040000D03*
X142748000Y-86868000D03*
D82*
X163830000Y-108585000D03*
D83*
X141732000Y-87884000D03*
X201676000Y-73152000D03*
D82*
X166624000Y-116713000D03*
X161036000Y-97917000D03*
D83*
X187198000Y-69850000D03*
X149860000Y-88646000D03*
X141782800Y-77317600D03*
D82*
X89916000Y-79502000D03*
D83*
X201676000Y-71120000D03*
X130556000Y-89408000D03*
X182118000Y-68834000D03*
X140716000Y-87884000D03*
D82*
X186182000Y-131445000D03*
D83*
X130556000Y-85344000D03*
D82*
X167894000Y-96393000D03*
D83*
X130556000Y-83312000D03*
D82*
X104724750Y-129159000D03*
X173448000Y-81788000D03*
D83*
X188214000Y-68834000D03*
X150876000Y-87630000D03*
X187198000Y-70866000D03*
D82*
X188468000Y-130429000D03*
D83*
X201676000Y-78232000D03*
X130556000Y-86360000D03*
X149860000Y-85598000D03*
X189230000Y-70866000D03*
X111506000Y-120142000D03*
X201676000Y-65024000D03*
D82*
X87122000Y-63500000D03*
D83*
X149860000Y-83566000D03*
X201676000Y-79248000D03*
D82*
X173990000Y-129667000D03*
X170180000Y-113919000D03*
D83*
X140716000Y-86868000D03*
X141732000Y-86868000D03*
D82*
X193294000Y-135001000D03*
X170180000Y-110617000D03*
D83*
X201676000Y-62992000D03*
X189230000Y-68834000D03*
X184150000Y-68834000D03*
X126873000Y-74422000D03*
X187198000Y-68834000D03*
X150876000Y-86614000D03*
D82*
X169418000Y-121539000D03*
X174972000Y-89154000D03*
D83*
X130556000Y-88392000D03*
D82*
X104216750Y-124587000D03*
X103632000Y-77978000D03*
D83*
X149860000Y-81534000D03*
X149860000Y-86614000D03*
X201676000Y-74168000D03*
D82*
X163322000Y-131191000D03*
X169926000Y-102997000D03*
D83*
X201676000Y-70104000D03*
X201676000Y-80264000D03*
X188214000Y-69850000D03*
D82*
X163576000Y-119761000D03*
D83*
X201676000Y-76200000D03*
X142748000Y-85852000D03*
X183134000Y-69850000D03*
X148590000Y-88646000D03*
X142748000Y-87884000D03*
X201676000Y-77216000D03*
D82*
X173702000Y-85480500D03*
D83*
X200660000Y-62992000D03*
X185166000Y-68834000D03*
X184150000Y-69850000D03*
X201676000Y-82296000D03*
X150876000Y-85598000D03*
D82*
X167655260Y-92821740D03*
D83*
X140716000Y-85852000D03*
X142900400Y-82397600D03*
X200660000Y-64008000D03*
X130556000Y-84328000D03*
X201676000Y-68072000D03*
D82*
X181625260Y-102758260D03*
D83*
X148844000Y-79756000D03*
X186182000Y-68834000D03*
X201676000Y-75184000D03*
X134518400Y-73761600D03*
D82*
X84836000Y-91440000D03*
D83*
X201676000Y-83312000D03*
D82*
X98044000Y-73152000D03*
X161036000Y-119507000D03*
D83*
X185166000Y-69850000D03*
X201676000Y-67056000D03*
X182118000Y-69850000D03*
D82*
X99898750Y-127508000D03*
D83*
X150876000Y-83566000D03*
X181102000Y-68834000D03*
X188214000Y-70866000D03*
X150876000Y-84582000D03*
D82*
X166844000Y-86360000D03*
X93345000Y-74930000D03*
X169418000Y-99949000D03*
X169384000Y-88900000D03*
D83*
X149860000Y-82550000D03*
X199644000Y-64008000D03*
D82*
X97358750Y-125603000D03*
X82804000Y-78740000D03*
D83*
X128828800Y-73964800D03*
X150876000Y-81534000D03*
X183134000Y-68834000D03*
X150876000Y-88646000D03*
D82*
X88138000Y-79502000D03*
D83*
X140501200Y-73876600D03*
X130556000Y-87376000D03*
D82*
X177546000Y-129667000D03*
D83*
X201676000Y-84328000D03*
X189230000Y-69850000D03*
X186182000Y-69850000D03*
X149860000Y-84582000D03*
D82*
X163576000Y-99949000D03*
D83*
X186182000Y-70866000D03*
X199644000Y-62992000D03*
X201676000Y-81280000D03*
D82*
X160528000Y-108331000D03*
X177038000Y-100457000D03*
D83*
X201676000Y-69088000D03*
D82*
X167894000Y-106807000D03*
D83*
X201676000Y-64008000D03*
X150876000Y-82550000D03*
X141732000Y-85852000D03*
D82*
X99060000Y-58420000D03*
X85598000Y-85344000D03*
X90424000Y-89916000D03*
X92456000Y-74930000D03*
X94234000Y-74930000D03*
X178054000Y-124079000D03*
D83*
X142240000Y-78333600D03*
D82*
%TO.N,+3V3*%
X85624500Y-86614000D03*
X99060000Y-59690000D03*
X88138000Y-75304900D03*
X89916000Y-66802000D03*
X92710000Y-82042000D03*
X175768000Y-94869000D03*
X91948000Y-77978000D03*
D83*
X124206000Y-62230000D03*
X124206000Y-59055000D03*
D82*
X101092000Y-81788000D03*
%TO.N,+5V*%
X163322000Y-98171000D03*
D83*
X142240000Y-93980000D03*
X142240000Y-95504000D03*
X143510000Y-98044000D03*
X140970000Y-92456000D03*
X142240000Y-89916000D03*
X140970000Y-98044000D03*
X143510000Y-95504000D03*
D82*
X172178000Y-84074000D03*
D83*
X143510000Y-96774000D03*
D82*
X164084000Y-117221000D03*
D83*
X140970000Y-91186000D03*
D82*
X166370000Y-94615000D03*
D83*
X142240000Y-92456000D03*
X140970000Y-96774000D03*
X143510000Y-91186000D03*
X143510000Y-92456000D03*
X143510000Y-89916000D03*
D82*
X172820497Y-123978503D03*
X163830000Y-106045000D03*
D83*
X143510000Y-93980000D03*
X142240000Y-91186000D03*
X142240000Y-98044000D03*
X140970000Y-89916000D03*
X142240000Y-96774000D03*
%TO.N,VIN*%
X127000000Y-137370100D03*
D82*
%TO.N,Net-(D13-K)*%
X166339552Y-93690343D03*
X168910000Y-96393000D03*
%TO.N,ADC_1A*%
X116078000Y-67564000D03*
D83*
X165862000Y-81280000D03*
D82*
%TO.N,ADC_5A*%
X116332000Y-71628000D03*
D83*
X144780000Y-69342000D03*
X164338000Y-78486000D03*
X152400000Y-66548000D03*
%TO.N,ADC_10A*%
X114554000Y-74422000D03*
X161798000Y-102108000D03*
%TO.N,ADC_20A*%
X116586000Y-66548000D03*
X141732000Y-58420000D03*
X175768000Y-103886000D03*
D82*
X102616000Y-68834000D03*
D83*
X113538000Y-70358000D03*
%TO.N,/Buck Boost Supply/Vcc*%
X130973995Y-76664105D03*
X138480800Y-73812400D03*
D82*
%TO.N,Net-(D8-A)*%
X168622000Y-86360000D03*
X178782000Y-80518000D03*
%TO.N,Net-(D9-A)*%
X110058750Y-122809000D03*
X98882750Y-125603000D03*
%TO.N,/ESP32/RTS*%
X93726000Y-66802000D03*
X89916000Y-62230000D03*
X94488000Y-69342000D03*
X93667911Y-64965911D03*
%TO.N,/ESP32/DTR*%
X96774000Y-62230000D03*
X90932000Y-69850000D03*
D83*
%TO.N,/Buck Boost Supply/ISN*%
X138430000Y-80137000D03*
X146431000Y-75692000D03*
%TO.N,/Buck Boost Supply/ISP*%
X142494000Y-75946000D03*
X137160000Y-82550000D03*
%TO.N,SENSE_1A*%
X183134000Y-97028000D03*
X166116000Y-79502000D03*
X180594000Y-80518000D03*
%TO.N,SENSE_5A*%
X165608000Y-78486000D03*
D82*
X166624000Y-92837000D03*
X178816000Y-101219000D03*
D83*
%TO.N,SENSE_10A*%
X176276000Y-74676000D03*
D82*
%TO.N,SENSE_20A*%
X178054000Y-106807000D03*
D83*
X183134000Y-103124000D03*
X180383900Y-67467929D03*
D82*
X184404000Y-105283000D03*
D83*
X180594000Y-96266000D03*
D82*
%TO.N,Net-(D14-A)*%
X166878000Y-103505000D03*
X163576000Y-107315000D03*
D83*
%TO.N,Net-(JP2-A)*%
X172847000Y-125603000D03*
%TO.N,SCL*%
X129413000Y-77680100D03*
X124968000Y-75438000D03*
%TO.N,SDA*%
X130683000Y-78166100D03*
X124206000Y-73406000D03*
X122174000Y-61214000D03*
X122682000Y-64262000D03*
D82*
%TO.N,/ESP32/TXD0*%
X93918500Y-71628000D03*
X108484503Y-73633497D03*
X102362000Y-72390000D03*
X113030000Y-66548000D03*
X114808000Y-64770000D03*
X109220000Y-70104000D03*
%TO.N,/ESP32/RXD0*%
X115570000Y-65532000D03*
X111566161Y-69148161D03*
X97790000Y-68580000D03*
X114046000Y-67310000D03*
D83*
%TO.N,Net-(U4A--)*%
X186055000Y-99568000D03*
X182245000Y-100838000D03*
D82*
%TO.N,Net-(U4C--)*%
X179832000Y-107061000D03*
X183134000Y-107315000D03*
D83*
%TO.N,Net-(J3-In)*%
X113284000Y-132588000D03*
X111252000Y-134620000D03*
D82*
%TO.N,/ESP32/GPIO0*%
X97536000Y-60706000D03*
X116332000Y-74422000D03*
D83*
%TO.N,EN{slash}UVLO*%
X127633550Y-76731950D03*
X119336100Y-73914000D03*
X129794000Y-76708000D03*
X122174000Y-73914000D03*
%TO.N,OPT_IN_ADC*%
X94996000Y-100076000D03*
X95250000Y-96266000D03*
D82*
%TO.N,Net-(D16-A)*%
X170688000Y-115697000D03*
X162560000Y-119507000D03*
D83*
%TO.N,VBUS*%
X91821000Y-89281000D03*
D82*
%TO.N,VCAP*%
X192786000Y-90043000D03*
X189738000Y-117729000D03*
%TO.N,/ESP32/d-*%
X89243309Y-75417914D03*
X83372436Y-76853153D03*
%TO.N,/ESP32/d+*%
X86106000Y-75438000D03*
X89662000Y-74676000D03*
%TO.N,/GaN FET and Current Sensing/in+*%
X179324000Y-129413000D03*
%TD*%
D84*
%TO.N,Net-(U12-EXTVCC)*%
X132350000Y-75901500D02*
X132350000Y-76095000D01*
X131530900Y-75082400D02*
X132350000Y-75901500D01*
X130250100Y-75082400D02*
X131530900Y-75082400D01*
%TO.N,Net-(U12-FSW)*%
X132588000Y-79641000D02*
X132850000Y-79379000D01*
X132850000Y-79379000D02*
X132850000Y-78870000D01*
X130362500Y-79641000D02*
X132588000Y-79641000D01*
%TO.N,EN{slash}UVLO*%
X125334500Y-77455500D02*
X122428000Y-74549000D01*
X122428000Y-74549000D02*
X122428000Y-74168000D01*
X126910000Y-77455500D02*
X125334500Y-77455500D01*
X127633550Y-76731950D02*
X126910000Y-77455500D01*
D85*
%TO.N,PULSE_IN*%
X102235000Y-96901000D02*
X102235000Y-99060000D01*
X118820000Y-64800000D02*
X120142000Y-66122000D01*
X120142000Y-78994000D02*
X102235000Y-96901000D01*
X118070000Y-64800000D02*
X118820000Y-64800000D01*
X120142000Y-66122000D02*
X120142000Y-78994000D01*
%TO.N,Net-(J3-In)*%
X115443000Y-144145000D02*
X117475000Y-144145000D01*
X109220000Y-137922000D02*
X115443000Y-144145000D01*
D86*
%TO.N,Net-(U7A-+)*%
X172212000Y-80574000D02*
X173124000Y-80574000D01*
X171958000Y-80828000D02*
X172212000Y-80574000D01*
X173213000Y-82789000D02*
X171958000Y-81534000D01*
X171958000Y-81534000D02*
X171958000Y-80828000D01*
X174879000Y-82789000D02*
X173213000Y-82789000D01*
D85*
%TO.N,SENSE_10A*%
X181400400Y-79800400D02*
X176276000Y-74676000D01*
X181400400Y-85807600D02*
X181400400Y-79800400D01*
X170289870Y-101805500D02*
X174378600Y-97716770D01*
X174378600Y-97716770D02*
X174378600Y-92829400D01*
X174378600Y-92829400D02*
X181400400Y-85807600D01*
X169465000Y-101805500D02*
X170289870Y-101805500D01*
D87*
%TO.N,VCAP*%
X156210000Y-94742000D02*
X162560000Y-88392000D01*
X156210000Y-103458499D02*
X156210000Y-94742000D01*
X142320499Y-117348000D02*
X156210000Y-103458499D01*
X162560000Y-88392000D02*
X162560000Y-71120000D01*
X140320499Y-117348000D02*
X142320499Y-117348000D01*
D85*
%TO.N,GND*%
X104724750Y-127912500D02*
X104724750Y-129159000D01*
X168148000Y-99845500D02*
X169314500Y-99845500D01*
X177165000Y-100330000D02*
X177038000Y-100457000D01*
D86*
X172359000Y-85654000D02*
X172532500Y-85480500D01*
D85*
X99090000Y-58450000D02*
X99060000Y-58420000D01*
X177546000Y-128365500D02*
X177546000Y-129667000D01*
X88265000Y-79375000D02*
X88138000Y-79502000D01*
X88746500Y-89487000D02*
X89175500Y-89916000D01*
D84*
X167711520Y-92878000D02*
X167655260Y-92821740D01*
D85*
X163322000Y-129767500D02*
X168195500Y-129767500D01*
X86195000Y-66185000D02*
X87087000Y-65293000D01*
X164846000Y-99845500D02*
X163679500Y-99845500D01*
D84*
X128066800Y-74624100D02*
X127075100Y-74624100D01*
D85*
X142332000Y-81030000D02*
X142197000Y-81165000D01*
D84*
X140320100Y-76149200D02*
X140472500Y-75996800D01*
D85*
X163679500Y-99845500D02*
X163576000Y-99949000D01*
D84*
X141782800Y-77317600D02*
X140889600Y-77317600D01*
D85*
X161036000Y-96620500D02*
X161036000Y-97917000D01*
D86*
X82774000Y-78770000D02*
X82804000Y-78740000D01*
D84*
X85725000Y-85217000D02*
X85598000Y-85344000D01*
D85*
X88746500Y-88138000D02*
X88746500Y-89487000D01*
X163322000Y-129767500D02*
X163322000Y-131191000D01*
X103610000Y-77956000D02*
X103632000Y-77978000D01*
X177165000Y-99160500D02*
X177165000Y-100330000D01*
D86*
X173799000Y-82139000D02*
X173448000Y-81788000D01*
D84*
X126910000Y-75730500D02*
X126910000Y-74459000D01*
D86*
X169117500Y-103370500D02*
X169552500Y-103370500D01*
D84*
X169117500Y-92878000D02*
X167711520Y-92878000D01*
D85*
X168320000Y-129643000D02*
X170367000Y-129643000D01*
X177165000Y-99160500D02*
X175260000Y-99160500D01*
X128537500Y-79641000D02*
X128537500Y-75094800D01*
D84*
X169901000Y-110338000D02*
X170180000Y-110617000D01*
X166597500Y-116739500D02*
X166624000Y-116713000D01*
D85*
X87087000Y-63535000D02*
X87122000Y-63500000D01*
X170434000Y-129710000D02*
X172466000Y-129710000D01*
D84*
X136790000Y-76720000D02*
X137859200Y-76720000D01*
D86*
X173875500Y-89050500D02*
X174868500Y-89050500D01*
D84*
X128525100Y-75082400D02*
X128525100Y-74268500D01*
D86*
X166844000Y-85190500D02*
X166844000Y-86360000D01*
D84*
X85725000Y-83952500D02*
X85725000Y-85217000D01*
X168910000Y-110338000D02*
X169901000Y-110338000D01*
D85*
X96774000Y-73051500D02*
X97943500Y-73051500D01*
D84*
X178636000Y-127275500D02*
X177546000Y-128365500D01*
D86*
X174868500Y-89050500D02*
X174972000Y-89154000D01*
D84*
X179320000Y-127275500D02*
X180340000Y-127275500D01*
X90690000Y-74180000D02*
X91407500Y-74180000D01*
D85*
X162893000Y-130196500D02*
X163322000Y-129767500D01*
X102920250Y-124460000D02*
X104089750Y-124460000D01*
X87087000Y-65293000D02*
X87087000Y-63535000D01*
D86*
X180975000Y-103408520D02*
X181625260Y-102758260D01*
X174879000Y-82139000D02*
X173799000Y-82139000D01*
D84*
X160655000Y-108204000D02*
X160528000Y-108331000D01*
D85*
X89175500Y-89916000D02*
X90424000Y-89916000D01*
X99898750Y-127357500D02*
X101168750Y-126087500D01*
X104089750Y-124460000D02*
X104216750Y-124587000D01*
X143614500Y-81030000D02*
X142332000Y-81030000D01*
X166597500Y-96393000D02*
X167894000Y-96393000D01*
X179477500Y-124735500D02*
X178710500Y-124735500D01*
D84*
X142202600Y-78371000D02*
X139983000Y-78371000D01*
D85*
X89916000Y-78332500D02*
X89916000Y-79502000D01*
D84*
X169631000Y-114468000D02*
X170180000Y-113919000D01*
D85*
X173947000Y-129710000D02*
X173990000Y-129667000D01*
X142197000Y-81694200D02*
X142900400Y-82397600D01*
X142197000Y-81165000D02*
X142197000Y-81694200D01*
D84*
X138430000Y-76149200D02*
X140320100Y-76149200D01*
D85*
X128537500Y-75094800D02*
X128525100Y-75082400D01*
X97358750Y-124179500D02*
X97358750Y-125603000D01*
D86*
X180975000Y-104970500D02*
X180975000Y-103408520D01*
D85*
X140562500Y-75082400D02*
X140562500Y-73937900D01*
X169314500Y-99845500D02*
X169418000Y-99949000D01*
D84*
X164846000Y-119610500D02*
X163726500Y-119610500D01*
D85*
X118070000Y-58450000D02*
X116362000Y-58450000D01*
D84*
X161036000Y-118337500D02*
X161036000Y-119507000D01*
D85*
X84732500Y-91336500D02*
X84836000Y-91440000D01*
X178710500Y-124735500D02*
X178054000Y-124079000D01*
D84*
X169314500Y-121435500D02*
X169418000Y-121539000D01*
D86*
X170573500Y-89050500D02*
X169534500Y-89050500D01*
D84*
X179320000Y-127275500D02*
X178636000Y-127275500D01*
X128525100Y-74268500D02*
X128828800Y-73964800D01*
D85*
X88646000Y-86127500D02*
X88646000Y-88037500D01*
X116362000Y-58450000D02*
X116332000Y-58420000D01*
D84*
X127075100Y-74624100D02*
X126873000Y-74422000D01*
D85*
X176022000Y-128365500D02*
X177546000Y-128365500D01*
D84*
X160655000Y-107113000D02*
X160655000Y-108204000D01*
D85*
X97943500Y-73051500D02*
X98044000Y-73152000D01*
D84*
X163726500Y-119610500D02*
X163576000Y-119761000D01*
D85*
X88265000Y-78332500D02*
X88265000Y-79375000D01*
D86*
X169552500Y-103370500D02*
X169926000Y-102997000D01*
D85*
X112014000Y-120650000D02*
X111506000Y-120142000D01*
D84*
X165100000Y-108513000D02*
X163902000Y-108513000D01*
D85*
X86195000Y-66185000D02*
X86195000Y-67592500D01*
D86*
X169534500Y-89050500D02*
X169384000Y-88900000D01*
D84*
X163902000Y-108513000D02*
X163830000Y-108585000D01*
X105410000Y-120914750D02*
X105440250Y-120945000D01*
D86*
X186690000Y-130093000D02*
X186690000Y-130937000D01*
D84*
X137859200Y-76720000D02*
X138430000Y-76149200D01*
D86*
X186690000Y-130937000D02*
X186182000Y-131445000D01*
D84*
X168275000Y-121435500D02*
X169314500Y-121435500D01*
X132350000Y-78845000D02*
X129333500Y-78845000D01*
D85*
X168195500Y-129767500D02*
X168320000Y-129643000D01*
X193294000Y-132937000D02*
X193294000Y-135001000D01*
X100570000Y-58450000D02*
X99090000Y-58450000D01*
D84*
X90170000Y-73660000D02*
X90690000Y-74180000D01*
D85*
X103610000Y-76210000D02*
X103610000Y-77956000D01*
X84732500Y-89916000D02*
X84732500Y-91336500D01*
D84*
X166597500Y-106885500D02*
X167815500Y-106885500D01*
X129333500Y-78845000D02*
X128537500Y-79641000D01*
D85*
X99898750Y-127508000D02*
X99898750Y-127357500D01*
D86*
X172532500Y-85480500D02*
X173702000Y-85480500D01*
D84*
X105410000Y-120142000D02*
X105410000Y-120914750D01*
D85*
X140472500Y-75577000D02*
X140472500Y-75996800D01*
X170367000Y-129643000D02*
X170434000Y-129710000D01*
X140472500Y-74432500D02*
X140411200Y-74371200D01*
D84*
X167815500Y-106885500D02*
X167894000Y-106807000D01*
D88*
X131235678Y-94627000D02*
X131750900Y-94627000D01*
D84*
X126910000Y-74459000D02*
X126873000Y-74422000D01*
X128525100Y-75082400D02*
X128066800Y-74624100D01*
X142240000Y-78333600D02*
X142202600Y-78371000D01*
X169117500Y-114468000D02*
X169631000Y-114468000D01*
X140889600Y-77317600D02*
X140673000Y-77101000D01*
D85*
X86195000Y-67592500D02*
X85842500Y-67945000D01*
X88646000Y-88037500D02*
X88746500Y-88138000D01*
X86195000Y-62573000D02*
X87122000Y-63500000D01*
D86*
X81410000Y-78770000D02*
X82774000Y-78770000D01*
D84*
X166597500Y-117983000D02*
X166597500Y-116739500D01*
D85*
X86195000Y-62085000D02*
X86195000Y-62573000D01*
X161544000Y-130196500D02*
X162893000Y-130196500D01*
X172466000Y-129710000D02*
X173947000Y-129710000D01*
X113270000Y-120650000D02*
X112014000Y-120650000D01*
D84*
%TO.N,+3V3*%
X92095000Y-76867500D02*
X92095000Y-77831000D01*
D85*
X122832500Y-62230000D02*
X124206000Y-62230000D01*
X176030000Y-95131000D02*
X175768000Y-94869000D01*
X88138000Y-75304900D02*
X88265000Y-75431900D01*
D84*
X90678000Y-76200000D02*
X90698000Y-76180000D01*
D85*
X86675000Y-86227500D02*
X86011000Y-86227500D01*
X87021500Y-89837000D02*
X87100500Y-89916000D01*
X88265000Y-75431900D02*
X88265000Y-76607500D01*
X93740000Y-82550000D02*
X93218000Y-82550000D01*
X84822000Y-88138000D02*
X84695000Y-88265000D01*
X87021500Y-88138000D02*
X84822000Y-88138000D01*
X87021500Y-88138000D02*
X87021500Y-89837000D01*
X88265000Y-76607500D02*
X89916000Y-76607500D01*
X99090000Y-59720000D02*
X99060000Y-59690000D01*
X89880000Y-66766000D02*
X89916000Y-66802000D01*
X86675000Y-87791500D02*
X87021500Y-88138000D01*
D84*
X90698000Y-76180000D02*
X91407500Y-76180000D01*
D85*
X100330000Y-82550000D02*
X101092000Y-81788000D01*
X93218000Y-82550000D02*
X92710000Y-82042000D01*
X86011000Y-86227500D02*
X85624500Y-86614000D01*
D84*
X91407500Y-75680000D02*
X90843500Y-75680000D01*
D85*
X89880000Y-65682500D02*
X89880000Y-66766000D01*
D84*
X90843500Y-75680000D02*
X89916000Y-76607500D01*
D85*
X86675000Y-86227500D02*
X86675000Y-87791500D01*
D84*
X89916000Y-76607500D02*
X90323500Y-76200000D01*
D85*
X122832500Y-59055000D02*
X124206000Y-59055000D01*
D84*
X92095000Y-77831000D02*
X91948000Y-77978000D01*
D85*
X100570000Y-59720000D02*
X99090000Y-59720000D01*
D84*
X90323500Y-76200000D02*
X90678000Y-76200000D01*
D85*
X99935000Y-82550000D02*
X100330000Y-82550000D01*
X176030000Y-95758000D02*
X176030000Y-95131000D01*
D84*
%TO.N,Net-(U3-VPP)*%
X96677500Y-74680000D02*
X96774000Y-74776500D01*
X95282500Y-74680000D02*
X96677500Y-74680000D01*
D85*
%TO.N,/ESP32/RESET*%
X95250000Y-65072500D02*
X95250000Y-66802000D01*
X87795000Y-62856000D02*
X88796500Y-63857500D01*
X87795000Y-67717500D02*
X87567500Y-67945000D01*
X88796500Y-63857500D02*
X89880000Y-63857500D01*
X95250000Y-66802000D02*
X94107000Y-67945000D01*
X87795000Y-64859000D02*
X88796500Y-63857500D01*
X87795000Y-62085000D02*
X87795000Y-62856000D01*
X87795000Y-66185000D02*
X87795000Y-67717500D01*
X98044000Y-61468000D02*
X98522000Y-60990000D01*
X87795000Y-66185000D02*
X87795000Y-64859000D01*
X95552500Y-64770000D02*
X98044000Y-62278500D01*
X98522000Y-60990000D02*
X100570000Y-60990000D01*
X98044000Y-62278500D02*
X98044000Y-61468000D01*
X95552500Y-64770000D02*
X95250000Y-65072500D01*
X94107000Y-67945000D02*
X87567500Y-67945000D01*
D86*
%TO.N,+5V*%
X170634000Y-84109000D02*
X170654000Y-84089000D01*
D88*
X100330000Y-130556000D02*
X98806000Y-129032000D01*
X109474000Y-130556000D02*
X100330000Y-130556000D01*
X134620000Y-138430000D02*
X117348000Y-138430000D01*
D84*
X164846000Y-117983000D02*
X164084000Y-117221000D01*
D86*
X170654000Y-84089000D02*
X172163000Y-84089000D01*
D88*
X98806000Y-129032000D02*
X98806000Y-127508000D01*
D84*
X164887000Y-116418000D02*
X164084000Y-117221000D01*
X164554500Y-105320500D02*
X163830000Y-106045000D01*
X164892500Y-105320500D02*
X164554500Y-105320500D01*
D85*
X164872500Y-96393000D02*
X163322000Y-97943500D01*
D86*
X172163000Y-84089000D02*
X172178000Y-84074000D01*
D84*
X164872500Y-106885500D02*
X164670500Y-106885500D01*
D88*
X140335000Y-144145000D02*
X134620000Y-138430000D01*
D85*
X98806000Y-127508000D02*
X98806000Y-126849250D01*
D86*
X170634000Y-85654000D02*
X170634000Y-84109000D01*
D85*
X98806000Y-126849250D02*
X101195250Y-124460000D01*
X101195250Y-124460000D02*
X101195250Y-122919000D01*
D88*
X117348000Y-138430000D02*
X109474000Y-130556000D01*
D85*
X163322000Y-97943500D02*
X163322000Y-98171000D01*
X101195250Y-122919000D02*
X101215250Y-122899000D01*
D84*
X164670500Y-106885500D02*
X163830000Y-106045000D01*
D85*
X172820497Y-123978503D02*
X174338003Y-123978503D01*
D84*
X164892500Y-94828000D02*
X166157000Y-94828000D01*
X166157000Y-94828000D02*
X166370000Y-94615000D01*
X164872500Y-117983000D02*
X164846000Y-117983000D01*
D85*
X174338003Y-123978503D02*
X175708500Y-125349000D01*
D84*
X164892500Y-116418000D02*
X164887000Y-116418000D01*
D85*
%TO.N,Net-(U5-VDD)*%
X177546000Y-126640500D02*
X177546000Y-126051500D01*
X177546000Y-126051500D02*
X176843500Y-125349000D01*
X177546000Y-126640500D02*
X179305000Y-126640500D01*
X179305000Y-126640500D02*
X179320000Y-126625500D01*
X176022000Y-126640500D02*
X177546000Y-126640500D01*
D84*
%TO.N,Net-(D17-K)*%
X166624000Y-119660500D02*
X167462000Y-118822500D01*
X165658870Y-114468000D02*
X164892500Y-114468000D01*
D85*
X168886500Y-118999000D02*
X168275000Y-119610500D01*
X170258500Y-118999000D02*
X168886500Y-118999000D01*
X168275000Y-119610500D02*
X166674000Y-119610500D01*
X166674000Y-119610500D02*
X166624000Y-119660500D01*
D84*
X167462000Y-118822500D02*
X167462000Y-116271130D01*
X167462000Y-116271130D02*
X165658870Y-114468000D01*
D85*
%TO.N,VIN*%
X141224000Y-137414000D02*
X141180100Y-137370100D01*
X141986000Y-137414000D02*
X141224000Y-137414000D01*
X161544000Y-128121500D02*
X163243000Y-128121500D01*
X161544000Y-128121500D02*
X151278500Y-128121500D01*
X163243000Y-128121500D02*
X163322000Y-128042500D01*
X151278500Y-128121500D02*
X141986000Y-137414000D01*
X163322000Y-128042500D02*
X168132000Y-128042500D01*
X141180100Y-137370100D02*
X127000000Y-137370100D01*
X168132000Y-128042500D02*
X168232500Y-128143000D01*
D86*
%TO.N,Net-(U4A-VCC)*%
X179946172Y-97435500D02*
X177165000Y-97435500D01*
D85*
X177165000Y-97435500D02*
X177165000Y-95758000D01*
X177165000Y-97435500D02*
X175260000Y-97435500D01*
D86*
X180975000Y-98464328D02*
X179946172Y-97435500D01*
X180975000Y-99245500D02*
X180975000Y-98464328D01*
D84*
%TO.N,Net-(D12-K)*%
X171958000Y-94536500D02*
X171147500Y-95347000D01*
X171666500Y-94828000D02*
X171958000Y-94536500D01*
X171147500Y-96807418D02*
X172212000Y-97871918D01*
X172212000Y-97871918D02*
X172212000Y-98359000D01*
X171147500Y-95347000D02*
X171147500Y-96807418D01*
X169117500Y-94828000D02*
X171666500Y-94828000D01*
D85*
%TO.N,Net-(C27-Pad2)*%
X173875500Y-87303000D02*
X172178000Y-89000500D01*
X173875500Y-87225500D02*
X173875500Y-87303000D01*
D84*
%TO.N,Net-(D13-K)*%
X169926000Y-97109000D02*
X167331500Y-97109000D01*
X168910000Y-96393000D02*
X169210000Y-96393000D01*
X170337000Y-97409000D02*
X170037000Y-97109000D01*
D86*
X166370000Y-98070500D02*
X164896000Y-98070500D01*
D84*
X165705000Y-92878000D02*
X166339552Y-93512552D01*
X170037000Y-97109000D02*
X169926000Y-97109000D01*
X166339552Y-93512552D02*
X166339552Y-93690343D01*
D86*
X164896000Y-98070500D02*
X164846000Y-98020500D01*
D84*
X164892500Y-92878000D02*
X165705000Y-92878000D01*
X169210000Y-96393000D02*
X169926000Y-97109000D01*
X167331500Y-97109000D02*
X166370000Y-98070500D01*
D85*
%TO.N,Net-(C28-Pad2)*%
X102896750Y-127912500D02*
X102946750Y-127862500D01*
X101168750Y-127912500D02*
X102896750Y-127912500D01*
D84*
%TO.N,Net-(D14-K)*%
X172085000Y-105283000D02*
X171785000Y-105583000D01*
X171785000Y-105583000D02*
X171785000Y-107380082D01*
X171785000Y-107380082D02*
X173022500Y-108617582D01*
D86*
X172047500Y-105320500D02*
X172085000Y-105283000D01*
X169117500Y-105320500D02*
X172047500Y-105320500D01*
D84*
X173022500Y-108617582D02*
X173022500Y-109105500D01*
%TO.N,Net-(C31-Pad2)*%
X168145000Y-98020500D02*
X166370000Y-99795500D01*
X168148000Y-98020500D02*
X168145000Y-98020500D01*
%TO.N,Net-(D15-K)*%
X168910000Y-108513000D02*
X168910000Y-106575500D01*
X168910000Y-106575500D02*
X165705000Y-103370500D01*
X171147500Y-108155500D02*
X169267500Y-108155500D01*
X169267500Y-108155500D02*
X168910000Y-108513000D01*
X167055000Y-108513000D02*
X167005000Y-108563000D01*
X168910000Y-108513000D02*
X167055000Y-108513000D01*
X165705000Y-103370500D02*
X164892500Y-103370500D01*
%TO.N,Net-(C34-Pad2)*%
X165150000Y-110288000D02*
X165100000Y-110338000D01*
X167005000Y-110288000D02*
X165150000Y-110288000D01*
D85*
%TO.N,ADC_1A*%
X166426000Y-81844000D02*
X166774000Y-81844000D01*
X116078000Y-67564000D02*
X110774000Y-62260000D01*
X165862000Y-81280000D02*
X166426000Y-81844000D01*
X166774000Y-83395500D02*
X166844000Y-83465500D01*
X166774000Y-81844000D02*
X166774000Y-83395500D01*
X110774000Y-62260000D02*
X100570000Y-62260000D01*
%TO.N,ADC_5A*%
X149606000Y-69342000D02*
X152400000Y-66548000D01*
X164338000Y-89892500D02*
X164338000Y-78486000D01*
X144780000Y-69342000D02*
X149606000Y-69342000D01*
X102616000Y-65532000D02*
X102616000Y-64008000D01*
X108712000Y-71628000D02*
X102616000Y-65532000D01*
X161012500Y-93218000D02*
X164338000Y-89892500D01*
X102616000Y-64008000D02*
X102138000Y-63530000D01*
X102138000Y-63530000D02*
X100570000Y-63530000D01*
D86*
X161036000Y-93241500D02*
X161012500Y-93218000D01*
D85*
X116332000Y-71628000D02*
X108712000Y-71628000D01*
D86*
X161036000Y-94895500D02*
X161036000Y-93241500D01*
D85*
%TO.N,ADC_10A*%
X107696000Y-71882000D02*
X108102400Y-72288400D01*
X102362000Y-67310000D02*
X100600000Y-67310000D01*
X108102400Y-72288400D02*
X112420400Y-72288400D01*
X161012500Y-103710500D02*
X161012500Y-102893500D01*
X112420400Y-72288400D02*
X114554000Y-74422000D01*
X160655000Y-104068000D02*
X161012500Y-103710500D01*
X160655000Y-105388000D02*
X160655000Y-104068000D01*
X161012500Y-102893500D02*
X161798000Y-102108000D01*
X100600000Y-67310000D02*
X100570000Y-67340000D01*
X102362000Y-67310000D02*
X106934000Y-71882000D01*
X106934000Y-71882000D02*
X107696000Y-71882000D01*
%TO.N,ADC_20A*%
X114353712Y-70358000D02*
X116834400Y-67877312D01*
X161139500Y-114808000D02*
X161139500Y-116509000D01*
X116834400Y-67877312D02*
X116834400Y-66796400D01*
X116834400Y-66796400D02*
X116586000Y-66548000D01*
X175768000Y-107884370D02*
X175768000Y-103886000D01*
X164574100Y-111373400D02*
X172278970Y-111373400D01*
X168935400Y-58394600D02*
X173990000Y-53340000D01*
X113538000Y-70358000D02*
X114353712Y-70358000D01*
X161139500Y-114808000D02*
X164574100Y-111373400D01*
X102616000Y-68834000D02*
X100794000Y-68834000D01*
X100794000Y-68834000D02*
X100570000Y-68610000D01*
X172278970Y-111373400D02*
X175768000Y-107884370D01*
X161139500Y-116509000D02*
X161036000Y-116612500D01*
X141732000Y-58420000D02*
X141757400Y-58394600D01*
X141757400Y-58394600D02*
X168935400Y-58394600D01*
%TO.N,Net-(C37-Pad2)*%
X164896000Y-121385500D02*
X164846000Y-121435500D01*
X166624000Y-121385500D02*
X164896000Y-121385500D01*
D84*
%TO.N,/Buck Boost Supply/Vcc*%
X131529890Y-77220000D02*
X130973995Y-76664105D01*
X138480800Y-74725700D02*
X138837500Y-75082400D01*
X131990000Y-77220000D02*
X131529890Y-77220000D01*
X138480800Y-73812400D02*
X138480800Y-74725700D01*
D85*
%TO.N,Net-(D3-K)*%
X97790000Y-80287500D02*
X97790000Y-82155000D01*
X97790000Y-82155000D02*
X98185000Y-82550000D01*
%TO.N,Net-(D4-K)*%
X95885000Y-80287500D02*
X95885000Y-82155000D01*
X95885000Y-82155000D02*
X95490000Y-82550000D01*
D84*
%TO.N,Net-(D8-A)*%
X176736918Y-83439000D02*
X178309418Y-81866500D01*
X174879000Y-83439000D02*
X176736918Y-83439000D01*
D86*
X168622000Y-85240500D02*
X168622000Y-86360000D01*
X178782000Y-80518000D02*
X178782000Y-81852000D01*
D84*
X178309418Y-81866500D02*
X178796500Y-81866500D01*
D86*
X178782000Y-81852000D02*
X178796500Y-81866500D01*
%TO.N,Net-(D12-A)*%
X166911828Y-95527500D02*
X168261328Y-94178000D01*
X163957000Y-95527500D02*
X166911828Y-95527500D01*
X162814000Y-96670500D02*
X163957000Y-95527500D01*
D84*
X170904418Y-94178000D02*
X172420918Y-92661500D01*
X172420918Y-92661500D02*
X172908000Y-92661500D01*
X169117500Y-94178000D02*
X170904418Y-94178000D01*
D86*
X168261328Y-94178000D02*
X169117500Y-94178000D01*
D84*
%TO.N,Net-(D9-A)*%
X108870668Y-121109500D02*
X109357750Y-121109500D01*
D85*
X109357750Y-122108000D02*
X110058750Y-122809000D01*
X98882750Y-125603000D02*
X98882750Y-124610500D01*
D84*
X107735168Y-122245000D02*
X108870668Y-121109500D01*
X105440250Y-122245000D02*
X107735168Y-122245000D01*
D85*
X98882750Y-124610500D02*
X99263750Y-124229500D01*
X109357750Y-121109500D02*
X109357750Y-122108000D01*
D84*
%TO.N,/Buck Boost Supply/SW1*%
X133573500Y-74815000D02*
X133850000Y-75091500D01*
X133573500Y-71566500D02*
X131996000Y-69989000D01*
X133573500Y-74815000D02*
X133573500Y-71566500D01*
X133850000Y-75091500D02*
X133850000Y-77470000D01*
D85*
%TO.N,Net-(D10-A)*%
X177941500Y-87564000D02*
X179133000Y-86372500D01*
X179133000Y-85028000D02*
X177846500Y-83741500D01*
X179133000Y-86372500D02*
X179133000Y-85028000D01*
X177846500Y-83741500D02*
X177495000Y-84093000D01*
X177495000Y-84093000D02*
X174879000Y-84093000D01*
%TO.N,Net-(D10-K)*%
X172128000Y-87225500D02*
X172178000Y-87275500D01*
D86*
X173448000Y-84076828D02*
X173448000Y-84582000D01*
D85*
X172360070Y-87275500D02*
X173351570Y-86284000D01*
D86*
X173448000Y-84582000D02*
X173850726Y-84582000D01*
D85*
X170573500Y-87225500D02*
X172128000Y-87225500D01*
X175736500Y-86284000D02*
X176066500Y-86614000D01*
D86*
X170654000Y-82139000D02*
X171510172Y-82139000D01*
X173850726Y-84582000D02*
X174464000Y-85195274D01*
X171510172Y-82139000D02*
X173448000Y-84076828D01*
D85*
X172178000Y-87275500D02*
X172360070Y-87275500D01*
D86*
X174464000Y-85195274D02*
X174464000Y-86284000D01*
D85*
X173351570Y-86284000D02*
X174464000Y-86284000D01*
X174464000Y-86284000D02*
X175736500Y-86284000D01*
%TO.N,Net-(D11-A)*%
X109647750Y-124224500D02*
X108407750Y-122984500D01*
X109647750Y-125615500D02*
X109647750Y-124224500D01*
X105525750Y-122984500D02*
X105440250Y-122899000D01*
X108456250Y-126807000D02*
X109647750Y-125615500D01*
X108407750Y-122984500D02*
X105525750Y-122984500D01*
D84*
%TO.N,Net-(D11-K)*%
X104902000Y-123952000D02*
X104902000Y-125910250D01*
X103030357Y-120945000D02*
X104140000Y-122054643D01*
X104140000Y-122054643D02*
X104140000Y-123190000D01*
D85*
X104724750Y-126087500D02*
X105740750Y-126087500D01*
D84*
X104140000Y-123190000D02*
X104902000Y-123952000D01*
D85*
X104674750Y-126137500D02*
X104724750Y-126087500D01*
D84*
X104902000Y-125910250D02*
X104724750Y-126087500D01*
D85*
X106350750Y-126087500D02*
X106581250Y-125857000D01*
X105740750Y-126087500D02*
X106350750Y-126087500D01*
X102946750Y-126137500D02*
X104674750Y-126137500D01*
D84*
X101215250Y-120945000D02*
X103030357Y-120945000D01*
D88*
%TO.N,unconnected-(J1-Shield-Pad6)*%
X78710000Y-73970000D02*
X80410000Y-73970000D01*
X78710000Y-80970000D02*
X80410000Y-80970000D01*
X78710000Y-74570000D02*
X78710000Y-76470000D01*
X80410000Y-73970000D02*
X81410000Y-74970000D01*
X78710000Y-76470000D02*
X78710000Y-78470000D01*
X80410000Y-80970000D02*
X81410000Y-79970000D01*
X78710000Y-78470000D02*
X78710000Y-80370000D01*
D84*
%TO.N,/Buck Boost Supply/BOOT1*%
X132438500Y-74815000D02*
X132850000Y-75226500D01*
X132850000Y-75226500D02*
X132850000Y-76070000D01*
D85*
%TO.N,Net-(U1-EN)*%
X84812500Y-82042000D02*
X84812500Y-83915000D01*
X84812500Y-83915000D02*
X84775000Y-83952500D01*
D86*
%TO.N,/Buck Boost Supply/COMP*%
X140372000Y-79641000D02*
X140118000Y-79641000D01*
X138848000Y-78371000D02*
X137907812Y-78371000D01*
X137256812Y-77720000D02*
X136790000Y-77720000D01*
X137907812Y-78371000D02*
X137256812Y-77720000D01*
X140118000Y-79641000D02*
X138848000Y-78371000D01*
D84*
%TO.N,Net-(C48-Pad1)*%
X143614500Y-79895000D02*
X142451000Y-79895000D01*
X142451000Y-79895000D02*
X142197000Y-79641000D01*
D85*
%TO.N,/ESP32/RTS*%
X91082500Y-62230000D02*
X91440000Y-61872500D01*
D84*
X93726000Y-65768500D02*
X93677500Y-65720000D01*
X94595000Y-69449000D02*
X94595000Y-72992500D01*
D85*
X93677500Y-65720000D02*
X93677500Y-64975500D01*
D84*
X93726000Y-66802000D02*
X93726000Y-65768500D01*
X94488000Y-69342000D02*
X94595000Y-69449000D01*
D85*
X89916000Y-62230000D02*
X91082500Y-62230000D01*
X93677500Y-64975500D02*
X93667911Y-64965911D01*
%TO.N,/ESP32/DTR*%
X91440000Y-63857500D02*
X91730000Y-63857500D01*
D86*
X96454000Y-61910000D02*
X96774000Y-62230000D01*
D84*
X90932000Y-69850000D02*
X92202000Y-71120000D01*
X92202000Y-71120000D02*
X92202000Y-72136164D01*
D85*
X91730000Y-63857500D02*
X93677500Y-61910000D01*
D86*
X93677500Y-61910000D02*
X96454000Y-61910000D01*
D84*
X92595000Y-72529164D02*
X92595000Y-72992500D01*
X92202000Y-72136164D02*
X92595000Y-72529164D01*
%TO.N,/Buck Boost Supply/SW2*%
X135486500Y-74815000D02*
X135486500Y-71318500D01*
X134930000Y-75371500D02*
X134930000Y-77470000D01*
X135486500Y-74815000D02*
X134930000Y-75371500D01*
X135486500Y-71318500D02*
X136816000Y-69989000D01*
%TO.N,/Buck Boost Supply/BOOT2*%
X135930000Y-75506500D02*
X135930000Y-76070000D01*
X136621500Y-74815000D02*
X135930000Y-75506500D01*
%TO.N,/Buck Boost Supply/ISN*%
X146431000Y-74502000D02*
X146511000Y-74422000D01*
X138530500Y-81280000D02*
X138530500Y-80237500D01*
X138530500Y-81280000D02*
X136430000Y-79179500D01*
X136430000Y-79179500D02*
X136430000Y-78845000D01*
X138530500Y-80237500D02*
X138430000Y-80137000D01*
X146431000Y-75692000D02*
X146431000Y-74502000D01*
D86*
%TO.N,/GaN FET and Current Sensing/OUTH*%
X181360000Y-127275500D02*
X183150000Y-127275500D01*
%TO.N,/GaN FET and Current Sensing/OUTL*%
X181895000Y-127925500D02*
X183150000Y-129180500D01*
X181360000Y-127925500D02*
X181895000Y-127925500D01*
D84*
%TO.N,/Buck Boost Supply/ISP*%
X136805500Y-81280000D02*
X135930000Y-80404500D01*
X136805500Y-82195500D02*
X137160000Y-82550000D01*
X142494000Y-74525500D02*
X142597500Y-74422000D01*
X142494000Y-75946000D02*
X142494000Y-74525500D01*
X136805500Y-81280000D02*
X136805500Y-82195500D01*
X135930000Y-80404500D02*
X135930000Y-78870000D01*
D85*
%TO.N,Net-(U7B--)*%
X168599000Y-81844000D02*
X168599000Y-83392500D01*
D86*
X170654000Y-82789000D02*
X170654000Y-83439000D01*
X170654000Y-82789000D02*
X169248500Y-82789000D01*
D85*
X168599000Y-83392500D02*
X168622000Y-83415500D01*
D86*
X169248500Y-82789000D02*
X168622000Y-83415500D01*
D85*
%TO.N,/Buck Boost Supply/Vout*%
X135546000Y-81165000D02*
X135546000Y-84086000D01*
D86*
X135292000Y-79895000D02*
X135292000Y-80403000D01*
D85*
X144422500Y-76970626D02*
X145262000Y-77810126D01*
X135292000Y-80911000D02*
X135546000Y-81165000D01*
X144422500Y-74422000D02*
X144422500Y-76970626D01*
X135292000Y-80403000D02*
X135292000Y-80911000D01*
D84*
X135430000Y-79757000D02*
X135292000Y-79895000D01*
X135430000Y-77470000D02*
X135430000Y-79757000D01*
D86*
%TO.N,Net-(U8A-+)*%
X114420000Y-125750000D02*
X110490000Y-121820000D01*
X104284850Y-119997150D02*
X104284850Y-121252100D01*
X104627750Y-121595000D02*
X105440250Y-121595000D01*
X104902000Y-119380000D02*
X104284850Y-119997150D01*
X104284850Y-121252100D02*
X104627750Y-121595000D01*
X109062818Y-119380000D02*
X104902000Y-119380000D01*
X110490000Y-121820000D02*
X110490000Y-120807182D01*
X110490000Y-120807182D02*
X109062818Y-119380000D01*
D85*
%TO.N,SENSE_1A*%
X173877000Y-79502000D02*
X174949000Y-80574000D01*
X182935400Y-97226600D02*
X182935400Y-99245500D01*
X179790000Y-79714000D02*
X180594000Y-80518000D01*
X175809000Y-79714000D02*
X179790000Y-79714000D01*
X174949000Y-80574000D02*
X175809000Y-79714000D01*
X166116000Y-79502000D02*
X173877000Y-79502000D01*
X183134000Y-97028000D02*
X182935400Y-97226600D01*
D84*
%TO.N,Net-(U9A-+)*%
X169187500Y-91313000D02*
X170257000Y-92382500D01*
X170257000Y-93522000D02*
X170251000Y-93528000D01*
X170251000Y-93528000D02*
X169117500Y-93528000D01*
X170257000Y-92382500D02*
X170257000Y-93522000D01*
D85*
%TO.N,SENSE_5A*%
X165055600Y-79038400D02*
X165608000Y-78486000D01*
D86*
X179025000Y-99245500D02*
X179025000Y-101010000D01*
X166624000Y-92837000D02*
X166624000Y-92051500D01*
D85*
X167362500Y-91313000D02*
X166751000Y-91313000D01*
X166751000Y-91313000D02*
X165100000Y-89662000D01*
X165055600Y-89617600D02*
X165055600Y-79038400D01*
D84*
X166727500Y-91948000D02*
X167362500Y-91313000D01*
D86*
X179025000Y-101010000D02*
X178816000Y-101219000D01*
X166624000Y-92051500D02*
X167362500Y-91313000D01*
D85*
X165100000Y-89662000D02*
X165055600Y-89617600D01*
D86*
%TO.N,Net-(U10A-+)*%
X167640000Y-103399172D02*
X168261328Y-104020500D01*
X167640000Y-101805500D02*
X167640000Y-103399172D01*
X168261328Y-104020500D02*
X169117500Y-104020500D01*
%TO.N,SENSE_10A*%
X169465000Y-101805500D02*
X175860000Y-101805500D01*
X175860000Y-101805500D02*
X179025000Y-104970500D01*
D84*
%TO.N,Net-(U11A-+)*%
X167640000Y-112903000D02*
X167640000Y-114453000D01*
X167640000Y-114453000D02*
X168305000Y-115118000D01*
X168305000Y-115118000D02*
X169117500Y-115118000D01*
D85*
%TO.N,SENSE_20A*%
X180383900Y-67467929D02*
X180086000Y-67765829D01*
X171958000Y-112903000D02*
X178054000Y-106807000D01*
X184404000Y-105283000D02*
X183237500Y-105283000D01*
X180594000Y-87547946D02*
X180594000Y-96266000D01*
X180086000Y-70176372D02*
X182060800Y-72151172D01*
X182060800Y-86081146D02*
X180594000Y-87547946D01*
X180086000Y-67765829D02*
X180086000Y-70176372D01*
X182060800Y-72151172D02*
X182060800Y-86081146D01*
X182929000Y-104974500D02*
X182929000Y-104970500D01*
X169465000Y-112903000D02*
X171958000Y-112903000D01*
X183237500Y-105283000D02*
X182929000Y-104974500D01*
X182925000Y-104970500D02*
X182925000Y-103333000D01*
X182925000Y-103333000D02*
X183134000Y-103124000D01*
D84*
%TO.N,Net-(U8B--)*%
X99423250Y-122245000D02*
X99263750Y-122404500D01*
X101215250Y-122245000D02*
X99423250Y-122245000D01*
X100105250Y-121595000D02*
X99287250Y-120777000D01*
X101215250Y-121595000D02*
X100105250Y-121595000D01*
X101215250Y-121595000D02*
X101215250Y-122245000D01*
%TO.N,Net-(U9B--)*%
X164892500Y-93528000D02*
X164892500Y-94178000D01*
X164892500Y-93528000D02*
X163147500Y-93528000D01*
X163147500Y-93528000D02*
X162837500Y-93218000D01*
D86*
X162837500Y-93218000D02*
X162837500Y-94822000D01*
X162837500Y-94822000D02*
X162814000Y-94845500D01*
D85*
%TO.N,Net-(U10B--)*%
X162837500Y-105060500D02*
X162560000Y-105338000D01*
D84*
X164892500Y-104020500D02*
X164892500Y-104670500D01*
X162837500Y-103710500D02*
X163147500Y-104020500D01*
D85*
X162837500Y-103710500D02*
X162837500Y-105060500D01*
D84*
X163147500Y-104020500D02*
X164892500Y-104020500D01*
%TO.N,Net-(U11B--)*%
X164892500Y-115118000D02*
X164892500Y-115768000D01*
X164892500Y-115118000D02*
X163274500Y-115118000D01*
D85*
X162964500Y-116412000D02*
X162814000Y-116562500D01*
X162964500Y-114808000D02*
X162964500Y-116412000D01*
D84*
X163274500Y-115118000D02*
X162964500Y-114808000D01*
D85*
%TO.N,Net-(D1-K)*%
X82945000Y-89878500D02*
X82907500Y-89916000D01*
X82945000Y-88265000D02*
X82945000Y-89878500D01*
D86*
%TO.N,Net-(D2-A)*%
X83088000Y-76170000D02*
X84325000Y-74933000D01*
X84325000Y-74933000D02*
X84325000Y-73660000D01*
X81410000Y-76170000D02*
X83088000Y-76170000D01*
D84*
%TO.N,Net-(D14-A)*%
X171434082Y-104521000D02*
X172547082Y-103408000D01*
X169117500Y-104670500D02*
X170030500Y-104670500D01*
X163424000Y-107163000D02*
X163576000Y-107315000D01*
X162560000Y-107163000D02*
X163424000Y-107163000D01*
X172547082Y-103408000D02*
X173035000Y-103408000D01*
X170180000Y-104521000D02*
X171434082Y-104521000D01*
X166878000Y-103505000D02*
X168043500Y-104670500D01*
X170030500Y-104670500D02*
X170180000Y-104521000D01*
X168043500Y-104670500D02*
X169117500Y-104670500D01*
D85*
%TO.N,Net-(JP2-A)*%
X174093500Y-125603000D02*
X174244000Y-125452500D01*
X172847000Y-125603000D02*
X174093500Y-125603000D01*
%TO.N,SCL*%
X134239000Y-63246000D02*
X137160000Y-60325000D01*
D84*
X121007500Y-71477500D02*
X121007500Y-62230000D01*
D85*
X118070000Y-61126200D02*
X119903700Y-61126200D01*
D84*
X131207700Y-77486700D02*
X131441000Y-77720000D01*
X129413000Y-77680100D02*
X129606400Y-77486700D01*
X129606400Y-77486700D02*
X131207700Y-77486700D01*
D85*
X121007500Y-62230000D02*
X121007500Y-62841500D01*
X121412000Y-63246000D02*
X134239000Y-63246000D01*
X121007500Y-62841500D02*
X121412000Y-63246000D01*
D84*
X124968000Y-75438000D02*
X121007500Y-71477500D01*
X131441000Y-77720000D02*
X131990000Y-77720000D01*
D85*
X119903700Y-61126200D02*
X121007500Y-62230000D01*
%TO.N,SDA*%
X120206300Y-59856200D02*
X121007500Y-59055000D01*
D84*
X130683000Y-78166100D02*
X131936100Y-78166100D01*
D85*
X118070000Y-59856200D02*
X120206300Y-59856200D01*
X120206300Y-59856200D02*
X120472050Y-60121950D01*
D84*
X131936100Y-78166100D02*
X131990000Y-78220000D01*
X121564100Y-61214000D02*
X120472050Y-60121950D01*
X124206000Y-73406000D02*
X122682000Y-71882000D01*
X122174000Y-61214000D02*
X121564100Y-61214000D01*
D85*
X120472050Y-60121950D02*
X120675100Y-60325000D01*
D84*
X122682000Y-71882000D02*
X122682000Y-64262000D01*
D85*
X120675100Y-60325000D02*
X130810000Y-60325000D01*
%TO.N,/ESP32/TXD0*%
X117318000Y-62260000D02*
X114808000Y-64770000D01*
X109474000Y-70104000D02*
X109220000Y-70104000D01*
X107749006Y-72898000D02*
X102870000Y-72898000D01*
X109474000Y-70104000D02*
X113030000Y-66548000D01*
X118070000Y-62260000D02*
X117318000Y-62260000D01*
D84*
X94095000Y-71804500D02*
X93918500Y-71628000D01*
X94095000Y-72992500D02*
X94095000Y-71804500D01*
D85*
X102870000Y-72898000D02*
X102362000Y-72390000D01*
X108484503Y-73633497D02*
X107749006Y-72898000D01*
%TO.N,/ESP32/RXD0*%
X118070000Y-63530000D02*
X117497946Y-63530000D01*
X113404322Y-67310000D02*
X111566161Y-69148161D01*
D84*
X93241500Y-71908423D02*
X93241500Y-69631077D01*
D85*
X114046000Y-67310000D02*
X113404322Y-67310000D01*
D84*
X93595000Y-72992500D02*
X93595000Y-72261923D01*
X94546577Y-68326000D02*
X97536000Y-68326000D01*
X93241500Y-69631077D02*
X94546577Y-68326000D01*
D85*
X117497946Y-63530000D02*
X115570000Y-65457946D01*
D84*
X93595000Y-72261923D02*
X93241500Y-71908423D01*
D85*
X115570000Y-65457946D02*
X115570000Y-65532000D01*
D84*
%TO.N,Net-(U3-TXT{slash}GPIO.0)*%
X96508000Y-75680000D02*
X97790000Y-76962000D01*
X95282500Y-75680000D02*
X96508000Y-75680000D01*
X97790000Y-76962000D02*
X97790000Y-78462500D01*
%TO.N,Net-(U3-RXT{slash}GPIO.1)*%
X96012000Y-77724000D02*
X95885000Y-77851000D01*
X95885000Y-77851000D02*
X95885000Y-78462500D01*
X95738000Y-76180000D02*
X96012000Y-76454000D01*
X96012000Y-76454000D02*
X96012000Y-77724000D01*
X95282500Y-76180000D02*
X95738000Y-76180000D01*
D86*
%TO.N,Net-(U4A--)*%
X182275000Y-98464328D02*
X182275000Y-96363000D01*
X186055000Y-99568000D02*
X186055000Y-97168000D01*
X180325000Y-100026672D02*
X180325000Y-99245500D01*
X181136328Y-100838000D02*
X182245000Y-100838000D01*
X180325000Y-100026672D02*
X181136328Y-100838000D01*
X182275000Y-96363000D02*
X183655000Y-94983000D01*
X183655000Y-94983000D02*
X186055000Y-94983000D01*
D85*
X182275000Y-99245500D02*
X182275000Y-98464328D01*
D86*
%TO.N,Net-(U4B--)*%
X180325000Y-104970500D02*
X180325000Y-104189328D01*
X181369000Y-101968000D02*
X186055000Y-101968000D01*
X180325000Y-104189328D02*
X180325000Y-103012000D01*
X180325000Y-103012000D02*
X181369000Y-101968000D01*
X179675000Y-99245500D02*
X179675000Y-103539328D01*
X179675000Y-103539328D02*
X180325000Y-104189328D01*
%TO.N,Net-(U4C--)*%
X179832000Y-107061000D02*
X180315672Y-107061000D01*
X179832000Y-107061000D02*
X179675000Y-106904000D01*
X186690000Y-107341000D02*
X183160000Y-107341000D01*
X183160000Y-107341000D02*
X183134000Y-107315000D01*
X181625000Y-105751672D02*
X181625000Y-104970500D01*
X179675000Y-106904000D02*
X179675000Y-104970500D01*
X180315672Y-107061000D02*
X181625000Y-105751672D01*
D85*
%TO.N,Net-(J3-In)*%
X115570000Y-122936000D02*
X116332000Y-123698000D01*
X111252000Y-134620000D02*
X109220000Y-136652000D01*
X116332000Y-123698000D02*
X116332000Y-129540000D01*
X103505000Y-135255000D02*
X106172000Y-137922000D01*
X106172000Y-137922000D02*
X109220000Y-137922000D01*
X115570000Y-120650000D02*
X115570000Y-122936000D01*
X116332000Y-129540000D02*
X113284000Y-132588000D01*
X109220000Y-136652000D02*
X109220000Y-137922000D01*
%TO.N,/ESP32/GPIO0*%
X116332000Y-74422000D02*
X116870000Y-74960000D01*
X95552500Y-60960000D02*
X97282000Y-60960000D01*
X116870000Y-74960000D02*
X118070000Y-74960000D01*
X97282000Y-60960000D02*
X97536000Y-60706000D01*
D84*
%TO.N,EN{slash}UVLO*%
X129794000Y-76200000D02*
X129794000Y-76708000D01*
D85*
X122428000Y-74168000D02*
X122174000Y-73914000D01*
D84*
X131216000Y-75946000D02*
X130048000Y-75946000D01*
X131990000Y-76720000D02*
X131216000Y-75946000D01*
D85*
X118157800Y-73914000D02*
X118070000Y-73826200D01*
D84*
X130048000Y-75946000D02*
X129794000Y-76200000D01*
D85*
X119336100Y-73914000D02*
X118157800Y-73914000D01*
%TO.N,OPT_IN_ADC*%
X97462250Y-120777000D02*
X97462250Y-122351000D01*
X90805000Y-128143000D02*
X90805000Y-137795000D01*
X102108000Y-89408000D02*
X102108000Y-73914000D01*
X98411400Y-119827850D02*
X98411400Y-103491400D01*
X97462250Y-120777000D02*
X98411400Y-119827850D01*
X101884000Y-73690000D02*
X102108000Y-73914000D01*
X96493500Y-122454500D02*
X90805000Y-128143000D01*
X100570000Y-73690000D02*
X101884000Y-73690000D01*
X95250000Y-96266000D02*
X102108000Y-89408000D01*
X97462250Y-122351000D02*
X97358750Y-122454500D01*
X97358750Y-122454500D02*
X96493500Y-122454500D01*
X98411400Y-103491400D02*
X94996000Y-100076000D01*
D84*
%TO.N,Net-(D16-A)*%
X171307082Y-115697000D02*
X170688000Y-115697000D01*
X162814000Y-118387500D02*
X162814000Y-119253000D01*
X169188500Y-115697000D02*
X169117500Y-115768000D01*
X162814000Y-119253000D02*
X162560000Y-119507000D01*
X170688000Y-115697000D02*
X169188500Y-115697000D01*
X173162000Y-114330000D02*
X172674082Y-114330000D01*
X172674082Y-114330000D02*
X171307082Y-115697000D01*
D85*
%TO.N,Net-(Q1-Pad1)*%
X91477500Y-60010000D02*
X91440000Y-60047500D01*
X93677500Y-60010000D02*
X91477500Y-60010000D01*
%TO.N,Net-(Q2-Pad1)*%
X91440000Y-65682500D02*
X91815000Y-65682500D01*
X91815000Y-65682500D02*
X93677500Y-63820000D01*
%TO.N,Net-(D16-K)*%
X173325000Y-117318000D02*
X172212000Y-116205000D01*
X173325000Y-118757500D02*
X173325000Y-117318000D01*
X172133500Y-119949000D02*
X173325000Y-118757500D01*
D84*
X169117500Y-116418000D02*
X171999000Y-116418000D01*
X171999000Y-116418000D02*
X172212000Y-116205000D01*
%TO.N,VBUS*%
X92710000Y-78486000D02*
X89641500Y-81554500D01*
D85*
X91821000Y-89281000D02*
X91821000Y-88011000D01*
X87125000Y-73660000D02*
X87125000Y-81554500D01*
D84*
X92595000Y-77609000D02*
X92710000Y-77724000D01*
X92595000Y-76867500D02*
X92595000Y-77609000D01*
D85*
X88546000Y-83952500D02*
X88646000Y-84052500D01*
D84*
X89641500Y-81554500D02*
X87125000Y-81554500D01*
D88*
X91037500Y-84052500D02*
X91440000Y-84455000D01*
D85*
X86637500Y-83915000D02*
X86675000Y-83952500D01*
D88*
X91440000Y-84455000D02*
X91440000Y-87630000D01*
D85*
X91821000Y-88011000D02*
X91440000Y-87630000D01*
X86637500Y-82042000D02*
X86637500Y-83915000D01*
D88*
X88646000Y-84052500D02*
X91037500Y-84052500D01*
D85*
X87125000Y-81554500D02*
X86637500Y-82042000D01*
X86675000Y-83952500D02*
X88546000Y-83952500D01*
D84*
X92710000Y-77724000D02*
X92710000Y-78486000D01*
%TO.N,Net-(U12-FB)*%
X138149900Y-78840900D02*
X140372000Y-81063000D01*
X136790000Y-78220000D02*
X137410900Y-78840900D01*
X137410900Y-78840900D02*
X138149900Y-78840900D01*
X140372000Y-81063000D02*
X140372000Y-81165000D01*
%TO.N,Net-(U12-CDC)*%
X138729000Y-77220000D02*
X136790000Y-77220000D01*
X138848000Y-77101000D02*
X138729000Y-77220000D01*
D85*
%TO.N,VCAP*%
X190170000Y-90043000D02*
X190030000Y-90183000D01*
D86*
X181625000Y-92568000D02*
X184010000Y-90183000D01*
D85*
X189230000Y-118237000D02*
X189738000Y-117729000D01*
X189230000Y-122768000D02*
X186690000Y-122768000D01*
X189230000Y-122768000D02*
X189230000Y-118237000D01*
X192786000Y-90043000D02*
X190170000Y-90043000D01*
D86*
X181625000Y-99245500D02*
X181625000Y-92568000D01*
X184010000Y-90183000D02*
X186055000Y-90183000D01*
D85*
%TO.N,/GaN FET and Current Sensing/vref*%
X181360000Y-124893000D02*
X181360000Y-126625500D01*
X181202500Y-124735500D02*
X181360000Y-124893000D01*
%TO.N,/GaN FET and Current Sensing/vout_5v*%
X172466000Y-127635000D02*
X173886500Y-127635000D01*
X172466000Y-127635000D02*
X170434000Y-127635000D01*
X170434000Y-127635000D02*
X169442000Y-126643000D01*
X173886500Y-127635000D02*
X174244000Y-127277500D01*
X169442000Y-126643000D02*
X168320000Y-126643000D01*
D84*
%TO.N,/ESP32/d-*%
X89922707Y-75305400D02*
X90048107Y-75180000D01*
X90048107Y-75180000D02*
X91407500Y-75180000D01*
X89378558Y-75282665D02*
X89401293Y-75305400D01*
X83339283Y-76820000D02*
X83372436Y-76853153D01*
X81410000Y-76820000D02*
X83339283Y-76820000D01*
X89243309Y-75417914D02*
X89378558Y-75282665D01*
X89401293Y-75305400D02*
X89922707Y-75305400D01*
%TO.N,/ESP32/d+*%
X81410000Y-77470000D02*
X81470153Y-77530153D01*
X89662000Y-74676000D02*
X91403500Y-74676000D01*
X81470153Y-77530153D02*
X84327500Y-77530153D01*
X86106000Y-75751653D02*
X86106000Y-75438000D01*
X91403500Y-74676000D02*
X91407500Y-74680000D01*
X84328000Y-77529653D02*
X86106000Y-75751653D01*
X84327500Y-77530153D02*
X84328000Y-77529653D01*
D85*
%TO.N,/GaN FET and Current Sensing/in+*%
X179324000Y-127929500D02*
X179320000Y-127925500D01*
X179324000Y-129413000D02*
X179324000Y-127929500D01*
%TO.N,/GaN FET and Current Sensing/vgate*%
X181742500Y-132588000D02*
X175895000Y-132588000D01*
X185150000Y-129180500D02*
X181742500Y-132588000D01*
D86*
%TO.N,/GaN FET and Current Sensing/sense_out*%
X186690000Y-112548000D02*
X182275000Y-108133000D01*
X182275000Y-108133000D02*
X182275000Y-104970500D01*
D85*
%TO.N,/GaN FET and Current Sensing/sig_ext*%
X88265000Y-104140000D02*
X93091000Y-99314000D01*
X85852000Y-106553000D02*
X85852000Y-115443000D01*
X85852000Y-115443000D02*
X83185000Y-118110000D01*
X93091000Y-99314000D02*
X93218000Y-99314000D01*
X93218000Y-99314000D02*
X93472000Y-99060000D01*
X88265000Y-104140000D02*
X85852000Y-106553000D01*
X93472000Y-99060000D02*
X97155000Y-99060000D01*
D88*
%TO.N,/Buck Boost Supply/tps_out*%
X148362000Y-74448000D02*
X148336000Y-74422000D01*
D85*
X155956000Y-65024000D02*
X155956000Y-67691000D01*
X155956000Y-67691000D02*
X159385000Y-71120000D01*
%TD*%
%TA.AperFunction,Conductor*%
%TO.N,VCAP*%
G36*
X195834000Y-88776000D02*
G01*
X195814315Y-88843039D01*
X195761511Y-88888794D01*
X195710000Y-88900000D01*
X191516000Y-88900000D01*
X191516000Y-90808000D01*
X191496315Y-90875039D01*
X191443511Y-90920794D01*
X191392000Y-90932000D01*
X184782000Y-90932000D01*
X184714961Y-90912315D01*
X184669206Y-90859511D01*
X184658000Y-90808000D01*
X184658000Y-85976000D01*
X184677685Y-85908961D01*
X184730489Y-85863206D01*
X184782000Y-85852000D01*
X190754000Y-85852000D01*
X195834000Y-85852000D01*
X195834000Y-88776000D01*
G37*
%TD.AperFunction*%
%TD*%
%TA.AperFunction,Conductor*%
%TO.N,GND*%
G36*
X135075044Y-71063485D02*
G01*
X135120799Y-71116289D01*
X135130743Y-71185447D01*
X135125287Y-71208061D01*
X135108999Y-71255505D01*
X135107698Y-71263305D01*
X135106718Y-71271163D01*
X135109000Y-71326303D01*
X135109000Y-74212980D01*
X135089315Y-74280019D01*
X135041301Y-74323462D01*
X135032683Y-74327853D01*
X135032676Y-74327858D01*
X134941858Y-74418676D01*
X134941855Y-74418680D01*
X134883537Y-74533136D01*
X134868500Y-74628083D01*
X134868500Y-74847771D01*
X134848815Y-74914810D01*
X134832181Y-74935453D01*
X134699843Y-75067790D01*
X134679990Y-75083912D01*
X134670794Y-75089920D01*
X134670789Y-75089925D01*
X134648855Y-75118103D01*
X134643778Y-75123854D01*
X134640956Y-75126677D01*
X134640946Y-75126689D01*
X134627303Y-75145795D01*
X134593406Y-75189346D01*
X134589647Y-75196293D01*
X134586167Y-75203411D01*
X134570419Y-75256306D01*
X134552499Y-75308507D01*
X134551198Y-75316305D01*
X134550218Y-75324163D01*
X134552500Y-75379303D01*
X134552500Y-75805825D01*
X134532815Y-75872864D01*
X134480011Y-75918619D01*
X134442192Y-75929067D01*
X134409249Y-75932727D01*
X134340446Y-75920565D01*
X134289140Y-75873136D01*
X134272803Y-75827022D01*
X134264400Y-75768201D01*
X134229187Y-75556922D01*
X134227500Y-75536537D01*
X134227500Y-75143511D01*
X134230139Y-75118066D01*
X134230177Y-75117882D01*
X134232393Y-75107316D01*
X134229476Y-75083912D01*
X134227977Y-75071884D01*
X134227500Y-75064208D01*
X134227500Y-75060219D01*
X134223635Y-75037058D01*
X134216809Y-74982297D01*
X134216807Y-74982293D01*
X134216807Y-74982291D01*
X134214549Y-74974707D01*
X134211983Y-74967230D01*
X134206444Y-74956995D01*
X134191500Y-74897980D01*
X134191500Y-74628083D01*
X134176462Y-74533136D01*
X134176461Y-74533134D01*
X134176461Y-74533132D01*
X134118146Y-74418682D01*
X134118144Y-74418680D01*
X134118141Y-74418676D01*
X134027323Y-74327858D01*
X134027319Y-74327855D01*
X134027318Y-74327854D01*
X134026920Y-74327651D01*
X134018699Y-74323462D01*
X133967906Y-74275485D01*
X133951000Y-74212980D01*
X133951000Y-71618511D01*
X133953639Y-71593066D01*
X133953677Y-71592882D01*
X133955893Y-71582316D01*
X133953865Y-71566047D01*
X133951477Y-71546881D01*
X133951000Y-71539205D01*
X133951000Y-71535223D01*
X133950999Y-71535215D01*
X133947137Y-71512070D01*
X133945777Y-71501165D01*
X133940310Y-71457297D01*
X133940309Y-71457295D01*
X133940309Y-71457293D01*
X133938062Y-71449746D01*
X133935482Y-71442228D01*
X133909215Y-71393692D01*
X133884974Y-71344107D01*
X133880390Y-71337687D01*
X133875519Y-71331428D01*
X133869952Y-71326303D01*
X133834908Y-71294043D01*
X133812025Y-71271160D01*
X133796346Y-71255480D01*
X133762861Y-71194156D01*
X133767847Y-71124465D01*
X133809719Y-71068532D01*
X133875184Y-71044116D01*
X133884028Y-71043800D01*
X135008005Y-71043800D01*
X135075044Y-71063485D01*
G37*
%TD.AperFunction*%
%TD*%
%TA.AperFunction,Conductor*%
%TO.N,VCAP_EXT*%
G36*
X175203039Y-67583685D02*
G01*
X175248794Y-67636489D01*
X175260000Y-67688000D01*
X175260000Y-74298000D01*
X175240315Y-74365039D01*
X175187511Y-74410794D01*
X175136000Y-74422000D01*
X164970000Y-74422000D01*
X164902961Y-74402315D01*
X164857206Y-74349511D01*
X164846000Y-74298000D01*
X164846000Y-67688000D01*
X164865685Y-67620961D01*
X164918489Y-67575206D01*
X164970000Y-67564000D01*
X175136000Y-67564000D01*
X175203039Y-67583685D01*
G37*
%TD.AperFunction*%
%TD*%
%TA.AperFunction,Conductor*%
%TO.N,/Buck Boost Supply/Vcc*%
G36*
X139185839Y-74441685D02*
G01*
X139231594Y-74494489D01*
X139242800Y-74546000D01*
X139242800Y-75643647D01*
X139223115Y-75710686D01*
X139170311Y-75756441D01*
X139146079Y-75764609D01*
X139128101Y-75768663D01*
X139100827Y-75771700D01*
X138482011Y-75771700D01*
X138456566Y-75769061D01*
X138445816Y-75766807D01*
X138445813Y-75766807D01*
X138410384Y-75771223D01*
X138402708Y-75771700D01*
X138398719Y-75771700D01*
X138381349Y-75774598D01*
X138375559Y-75775564D01*
X138320791Y-75782391D01*
X138313220Y-75784645D01*
X138305733Y-75787216D01*
X138257188Y-75813486D01*
X138207611Y-75837723D01*
X138201182Y-75842313D01*
X138194925Y-75847183D01*
X138180329Y-75863039D01*
X138157544Y-75887790D01*
X138123085Y-75922248D01*
X138054168Y-75991164D01*
X137993764Y-76024444D01*
X136651998Y-76327000D01*
X136643178Y-76331410D01*
X136587726Y-76344500D01*
X136522000Y-76344500D01*
X136454961Y-76324815D01*
X136409206Y-76272011D01*
X136398000Y-76220500D01*
X136398000Y-75816000D01*
X136417685Y-75748961D01*
X136470489Y-75703206D01*
X136522000Y-75692000D01*
X137160000Y-75692000D01*
X137668000Y-75184000D01*
X137941621Y-74499948D01*
X137984795Y-74445014D01*
X138050816Y-74422142D01*
X138056752Y-74422000D01*
X139118800Y-74422000D01*
X139185839Y-74441685D01*
G37*
%TD.AperFunction*%
%TD*%
%TA.AperFunction,Conductor*%
%TO.N,/Buck Boost Supply/tps_out*%
G36*
X159201039Y-67583685D02*
G01*
X159246794Y-67636489D01*
X159258000Y-67688000D01*
X159258000Y-84204000D01*
X159238315Y-84271039D01*
X159185511Y-84316794D01*
X159134000Y-84328000D01*
X152270000Y-84328000D01*
X152202961Y-84308315D01*
X152157206Y-84255511D01*
X152146000Y-84204000D01*
X152146000Y-78994000D01*
X152400000Y-78994000D01*
X152400000Y-72898000D01*
X152146000Y-72898000D01*
X152146000Y-67688000D01*
X152165685Y-67620961D01*
X152218489Y-67575206D01*
X152270000Y-67564000D01*
X159134000Y-67564000D01*
X159201039Y-67583685D01*
G37*
%TD.AperFunction*%
%TD*%
%TA.AperFunction,Conductor*%
%TO.N,GND*%
G36*
X203142539Y-62249685D02*
G01*
X203188294Y-62302489D01*
X203199500Y-62354000D01*
X203199500Y-85220000D01*
X203179815Y-85287039D01*
X203127011Y-85332794D01*
X203075500Y-85344000D01*
X199260000Y-85344000D01*
X199192961Y-85324315D01*
X199147206Y-85271511D01*
X199136000Y-85220000D01*
X199136000Y-62354000D01*
X199155685Y-62286961D01*
X199208489Y-62241206D01*
X199260000Y-62230000D01*
X203075500Y-62230000D01*
X203142539Y-62249685D01*
G37*
%TD.AperFunction*%
%TD*%
%TA.AperFunction,Conductor*%
%TO.N,VCAP*%
G36*
X195777039Y-62249685D02*
G01*
X195822794Y-62302489D01*
X195834000Y-62354000D01*
X195834000Y-85852000D01*
X190754000Y-85852000D01*
X190754000Y-66802000D01*
X163830000Y-66802000D01*
X163830000Y-74298000D01*
X163810315Y-74365039D01*
X163757511Y-74410794D01*
X163706000Y-74422000D01*
X161414000Y-74422000D01*
X161346961Y-74402315D01*
X161301206Y-74349511D01*
X161290000Y-74298000D01*
X161290000Y-62354000D01*
X161309685Y-62286961D01*
X161362489Y-62241206D01*
X161414000Y-62230000D01*
X195710000Y-62230000D01*
X195777039Y-62249685D01*
G37*
%TD.AperFunction*%
%TD*%
%TA.AperFunction,Conductor*%
%TO.N,GND*%
G36*
X191205039Y-129178685D02*
G01*
X191250794Y-129231489D01*
X191262000Y-129283000D01*
X191262000Y-131575000D01*
X191242315Y-131642039D01*
X191189511Y-131687794D01*
X191138000Y-131699000D01*
X188084000Y-131699000D01*
X188016961Y-131679315D01*
X187971206Y-131626511D01*
X187960000Y-131575000D01*
X187960000Y-129283000D01*
X187979685Y-129215961D01*
X188032489Y-129170206D01*
X188084000Y-129159000D01*
X191138000Y-129159000D01*
X191205039Y-129178685D01*
G37*
%TD.AperFunction*%
%TD*%
%TA.AperFunction,Conductor*%
%TO.N,Net-(U4A--)*%
G36*
X191459039Y-94888685D02*
G01*
X191504794Y-94941489D01*
X191516000Y-94993000D01*
X191516000Y-97285000D01*
X191496315Y-97352039D01*
X191443511Y-97397794D01*
X191392000Y-97409000D01*
X184782000Y-97409000D01*
X184714961Y-97389315D01*
X184669206Y-97336511D01*
X184658000Y-97285000D01*
X184658000Y-94993000D01*
X184677685Y-94925961D01*
X184730489Y-94880206D01*
X184782000Y-94869000D01*
X191392000Y-94869000D01*
X191459039Y-94888685D01*
G37*
%TD.AperFunction*%
%TD*%
%TA.AperFunction,Conductor*%
%TO.N,GND*%
G36*
X189681039Y-68091685D02*
G01*
X189726794Y-68144489D01*
X189738000Y-68196000D01*
X189738000Y-84712000D01*
X189718315Y-84779039D01*
X189665511Y-84824794D01*
X189614000Y-84836000D01*
X185290000Y-84836000D01*
X185222961Y-84816315D01*
X185177206Y-84763511D01*
X185166000Y-84712000D01*
X185166000Y-70612000D01*
X181286461Y-70612000D01*
X181219422Y-70592315D01*
X181198780Y-70575681D01*
X180626819Y-70003720D01*
X180593334Y-69942397D01*
X180590500Y-69916039D01*
X180590500Y-68196000D01*
X180610185Y-68128961D01*
X180662989Y-68083206D01*
X180714500Y-68072000D01*
X189614000Y-68072000D01*
X189681039Y-68091685D01*
G37*
%TD.AperFunction*%
%TD*%
%TA.AperFunction,Conductor*%
%TO.N,GND*%
G36*
X143199039Y-85363685D02*
G01*
X143244794Y-85416489D01*
X143256000Y-85468000D01*
X143256000Y-88268000D01*
X143236315Y-88335039D01*
X143183511Y-88380794D01*
X143132000Y-88392000D01*
X138046000Y-88392000D01*
X137978961Y-88372315D01*
X137933206Y-88319511D01*
X137922000Y-88268000D01*
X137922000Y-86360000D01*
X134998000Y-86360000D01*
X134930961Y-86340315D01*
X134885206Y-86287511D01*
X134874000Y-86236000D01*
X134874000Y-85468000D01*
X134893685Y-85400961D01*
X134946489Y-85355206D01*
X134998000Y-85344000D01*
X143132000Y-85344000D01*
X143199039Y-85363685D01*
G37*
%TD.AperFunction*%
%TD*%
%TA.AperFunction,Conductor*%
%TO.N,/GaN FET and Current Sensing/sense_out*%
G36*
X201873039Y-108604685D02*
G01*
X201918794Y-108657489D01*
X201930000Y-108709000D01*
X201930000Y-116081000D01*
X201910315Y-116148039D01*
X201857511Y-116193794D01*
X201806000Y-116205000D01*
X185798000Y-116205000D01*
X185730961Y-116185315D01*
X185685206Y-116132511D01*
X185674000Y-116081000D01*
X185674000Y-111757000D01*
X185693685Y-111689961D01*
X185746489Y-111644206D01*
X185798000Y-111633000D01*
X191262000Y-111633000D01*
X191262000Y-108709000D01*
X191281685Y-108641961D01*
X191334489Y-108596206D01*
X191386000Y-108585000D01*
X201806000Y-108585000D01*
X201873039Y-108604685D01*
G37*
%TD.AperFunction*%
%TD*%
%TA.AperFunction,Conductor*%
%TO.N,/GaN FET and Current Sensing/vgate*%
G36*
X188411039Y-126384685D02*
G01*
X188456794Y-126437489D01*
X188468000Y-126489000D01*
X188468000Y-128781000D01*
X188448315Y-128848039D01*
X188395511Y-128893794D01*
X188344000Y-128905000D01*
X187706000Y-128905000D01*
X187706000Y-129035000D01*
X187686315Y-129102039D01*
X187633511Y-129147794D01*
X187582000Y-129159000D01*
X186182000Y-129159000D01*
X186101337Y-129481641D01*
X186080308Y-129525875D01*
X186019787Y-129606722D01*
X185970748Y-129738200D01*
X185964500Y-129796309D01*
X185964500Y-130013734D01*
X185960798Y-130043807D01*
X185951482Y-130081073D01*
X185916127Y-130141337D01*
X185853802Y-130172920D01*
X185831184Y-130175000D01*
X184274000Y-130175000D01*
X184206961Y-130155315D01*
X184161206Y-130102511D01*
X184150000Y-130051000D01*
X184150000Y-126489000D01*
X184169685Y-126421961D01*
X184222489Y-126376206D01*
X184274000Y-126365000D01*
X188344000Y-126365000D01*
X188411039Y-126384685D01*
G37*
%TD.AperFunction*%
%TD*%
%TA.AperFunction,Conductor*%
%TO.N,+5V*%
G36*
X134326963Y-81064618D02*
G01*
X134329000Y-81087004D01*
X134329000Y-86880000D01*
X136872000Y-86880000D01*
X136939039Y-86899685D01*
X136984794Y-86952489D01*
X136996000Y-87004000D01*
X136996000Y-89420000D01*
X138279046Y-89420000D01*
X138285678Y-89420356D01*
X138303456Y-89422267D01*
X138352127Y-89427500D01*
X139272872Y-89427499D01*
X139332483Y-89421091D01*
X139332483Y-89421090D01*
X139339330Y-89420355D01*
X139345962Y-89420000D01*
X144492000Y-89420000D01*
X144559039Y-89439685D01*
X144604794Y-89492489D01*
X144616000Y-89544000D01*
X144616000Y-98694000D01*
X144596315Y-98761039D01*
X144543511Y-98806794D01*
X144492000Y-98818000D01*
X139685400Y-98818000D01*
X139618361Y-98798315D01*
X139572606Y-98745511D01*
X139561400Y-98694000D01*
X139561400Y-95427100D01*
X137132700Y-95427100D01*
X137065661Y-95407415D01*
X137019906Y-95354611D01*
X137008700Y-95303100D01*
X137008700Y-93950900D01*
X137028385Y-93883861D01*
X137081189Y-93838106D01*
X137132700Y-93826900D01*
X139561400Y-93826900D01*
X139561400Y-90423300D01*
X133310000Y-90423300D01*
X133242961Y-90403615D01*
X133197206Y-90350811D01*
X133186000Y-90299300D01*
X133186000Y-81038000D01*
X134313538Y-81038000D01*
X134326963Y-81064618D01*
G37*
%TD.AperFunction*%
%TD*%
%TA.AperFunction,Conductor*%
%TO.N,/Buck Boost Supply/Vout*%
G36*
X146501039Y-76567685D02*
G01*
X146546794Y-76620489D01*
X146558000Y-76672000D01*
X146558000Y-88362000D01*
X146538315Y-88429039D01*
X146485511Y-88474794D01*
X146434000Y-88486000D01*
X144396000Y-88486000D01*
X144328961Y-88466315D01*
X144283206Y-88413511D01*
X144272000Y-88362000D01*
X144272000Y-84582000D01*
X144526000Y-84582000D01*
X144526000Y-83058000D01*
X144272000Y-83058000D01*
X144272000Y-76672000D01*
X144291685Y-76604961D01*
X144344489Y-76559206D01*
X144396000Y-76548000D01*
X146434000Y-76548000D01*
X146501039Y-76567685D01*
G37*
%TD.AperFunction*%
%TD*%
%TA.AperFunction,Conductor*%
%TO.N,Net-(D5-A)*%
G36*
X201873039Y-119018685D02*
G01*
X201918794Y-119071489D01*
X201930000Y-119123000D01*
X201930000Y-126495000D01*
X201910315Y-126562039D01*
X201857511Y-126607794D01*
X201806000Y-126619000D01*
X195580000Y-126619000D01*
X195580000Y-130305000D01*
X195560315Y-130372039D01*
X195507511Y-130417794D01*
X195456000Y-130429000D01*
X191894000Y-130429000D01*
X191826961Y-130409315D01*
X191781206Y-130356511D01*
X191770000Y-130305000D01*
X191770000Y-128905000D01*
X188846000Y-128905000D01*
X188778961Y-128885315D01*
X188733206Y-128832511D01*
X188722000Y-128781000D01*
X188722000Y-125857000D01*
X185544000Y-125857000D01*
X185476961Y-125837315D01*
X185431206Y-125784511D01*
X185420000Y-125733000D01*
X185420000Y-124203000D01*
X185439685Y-124135961D01*
X185492489Y-124090206D01*
X185544000Y-124079000D01*
X190246000Y-124079000D01*
X190246000Y-119123000D01*
X190265685Y-119055961D01*
X190318489Y-119010206D01*
X190370000Y-118999000D01*
X201806000Y-118999000D01*
X201873039Y-119018685D01*
G37*
%TD.AperFunction*%
%TD*%
%TA.AperFunction,Conductor*%
%TO.N,GND*%
G36*
X151327039Y-79267685D02*
G01*
X151372794Y-79320489D01*
X151384000Y-79372000D01*
X151384000Y-85090000D01*
X159134000Y-85090000D01*
X159201039Y-85109685D01*
X159246794Y-85162489D01*
X159258000Y-85214000D01*
X159258000Y-89538000D01*
X159238315Y-89605039D01*
X159185511Y-89650794D01*
X159134000Y-89662000D01*
X147952000Y-89662000D01*
X147884961Y-89642315D01*
X147839206Y-89589511D01*
X147828000Y-89538000D01*
X147828000Y-79372000D01*
X147847685Y-79304961D01*
X147900489Y-79259206D01*
X147952000Y-79248000D01*
X151260000Y-79248000D01*
X151327039Y-79267685D01*
G37*
%TD.AperFunction*%
%TD*%
%TA.AperFunction,Conductor*%
%TO.N,Net-(U4B--)*%
G36*
X191435039Y-101873685D02*
G01*
X191480794Y-101926489D01*
X191492000Y-101978000D01*
X191492000Y-104270000D01*
X191472315Y-104337039D01*
X191419511Y-104382794D01*
X191368000Y-104394000D01*
X184758000Y-104394000D01*
X184690961Y-104374315D01*
X184645206Y-104321511D01*
X184634000Y-104270000D01*
X184634000Y-101978000D01*
X184653685Y-101910961D01*
X184706489Y-101865206D01*
X184758000Y-101854000D01*
X191368000Y-101854000D01*
X191435039Y-101873685D01*
G37*
%TD.AperFunction*%
%TD*%
%TA.AperFunction,Conductor*%
%TO.N,/Buck Boost Supply/tps_out*%
G36*
X152400000Y-78994000D02*
G01*
X147698000Y-78994000D01*
X147630961Y-78974315D01*
X147585206Y-78921511D01*
X147574000Y-78870000D01*
X147574000Y-73022000D01*
X147593685Y-72954961D01*
X147646489Y-72909206D01*
X147698000Y-72898000D01*
X152146000Y-72898000D01*
X152400000Y-72898000D01*
X152400000Y-78994000D01*
G37*
%TD.AperFunction*%
%TD*%
%TA.AperFunction,Conductor*%
%TO.N,+5V*%
G36*
X133432703Y-79002769D02*
G01*
X133470477Y-79061547D01*
X133474205Y-79078605D01*
X133474500Y-79080629D01*
X133474500Y-79080636D01*
X133485134Y-79153625D01*
X133485135Y-79153627D01*
X133520885Y-79226757D01*
X133533169Y-79272381D01*
X133599573Y-80202022D01*
X133604000Y-80264000D01*
X134295499Y-81002235D01*
X134313538Y-81038000D01*
X133186000Y-81038000D01*
X133208043Y-79517591D01*
X133214748Y-79479136D01*
X133227500Y-79441994D01*
X133227500Y-79441991D01*
X133228800Y-79434201D01*
X133229781Y-79426338D01*
X133227500Y-79371197D01*
X133227500Y-79096482D01*
X133247185Y-79029443D01*
X133299989Y-78983688D01*
X133369147Y-78973744D01*
X133432703Y-79002769D01*
G37*
%TD.AperFunction*%
%TA.AperFunction,Conductor*%
G36*
X133417539Y-78505685D02*
G01*
X133463294Y-78558489D01*
X133474500Y-78610000D01*
X133474500Y-78822452D01*
X133454815Y-78889491D01*
X133402011Y-78935246D01*
X133332853Y-78945190D01*
X133269297Y-78916165D01*
X133231523Y-78857387D01*
X133228190Y-78842857D01*
X133227190Y-78836863D01*
X133225500Y-78816458D01*
X133225500Y-78610000D01*
X133245185Y-78542961D01*
X133297989Y-78497206D01*
X133349500Y-78486000D01*
X133350500Y-78486000D01*
X133417539Y-78505685D01*
G37*
%TD.AperFunction*%
%TD*%
%TA.AperFunction,Conductor*%
%TO.N,/Buck Boost Supply/Vout*%
G36*
X136772461Y-83077685D02*
G01*
X136787647Y-83089183D01*
X136787760Y-83089283D01*
X136787764Y-83089285D01*
X136927634Y-83162696D01*
X137081014Y-83200500D01*
X137081015Y-83200500D01*
X137238985Y-83200500D01*
X137392365Y-83162696D01*
X137483315Y-83114961D01*
X137532240Y-83089283D01*
X137532350Y-83089185D01*
X137532447Y-83089139D01*
X137538413Y-83085022D01*
X137539097Y-83086013D01*
X137595581Y-83059464D01*
X137614578Y-83058000D01*
X144272000Y-83058000D01*
X144526000Y-83058000D01*
X144526000Y-84582000D01*
X134998000Y-84582000D01*
X134930961Y-84562315D01*
X134885206Y-84509511D01*
X134874000Y-84458000D01*
X134874000Y-83182000D01*
X134893685Y-83114961D01*
X134946489Y-83069206D01*
X134998000Y-83058000D01*
X136705422Y-83058000D01*
X136772461Y-83077685D01*
G37*
%TD.AperFunction*%
%TD*%
%TA.AperFunction,Conductor*%
%TO.N,GND*%
G36*
X132531039Y-82823685D02*
G01*
X132576794Y-82876489D01*
X132588000Y-82928000D01*
X132588000Y-89792000D01*
X132568315Y-89859039D01*
X132515511Y-89904794D01*
X132464000Y-89916000D01*
X130048000Y-89916000D01*
X130048000Y-82804000D01*
X132464000Y-82804000D01*
X132531039Y-82823685D01*
G37*
%TD.AperFunction*%
%TD*%
%TA.AperFunction,Conductor*%
%TO.N,Net-(U4C--)*%
G36*
X190697039Y-107080685D02*
G01*
X190742794Y-107133489D01*
X190754000Y-107185000D01*
X190754000Y-109731000D01*
X190734315Y-109798039D01*
X190681511Y-109843794D01*
X190630000Y-109855000D01*
X185544000Y-109855000D01*
X185476961Y-109835315D01*
X185431206Y-109782511D01*
X185420000Y-109731000D01*
X185420000Y-107185000D01*
X185439685Y-107117961D01*
X185492489Y-107072206D01*
X185544000Y-107061000D01*
X190630000Y-107061000D01*
X190697039Y-107080685D01*
G37*
%TD.AperFunction*%
%TD*%
%TA.AperFunction,Conductor*%
%TO.N,GND*%
G36*
X130048000Y-92202000D02*
G01*
X131030000Y-92202000D01*
X131097039Y-92221685D01*
X131142794Y-92274489D01*
X131154000Y-92326000D01*
X131154000Y-93826900D01*
X133582700Y-93826900D01*
X133649739Y-93846585D01*
X133695494Y-93899389D01*
X133706700Y-93950900D01*
X133706700Y-95303100D01*
X133687015Y-95370139D01*
X133634211Y-95415894D01*
X133582700Y-95427100D01*
X131154000Y-95427100D01*
X131154000Y-98682000D01*
X131134315Y-98749039D01*
X131081511Y-98794794D01*
X131030000Y-98806000D01*
X126616000Y-98806000D01*
X126548961Y-98786315D01*
X126503206Y-98733511D01*
X126492000Y-98682000D01*
X126492000Y-82928000D01*
X126511685Y-82860961D01*
X126564489Y-82815206D01*
X126616000Y-82804000D01*
X130048000Y-82804000D01*
X130048000Y-92202000D01*
G37*
%TD.AperFunction*%
%TD*%
M02*
