%TF.GenerationSoftware,KiCad,Pcbnew,7.0.8*%
%TF.CreationDate,2024-01-29T15:42:30-05:00*%
%TF.ProjectId,cc_laser_supply_rev-B,63635f6c-6173-4657-925f-737570706c79,rev?*%
%TF.SameCoordinates,Original*%
%TF.FileFunction,Legend,Top*%
%TF.FilePolarity,Positive*%
%FSLAX46Y46*%
G04 Gerber Fmt 4.6, Leading zero omitted, Abs format (unit mm)*
G04 Created by KiCad (PCBNEW 7.0.8) date 2024-01-29 15:42:30*
%MOMM*%
%LPD*%
G01*
G04 APERTURE LIST*
%ADD10C,0.150000*%
%ADD11C,0.355600*%
%ADD12C,0.120000*%
%ADD13C,0.127000*%
%ADD14C,0.200000*%
%ADD15C,0.152400*%
%ADD16C,0.800000*%
G04 APERTURE END LIST*
D10*
X157689779Y-76069819D02*
X157689779Y-75069819D01*
X158165969Y-76069819D02*
X158165969Y-75069819D01*
X158165969Y-75069819D02*
X158737397Y-76069819D01*
X158737397Y-76069819D02*
X158737397Y-75069819D01*
X159070731Y-75069819D02*
X159642159Y-75069819D01*
X159356445Y-76069819D02*
X159356445Y-75069819D01*
X165451683Y-75546009D02*
X165785016Y-75546009D01*
X165927873Y-76069819D02*
X165451683Y-76069819D01*
X165451683Y-76069819D02*
X165451683Y-75069819D01*
X165451683Y-75069819D02*
X165927873Y-75069819D01*
X166261207Y-75069819D02*
X166927873Y-76069819D01*
X166927873Y-75069819D02*
X166261207Y-76069819D01*
X167165969Y-75069819D02*
X167737397Y-75069819D01*
X167451683Y-76069819D02*
X167451683Y-75069819D01*
X100987388Y-108038619D02*
X100415960Y-108038619D01*
X100701674Y-108038619D02*
X100701674Y-107038619D01*
X100701674Y-107038619D02*
X100606436Y-107181476D01*
X100606436Y-107181476D02*
X100511198Y-107276714D01*
X100511198Y-107276714D02*
X100415960Y-107324333D01*
X108892150Y-107038619D02*
X109511197Y-107038619D01*
X109511197Y-107038619D02*
X109177864Y-107419571D01*
X109177864Y-107419571D02*
X109320721Y-107419571D01*
X109320721Y-107419571D02*
X109415959Y-107467190D01*
X109415959Y-107467190D02*
X109463578Y-107514809D01*
X109463578Y-107514809D02*
X109511197Y-107610047D01*
X109511197Y-107610047D02*
X109511197Y-107848142D01*
X109511197Y-107848142D02*
X109463578Y-107943380D01*
X109463578Y-107943380D02*
X109415959Y-107991000D01*
X109415959Y-107991000D02*
X109320721Y-108038619D01*
X109320721Y-108038619D02*
X109035007Y-108038619D01*
X109035007Y-108038619D02*
X108939769Y-107991000D01*
X108939769Y-107991000D02*
X108892150Y-107943380D01*
X100463579Y-109124809D02*
X100796912Y-109124809D01*
X100939769Y-109648619D02*
X100463579Y-109648619D01*
X100463579Y-109648619D02*
X100463579Y-108648619D01*
X100463579Y-108648619D02*
X100939769Y-108648619D01*
X101320722Y-109601000D02*
X101463579Y-109648619D01*
X101463579Y-109648619D02*
X101701674Y-109648619D01*
X101701674Y-109648619D02*
X101796912Y-109601000D01*
X101796912Y-109601000D02*
X101844531Y-109553380D01*
X101844531Y-109553380D02*
X101892150Y-109458142D01*
X101892150Y-109458142D02*
X101892150Y-109362904D01*
X101892150Y-109362904D02*
X101844531Y-109267666D01*
X101844531Y-109267666D02*
X101796912Y-109220047D01*
X101796912Y-109220047D02*
X101701674Y-109172428D01*
X101701674Y-109172428D02*
X101511198Y-109124809D01*
X101511198Y-109124809D02*
X101415960Y-109077190D01*
X101415960Y-109077190D02*
X101368341Y-109029571D01*
X101368341Y-109029571D02*
X101320722Y-108934333D01*
X101320722Y-108934333D02*
X101320722Y-108839095D01*
X101320722Y-108839095D02*
X101368341Y-108743857D01*
X101368341Y-108743857D02*
X101415960Y-108696238D01*
X101415960Y-108696238D02*
X101511198Y-108648619D01*
X101511198Y-108648619D02*
X101749293Y-108648619D01*
X101749293Y-108648619D02*
X101892150Y-108696238D01*
X102320722Y-109648619D02*
X102320722Y-108648619D01*
X102320722Y-108648619D02*
X102701674Y-108648619D01*
X102701674Y-108648619D02*
X102796912Y-108696238D01*
X102796912Y-108696238D02*
X102844531Y-108743857D01*
X102844531Y-108743857D02*
X102892150Y-108839095D01*
X102892150Y-108839095D02*
X102892150Y-108981952D01*
X102892150Y-108981952D02*
X102844531Y-109077190D01*
X102844531Y-109077190D02*
X102796912Y-109124809D01*
X102796912Y-109124809D02*
X102701674Y-109172428D01*
X102701674Y-109172428D02*
X102320722Y-109172428D01*
X103225484Y-108648619D02*
X103844531Y-108648619D01*
X103844531Y-108648619D02*
X103511198Y-109029571D01*
X103511198Y-109029571D02*
X103654055Y-109029571D01*
X103654055Y-109029571D02*
X103749293Y-109077190D01*
X103749293Y-109077190D02*
X103796912Y-109124809D01*
X103796912Y-109124809D02*
X103844531Y-109220047D01*
X103844531Y-109220047D02*
X103844531Y-109458142D01*
X103844531Y-109458142D02*
X103796912Y-109553380D01*
X103796912Y-109553380D02*
X103749293Y-109601000D01*
X103749293Y-109601000D02*
X103654055Y-109648619D01*
X103654055Y-109648619D02*
X103368341Y-109648619D01*
X103368341Y-109648619D02*
X103273103Y-109601000D01*
X103273103Y-109601000D02*
X103225484Y-109553380D01*
X104225484Y-108743857D02*
X104273103Y-108696238D01*
X104273103Y-108696238D02*
X104368341Y-108648619D01*
X104368341Y-108648619D02*
X104606436Y-108648619D01*
X104606436Y-108648619D02*
X104701674Y-108696238D01*
X104701674Y-108696238D02*
X104749293Y-108743857D01*
X104749293Y-108743857D02*
X104796912Y-108839095D01*
X104796912Y-108839095D02*
X104796912Y-108934333D01*
X104796912Y-108934333D02*
X104749293Y-109077190D01*
X104749293Y-109077190D02*
X104177865Y-109648619D01*
X104177865Y-109648619D02*
X104796912Y-109648619D01*
X108987388Y-109124809D02*
X109320721Y-109124809D01*
X109463578Y-109648619D02*
X108987388Y-109648619D01*
X108987388Y-109648619D02*
X108987388Y-108648619D01*
X108987388Y-108648619D02*
X109463578Y-108648619D01*
X109796912Y-108648619D02*
X110463578Y-109648619D01*
X110463578Y-108648619D02*
X109796912Y-109648619D01*
X110701674Y-108648619D02*
X111273102Y-108648619D01*
X110987388Y-109648619D02*
X110987388Y-108648619D01*
D11*
X161433232Y-140996260D02*
X160223708Y-140996260D01*
X160223708Y-140996260D02*
X160223708Y-138456260D01*
X163368470Y-140996260D02*
X163368470Y-139665784D01*
X163368470Y-139665784D02*
X163247517Y-139423879D01*
X163247517Y-139423879D02*
X163005613Y-139302927D01*
X163005613Y-139302927D02*
X162521803Y-139302927D01*
X162521803Y-139302927D02*
X162279898Y-139423879D01*
X163368470Y-140875308D02*
X163126565Y-140996260D01*
X163126565Y-140996260D02*
X162521803Y-140996260D01*
X162521803Y-140996260D02*
X162279898Y-140875308D01*
X162279898Y-140875308D02*
X162158946Y-140633403D01*
X162158946Y-140633403D02*
X162158946Y-140391498D01*
X162158946Y-140391498D02*
X162279898Y-140149593D01*
X162279898Y-140149593D02*
X162521803Y-140028641D01*
X162521803Y-140028641D02*
X163126565Y-140028641D01*
X163126565Y-140028641D02*
X163368470Y-139907688D01*
X164457041Y-140875308D02*
X164698946Y-140996260D01*
X164698946Y-140996260D02*
X165182755Y-140996260D01*
X165182755Y-140996260D02*
X165424660Y-140875308D01*
X165424660Y-140875308D02*
X165545612Y-140633403D01*
X165545612Y-140633403D02*
X165545612Y-140512450D01*
X165545612Y-140512450D02*
X165424660Y-140270546D01*
X165424660Y-140270546D02*
X165182755Y-140149593D01*
X165182755Y-140149593D02*
X164819898Y-140149593D01*
X164819898Y-140149593D02*
X164577993Y-140028641D01*
X164577993Y-140028641D02*
X164457041Y-139786736D01*
X164457041Y-139786736D02*
X164457041Y-139665784D01*
X164457041Y-139665784D02*
X164577993Y-139423879D01*
X164577993Y-139423879D02*
X164819898Y-139302927D01*
X164819898Y-139302927D02*
X165182755Y-139302927D01*
X165182755Y-139302927D02*
X165424660Y-139423879D01*
X167601802Y-140875308D02*
X167359898Y-140996260D01*
X167359898Y-140996260D02*
X166876088Y-140996260D01*
X166876088Y-140996260D02*
X166634183Y-140875308D01*
X166634183Y-140875308D02*
X166513231Y-140633403D01*
X166513231Y-140633403D02*
X166513231Y-139665784D01*
X166513231Y-139665784D02*
X166634183Y-139423879D01*
X166634183Y-139423879D02*
X166876088Y-139302927D01*
X166876088Y-139302927D02*
X167359898Y-139302927D01*
X167359898Y-139302927D02*
X167601802Y-139423879D01*
X167601802Y-139423879D02*
X167722755Y-139665784D01*
X167722755Y-139665784D02*
X167722755Y-139907688D01*
X167722755Y-139907688D02*
X166513231Y-140149593D01*
X168811326Y-140996260D02*
X168811326Y-139302927D01*
X168811326Y-139786736D02*
X168932279Y-139544831D01*
X168932279Y-139544831D02*
X169053231Y-139423879D01*
X169053231Y-139423879D02*
X169295136Y-139302927D01*
X169295136Y-139302927D02*
X169537041Y-139302927D01*
X172318945Y-140996260D02*
X172318945Y-138456260D01*
X172318945Y-138456260D02*
X173286564Y-138456260D01*
X173286564Y-138456260D02*
X173528469Y-138577212D01*
X173528469Y-138577212D02*
X173649422Y-138698165D01*
X173649422Y-138698165D02*
X173770374Y-138940069D01*
X173770374Y-138940069D02*
X173770374Y-139302927D01*
X173770374Y-139302927D02*
X173649422Y-139544831D01*
X173649422Y-139544831D02*
X173528469Y-139665784D01*
X173528469Y-139665784D02*
X173286564Y-139786736D01*
X173286564Y-139786736D02*
X172318945Y-139786736D01*
X175947517Y-139302927D02*
X175947517Y-140996260D01*
X174858945Y-139302927D02*
X174858945Y-140633403D01*
X174858945Y-140633403D02*
X174979898Y-140875308D01*
X174979898Y-140875308D02*
X175221803Y-140996260D01*
X175221803Y-140996260D02*
X175584660Y-140996260D01*
X175584660Y-140996260D02*
X175826564Y-140875308D01*
X175826564Y-140875308D02*
X175947517Y-140754355D01*
X177519898Y-140996260D02*
X177277993Y-140875308D01*
X177277993Y-140875308D02*
X177157040Y-140633403D01*
X177157040Y-140633403D02*
X177157040Y-138456260D01*
X178366564Y-140875308D02*
X178608469Y-140996260D01*
X178608469Y-140996260D02*
X179092278Y-140996260D01*
X179092278Y-140996260D02*
X179334183Y-140875308D01*
X179334183Y-140875308D02*
X179455135Y-140633403D01*
X179455135Y-140633403D02*
X179455135Y-140512450D01*
X179455135Y-140512450D02*
X179334183Y-140270546D01*
X179334183Y-140270546D02*
X179092278Y-140149593D01*
X179092278Y-140149593D02*
X178729421Y-140149593D01*
X178729421Y-140149593D02*
X178487516Y-140028641D01*
X178487516Y-140028641D02*
X178366564Y-139786736D01*
X178366564Y-139786736D02*
X178366564Y-139665784D01*
X178366564Y-139665784D02*
X178487516Y-139423879D01*
X178487516Y-139423879D02*
X178729421Y-139302927D01*
X178729421Y-139302927D02*
X179092278Y-139302927D01*
X179092278Y-139302927D02*
X179334183Y-139423879D01*
X181511325Y-140875308D02*
X181269421Y-140996260D01*
X181269421Y-140996260D02*
X180785611Y-140996260D01*
X180785611Y-140996260D02*
X180543706Y-140875308D01*
X180543706Y-140875308D02*
X180422754Y-140633403D01*
X180422754Y-140633403D02*
X180422754Y-139665784D01*
X180422754Y-139665784D02*
X180543706Y-139423879D01*
X180543706Y-139423879D02*
X180785611Y-139302927D01*
X180785611Y-139302927D02*
X181269421Y-139302927D01*
X181269421Y-139302927D02*
X181511325Y-139423879D01*
X181511325Y-139423879D02*
X181632278Y-139665784D01*
X181632278Y-139665784D02*
X181632278Y-139907688D01*
X181632278Y-139907688D02*
X180422754Y-140149593D01*
X184535135Y-140875308D02*
X184897992Y-140996260D01*
X184897992Y-140996260D02*
X185502754Y-140996260D01*
X185502754Y-140996260D02*
X185744659Y-140875308D01*
X185744659Y-140875308D02*
X185865611Y-140754355D01*
X185865611Y-140754355D02*
X185986564Y-140512450D01*
X185986564Y-140512450D02*
X185986564Y-140270546D01*
X185986564Y-140270546D02*
X185865611Y-140028641D01*
X185865611Y-140028641D02*
X185744659Y-139907688D01*
X185744659Y-139907688D02*
X185502754Y-139786736D01*
X185502754Y-139786736D02*
X185018945Y-139665784D01*
X185018945Y-139665784D02*
X184777040Y-139544831D01*
X184777040Y-139544831D02*
X184656087Y-139423879D01*
X184656087Y-139423879D02*
X184535135Y-139181974D01*
X184535135Y-139181974D02*
X184535135Y-138940069D01*
X184535135Y-138940069D02*
X184656087Y-138698165D01*
X184656087Y-138698165D02*
X184777040Y-138577212D01*
X184777040Y-138577212D02*
X185018945Y-138456260D01*
X185018945Y-138456260D02*
X185623706Y-138456260D01*
X185623706Y-138456260D02*
X185986564Y-138577212D01*
X188163707Y-139302927D02*
X188163707Y-140996260D01*
X187075135Y-139302927D02*
X187075135Y-140633403D01*
X187075135Y-140633403D02*
X187196088Y-140875308D01*
X187196088Y-140875308D02*
X187437993Y-140996260D01*
X187437993Y-140996260D02*
X187800850Y-140996260D01*
X187800850Y-140996260D02*
X188042754Y-140875308D01*
X188042754Y-140875308D02*
X188163707Y-140754355D01*
X189373230Y-139302927D02*
X189373230Y-141842927D01*
X189373230Y-139423879D02*
X189615135Y-139302927D01*
X189615135Y-139302927D02*
X190098945Y-139302927D01*
X190098945Y-139302927D02*
X190340849Y-139423879D01*
X190340849Y-139423879D02*
X190461802Y-139544831D01*
X190461802Y-139544831D02*
X190582754Y-139786736D01*
X190582754Y-139786736D02*
X190582754Y-140512450D01*
X190582754Y-140512450D02*
X190461802Y-140754355D01*
X190461802Y-140754355D02*
X190340849Y-140875308D01*
X190340849Y-140875308D02*
X190098945Y-140996260D01*
X190098945Y-140996260D02*
X189615135Y-140996260D01*
X189615135Y-140996260D02*
X189373230Y-140875308D01*
X191671325Y-139302927D02*
X191671325Y-141842927D01*
X191671325Y-139423879D02*
X191913230Y-139302927D01*
X191913230Y-139302927D02*
X192397040Y-139302927D01*
X192397040Y-139302927D02*
X192638944Y-139423879D01*
X192638944Y-139423879D02*
X192759897Y-139544831D01*
X192759897Y-139544831D02*
X192880849Y-139786736D01*
X192880849Y-139786736D02*
X192880849Y-140512450D01*
X192880849Y-140512450D02*
X192759897Y-140754355D01*
X192759897Y-140754355D02*
X192638944Y-140875308D01*
X192638944Y-140875308D02*
X192397040Y-140996260D01*
X192397040Y-140996260D02*
X191913230Y-140996260D01*
X191913230Y-140996260D02*
X191671325Y-140875308D01*
X194332278Y-140996260D02*
X194090373Y-140875308D01*
X194090373Y-140875308D02*
X193969420Y-140633403D01*
X193969420Y-140633403D02*
X193969420Y-138456260D01*
X195057992Y-139302927D02*
X195662754Y-140996260D01*
X196267515Y-139302927D02*
X195662754Y-140996260D01*
X195662754Y-140996260D02*
X195420849Y-141601022D01*
X195420849Y-141601022D02*
X195299896Y-141721974D01*
X195299896Y-141721974D02*
X195057992Y-141842927D01*
X161675137Y-145085660D02*
X160828470Y-143876136D01*
X160223708Y-145085660D02*
X160223708Y-142545660D01*
X160223708Y-142545660D02*
X161191327Y-142545660D01*
X161191327Y-142545660D02*
X161433232Y-142666612D01*
X161433232Y-142666612D02*
X161554185Y-142787565D01*
X161554185Y-142787565D02*
X161675137Y-143029469D01*
X161675137Y-143029469D02*
X161675137Y-143392327D01*
X161675137Y-143392327D02*
X161554185Y-143634231D01*
X161554185Y-143634231D02*
X161433232Y-143755184D01*
X161433232Y-143755184D02*
X161191327Y-143876136D01*
X161191327Y-143876136D02*
X160223708Y-143876136D01*
X163731327Y-144964708D02*
X163489423Y-145085660D01*
X163489423Y-145085660D02*
X163005613Y-145085660D01*
X163005613Y-145085660D02*
X162763708Y-144964708D01*
X162763708Y-144964708D02*
X162642756Y-144722803D01*
X162642756Y-144722803D02*
X162642756Y-143755184D01*
X162642756Y-143755184D02*
X162763708Y-143513279D01*
X162763708Y-143513279D02*
X163005613Y-143392327D01*
X163005613Y-143392327D02*
X163489423Y-143392327D01*
X163489423Y-143392327D02*
X163731327Y-143513279D01*
X163731327Y-143513279D02*
X163852280Y-143755184D01*
X163852280Y-143755184D02*
X163852280Y-143997088D01*
X163852280Y-143997088D02*
X162642756Y-144238993D01*
X164698947Y-143392327D02*
X165303709Y-145085660D01*
X165303709Y-145085660D02*
X165908470Y-143392327D01*
X166876089Y-144843755D02*
X166997042Y-144964708D01*
X166997042Y-144964708D02*
X166876089Y-145085660D01*
X166876089Y-145085660D02*
X166755137Y-144964708D01*
X166755137Y-144964708D02*
X166876089Y-144843755D01*
X166876089Y-144843755D02*
X166876089Y-145085660D01*
X170867518Y-143755184D02*
X171230375Y-143876136D01*
X171230375Y-143876136D02*
X171351328Y-143997088D01*
X171351328Y-143997088D02*
X171472280Y-144238993D01*
X171472280Y-144238993D02*
X171472280Y-144601850D01*
X171472280Y-144601850D02*
X171351328Y-144843755D01*
X171351328Y-144843755D02*
X171230375Y-144964708D01*
X171230375Y-144964708D02*
X170988470Y-145085660D01*
X170988470Y-145085660D02*
X170020851Y-145085660D01*
X170020851Y-145085660D02*
X170020851Y-142545660D01*
X170020851Y-142545660D02*
X170867518Y-142545660D01*
X170867518Y-142545660D02*
X171109423Y-142666612D01*
X171109423Y-142666612D02*
X171230375Y-142787565D01*
X171230375Y-142787565D02*
X171351328Y-143029469D01*
X171351328Y-143029469D02*
X171351328Y-143271374D01*
X171351328Y-143271374D02*
X171230375Y-143513279D01*
X171230375Y-143513279D02*
X171109423Y-143634231D01*
X171109423Y-143634231D02*
X170867518Y-143755184D01*
X170867518Y-143755184D02*
X170020851Y-143755184D01*
X175221804Y-142545660D02*
X175221804Y-144359946D01*
X175221804Y-144359946D02*
X175100851Y-144722803D01*
X175100851Y-144722803D02*
X174858947Y-144964708D01*
X174858947Y-144964708D02*
X174496089Y-145085660D01*
X174496089Y-145085660D02*
X174254185Y-145085660D01*
X177519899Y-145085660D02*
X177519899Y-143755184D01*
X177519899Y-143755184D02*
X177398946Y-143513279D01*
X177398946Y-143513279D02*
X177157042Y-143392327D01*
X177157042Y-143392327D02*
X176673232Y-143392327D01*
X176673232Y-143392327D02*
X176431327Y-143513279D01*
X177519899Y-144964708D02*
X177277994Y-145085660D01*
X177277994Y-145085660D02*
X176673232Y-145085660D01*
X176673232Y-145085660D02*
X176431327Y-144964708D01*
X176431327Y-144964708D02*
X176310375Y-144722803D01*
X176310375Y-144722803D02*
X176310375Y-144480898D01*
X176310375Y-144480898D02*
X176431327Y-144238993D01*
X176431327Y-144238993D02*
X176673232Y-144118041D01*
X176673232Y-144118041D02*
X177277994Y-144118041D01*
X177277994Y-144118041D02*
X177519899Y-143997088D01*
X178729422Y-143392327D02*
X178729422Y-145085660D01*
X178729422Y-143634231D02*
X178850375Y-143513279D01*
X178850375Y-143513279D02*
X179092280Y-143392327D01*
X179092280Y-143392327D02*
X179455137Y-143392327D01*
X179455137Y-143392327D02*
X179697041Y-143513279D01*
X179697041Y-143513279D02*
X179817994Y-143755184D01*
X179817994Y-143755184D02*
X179817994Y-145085660D01*
X182841803Y-142787565D02*
X182962755Y-142666612D01*
X182962755Y-142666612D02*
X183204660Y-142545660D01*
X183204660Y-142545660D02*
X183809422Y-142545660D01*
X183809422Y-142545660D02*
X184051327Y-142666612D01*
X184051327Y-142666612D02*
X184172279Y-142787565D01*
X184172279Y-142787565D02*
X184293232Y-143029469D01*
X184293232Y-143029469D02*
X184293232Y-143271374D01*
X184293232Y-143271374D02*
X184172279Y-143634231D01*
X184172279Y-143634231D02*
X182720851Y-145085660D01*
X182720851Y-145085660D02*
X184293232Y-145085660D01*
X185865613Y-142545660D02*
X186107518Y-142545660D01*
X186107518Y-142545660D02*
X186349422Y-142666612D01*
X186349422Y-142666612D02*
X186470375Y-142787565D01*
X186470375Y-142787565D02*
X186591327Y-143029469D01*
X186591327Y-143029469D02*
X186712280Y-143513279D01*
X186712280Y-143513279D02*
X186712280Y-144118041D01*
X186712280Y-144118041D02*
X186591327Y-144601850D01*
X186591327Y-144601850D02*
X186470375Y-144843755D01*
X186470375Y-144843755D02*
X186349422Y-144964708D01*
X186349422Y-144964708D02*
X186107518Y-145085660D01*
X186107518Y-145085660D02*
X185865613Y-145085660D01*
X185865613Y-145085660D02*
X185623708Y-144964708D01*
X185623708Y-144964708D02*
X185502756Y-144843755D01*
X185502756Y-144843755D02*
X185381803Y-144601850D01*
X185381803Y-144601850D02*
X185260851Y-144118041D01*
X185260851Y-144118041D02*
X185260851Y-143513279D01*
X185260851Y-143513279D02*
X185381803Y-143029469D01*
X185381803Y-143029469D02*
X185502756Y-142787565D01*
X185502756Y-142787565D02*
X185623708Y-142666612D01*
X185623708Y-142666612D02*
X185865613Y-142545660D01*
X187679899Y-142787565D02*
X187800851Y-142666612D01*
X187800851Y-142666612D02*
X188042756Y-142545660D01*
X188042756Y-142545660D02*
X188647518Y-142545660D01*
X188647518Y-142545660D02*
X188889423Y-142666612D01*
X188889423Y-142666612D02*
X189010375Y-142787565D01*
X189010375Y-142787565D02*
X189131328Y-143029469D01*
X189131328Y-143029469D02*
X189131328Y-143271374D01*
X189131328Y-143271374D02*
X189010375Y-143634231D01*
X189010375Y-143634231D02*
X187558947Y-145085660D01*
X187558947Y-145085660D02*
X189131328Y-145085660D01*
X191308471Y-143392327D02*
X191308471Y-145085660D01*
X190703709Y-142424708D02*
X190098947Y-144238993D01*
X190098947Y-144238993D02*
X191671328Y-144238993D01*
D10*
X142321922Y-134632819D02*
X142655255Y-135632819D01*
X142655255Y-135632819D02*
X142988588Y-134632819D01*
X143655255Y-135109009D02*
X143798112Y-135156628D01*
X143798112Y-135156628D02*
X143845731Y-135204247D01*
X143845731Y-135204247D02*
X143893350Y-135299485D01*
X143893350Y-135299485D02*
X143893350Y-135442342D01*
X143893350Y-135442342D02*
X143845731Y-135537580D01*
X143845731Y-135537580D02*
X143798112Y-135585200D01*
X143798112Y-135585200D02*
X143702874Y-135632819D01*
X143702874Y-135632819D02*
X143321922Y-135632819D01*
X143321922Y-135632819D02*
X143321922Y-134632819D01*
X143321922Y-134632819D02*
X143655255Y-134632819D01*
X143655255Y-134632819D02*
X143750493Y-134680438D01*
X143750493Y-134680438D02*
X143798112Y-134728057D01*
X143798112Y-134728057D02*
X143845731Y-134823295D01*
X143845731Y-134823295D02*
X143845731Y-134918533D01*
X143845731Y-134918533D02*
X143798112Y-135013771D01*
X143798112Y-135013771D02*
X143750493Y-135061390D01*
X143750493Y-135061390D02*
X143655255Y-135109009D01*
X143655255Y-135109009D02*
X143321922Y-135109009D01*
X144321922Y-134632819D02*
X144321922Y-135442342D01*
X144321922Y-135442342D02*
X144369541Y-135537580D01*
X144369541Y-135537580D02*
X144417160Y-135585200D01*
X144417160Y-135585200D02*
X144512398Y-135632819D01*
X144512398Y-135632819D02*
X144702874Y-135632819D01*
X144702874Y-135632819D02*
X144798112Y-135585200D01*
X144798112Y-135585200D02*
X144845731Y-135537580D01*
X144845731Y-135537580D02*
X144893350Y-135442342D01*
X144893350Y-135442342D02*
X144893350Y-134632819D01*
X145321922Y-135585200D02*
X145464779Y-135632819D01*
X145464779Y-135632819D02*
X145702874Y-135632819D01*
X145702874Y-135632819D02*
X145798112Y-135585200D01*
X145798112Y-135585200D02*
X145845731Y-135537580D01*
X145845731Y-135537580D02*
X145893350Y-135442342D01*
X145893350Y-135442342D02*
X145893350Y-135347104D01*
X145893350Y-135347104D02*
X145845731Y-135251866D01*
X145845731Y-135251866D02*
X145798112Y-135204247D01*
X145798112Y-135204247D02*
X145702874Y-135156628D01*
X145702874Y-135156628D02*
X145512398Y-135109009D01*
X145512398Y-135109009D02*
X145417160Y-135061390D01*
X145417160Y-135061390D02*
X145369541Y-135013771D01*
X145369541Y-135013771D02*
X145321922Y-134918533D01*
X145321922Y-134918533D02*
X145321922Y-134823295D01*
X145321922Y-134823295D02*
X145369541Y-134728057D01*
X145369541Y-134728057D02*
X145417160Y-134680438D01*
X145417160Y-134680438D02*
X145512398Y-134632819D01*
X145512398Y-134632819D02*
X145750493Y-134632819D01*
X145750493Y-134632819D02*
X145893350Y-134680438D01*
X150226683Y-135109009D02*
X150560016Y-135109009D01*
X150702873Y-135632819D02*
X150226683Y-135632819D01*
X150226683Y-135632819D02*
X150226683Y-134632819D01*
X150226683Y-134632819D02*
X150702873Y-134632819D01*
X151036207Y-134632819D02*
X151702873Y-135632819D01*
X151702873Y-134632819D02*
X151036207Y-135632819D01*
X151940969Y-134632819D02*
X152512397Y-134632819D01*
X152226683Y-135632819D02*
X152226683Y-134632819D01*
X152607636Y-135728057D02*
X153369540Y-135728057D01*
X153464779Y-134632819D02*
X153798112Y-135632819D01*
X153798112Y-135632819D02*
X154131445Y-134632819D01*
X154464779Y-135632819D02*
X154464779Y-134632819D01*
X154940969Y-135632819D02*
X154940969Y-134632819D01*
X154940969Y-134632819D02*
X155512397Y-135632819D01*
X155512397Y-135632819D02*
X155512397Y-134632819D01*
X159083809Y-66129819D02*
X159417142Y-67129819D01*
X159417142Y-67129819D02*
X159750475Y-66129819D01*
X160655237Y-67034580D02*
X160607618Y-67082200D01*
X160607618Y-67082200D02*
X160464761Y-67129819D01*
X160464761Y-67129819D02*
X160369523Y-67129819D01*
X160369523Y-67129819D02*
X160226666Y-67082200D01*
X160226666Y-67082200D02*
X160131428Y-66986961D01*
X160131428Y-66986961D02*
X160083809Y-66891723D01*
X160083809Y-66891723D02*
X160036190Y-66701247D01*
X160036190Y-66701247D02*
X160036190Y-66558390D01*
X160036190Y-66558390D02*
X160083809Y-66367914D01*
X160083809Y-66367914D02*
X160131428Y-66272676D01*
X160131428Y-66272676D02*
X160226666Y-66177438D01*
X160226666Y-66177438D02*
X160369523Y-66129819D01*
X160369523Y-66129819D02*
X160464761Y-66129819D01*
X160464761Y-66129819D02*
X160607618Y-66177438D01*
X160607618Y-66177438D02*
X160655237Y-66225057D01*
X161036190Y-66844104D02*
X161512380Y-66844104D01*
X160940952Y-67129819D02*
X161274285Y-66129819D01*
X161274285Y-66129819D02*
X161607618Y-67129819D01*
X161940952Y-67129819D02*
X161940952Y-66129819D01*
X161940952Y-66129819D02*
X162321904Y-66129819D01*
X162321904Y-66129819D02*
X162417142Y-66177438D01*
X162417142Y-66177438D02*
X162464761Y-66225057D01*
X162464761Y-66225057D02*
X162512380Y-66320295D01*
X162512380Y-66320295D02*
X162512380Y-66463152D01*
X162512380Y-66463152D02*
X162464761Y-66558390D01*
X162464761Y-66558390D02*
X162417142Y-66606009D01*
X162417142Y-66606009D02*
X162321904Y-66653628D01*
X162321904Y-66653628D02*
X161940952Y-66653628D01*
X162702857Y-67225057D02*
X163464761Y-67225057D01*
X163655238Y-67082200D02*
X163798095Y-67129819D01*
X163798095Y-67129819D02*
X164036190Y-67129819D01*
X164036190Y-67129819D02*
X164131428Y-67082200D01*
X164131428Y-67082200D02*
X164179047Y-67034580D01*
X164179047Y-67034580D02*
X164226666Y-66939342D01*
X164226666Y-66939342D02*
X164226666Y-66844104D01*
X164226666Y-66844104D02*
X164179047Y-66748866D01*
X164179047Y-66748866D02*
X164131428Y-66701247D01*
X164131428Y-66701247D02*
X164036190Y-66653628D01*
X164036190Y-66653628D02*
X163845714Y-66606009D01*
X163845714Y-66606009D02*
X163750476Y-66558390D01*
X163750476Y-66558390D02*
X163702857Y-66510771D01*
X163702857Y-66510771D02*
X163655238Y-66415533D01*
X163655238Y-66415533D02*
X163655238Y-66320295D01*
X163655238Y-66320295D02*
X163702857Y-66225057D01*
X163702857Y-66225057D02*
X163750476Y-66177438D01*
X163750476Y-66177438D02*
X163845714Y-66129819D01*
X163845714Y-66129819D02*
X164083809Y-66129819D01*
X164083809Y-66129819D02*
X164226666Y-66177438D01*
X164655238Y-66606009D02*
X164988571Y-66606009D01*
X165131428Y-67129819D02*
X164655238Y-67129819D01*
X164655238Y-67129819D02*
X164655238Y-66129819D01*
X164655238Y-66129819D02*
X165131428Y-66129819D01*
X166036190Y-67129819D02*
X165560000Y-67129819D01*
X165560000Y-67129819D02*
X165560000Y-66129819D01*
X124357143Y-140901009D02*
X124690476Y-140901009D01*
X124833333Y-141424819D02*
X124357143Y-141424819D01*
X124357143Y-141424819D02*
X124357143Y-140424819D01*
X124357143Y-140424819D02*
X124833333Y-140424819D01*
X125166667Y-140424819D02*
X125833333Y-141424819D01*
X125833333Y-140424819D02*
X125166667Y-141424819D01*
X126071429Y-140424819D02*
X126642857Y-140424819D01*
X126357143Y-141424819D02*
X126357143Y-140424819D01*
X126738096Y-141520057D02*
X127500000Y-141520057D01*
X127595239Y-140424819D02*
X127928572Y-141424819D01*
X127928572Y-141424819D02*
X128261905Y-140424819D01*
X128595239Y-141424819D02*
X128595239Y-140424819D01*
X129071429Y-141424819D02*
X129071429Y-140424819D01*
X129071429Y-140424819D02*
X129642857Y-141424819D01*
X129642857Y-141424819D02*
X129642857Y-140424819D01*
X80470714Y-115343200D02*
X80613571Y-115390819D01*
X80613571Y-115390819D02*
X80851666Y-115390819D01*
X80851666Y-115390819D02*
X80946904Y-115343200D01*
X80946904Y-115343200D02*
X80994523Y-115295580D01*
X80994523Y-115295580D02*
X81042142Y-115200342D01*
X81042142Y-115200342D02*
X81042142Y-115105104D01*
X81042142Y-115105104D02*
X80994523Y-115009866D01*
X80994523Y-115009866D02*
X80946904Y-114962247D01*
X80946904Y-114962247D02*
X80851666Y-114914628D01*
X80851666Y-114914628D02*
X80661190Y-114867009D01*
X80661190Y-114867009D02*
X80565952Y-114819390D01*
X80565952Y-114819390D02*
X80518333Y-114771771D01*
X80518333Y-114771771D02*
X80470714Y-114676533D01*
X80470714Y-114676533D02*
X80470714Y-114581295D01*
X80470714Y-114581295D02*
X80518333Y-114486057D01*
X80518333Y-114486057D02*
X80565952Y-114438438D01*
X80565952Y-114438438D02*
X80661190Y-114390819D01*
X80661190Y-114390819D02*
X80899285Y-114390819D01*
X80899285Y-114390819D02*
X81042142Y-114438438D01*
X81470714Y-115390819D02*
X81470714Y-114390819D01*
X82470713Y-114438438D02*
X82375475Y-114390819D01*
X82375475Y-114390819D02*
X82232618Y-114390819D01*
X82232618Y-114390819D02*
X82089761Y-114438438D01*
X82089761Y-114438438D02*
X81994523Y-114533676D01*
X81994523Y-114533676D02*
X81946904Y-114628914D01*
X81946904Y-114628914D02*
X81899285Y-114819390D01*
X81899285Y-114819390D02*
X81899285Y-114962247D01*
X81899285Y-114962247D02*
X81946904Y-115152723D01*
X81946904Y-115152723D02*
X81994523Y-115247961D01*
X81994523Y-115247961D02*
X82089761Y-115343200D01*
X82089761Y-115343200D02*
X82232618Y-115390819D01*
X82232618Y-115390819D02*
X82327856Y-115390819D01*
X82327856Y-115390819D02*
X82470713Y-115343200D01*
X82470713Y-115343200D02*
X82518332Y-115295580D01*
X82518332Y-115295580D02*
X82518332Y-114962247D01*
X82518332Y-114962247D02*
X82327856Y-114962247D01*
X82708809Y-115486057D02*
X83470713Y-115486057D01*
X83708809Y-114867009D02*
X84042142Y-114867009D01*
X84184999Y-115390819D02*
X83708809Y-115390819D01*
X83708809Y-115390819D02*
X83708809Y-114390819D01*
X83708809Y-114390819D02*
X84184999Y-114390819D01*
X84518333Y-114390819D02*
X85184999Y-115390819D01*
X85184999Y-114390819D02*
X84518333Y-115390819D01*
X85423095Y-114390819D02*
X85994523Y-114390819D01*
X85708809Y-115390819D02*
X85708809Y-114390819D01*
X170990000Y-57319104D02*
X171466190Y-57319104D01*
X170894762Y-57604819D02*
X171228095Y-56604819D01*
X171228095Y-56604819D02*
X171561428Y-57604819D01*
X171894762Y-57604819D02*
X171894762Y-56604819D01*
X171894762Y-56604819D02*
X172132857Y-56604819D01*
X172132857Y-56604819D02*
X172275714Y-56652438D01*
X172275714Y-56652438D02*
X172370952Y-56747676D01*
X172370952Y-56747676D02*
X172418571Y-56842914D01*
X172418571Y-56842914D02*
X172466190Y-57033390D01*
X172466190Y-57033390D02*
X172466190Y-57176247D01*
X172466190Y-57176247D02*
X172418571Y-57366723D01*
X172418571Y-57366723D02*
X172370952Y-57461961D01*
X172370952Y-57461961D02*
X172275714Y-57557200D01*
X172275714Y-57557200D02*
X172132857Y-57604819D01*
X172132857Y-57604819D02*
X171894762Y-57604819D01*
X173466190Y-57509580D02*
X173418571Y-57557200D01*
X173418571Y-57557200D02*
X173275714Y-57604819D01*
X173275714Y-57604819D02*
X173180476Y-57604819D01*
X173180476Y-57604819D02*
X173037619Y-57557200D01*
X173037619Y-57557200D02*
X172942381Y-57461961D01*
X172942381Y-57461961D02*
X172894762Y-57366723D01*
X172894762Y-57366723D02*
X172847143Y-57176247D01*
X172847143Y-57176247D02*
X172847143Y-57033390D01*
X172847143Y-57033390D02*
X172894762Y-56842914D01*
X172894762Y-56842914D02*
X172942381Y-56747676D01*
X172942381Y-56747676D02*
X173037619Y-56652438D01*
X173037619Y-56652438D02*
X173180476Y-56604819D01*
X173180476Y-56604819D02*
X173275714Y-56604819D01*
X173275714Y-56604819D02*
X173418571Y-56652438D01*
X173418571Y-56652438D02*
X173466190Y-56700057D01*
X173656667Y-57700057D02*
X174418571Y-57700057D01*
X174609048Y-56700057D02*
X174656667Y-56652438D01*
X174656667Y-56652438D02*
X174751905Y-56604819D01*
X174751905Y-56604819D02*
X174990000Y-56604819D01*
X174990000Y-56604819D02*
X175085238Y-56652438D01*
X175085238Y-56652438D02*
X175132857Y-56700057D01*
X175132857Y-56700057D02*
X175180476Y-56795295D01*
X175180476Y-56795295D02*
X175180476Y-56890533D01*
X175180476Y-56890533D02*
X175132857Y-57033390D01*
X175132857Y-57033390D02*
X174561429Y-57604819D01*
X174561429Y-57604819D02*
X175180476Y-57604819D01*
X175799524Y-56604819D02*
X175894762Y-56604819D01*
X175894762Y-56604819D02*
X175990000Y-56652438D01*
X175990000Y-56652438D02*
X176037619Y-56700057D01*
X176037619Y-56700057D02*
X176085238Y-56795295D01*
X176085238Y-56795295D02*
X176132857Y-56985771D01*
X176132857Y-56985771D02*
X176132857Y-57223866D01*
X176132857Y-57223866D02*
X176085238Y-57414342D01*
X176085238Y-57414342D02*
X176037619Y-57509580D01*
X176037619Y-57509580D02*
X175990000Y-57557200D01*
X175990000Y-57557200D02*
X175894762Y-57604819D01*
X175894762Y-57604819D02*
X175799524Y-57604819D01*
X175799524Y-57604819D02*
X175704286Y-57557200D01*
X175704286Y-57557200D02*
X175656667Y-57509580D01*
X175656667Y-57509580D02*
X175609048Y-57414342D01*
X175609048Y-57414342D02*
X175561429Y-57223866D01*
X175561429Y-57223866D02*
X175561429Y-56985771D01*
X175561429Y-56985771D02*
X175609048Y-56795295D01*
X175609048Y-56795295D02*
X175656667Y-56700057D01*
X175656667Y-56700057D02*
X175704286Y-56652438D01*
X175704286Y-56652438D02*
X175799524Y-56604819D01*
X176513810Y-57319104D02*
X176990000Y-57319104D01*
X176418572Y-57604819D02*
X176751905Y-56604819D01*
X176751905Y-56604819D02*
X177085238Y-57604819D01*
X98298095Y-83909819D02*
X98869523Y-83909819D01*
X98583809Y-84909819D02*
X98583809Y-83909819D01*
X99107619Y-83909819D02*
X99774285Y-84909819D01*
X99774285Y-83909819D02*
X99107619Y-84909819D01*
X114617857Y-140424819D02*
X114808333Y-140424819D01*
X114808333Y-140424819D02*
X114903571Y-140472438D01*
X114903571Y-140472438D02*
X114998809Y-140567676D01*
X114998809Y-140567676D02*
X115046428Y-140758152D01*
X115046428Y-140758152D02*
X115046428Y-141091485D01*
X115046428Y-141091485D02*
X114998809Y-141281961D01*
X114998809Y-141281961D02*
X114903571Y-141377200D01*
X114903571Y-141377200D02*
X114808333Y-141424819D01*
X114808333Y-141424819D02*
X114617857Y-141424819D01*
X114617857Y-141424819D02*
X114522619Y-141377200D01*
X114522619Y-141377200D02*
X114427381Y-141281961D01*
X114427381Y-141281961D02*
X114379762Y-141091485D01*
X114379762Y-141091485D02*
X114379762Y-140758152D01*
X114379762Y-140758152D02*
X114427381Y-140567676D01*
X114427381Y-140567676D02*
X114522619Y-140472438D01*
X114522619Y-140472438D02*
X114617857Y-140424819D01*
X115475000Y-141424819D02*
X115475000Y-140424819D01*
X115475000Y-140424819D02*
X115855952Y-140424819D01*
X115855952Y-140424819D02*
X115951190Y-140472438D01*
X115951190Y-140472438D02*
X115998809Y-140520057D01*
X115998809Y-140520057D02*
X116046428Y-140615295D01*
X116046428Y-140615295D02*
X116046428Y-140758152D01*
X116046428Y-140758152D02*
X115998809Y-140853390D01*
X115998809Y-140853390D02*
X115951190Y-140901009D01*
X115951190Y-140901009D02*
X115855952Y-140948628D01*
X115855952Y-140948628D02*
X115475000Y-140948628D01*
X116332143Y-140424819D02*
X116903571Y-140424819D01*
X116617857Y-141424819D02*
X116617857Y-140424819D01*
X116998810Y-141520057D02*
X117760714Y-141520057D01*
X118570238Y-141424819D02*
X118236905Y-140948628D01*
X117998810Y-141424819D02*
X117998810Y-140424819D01*
X117998810Y-140424819D02*
X118379762Y-140424819D01*
X118379762Y-140424819D02*
X118475000Y-140472438D01*
X118475000Y-140472438D02*
X118522619Y-140520057D01*
X118522619Y-140520057D02*
X118570238Y-140615295D01*
X118570238Y-140615295D02*
X118570238Y-140758152D01*
X118570238Y-140758152D02*
X118522619Y-140853390D01*
X118522619Y-140853390D02*
X118475000Y-140901009D01*
X118475000Y-140901009D02*
X118379762Y-140948628D01*
X118379762Y-140948628D02*
X117998810Y-140948628D01*
X118951191Y-141139104D02*
X119427381Y-141139104D01*
X118855953Y-141424819D02*
X119189286Y-140424819D01*
X119189286Y-140424819D02*
X119522619Y-141424819D01*
X119760715Y-140424819D02*
X119998810Y-141424819D01*
X119998810Y-141424819D02*
X120189286Y-140710533D01*
X120189286Y-140710533D02*
X120379762Y-141424819D01*
X120379762Y-141424819D02*
X120617858Y-140424819D01*
X141621190Y-57319104D02*
X142097380Y-57319104D01*
X141525952Y-57604819D02*
X141859285Y-56604819D01*
X141859285Y-56604819D02*
X142192618Y-57604819D01*
X142525952Y-57604819D02*
X142525952Y-56604819D01*
X142525952Y-56604819D02*
X142764047Y-56604819D01*
X142764047Y-56604819D02*
X142906904Y-56652438D01*
X142906904Y-56652438D02*
X143002142Y-56747676D01*
X143002142Y-56747676D02*
X143049761Y-56842914D01*
X143049761Y-56842914D02*
X143097380Y-57033390D01*
X143097380Y-57033390D02*
X143097380Y-57176247D01*
X143097380Y-57176247D02*
X143049761Y-57366723D01*
X143049761Y-57366723D02*
X143002142Y-57461961D01*
X143002142Y-57461961D02*
X142906904Y-57557200D01*
X142906904Y-57557200D02*
X142764047Y-57604819D01*
X142764047Y-57604819D02*
X142525952Y-57604819D01*
X144097380Y-57509580D02*
X144049761Y-57557200D01*
X144049761Y-57557200D02*
X143906904Y-57604819D01*
X143906904Y-57604819D02*
X143811666Y-57604819D01*
X143811666Y-57604819D02*
X143668809Y-57557200D01*
X143668809Y-57557200D02*
X143573571Y-57461961D01*
X143573571Y-57461961D02*
X143525952Y-57366723D01*
X143525952Y-57366723D02*
X143478333Y-57176247D01*
X143478333Y-57176247D02*
X143478333Y-57033390D01*
X143478333Y-57033390D02*
X143525952Y-56842914D01*
X143525952Y-56842914D02*
X143573571Y-56747676D01*
X143573571Y-56747676D02*
X143668809Y-56652438D01*
X143668809Y-56652438D02*
X143811666Y-56604819D01*
X143811666Y-56604819D02*
X143906904Y-56604819D01*
X143906904Y-56604819D02*
X144049761Y-56652438D01*
X144049761Y-56652438D02*
X144097380Y-56700057D01*
X144287857Y-57700057D02*
X145049761Y-57700057D01*
X145811666Y-57604819D02*
X145240238Y-57604819D01*
X145525952Y-57604819D02*
X145525952Y-56604819D01*
X145525952Y-56604819D02*
X145430714Y-56747676D01*
X145430714Y-56747676D02*
X145335476Y-56842914D01*
X145335476Y-56842914D02*
X145240238Y-56890533D01*
X146192619Y-57319104D02*
X146668809Y-57319104D01*
X146097381Y-57604819D02*
X146430714Y-56604819D01*
X146430714Y-56604819D02*
X146764047Y-57604819D01*
X133858095Y-140472438D02*
X133762857Y-140424819D01*
X133762857Y-140424819D02*
X133620000Y-140424819D01*
X133620000Y-140424819D02*
X133477143Y-140472438D01*
X133477143Y-140472438D02*
X133381905Y-140567676D01*
X133381905Y-140567676D02*
X133334286Y-140662914D01*
X133334286Y-140662914D02*
X133286667Y-140853390D01*
X133286667Y-140853390D02*
X133286667Y-140996247D01*
X133286667Y-140996247D02*
X133334286Y-141186723D01*
X133334286Y-141186723D02*
X133381905Y-141281961D01*
X133381905Y-141281961D02*
X133477143Y-141377200D01*
X133477143Y-141377200D02*
X133620000Y-141424819D01*
X133620000Y-141424819D02*
X133715238Y-141424819D01*
X133715238Y-141424819D02*
X133858095Y-141377200D01*
X133858095Y-141377200D02*
X133905714Y-141329580D01*
X133905714Y-141329580D02*
X133905714Y-140996247D01*
X133905714Y-140996247D02*
X133715238Y-140996247D01*
X134334286Y-141424819D02*
X134334286Y-140424819D01*
X134334286Y-140424819D02*
X134905714Y-141424819D01*
X134905714Y-141424819D02*
X134905714Y-140424819D01*
X135381905Y-141424819D02*
X135381905Y-140424819D01*
X135381905Y-140424819D02*
X135620000Y-140424819D01*
X135620000Y-140424819D02*
X135762857Y-140472438D01*
X135762857Y-140472438D02*
X135858095Y-140567676D01*
X135858095Y-140567676D02*
X135905714Y-140662914D01*
X135905714Y-140662914D02*
X135953333Y-140853390D01*
X135953333Y-140853390D02*
X135953333Y-140996247D01*
X135953333Y-140996247D02*
X135905714Y-141186723D01*
X135905714Y-141186723D02*
X135858095Y-141281961D01*
X135858095Y-141281961D02*
X135762857Y-141377200D01*
X135762857Y-141377200D02*
X135620000Y-141424819D01*
X135620000Y-141424819D02*
X135381905Y-141424819D01*
X87876428Y-141694819D02*
X88066904Y-141694819D01*
X88066904Y-141694819D02*
X88162142Y-141742438D01*
X88162142Y-141742438D02*
X88257380Y-141837676D01*
X88257380Y-141837676D02*
X88304999Y-142028152D01*
X88304999Y-142028152D02*
X88304999Y-142361485D01*
X88304999Y-142361485D02*
X88257380Y-142551961D01*
X88257380Y-142551961D02*
X88162142Y-142647200D01*
X88162142Y-142647200D02*
X88066904Y-142694819D01*
X88066904Y-142694819D02*
X87876428Y-142694819D01*
X87876428Y-142694819D02*
X87781190Y-142647200D01*
X87781190Y-142647200D02*
X87685952Y-142551961D01*
X87685952Y-142551961D02*
X87638333Y-142361485D01*
X87638333Y-142361485D02*
X87638333Y-142028152D01*
X87638333Y-142028152D02*
X87685952Y-141837676D01*
X87685952Y-141837676D02*
X87781190Y-141742438D01*
X87781190Y-141742438D02*
X87876428Y-141694819D01*
X88733571Y-142694819D02*
X88733571Y-141694819D01*
X88733571Y-141694819D02*
X89114523Y-141694819D01*
X89114523Y-141694819D02*
X89209761Y-141742438D01*
X89209761Y-141742438D02*
X89257380Y-141790057D01*
X89257380Y-141790057D02*
X89304999Y-141885295D01*
X89304999Y-141885295D02*
X89304999Y-142028152D01*
X89304999Y-142028152D02*
X89257380Y-142123390D01*
X89257380Y-142123390D02*
X89209761Y-142171009D01*
X89209761Y-142171009D02*
X89114523Y-142218628D01*
X89114523Y-142218628D02*
X88733571Y-142218628D01*
X89590714Y-141694819D02*
X90162142Y-141694819D01*
X89876428Y-142694819D02*
X89876428Y-141694819D01*
X90257381Y-142790057D02*
X91019285Y-142790057D01*
X91257381Y-142694819D02*
X91257381Y-141694819D01*
X91257381Y-141694819D02*
X91638333Y-141694819D01*
X91638333Y-141694819D02*
X91733571Y-141742438D01*
X91733571Y-141742438D02*
X91781190Y-141790057D01*
X91781190Y-141790057D02*
X91828809Y-141885295D01*
X91828809Y-141885295D02*
X91828809Y-142028152D01*
X91828809Y-142028152D02*
X91781190Y-142123390D01*
X91781190Y-142123390D02*
X91733571Y-142171009D01*
X91733571Y-142171009D02*
X91638333Y-142218628D01*
X91638333Y-142218628D02*
X91257381Y-142218628D01*
X92162143Y-141694819D02*
X92400238Y-142694819D01*
X92400238Y-142694819D02*
X92590714Y-141980533D01*
X92590714Y-141980533D02*
X92781190Y-142694819D01*
X92781190Y-142694819D02*
X93019286Y-141694819D01*
X93971666Y-142694819D02*
X93638333Y-142218628D01*
X93400238Y-142694819D02*
X93400238Y-141694819D01*
X93400238Y-141694819D02*
X93781190Y-141694819D01*
X93781190Y-141694819D02*
X93876428Y-141742438D01*
X93876428Y-141742438D02*
X93924047Y-141790057D01*
X93924047Y-141790057D02*
X93971666Y-141885295D01*
X93971666Y-141885295D02*
X93971666Y-142028152D01*
X93971666Y-142028152D02*
X93924047Y-142123390D01*
X93924047Y-142123390D02*
X93876428Y-142171009D01*
X93876428Y-142171009D02*
X93781190Y-142218628D01*
X93781190Y-142218628D02*
X93400238Y-142218628D01*
X129595714Y-64542200D02*
X129738571Y-64589819D01*
X129738571Y-64589819D02*
X129976666Y-64589819D01*
X129976666Y-64589819D02*
X130071904Y-64542200D01*
X130071904Y-64542200D02*
X130119523Y-64494580D01*
X130119523Y-64494580D02*
X130167142Y-64399342D01*
X130167142Y-64399342D02*
X130167142Y-64304104D01*
X130167142Y-64304104D02*
X130119523Y-64208866D01*
X130119523Y-64208866D02*
X130071904Y-64161247D01*
X130071904Y-64161247D02*
X129976666Y-64113628D01*
X129976666Y-64113628D02*
X129786190Y-64066009D01*
X129786190Y-64066009D02*
X129690952Y-64018390D01*
X129690952Y-64018390D02*
X129643333Y-63970771D01*
X129643333Y-63970771D02*
X129595714Y-63875533D01*
X129595714Y-63875533D02*
X129595714Y-63780295D01*
X129595714Y-63780295D02*
X129643333Y-63685057D01*
X129643333Y-63685057D02*
X129690952Y-63637438D01*
X129690952Y-63637438D02*
X129786190Y-63589819D01*
X129786190Y-63589819D02*
X130024285Y-63589819D01*
X130024285Y-63589819D02*
X130167142Y-63637438D01*
X130595714Y-64589819D02*
X130595714Y-63589819D01*
X130595714Y-63589819D02*
X130833809Y-63589819D01*
X130833809Y-63589819D02*
X130976666Y-63637438D01*
X130976666Y-63637438D02*
X131071904Y-63732676D01*
X131071904Y-63732676D02*
X131119523Y-63827914D01*
X131119523Y-63827914D02*
X131167142Y-64018390D01*
X131167142Y-64018390D02*
X131167142Y-64161247D01*
X131167142Y-64161247D02*
X131119523Y-64351723D01*
X131119523Y-64351723D02*
X131071904Y-64446961D01*
X131071904Y-64446961D02*
X130976666Y-64542200D01*
X130976666Y-64542200D02*
X130833809Y-64589819D01*
X130833809Y-64589819D02*
X130595714Y-64589819D01*
X131548095Y-64304104D02*
X132024285Y-64304104D01*
X131452857Y-64589819D02*
X131786190Y-63589819D01*
X131786190Y-63589819D02*
X132119523Y-64589819D01*
X192524286Y-118437819D02*
X192524286Y-117437819D01*
X192524286Y-117437819D02*
X192762381Y-117437819D01*
X192762381Y-117437819D02*
X192905238Y-117485438D01*
X192905238Y-117485438D02*
X193000476Y-117580676D01*
X193000476Y-117580676D02*
X193048095Y-117675914D01*
X193048095Y-117675914D02*
X193095714Y-117866390D01*
X193095714Y-117866390D02*
X193095714Y-118009247D01*
X193095714Y-118009247D02*
X193048095Y-118199723D01*
X193048095Y-118199723D02*
X193000476Y-118294961D01*
X193000476Y-118294961D02*
X192905238Y-118390200D01*
X192905238Y-118390200D02*
X192762381Y-118437819D01*
X192762381Y-118437819D02*
X192524286Y-118437819D01*
X193524286Y-117437819D02*
X193524286Y-118247342D01*
X193524286Y-118247342D02*
X193571905Y-118342580D01*
X193571905Y-118342580D02*
X193619524Y-118390200D01*
X193619524Y-118390200D02*
X193714762Y-118437819D01*
X193714762Y-118437819D02*
X193905238Y-118437819D01*
X193905238Y-118437819D02*
X194000476Y-118390200D01*
X194000476Y-118390200D02*
X194048095Y-118342580D01*
X194048095Y-118342580D02*
X194095714Y-118247342D01*
X194095714Y-118247342D02*
X194095714Y-117437819D01*
X194429048Y-117437819D02*
X195000476Y-117437819D01*
X194714762Y-118437819D02*
X194714762Y-117437819D01*
X195333810Y-118056866D02*
X196095715Y-118056866D01*
X140144523Y-140424819D02*
X139668333Y-140424819D01*
X139668333Y-140424819D02*
X139620714Y-140901009D01*
X139620714Y-140901009D02*
X139668333Y-140853390D01*
X139668333Y-140853390D02*
X139763571Y-140805771D01*
X139763571Y-140805771D02*
X140001666Y-140805771D01*
X140001666Y-140805771D02*
X140096904Y-140853390D01*
X140096904Y-140853390D02*
X140144523Y-140901009D01*
X140144523Y-140901009D02*
X140192142Y-140996247D01*
X140192142Y-140996247D02*
X140192142Y-141234342D01*
X140192142Y-141234342D02*
X140144523Y-141329580D01*
X140144523Y-141329580D02*
X140096904Y-141377200D01*
X140096904Y-141377200D02*
X140001666Y-141424819D01*
X140001666Y-141424819D02*
X139763571Y-141424819D01*
X139763571Y-141424819D02*
X139668333Y-141377200D01*
X139668333Y-141377200D02*
X139620714Y-141329580D01*
X140477857Y-140424819D02*
X140811190Y-141424819D01*
X140811190Y-141424819D02*
X141144523Y-140424819D01*
X151781190Y-57319104D02*
X152257380Y-57319104D01*
X151685952Y-57604819D02*
X152019285Y-56604819D01*
X152019285Y-56604819D02*
X152352618Y-57604819D01*
X152685952Y-57604819D02*
X152685952Y-56604819D01*
X152685952Y-56604819D02*
X152924047Y-56604819D01*
X152924047Y-56604819D02*
X153066904Y-56652438D01*
X153066904Y-56652438D02*
X153162142Y-56747676D01*
X153162142Y-56747676D02*
X153209761Y-56842914D01*
X153209761Y-56842914D02*
X153257380Y-57033390D01*
X153257380Y-57033390D02*
X153257380Y-57176247D01*
X153257380Y-57176247D02*
X153209761Y-57366723D01*
X153209761Y-57366723D02*
X153162142Y-57461961D01*
X153162142Y-57461961D02*
X153066904Y-57557200D01*
X153066904Y-57557200D02*
X152924047Y-57604819D01*
X152924047Y-57604819D02*
X152685952Y-57604819D01*
X154257380Y-57509580D02*
X154209761Y-57557200D01*
X154209761Y-57557200D02*
X154066904Y-57604819D01*
X154066904Y-57604819D02*
X153971666Y-57604819D01*
X153971666Y-57604819D02*
X153828809Y-57557200D01*
X153828809Y-57557200D02*
X153733571Y-57461961D01*
X153733571Y-57461961D02*
X153685952Y-57366723D01*
X153685952Y-57366723D02*
X153638333Y-57176247D01*
X153638333Y-57176247D02*
X153638333Y-57033390D01*
X153638333Y-57033390D02*
X153685952Y-56842914D01*
X153685952Y-56842914D02*
X153733571Y-56747676D01*
X153733571Y-56747676D02*
X153828809Y-56652438D01*
X153828809Y-56652438D02*
X153971666Y-56604819D01*
X153971666Y-56604819D02*
X154066904Y-56604819D01*
X154066904Y-56604819D02*
X154209761Y-56652438D01*
X154209761Y-56652438D02*
X154257380Y-56700057D01*
X154447857Y-57700057D02*
X155209761Y-57700057D01*
X155924047Y-56604819D02*
X155447857Y-56604819D01*
X155447857Y-56604819D02*
X155400238Y-57081009D01*
X155400238Y-57081009D02*
X155447857Y-57033390D01*
X155447857Y-57033390D02*
X155543095Y-56985771D01*
X155543095Y-56985771D02*
X155781190Y-56985771D01*
X155781190Y-56985771D02*
X155876428Y-57033390D01*
X155876428Y-57033390D02*
X155924047Y-57081009D01*
X155924047Y-57081009D02*
X155971666Y-57176247D01*
X155971666Y-57176247D02*
X155971666Y-57414342D01*
X155971666Y-57414342D02*
X155924047Y-57509580D01*
X155924047Y-57509580D02*
X155876428Y-57557200D01*
X155876428Y-57557200D02*
X155781190Y-57604819D01*
X155781190Y-57604819D02*
X155543095Y-57604819D01*
X155543095Y-57604819D02*
X155447857Y-57557200D01*
X155447857Y-57557200D02*
X155400238Y-57509580D01*
X156352619Y-57319104D02*
X156828809Y-57319104D01*
X156257381Y-57604819D02*
X156590714Y-56604819D01*
X156590714Y-56604819D02*
X156924047Y-57604819D01*
X150447618Y-60779819D02*
X149876190Y-60779819D01*
X150161904Y-60779819D02*
X150161904Y-59779819D01*
X150161904Y-59779819D02*
X150066666Y-59922676D01*
X150066666Y-59922676D02*
X149971428Y-60017914D01*
X149971428Y-60017914D02*
X149876190Y-60065533D01*
X150828571Y-60494104D02*
X151304761Y-60494104D01*
X150733333Y-60779819D02*
X151066666Y-59779819D01*
X151066666Y-59779819D02*
X151399999Y-60779819D01*
X151495238Y-60875057D02*
X152257142Y-60875057D01*
X152685714Y-59779819D02*
X152876190Y-59779819D01*
X152876190Y-59779819D02*
X152971428Y-59827438D01*
X152971428Y-59827438D02*
X153066666Y-59922676D01*
X153066666Y-59922676D02*
X153114285Y-60113152D01*
X153114285Y-60113152D02*
X153114285Y-60446485D01*
X153114285Y-60446485D02*
X153066666Y-60636961D01*
X153066666Y-60636961D02*
X152971428Y-60732200D01*
X152971428Y-60732200D02*
X152876190Y-60779819D01*
X152876190Y-60779819D02*
X152685714Y-60779819D01*
X152685714Y-60779819D02*
X152590476Y-60732200D01*
X152590476Y-60732200D02*
X152495238Y-60636961D01*
X152495238Y-60636961D02*
X152447619Y-60446485D01*
X152447619Y-60446485D02*
X152447619Y-60113152D01*
X152447619Y-60113152D02*
X152495238Y-59922676D01*
X152495238Y-59922676D02*
X152590476Y-59827438D01*
X152590476Y-59827438D02*
X152685714Y-59779819D01*
X153542857Y-59779819D02*
X153542857Y-60589342D01*
X153542857Y-60589342D02*
X153590476Y-60684580D01*
X153590476Y-60684580D02*
X153638095Y-60732200D01*
X153638095Y-60732200D02*
X153733333Y-60779819D01*
X153733333Y-60779819D02*
X153923809Y-60779819D01*
X153923809Y-60779819D02*
X154019047Y-60732200D01*
X154019047Y-60732200D02*
X154066666Y-60684580D01*
X154066666Y-60684580D02*
X154114285Y-60589342D01*
X154114285Y-60589342D02*
X154114285Y-59779819D01*
X154447619Y-59779819D02*
X155019047Y-59779819D01*
X154733333Y-60779819D02*
X154733333Y-59779819D01*
X169815238Y-74384819D02*
X170148571Y-75384819D01*
X170148571Y-75384819D02*
X170481904Y-74384819D01*
X171386666Y-75289580D02*
X171339047Y-75337200D01*
X171339047Y-75337200D02*
X171196190Y-75384819D01*
X171196190Y-75384819D02*
X171100952Y-75384819D01*
X171100952Y-75384819D02*
X170958095Y-75337200D01*
X170958095Y-75337200D02*
X170862857Y-75241961D01*
X170862857Y-75241961D02*
X170815238Y-75146723D01*
X170815238Y-75146723D02*
X170767619Y-74956247D01*
X170767619Y-74956247D02*
X170767619Y-74813390D01*
X170767619Y-74813390D02*
X170815238Y-74622914D01*
X170815238Y-74622914D02*
X170862857Y-74527676D01*
X170862857Y-74527676D02*
X170958095Y-74432438D01*
X170958095Y-74432438D02*
X171100952Y-74384819D01*
X171100952Y-74384819D02*
X171196190Y-74384819D01*
X171196190Y-74384819D02*
X171339047Y-74432438D01*
X171339047Y-74432438D02*
X171386666Y-74480057D01*
X171767619Y-75099104D02*
X172243809Y-75099104D01*
X171672381Y-75384819D02*
X172005714Y-74384819D01*
X172005714Y-74384819D02*
X172339047Y-75384819D01*
X172672381Y-75384819D02*
X172672381Y-74384819D01*
X172672381Y-74384819D02*
X173053333Y-74384819D01*
X173053333Y-74384819D02*
X173148571Y-74432438D01*
X173148571Y-74432438D02*
X173196190Y-74480057D01*
X173196190Y-74480057D02*
X173243809Y-74575295D01*
X173243809Y-74575295D02*
X173243809Y-74718152D01*
X173243809Y-74718152D02*
X173196190Y-74813390D01*
X173196190Y-74813390D02*
X173148571Y-74861009D01*
X173148571Y-74861009D02*
X173053333Y-74908628D01*
X173053333Y-74908628D02*
X172672381Y-74908628D01*
X173434286Y-75480057D02*
X174196190Y-75480057D01*
X174434286Y-75384819D02*
X174434286Y-74384819D01*
X174910476Y-75384819D02*
X174910476Y-74384819D01*
X174910476Y-74384819D02*
X175481904Y-75384819D01*
X175481904Y-75384819D02*
X175481904Y-74384819D01*
X146741000Y-64478819D02*
X147312428Y-64478819D01*
X147026714Y-65478819D02*
X147026714Y-64478819D01*
X147645762Y-65478819D02*
X147645762Y-64478819D01*
X147645762Y-64478819D02*
X148026714Y-64478819D01*
X148026714Y-64478819D02*
X148121952Y-64526438D01*
X148121952Y-64526438D02*
X148169571Y-64574057D01*
X148169571Y-64574057D02*
X148217190Y-64669295D01*
X148217190Y-64669295D02*
X148217190Y-64812152D01*
X148217190Y-64812152D02*
X148169571Y-64907390D01*
X148169571Y-64907390D02*
X148121952Y-64955009D01*
X148121952Y-64955009D02*
X148026714Y-65002628D01*
X148026714Y-65002628D02*
X147645762Y-65002628D01*
X148598143Y-65431200D02*
X148741000Y-65478819D01*
X148741000Y-65478819D02*
X148979095Y-65478819D01*
X148979095Y-65478819D02*
X149074333Y-65431200D01*
X149074333Y-65431200D02*
X149121952Y-65383580D01*
X149121952Y-65383580D02*
X149169571Y-65288342D01*
X149169571Y-65288342D02*
X149169571Y-65193104D01*
X149169571Y-65193104D02*
X149121952Y-65097866D01*
X149121952Y-65097866D02*
X149074333Y-65050247D01*
X149074333Y-65050247D02*
X148979095Y-65002628D01*
X148979095Y-65002628D02*
X148788619Y-64955009D01*
X148788619Y-64955009D02*
X148693381Y-64907390D01*
X148693381Y-64907390D02*
X148645762Y-64859771D01*
X148645762Y-64859771D02*
X148598143Y-64764533D01*
X148598143Y-64764533D02*
X148598143Y-64669295D01*
X148598143Y-64669295D02*
X148645762Y-64574057D01*
X148645762Y-64574057D02*
X148693381Y-64526438D01*
X148693381Y-64526438D02*
X148788619Y-64478819D01*
X148788619Y-64478819D02*
X149026714Y-64478819D01*
X149026714Y-64478819D02*
X149169571Y-64526438D01*
X149360048Y-65574057D02*
X150121952Y-65574057D01*
X150217191Y-64478819D02*
X150550524Y-65478819D01*
X150550524Y-65478819D02*
X150883857Y-64478819D01*
X151788619Y-65383580D02*
X151741000Y-65431200D01*
X151741000Y-65431200D02*
X151598143Y-65478819D01*
X151598143Y-65478819D02*
X151502905Y-65478819D01*
X151502905Y-65478819D02*
X151360048Y-65431200D01*
X151360048Y-65431200D02*
X151264810Y-65335961D01*
X151264810Y-65335961D02*
X151217191Y-65240723D01*
X151217191Y-65240723D02*
X151169572Y-65050247D01*
X151169572Y-65050247D02*
X151169572Y-64907390D01*
X151169572Y-64907390D02*
X151217191Y-64716914D01*
X151217191Y-64716914D02*
X151264810Y-64621676D01*
X151264810Y-64621676D02*
X151360048Y-64526438D01*
X151360048Y-64526438D02*
X151502905Y-64478819D01*
X151502905Y-64478819D02*
X151598143Y-64478819D01*
X151598143Y-64478819D02*
X151741000Y-64526438D01*
X151741000Y-64526438D02*
X151788619Y-64574057D01*
X152169572Y-65193104D02*
X152645762Y-65193104D01*
X152074334Y-65478819D02*
X152407667Y-64478819D01*
X152407667Y-64478819D02*
X152741000Y-65478819D01*
X153074334Y-65478819D02*
X153074334Y-64478819D01*
X153074334Y-64478819D02*
X153455286Y-64478819D01*
X153455286Y-64478819D02*
X153550524Y-64526438D01*
X153550524Y-64526438D02*
X153598143Y-64574057D01*
X153598143Y-64574057D02*
X153645762Y-64669295D01*
X153645762Y-64669295D02*
X153645762Y-64812152D01*
X153645762Y-64812152D02*
X153598143Y-64907390D01*
X153598143Y-64907390D02*
X153550524Y-64955009D01*
X153550524Y-64955009D02*
X153455286Y-65002628D01*
X153455286Y-65002628D02*
X153074334Y-65002628D01*
X192524286Y-107769819D02*
X192524286Y-106769819D01*
X192524286Y-106769819D02*
X192762381Y-106769819D01*
X192762381Y-106769819D02*
X192905238Y-106817438D01*
X192905238Y-106817438D02*
X193000476Y-106912676D01*
X193000476Y-106912676D02*
X193048095Y-107007914D01*
X193048095Y-107007914D02*
X193095714Y-107198390D01*
X193095714Y-107198390D02*
X193095714Y-107341247D01*
X193095714Y-107341247D02*
X193048095Y-107531723D01*
X193048095Y-107531723D02*
X193000476Y-107626961D01*
X193000476Y-107626961D02*
X192905238Y-107722200D01*
X192905238Y-107722200D02*
X192762381Y-107769819D01*
X192762381Y-107769819D02*
X192524286Y-107769819D01*
X193524286Y-106769819D02*
X193524286Y-107579342D01*
X193524286Y-107579342D02*
X193571905Y-107674580D01*
X193571905Y-107674580D02*
X193619524Y-107722200D01*
X193619524Y-107722200D02*
X193714762Y-107769819D01*
X193714762Y-107769819D02*
X193905238Y-107769819D01*
X193905238Y-107769819D02*
X194000476Y-107722200D01*
X194000476Y-107722200D02*
X194048095Y-107674580D01*
X194048095Y-107674580D02*
X194095714Y-107579342D01*
X194095714Y-107579342D02*
X194095714Y-106769819D01*
X194429048Y-106769819D02*
X195000476Y-106769819D01*
X194714762Y-107769819D02*
X194714762Y-106769819D01*
X195333810Y-107388866D02*
X196095715Y-107388866D01*
X195714762Y-107769819D02*
X195714762Y-107007914D01*
X182753095Y-56652438D02*
X182657857Y-56604819D01*
X182657857Y-56604819D02*
X182515000Y-56604819D01*
X182515000Y-56604819D02*
X182372143Y-56652438D01*
X182372143Y-56652438D02*
X182276905Y-56747676D01*
X182276905Y-56747676D02*
X182229286Y-56842914D01*
X182229286Y-56842914D02*
X182181667Y-57033390D01*
X182181667Y-57033390D02*
X182181667Y-57176247D01*
X182181667Y-57176247D02*
X182229286Y-57366723D01*
X182229286Y-57366723D02*
X182276905Y-57461961D01*
X182276905Y-57461961D02*
X182372143Y-57557200D01*
X182372143Y-57557200D02*
X182515000Y-57604819D01*
X182515000Y-57604819D02*
X182610238Y-57604819D01*
X182610238Y-57604819D02*
X182753095Y-57557200D01*
X182753095Y-57557200D02*
X182800714Y-57509580D01*
X182800714Y-57509580D02*
X182800714Y-57176247D01*
X182800714Y-57176247D02*
X182610238Y-57176247D01*
X183229286Y-57604819D02*
X183229286Y-56604819D01*
X183229286Y-56604819D02*
X183800714Y-57604819D01*
X183800714Y-57604819D02*
X183800714Y-56604819D01*
X184276905Y-57604819D02*
X184276905Y-56604819D01*
X184276905Y-56604819D02*
X184515000Y-56604819D01*
X184515000Y-56604819D02*
X184657857Y-56652438D01*
X184657857Y-56652438D02*
X184753095Y-56747676D01*
X184753095Y-56747676D02*
X184800714Y-56842914D01*
X184800714Y-56842914D02*
X184848333Y-57033390D01*
X184848333Y-57033390D02*
X184848333Y-57176247D01*
X184848333Y-57176247D02*
X184800714Y-57366723D01*
X184800714Y-57366723D02*
X184753095Y-57461961D01*
X184753095Y-57461961D02*
X184657857Y-57557200D01*
X184657857Y-57557200D02*
X184515000Y-57604819D01*
X184515000Y-57604819D02*
X184276905Y-57604819D01*
X161465000Y-57319104D02*
X161941190Y-57319104D01*
X161369762Y-57604819D02*
X161703095Y-56604819D01*
X161703095Y-56604819D02*
X162036428Y-57604819D01*
X162369762Y-57604819D02*
X162369762Y-56604819D01*
X162369762Y-56604819D02*
X162607857Y-56604819D01*
X162607857Y-56604819D02*
X162750714Y-56652438D01*
X162750714Y-56652438D02*
X162845952Y-56747676D01*
X162845952Y-56747676D02*
X162893571Y-56842914D01*
X162893571Y-56842914D02*
X162941190Y-57033390D01*
X162941190Y-57033390D02*
X162941190Y-57176247D01*
X162941190Y-57176247D02*
X162893571Y-57366723D01*
X162893571Y-57366723D02*
X162845952Y-57461961D01*
X162845952Y-57461961D02*
X162750714Y-57557200D01*
X162750714Y-57557200D02*
X162607857Y-57604819D01*
X162607857Y-57604819D02*
X162369762Y-57604819D01*
X163941190Y-57509580D02*
X163893571Y-57557200D01*
X163893571Y-57557200D02*
X163750714Y-57604819D01*
X163750714Y-57604819D02*
X163655476Y-57604819D01*
X163655476Y-57604819D02*
X163512619Y-57557200D01*
X163512619Y-57557200D02*
X163417381Y-57461961D01*
X163417381Y-57461961D02*
X163369762Y-57366723D01*
X163369762Y-57366723D02*
X163322143Y-57176247D01*
X163322143Y-57176247D02*
X163322143Y-57033390D01*
X163322143Y-57033390D02*
X163369762Y-56842914D01*
X163369762Y-56842914D02*
X163417381Y-56747676D01*
X163417381Y-56747676D02*
X163512619Y-56652438D01*
X163512619Y-56652438D02*
X163655476Y-56604819D01*
X163655476Y-56604819D02*
X163750714Y-56604819D01*
X163750714Y-56604819D02*
X163893571Y-56652438D01*
X163893571Y-56652438D02*
X163941190Y-56700057D01*
X164131667Y-57700057D02*
X164893571Y-57700057D01*
X165655476Y-57604819D02*
X165084048Y-57604819D01*
X165369762Y-57604819D02*
X165369762Y-56604819D01*
X165369762Y-56604819D02*
X165274524Y-56747676D01*
X165274524Y-56747676D02*
X165179286Y-56842914D01*
X165179286Y-56842914D02*
X165084048Y-56890533D01*
X166274524Y-56604819D02*
X166369762Y-56604819D01*
X166369762Y-56604819D02*
X166465000Y-56652438D01*
X166465000Y-56652438D02*
X166512619Y-56700057D01*
X166512619Y-56700057D02*
X166560238Y-56795295D01*
X166560238Y-56795295D02*
X166607857Y-56985771D01*
X166607857Y-56985771D02*
X166607857Y-57223866D01*
X166607857Y-57223866D02*
X166560238Y-57414342D01*
X166560238Y-57414342D02*
X166512619Y-57509580D01*
X166512619Y-57509580D02*
X166465000Y-57557200D01*
X166465000Y-57557200D02*
X166369762Y-57604819D01*
X166369762Y-57604819D02*
X166274524Y-57604819D01*
X166274524Y-57604819D02*
X166179286Y-57557200D01*
X166179286Y-57557200D02*
X166131667Y-57509580D01*
X166131667Y-57509580D02*
X166084048Y-57414342D01*
X166084048Y-57414342D02*
X166036429Y-57223866D01*
X166036429Y-57223866D02*
X166036429Y-56985771D01*
X166036429Y-56985771D02*
X166084048Y-56795295D01*
X166084048Y-56795295D02*
X166131667Y-56700057D01*
X166131667Y-56700057D02*
X166179286Y-56652438D01*
X166179286Y-56652438D02*
X166274524Y-56604819D01*
X166988810Y-57319104D02*
X167465000Y-57319104D01*
X166893572Y-57604819D02*
X167226905Y-56604819D01*
X167226905Y-56604819D02*
X167560238Y-57604819D01*
X170926428Y-60779819D02*
X170355000Y-60779819D01*
X170640714Y-60779819D02*
X170640714Y-59779819D01*
X170640714Y-59779819D02*
X170545476Y-59922676D01*
X170545476Y-59922676D02*
X170450238Y-60017914D01*
X170450238Y-60017914D02*
X170355000Y-60065533D01*
X171545476Y-59779819D02*
X171640714Y-59779819D01*
X171640714Y-59779819D02*
X171735952Y-59827438D01*
X171735952Y-59827438D02*
X171783571Y-59875057D01*
X171783571Y-59875057D02*
X171831190Y-59970295D01*
X171831190Y-59970295D02*
X171878809Y-60160771D01*
X171878809Y-60160771D02*
X171878809Y-60398866D01*
X171878809Y-60398866D02*
X171831190Y-60589342D01*
X171831190Y-60589342D02*
X171783571Y-60684580D01*
X171783571Y-60684580D02*
X171735952Y-60732200D01*
X171735952Y-60732200D02*
X171640714Y-60779819D01*
X171640714Y-60779819D02*
X171545476Y-60779819D01*
X171545476Y-60779819D02*
X171450238Y-60732200D01*
X171450238Y-60732200D02*
X171402619Y-60684580D01*
X171402619Y-60684580D02*
X171355000Y-60589342D01*
X171355000Y-60589342D02*
X171307381Y-60398866D01*
X171307381Y-60398866D02*
X171307381Y-60160771D01*
X171307381Y-60160771D02*
X171355000Y-59970295D01*
X171355000Y-59970295D02*
X171402619Y-59875057D01*
X171402619Y-59875057D02*
X171450238Y-59827438D01*
X171450238Y-59827438D02*
X171545476Y-59779819D01*
X172259762Y-60494104D02*
X172735952Y-60494104D01*
X172164524Y-60779819D02*
X172497857Y-59779819D01*
X172497857Y-59779819D02*
X172831190Y-60779819D01*
X172926429Y-60875057D02*
X173688333Y-60875057D01*
X174116905Y-59779819D02*
X174307381Y-59779819D01*
X174307381Y-59779819D02*
X174402619Y-59827438D01*
X174402619Y-59827438D02*
X174497857Y-59922676D01*
X174497857Y-59922676D02*
X174545476Y-60113152D01*
X174545476Y-60113152D02*
X174545476Y-60446485D01*
X174545476Y-60446485D02*
X174497857Y-60636961D01*
X174497857Y-60636961D02*
X174402619Y-60732200D01*
X174402619Y-60732200D02*
X174307381Y-60779819D01*
X174307381Y-60779819D02*
X174116905Y-60779819D01*
X174116905Y-60779819D02*
X174021667Y-60732200D01*
X174021667Y-60732200D02*
X173926429Y-60636961D01*
X173926429Y-60636961D02*
X173878810Y-60446485D01*
X173878810Y-60446485D02*
X173878810Y-60113152D01*
X173878810Y-60113152D02*
X173926429Y-59922676D01*
X173926429Y-59922676D02*
X174021667Y-59827438D01*
X174021667Y-59827438D02*
X174116905Y-59779819D01*
X174974048Y-59779819D02*
X174974048Y-60589342D01*
X174974048Y-60589342D02*
X175021667Y-60684580D01*
X175021667Y-60684580D02*
X175069286Y-60732200D01*
X175069286Y-60732200D02*
X175164524Y-60779819D01*
X175164524Y-60779819D02*
X175355000Y-60779819D01*
X175355000Y-60779819D02*
X175450238Y-60732200D01*
X175450238Y-60732200D02*
X175497857Y-60684580D01*
X175497857Y-60684580D02*
X175545476Y-60589342D01*
X175545476Y-60589342D02*
X175545476Y-59779819D01*
X175878810Y-59779819D02*
X176450238Y-59779819D01*
X176164524Y-60779819D02*
X176164524Y-59779819D01*
X168719762Y-132042819D02*
X169053095Y-133042819D01*
X169053095Y-133042819D02*
X169386428Y-132042819D01*
X170243571Y-132090438D02*
X170148333Y-132042819D01*
X170148333Y-132042819D02*
X170005476Y-132042819D01*
X170005476Y-132042819D02*
X169862619Y-132090438D01*
X169862619Y-132090438D02*
X169767381Y-132185676D01*
X169767381Y-132185676D02*
X169719762Y-132280914D01*
X169719762Y-132280914D02*
X169672143Y-132471390D01*
X169672143Y-132471390D02*
X169672143Y-132614247D01*
X169672143Y-132614247D02*
X169719762Y-132804723D01*
X169719762Y-132804723D02*
X169767381Y-132899961D01*
X169767381Y-132899961D02*
X169862619Y-132995200D01*
X169862619Y-132995200D02*
X170005476Y-133042819D01*
X170005476Y-133042819D02*
X170100714Y-133042819D01*
X170100714Y-133042819D02*
X170243571Y-132995200D01*
X170243571Y-132995200D02*
X170291190Y-132947580D01*
X170291190Y-132947580D02*
X170291190Y-132614247D01*
X170291190Y-132614247D02*
X170100714Y-132614247D01*
X170672143Y-132757104D02*
X171148333Y-132757104D01*
X170576905Y-133042819D02*
X170910238Y-132042819D01*
X170910238Y-132042819D02*
X171243571Y-133042819D01*
X171434048Y-132042819D02*
X172005476Y-132042819D01*
X171719762Y-133042819D02*
X171719762Y-132042819D01*
X172338810Y-132519009D02*
X172672143Y-132519009D01*
X172815000Y-133042819D02*
X172338810Y-133042819D01*
X172338810Y-133042819D02*
X172338810Y-132042819D01*
X172338810Y-132042819D02*
X172815000Y-132042819D01*
X135969524Y-64542200D02*
X136112381Y-64589819D01*
X136112381Y-64589819D02*
X136350476Y-64589819D01*
X136350476Y-64589819D02*
X136445714Y-64542200D01*
X136445714Y-64542200D02*
X136493333Y-64494580D01*
X136493333Y-64494580D02*
X136540952Y-64399342D01*
X136540952Y-64399342D02*
X136540952Y-64304104D01*
X136540952Y-64304104D02*
X136493333Y-64208866D01*
X136493333Y-64208866D02*
X136445714Y-64161247D01*
X136445714Y-64161247D02*
X136350476Y-64113628D01*
X136350476Y-64113628D02*
X136160000Y-64066009D01*
X136160000Y-64066009D02*
X136064762Y-64018390D01*
X136064762Y-64018390D02*
X136017143Y-63970771D01*
X136017143Y-63970771D02*
X135969524Y-63875533D01*
X135969524Y-63875533D02*
X135969524Y-63780295D01*
X135969524Y-63780295D02*
X136017143Y-63685057D01*
X136017143Y-63685057D02*
X136064762Y-63637438D01*
X136064762Y-63637438D02*
X136160000Y-63589819D01*
X136160000Y-63589819D02*
X136398095Y-63589819D01*
X136398095Y-63589819D02*
X136540952Y-63637438D01*
X137540952Y-64494580D02*
X137493333Y-64542200D01*
X137493333Y-64542200D02*
X137350476Y-64589819D01*
X137350476Y-64589819D02*
X137255238Y-64589819D01*
X137255238Y-64589819D02*
X137112381Y-64542200D01*
X137112381Y-64542200D02*
X137017143Y-64446961D01*
X137017143Y-64446961D02*
X136969524Y-64351723D01*
X136969524Y-64351723D02*
X136921905Y-64161247D01*
X136921905Y-64161247D02*
X136921905Y-64018390D01*
X136921905Y-64018390D02*
X136969524Y-63827914D01*
X136969524Y-63827914D02*
X137017143Y-63732676D01*
X137017143Y-63732676D02*
X137112381Y-63637438D01*
X137112381Y-63637438D02*
X137255238Y-63589819D01*
X137255238Y-63589819D02*
X137350476Y-63589819D01*
X137350476Y-63589819D02*
X137493333Y-63637438D01*
X137493333Y-63637438D02*
X137540952Y-63685057D01*
X138445714Y-64589819D02*
X137969524Y-64589819D01*
X137969524Y-64589819D02*
X137969524Y-63589819D01*
X145922476Y-132804819D02*
X146255809Y-133804819D01*
X146255809Y-133804819D02*
X146589142Y-132804819D01*
X146922476Y-133804819D02*
X146922476Y-132804819D01*
X147398666Y-133804819D02*
X147398666Y-132804819D01*
X147398666Y-132804819D02*
X147970094Y-133804819D01*
X147970094Y-133804819D02*
X147970094Y-132804819D01*
X148208190Y-133900057D02*
X148970094Y-133900057D01*
X149160571Y-133757200D02*
X149303428Y-133804819D01*
X149303428Y-133804819D02*
X149541523Y-133804819D01*
X149541523Y-133804819D02*
X149636761Y-133757200D01*
X149636761Y-133757200D02*
X149684380Y-133709580D01*
X149684380Y-133709580D02*
X149731999Y-133614342D01*
X149731999Y-133614342D02*
X149731999Y-133519104D01*
X149731999Y-133519104D02*
X149684380Y-133423866D01*
X149684380Y-133423866D02*
X149636761Y-133376247D01*
X149636761Y-133376247D02*
X149541523Y-133328628D01*
X149541523Y-133328628D02*
X149351047Y-133281009D01*
X149351047Y-133281009D02*
X149255809Y-133233390D01*
X149255809Y-133233390D02*
X149208190Y-133185771D01*
X149208190Y-133185771D02*
X149160571Y-133090533D01*
X149160571Y-133090533D02*
X149160571Y-132995295D01*
X149160571Y-132995295D02*
X149208190Y-132900057D01*
X149208190Y-132900057D02*
X149255809Y-132852438D01*
X149255809Y-132852438D02*
X149351047Y-132804819D01*
X149351047Y-132804819D02*
X149589142Y-132804819D01*
X149589142Y-132804819D02*
X149731999Y-132852438D01*
X150160571Y-133281009D02*
X150493904Y-133281009D01*
X150636761Y-133804819D02*
X150160571Y-133804819D01*
X150160571Y-133804819D02*
X150160571Y-132804819D01*
X150160571Y-132804819D02*
X150636761Y-132804819D01*
X151541523Y-133804819D02*
X151065333Y-133804819D01*
X151065333Y-133804819D02*
X151065333Y-132804819D01*
X160559999Y-59779819D02*
X160083809Y-59779819D01*
X160083809Y-59779819D02*
X160036190Y-60256009D01*
X160036190Y-60256009D02*
X160083809Y-60208390D01*
X160083809Y-60208390D02*
X160179047Y-60160771D01*
X160179047Y-60160771D02*
X160417142Y-60160771D01*
X160417142Y-60160771D02*
X160512380Y-60208390D01*
X160512380Y-60208390D02*
X160559999Y-60256009D01*
X160559999Y-60256009D02*
X160607618Y-60351247D01*
X160607618Y-60351247D02*
X160607618Y-60589342D01*
X160607618Y-60589342D02*
X160559999Y-60684580D01*
X160559999Y-60684580D02*
X160512380Y-60732200D01*
X160512380Y-60732200D02*
X160417142Y-60779819D01*
X160417142Y-60779819D02*
X160179047Y-60779819D01*
X160179047Y-60779819D02*
X160083809Y-60732200D01*
X160083809Y-60732200D02*
X160036190Y-60684580D01*
X160988571Y-60494104D02*
X161464761Y-60494104D01*
X160893333Y-60779819D02*
X161226666Y-59779819D01*
X161226666Y-59779819D02*
X161559999Y-60779819D01*
X161655238Y-60875057D02*
X162417142Y-60875057D01*
X162845714Y-59779819D02*
X163036190Y-59779819D01*
X163036190Y-59779819D02*
X163131428Y-59827438D01*
X163131428Y-59827438D02*
X163226666Y-59922676D01*
X163226666Y-59922676D02*
X163274285Y-60113152D01*
X163274285Y-60113152D02*
X163274285Y-60446485D01*
X163274285Y-60446485D02*
X163226666Y-60636961D01*
X163226666Y-60636961D02*
X163131428Y-60732200D01*
X163131428Y-60732200D02*
X163036190Y-60779819D01*
X163036190Y-60779819D02*
X162845714Y-60779819D01*
X162845714Y-60779819D02*
X162750476Y-60732200D01*
X162750476Y-60732200D02*
X162655238Y-60636961D01*
X162655238Y-60636961D02*
X162607619Y-60446485D01*
X162607619Y-60446485D02*
X162607619Y-60113152D01*
X162607619Y-60113152D02*
X162655238Y-59922676D01*
X162655238Y-59922676D02*
X162750476Y-59827438D01*
X162750476Y-59827438D02*
X162845714Y-59779819D01*
X163702857Y-59779819D02*
X163702857Y-60589342D01*
X163702857Y-60589342D02*
X163750476Y-60684580D01*
X163750476Y-60684580D02*
X163798095Y-60732200D01*
X163798095Y-60732200D02*
X163893333Y-60779819D01*
X163893333Y-60779819D02*
X164083809Y-60779819D01*
X164083809Y-60779819D02*
X164179047Y-60732200D01*
X164179047Y-60732200D02*
X164226666Y-60684580D01*
X164226666Y-60684580D02*
X164274285Y-60589342D01*
X164274285Y-60589342D02*
X164274285Y-59779819D01*
X164607619Y-59779819D02*
X165179047Y-59779819D01*
X164893333Y-60779819D02*
X164893333Y-59779819D01*
X82423095Y-122057438D02*
X82327857Y-122009819D01*
X82327857Y-122009819D02*
X82185000Y-122009819D01*
X82185000Y-122009819D02*
X82042143Y-122057438D01*
X82042143Y-122057438D02*
X81946905Y-122152676D01*
X81946905Y-122152676D02*
X81899286Y-122247914D01*
X81899286Y-122247914D02*
X81851667Y-122438390D01*
X81851667Y-122438390D02*
X81851667Y-122581247D01*
X81851667Y-122581247D02*
X81899286Y-122771723D01*
X81899286Y-122771723D02*
X81946905Y-122866961D01*
X81946905Y-122866961D02*
X82042143Y-122962200D01*
X82042143Y-122962200D02*
X82185000Y-123009819D01*
X82185000Y-123009819D02*
X82280238Y-123009819D01*
X82280238Y-123009819D02*
X82423095Y-122962200D01*
X82423095Y-122962200D02*
X82470714Y-122914580D01*
X82470714Y-122914580D02*
X82470714Y-122581247D01*
X82470714Y-122581247D02*
X82280238Y-122581247D01*
X82899286Y-123009819D02*
X82899286Y-122009819D01*
X82899286Y-122009819D02*
X83470714Y-123009819D01*
X83470714Y-123009819D02*
X83470714Y-122009819D01*
X83946905Y-123009819D02*
X83946905Y-122009819D01*
X83946905Y-122009819D02*
X84185000Y-122009819D01*
X84185000Y-122009819D02*
X84327857Y-122057438D01*
X84327857Y-122057438D02*
X84423095Y-122152676D01*
X84423095Y-122152676D02*
X84470714Y-122247914D01*
X84470714Y-122247914D02*
X84518333Y-122438390D01*
X84518333Y-122438390D02*
X84518333Y-122581247D01*
X84518333Y-122581247D02*
X84470714Y-122771723D01*
X84470714Y-122771723D02*
X84423095Y-122866961D01*
X84423095Y-122866961D02*
X84327857Y-122962200D01*
X84327857Y-122962200D02*
X84185000Y-123009819D01*
X84185000Y-123009819D02*
X83946905Y-123009819D01*
X78676667Y-88719819D02*
X78676667Y-87719819D01*
X78676667Y-87719819D02*
X79057619Y-87719819D01*
X79057619Y-87719819D02*
X79152857Y-87767438D01*
X79152857Y-87767438D02*
X79200476Y-87815057D01*
X79200476Y-87815057D02*
X79248095Y-87910295D01*
X79248095Y-87910295D02*
X79248095Y-88053152D01*
X79248095Y-88053152D02*
X79200476Y-88148390D01*
X79200476Y-88148390D02*
X79152857Y-88196009D01*
X79152857Y-88196009D02*
X79057619Y-88243628D01*
X79057619Y-88243628D02*
X78676667Y-88243628D01*
X79581429Y-87719819D02*
X79819524Y-88719819D01*
X79819524Y-88719819D02*
X80010000Y-88005533D01*
X80010000Y-88005533D02*
X80200476Y-88719819D01*
X80200476Y-88719819D02*
X80438572Y-87719819D01*
X81390952Y-88719819D02*
X81057619Y-88243628D01*
X80819524Y-88719819D02*
X80819524Y-87719819D01*
X80819524Y-87719819D02*
X81200476Y-87719819D01*
X81200476Y-87719819D02*
X81295714Y-87767438D01*
X81295714Y-87767438D02*
X81343333Y-87815057D01*
X81343333Y-87815057D02*
X81390952Y-87910295D01*
X81390952Y-87910295D02*
X81390952Y-88053152D01*
X81390952Y-88053152D02*
X81343333Y-88148390D01*
X81343333Y-88148390D02*
X81295714Y-88196009D01*
X81295714Y-88196009D02*
X81200476Y-88243628D01*
X81200476Y-88243628D02*
X80819524Y-88243628D01*
X94448333Y-84909819D02*
X94115000Y-84433628D01*
X93876905Y-84909819D02*
X93876905Y-83909819D01*
X93876905Y-83909819D02*
X94257857Y-83909819D01*
X94257857Y-83909819D02*
X94353095Y-83957438D01*
X94353095Y-83957438D02*
X94400714Y-84005057D01*
X94400714Y-84005057D02*
X94448333Y-84100295D01*
X94448333Y-84100295D02*
X94448333Y-84243152D01*
X94448333Y-84243152D02*
X94400714Y-84338390D01*
X94400714Y-84338390D02*
X94353095Y-84386009D01*
X94353095Y-84386009D02*
X94257857Y-84433628D01*
X94257857Y-84433628D02*
X93876905Y-84433628D01*
X94781667Y-83909819D02*
X95448333Y-84909819D01*
X95448333Y-83909819D02*
X94781667Y-84909819D01*
X180515000Y-59875057D02*
X180562619Y-59827438D01*
X180562619Y-59827438D02*
X180657857Y-59779819D01*
X180657857Y-59779819D02*
X180895952Y-59779819D01*
X180895952Y-59779819D02*
X180991190Y-59827438D01*
X180991190Y-59827438D02*
X181038809Y-59875057D01*
X181038809Y-59875057D02*
X181086428Y-59970295D01*
X181086428Y-59970295D02*
X181086428Y-60065533D01*
X181086428Y-60065533D02*
X181038809Y-60208390D01*
X181038809Y-60208390D02*
X180467381Y-60779819D01*
X180467381Y-60779819D02*
X181086428Y-60779819D01*
X181705476Y-59779819D02*
X181800714Y-59779819D01*
X181800714Y-59779819D02*
X181895952Y-59827438D01*
X181895952Y-59827438D02*
X181943571Y-59875057D01*
X181943571Y-59875057D02*
X181991190Y-59970295D01*
X181991190Y-59970295D02*
X182038809Y-60160771D01*
X182038809Y-60160771D02*
X182038809Y-60398866D01*
X182038809Y-60398866D02*
X181991190Y-60589342D01*
X181991190Y-60589342D02*
X181943571Y-60684580D01*
X181943571Y-60684580D02*
X181895952Y-60732200D01*
X181895952Y-60732200D02*
X181800714Y-60779819D01*
X181800714Y-60779819D02*
X181705476Y-60779819D01*
X181705476Y-60779819D02*
X181610238Y-60732200D01*
X181610238Y-60732200D02*
X181562619Y-60684580D01*
X181562619Y-60684580D02*
X181515000Y-60589342D01*
X181515000Y-60589342D02*
X181467381Y-60398866D01*
X181467381Y-60398866D02*
X181467381Y-60160771D01*
X181467381Y-60160771D02*
X181515000Y-59970295D01*
X181515000Y-59970295D02*
X181562619Y-59875057D01*
X181562619Y-59875057D02*
X181610238Y-59827438D01*
X181610238Y-59827438D02*
X181705476Y-59779819D01*
X182419762Y-60494104D02*
X182895952Y-60494104D01*
X182324524Y-60779819D02*
X182657857Y-59779819D01*
X182657857Y-59779819D02*
X182991190Y-60779819D01*
X183086429Y-60875057D02*
X183848333Y-60875057D01*
X184276905Y-59779819D02*
X184467381Y-59779819D01*
X184467381Y-59779819D02*
X184562619Y-59827438D01*
X184562619Y-59827438D02*
X184657857Y-59922676D01*
X184657857Y-59922676D02*
X184705476Y-60113152D01*
X184705476Y-60113152D02*
X184705476Y-60446485D01*
X184705476Y-60446485D02*
X184657857Y-60636961D01*
X184657857Y-60636961D02*
X184562619Y-60732200D01*
X184562619Y-60732200D02*
X184467381Y-60779819D01*
X184467381Y-60779819D02*
X184276905Y-60779819D01*
X184276905Y-60779819D02*
X184181667Y-60732200D01*
X184181667Y-60732200D02*
X184086429Y-60636961D01*
X184086429Y-60636961D02*
X184038810Y-60446485D01*
X184038810Y-60446485D02*
X184038810Y-60113152D01*
X184038810Y-60113152D02*
X184086429Y-59922676D01*
X184086429Y-59922676D02*
X184181667Y-59827438D01*
X184181667Y-59827438D02*
X184276905Y-59779819D01*
X185134048Y-59779819D02*
X185134048Y-60589342D01*
X185134048Y-60589342D02*
X185181667Y-60684580D01*
X185181667Y-60684580D02*
X185229286Y-60732200D01*
X185229286Y-60732200D02*
X185324524Y-60779819D01*
X185324524Y-60779819D02*
X185515000Y-60779819D01*
X185515000Y-60779819D02*
X185610238Y-60732200D01*
X185610238Y-60732200D02*
X185657857Y-60684580D01*
X185657857Y-60684580D02*
X185705476Y-60589342D01*
X185705476Y-60589342D02*
X185705476Y-59779819D01*
X186038810Y-59779819D02*
X186610238Y-59779819D01*
X186324524Y-60779819D02*
X186324524Y-59779819D01*
X96956905Y-102769200D02*
X97099762Y-102816819D01*
X97099762Y-102816819D02*
X97337857Y-102816819D01*
X97337857Y-102816819D02*
X97433095Y-102769200D01*
X97433095Y-102769200D02*
X97480714Y-102721580D01*
X97480714Y-102721580D02*
X97528333Y-102626342D01*
X97528333Y-102626342D02*
X97528333Y-102531104D01*
X97528333Y-102531104D02*
X97480714Y-102435866D01*
X97480714Y-102435866D02*
X97433095Y-102388247D01*
X97433095Y-102388247D02*
X97337857Y-102340628D01*
X97337857Y-102340628D02*
X97147381Y-102293009D01*
X97147381Y-102293009D02*
X97052143Y-102245390D01*
X97052143Y-102245390D02*
X97004524Y-102197771D01*
X97004524Y-102197771D02*
X96956905Y-102102533D01*
X96956905Y-102102533D02*
X96956905Y-102007295D01*
X96956905Y-102007295D02*
X97004524Y-101912057D01*
X97004524Y-101912057D02*
X97052143Y-101864438D01*
X97052143Y-101864438D02*
X97147381Y-101816819D01*
X97147381Y-101816819D02*
X97385476Y-101816819D01*
X97385476Y-101816819D02*
X97528333Y-101864438D01*
X97956905Y-102816819D02*
X97956905Y-101816819D01*
X98956904Y-101864438D02*
X98861666Y-101816819D01*
X98861666Y-101816819D02*
X98718809Y-101816819D01*
X98718809Y-101816819D02*
X98575952Y-101864438D01*
X98575952Y-101864438D02*
X98480714Y-101959676D01*
X98480714Y-101959676D02*
X98433095Y-102054914D01*
X98433095Y-102054914D02*
X98385476Y-102245390D01*
X98385476Y-102245390D02*
X98385476Y-102388247D01*
X98385476Y-102388247D02*
X98433095Y-102578723D01*
X98433095Y-102578723D02*
X98480714Y-102673961D01*
X98480714Y-102673961D02*
X98575952Y-102769200D01*
X98575952Y-102769200D02*
X98718809Y-102816819D01*
X98718809Y-102816819D02*
X98814047Y-102816819D01*
X98814047Y-102816819D02*
X98956904Y-102769200D01*
X98956904Y-102769200D02*
X99004523Y-102721580D01*
X99004523Y-102721580D02*
X99004523Y-102388247D01*
X99004523Y-102388247D02*
X98814047Y-102388247D01*
X99195000Y-102912057D02*
X99956904Y-102912057D01*
X100147381Y-102769200D02*
X100290238Y-102816819D01*
X100290238Y-102816819D02*
X100528333Y-102816819D01*
X100528333Y-102816819D02*
X100623571Y-102769200D01*
X100623571Y-102769200D02*
X100671190Y-102721580D01*
X100671190Y-102721580D02*
X100718809Y-102626342D01*
X100718809Y-102626342D02*
X100718809Y-102531104D01*
X100718809Y-102531104D02*
X100671190Y-102435866D01*
X100671190Y-102435866D02*
X100623571Y-102388247D01*
X100623571Y-102388247D02*
X100528333Y-102340628D01*
X100528333Y-102340628D02*
X100337857Y-102293009D01*
X100337857Y-102293009D02*
X100242619Y-102245390D01*
X100242619Y-102245390D02*
X100195000Y-102197771D01*
X100195000Y-102197771D02*
X100147381Y-102102533D01*
X100147381Y-102102533D02*
X100147381Y-102007295D01*
X100147381Y-102007295D02*
X100195000Y-101912057D01*
X100195000Y-101912057D02*
X100242619Y-101864438D01*
X100242619Y-101864438D02*
X100337857Y-101816819D01*
X100337857Y-101816819D02*
X100575952Y-101816819D01*
X100575952Y-101816819D02*
X100718809Y-101864438D01*
X101147381Y-102293009D02*
X101480714Y-102293009D01*
X101623571Y-102816819D02*
X101147381Y-102816819D01*
X101147381Y-102816819D02*
X101147381Y-101816819D01*
X101147381Y-101816819D02*
X101623571Y-101816819D01*
X102528333Y-102816819D02*
X102052143Y-102816819D01*
X102052143Y-102816819D02*
X102052143Y-101816819D01*
D12*
%TO.C,U3*%
X90395800Y-73430000D02*
G75*
G03*
X90395800Y-73430000I-50800J0D01*
G01*
X94980000Y-77040000D02*
X95455000Y-77040000D01*
X91235000Y-77040000D02*
X91235000Y-76565000D01*
X91710000Y-72820000D02*
X91235000Y-72820000D01*
X91710000Y-77040000D02*
X91235000Y-77040000D01*
X95455000Y-77040000D02*
X95455000Y-76565000D01*
X94980000Y-72820000D02*
X95455000Y-72820000D01*
X95455000Y-72820000D02*
X95455000Y-73295000D01*
%TO.C,U8*%
X106878550Y-122920000D02*
G75*
G03*
X106878550Y-122920000I-50800J0D01*
G01*
X103327750Y-120310000D02*
X104827750Y-120310000D01*
X103327750Y-123530000D02*
X106252750Y-123530000D01*
X103327750Y-120310000D02*
X101827750Y-120310000D01*
X103327750Y-123530000D02*
X101827750Y-123530000D01*
%TO.C,Q3*%
X188034800Y-127155000D02*
G75*
G03*
X188034800Y-127155000I-50800J0D01*
G01*
%TO.C,U11*%
X170555800Y-116443000D02*
G75*
G03*
X170555800Y-116443000I-50800J0D01*
G01*
X167005000Y-113833000D02*
X168505000Y-113833000D01*
X167005000Y-117053000D02*
X169930000Y-117053000D01*
X167005000Y-113833000D02*
X165505000Y-113833000D01*
X167005000Y-117053000D02*
X165505000Y-117053000D01*
%TO.C,U10*%
X170555800Y-105345500D02*
G75*
G03*
X170555800Y-105345500I-50800J0D01*
G01*
X167005000Y-102735500D02*
X168505000Y-102735500D01*
X167005000Y-105955500D02*
X169930000Y-105955500D01*
X167005000Y-102735500D02*
X165505000Y-102735500D01*
X167005000Y-105955500D02*
X165505000Y-105955500D01*
%TO.C,U9*%
X170555800Y-94853000D02*
G75*
G03*
X170555800Y-94853000I-50800J0D01*
G01*
X167005000Y-92243000D02*
X168505000Y-92243000D01*
X167005000Y-95463000D02*
X169930000Y-95463000D01*
X167005000Y-92243000D02*
X165505000Y-92243000D01*
X167005000Y-95463000D02*
X165505000Y-95463000D01*
%TO.C,U7*%
X176317300Y-84114000D02*
G75*
G03*
X176317300Y-84114000I-50800J0D01*
G01*
X172766500Y-81504000D02*
X174266500Y-81504000D01*
X172766500Y-84724000D02*
X175691500Y-84724000D01*
X172766500Y-81504000D02*
X171266500Y-81504000D01*
X172766500Y-84724000D02*
X171266500Y-84724000D01*
D13*
%TO.C,U12*%
X131890000Y-75970000D02*
X131905000Y-75970000D01*
X131890000Y-76275000D02*
X131890000Y-75970000D01*
X131890000Y-78970000D02*
X131890000Y-78665000D01*
X131905000Y-78970000D02*
X131890000Y-78970000D01*
X136875000Y-75970000D02*
X136890000Y-75970000D01*
X136890000Y-75970000D02*
X136890000Y-76275000D01*
X136890000Y-78970000D02*
X136875000Y-78970000D01*
X136890000Y-78970000D02*
X136890000Y-78665000D01*
D14*
X130790000Y-75970000D02*
G75*
G03*
X130790000Y-75970000I-100000J0D01*
G01*
D12*
%TO.C,U4*%
X183585000Y-102108000D02*
X183585000Y-104308000D01*
X178365000Y-102108000D02*
X178365000Y-104308000D01*
X178365000Y-102108000D02*
X178365000Y-99908000D01*
X183585000Y-102108000D02*
X183585000Y-98508000D01*
%TO.C,C14*%
X176655000Y-98444267D02*
X176655000Y-98151733D01*
X177675000Y-98444267D02*
X177675000Y-98151733D01*
D15*
%TO.C,C45*%
X141987100Y-95008000D02*
X141987100Y-94246000D01*
X141606100Y-94627000D02*
X142368100Y-94627000D01*
X139739200Y-99008500D02*
X139739200Y-95709040D01*
X139739200Y-93544960D02*
X139739200Y-90245500D01*
X139739200Y-90245500D02*
X130976200Y-90245500D01*
X130976200Y-99008500D02*
X139739200Y-99008500D01*
X130976200Y-95709040D02*
X130976200Y-99008500D01*
X130976200Y-90245500D02*
X130976200Y-93544960D01*
D12*
%TO.C,R35*%
X168670500Y-98678276D02*
X168670500Y-99187724D01*
X167625500Y-98678276D02*
X167625500Y-99187724D01*
%TO.C,D15*%
X172085000Y-109715500D02*
X171435000Y-109715500D01*
X172085000Y-106595500D02*
X171435000Y-106595500D01*
X172085000Y-109715500D02*
X173760000Y-109715500D01*
X172085000Y-106595500D02*
X172735000Y-106595500D01*
%TO.C,C32*%
X165588733Y-106375500D02*
X165881267Y-106375500D01*
X165588733Y-107395500D02*
X165881267Y-107395500D01*
%TO.C,C36*%
X161546000Y-117328733D02*
X161546000Y-117621267D01*
X160526000Y-117328733D02*
X160526000Y-117621267D01*
%TO.C,R15*%
X191390000Y-98040936D02*
X191390000Y-101095064D01*
X188670000Y-98040936D02*
X188670000Y-101095064D01*
%TO.C,C31*%
X166880000Y-98786733D02*
X166880000Y-99079267D01*
X165860000Y-98786733D02*
X165860000Y-99079267D01*
%TO.C,C34*%
X167515000Y-109279233D02*
X167515000Y-109571767D01*
X166495000Y-109279233D02*
X166495000Y-109571767D01*
%TO.C,C42*%
X133104767Y-87644000D02*
X132812233Y-87644000D01*
X133104767Y-86624000D02*
X132812233Y-86624000D01*
%TO.C,D7*%
X191644000Y-127427000D02*
X191644000Y-132937000D01*
X194944000Y-127427000D02*
X191644000Y-127427000D01*
X194944000Y-127427000D02*
X194944000Y-132937000D01*
%TO.C,R6*%
X121665276Y-61707500D02*
X122174724Y-61707500D01*
X121665276Y-62752500D02*
X122174724Y-62752500D01*
%TO.C,C15*%
X174750000Y-98444267D02*
X174750000Y-98151733D01*
X175770000Y-98444267D02*
X175770000Y-98151733D01*
%TO.C,C23*%
X171350233Y-85144000D02*
X171642767Y-85144000D01*
X171350233Y-86164000D02*
X171642767Y-86164000D01*
%TO.C,R33*%
X168020276Y-90790500D02*
X168529724Y-90790500D01*
X168020276Y-91835500D02*
X168529724Y-91835500D01*
%TO.C,R42*%
X162306724Y-115330500D02*
X161797276Y-115330500D01*
X162306724Y-114285500D02*
X161797276Y-114285500D01*
%TO.C,C2*%
X87737733Y-87628000D02*
X88030267Y-87628000D01*
X87737733Y-88648000D02*
X88030267Y-88648000D01*
%TO.C,D3*%
X99860000Y-81815000D02*
X97400000Y-81815000D01*
X97400000Y-83285000D02*
X99860000Y-83285000D01*
X97400000Y-81815000D02*
X97400000Y-83285000D01*
%TO.C,R51*%
X147168776Y-73899500D02*
X147678224Y-73899500D01*
X147168776Y-74944500D02*
X147678224Y-74944500D01*
%TO.C,R18*%
X187600000Y-105063936D02*
X187600000Y-106518064D01*
X185780000Y-105063936D02*
X185780000Y-106518064D01*
%TO.C,D6*%
X185840000Y-122258000D02*
X185840000Y-124918000D01*
X187540000Y-122258000D02*
X187540000Y-124918000D01*
X187540000Y-122258000D02*
X185840000Y-122258000D01*
%TO.C,R32*%
X162179724Y-93740500D02*
X161670276Y-93740500D01*
X162179724Y-92695500D02*
X161670276Y-92695500D01*
%TO.C,R41*%
X162291500Y-117729724D02*
X162291500Y-117220276D01*
X163336500Y-117729724D02*
X163336500Y-117220276D01*
%TO.C,R19*%
X190370000Y-110270936D02*
X190370000Y-111725064D01*
X188550000Y-110270936D02*
X188550000Y-111725064D01*
%TO.C,R1*%
X90917500Y-61214724D02*
X90917500Y-60705276D01*
X91962500Y-61214724D02*
X91962500Y-60705276D01*
%TO.C,R36*%
X162037500Y-106505224D02*
X162037500Y-105995776D01*
X163082500Y-106505224D02*
X163082500Y-105995776D01*
%TO.C,C19*%
X162279000Y-128897748D02*
X162279000Y-129420252D01*
X160809000Y-128897748D02*
X160809000Y-129420252D01*
D13*
%TO.C,U5*%
X179340000Y-126145500D02*
X181340000Y-126145500D01*
X179340000Y-128405500D02*
X181340000Y-128405500D01*
D14*
X178530000Y-126625500D02*
G75*
G03*
X178530000Y-126625500I-100000J0D01*
G01*
D12*
%TO.C,R4*%
X84074724Y-90438500D02*
X83565276Y-90438500D01*
X84074724Y-89393500D02*
X83565276Y-89393500D01*
%TO.C,C16*%
X176532000Y-127356733D02*
X176532000Y-127649267D01*
X175512000Y-127356733D02*
X175512000Y-127649267D01*
%TO.C,C53*%
X136056000Y-84802233D02*
X136056000Y-85094767D01*
X135036000Y-84802233D02*
X135036000Y-85094767D01*
%TO.C,R29*%
X174398000Y-87883276D02*
X174398000Y-88392724D01*
X173353000Y-87883276D02*
X173353000Y-88392724D01*
%TO.C,R20*%
X187600000Y-110270936D02*
X187600000Y-111725064D01*
X185780000Y-110270936D02*
X185780000Y-111725064D01*
%TO.C,C13*%
X119840499Y-125725000D02*
X119840499Y-108971000D01*
X129239499Y-133846000D02*
X129239499Y-119588000D01*
X125120499Y-131676000D02*
X125120499Y-103020000D01*
X123360499Y-130248000D02*
X123360499Y-104448000D01*
X133559499Y-134840000D02*
X133559499Y-99856000D01*
X118840499Y-123543000D02*
X118840499Y-111153000D01*
X131919499Y-134597000D02*
X131919499Y-119588000D01*
X130759499Y-134328000D02*
X130759499Y-119588000D01*
X121000499Y-127575000D02*
X121000499Y-107121000D01*
X118200499Y-121476000D02*
X118200499Y-113220000D01*
X119200499Y-124423000D02*
X119200499Y-110273000D01*
X126120499Y-132336000D02*
X126120499Y-102360000D01*
X127599499Y-133147000D02*
X127599499Y-101549000D01*
X128959499Y-133741000D02*
X128959499Y-119588000D01*
X118800499Y-123437000D02*
X118800499Y-111259000D01*
X131799499Y-134573000D02*
X131799499Y-119588000D01*
X132439499Y-134692000D02*
X132439499Y-119588000D01*
X127879499Y-133281000D02*
X127879499Y-101415000D01*
X134359499Y-134902000D02*
X134359499Y-99794000D01*
X130719499Y-115108000D02*
X130719499Y-100379000D01*
X128479499Y-133547000D02*
X128479499Y-119588000D01*
X132199499Y-134650000D02*
X132199499Y-119588000D01*
X130199499Y-115108000D02*
X130199499Y-100528000D01*
X123120499Y-130022000D02*
X123120499Y-104674000D01*
X131279499Y-115108000D02*
X131279499Y-100237000D01*
X124440499Y-131168000D02*
X124440499Y-103528000D01*
X128879499Y-115108000D02*
X128879499Y-100987000D01*
X134640499Y-134915000D02*
X134640499Y-99781000D01*
X128039499Y-133354000D02*
X128039499Y-101342000D01*
X129599499Y-115108000D02*
X129599499Y-100722000D01*
X133239499Y-134805000D02*
X133239499Y-99891000D01*
X125000499Y-131590000D02*
X125000499Y-103106000D01*
X130839499Y-134349000D02*
X130839499Y-119588000D01*
X132639499Y-134723000D02*
X132639499Y-99973000D01*
X132119499Y-134635000D02*
X132119499Y-119588000D01*
X129279499Y-115108000D02*
X129279499Y-100835000D01*
X125360499Y-131843000D02*
X125360499Y-102853000D01*
X121680499Y-128463000D02*
X121680499Y-106233000D01*
X132239499Y-134657000D02*
X132239499Y-119588000D01*
X130879499Y-115108000D02*
X130879499Y-100336000D01*
X128239499Y-115108000D02*
X128239499Y-101253000D01*
X130279499Y-115108000D02*
X130279499Y-100504000D01*
X130439499Y-115108000D02*
X130439499Y-100457000D01*
X154174501Y-127223000D02*
X150674501Y-127223000D01*
X130239499Y-134180000D02*
X130239499Y-119588000D01*
X129879499Y-134068000D02*
X129879499Y-119588000D01*
X124640499Y-131323000D02*
X124640499Y-103373000D01*
X129799499Y-134042000D02*
X129799499Y-119588000D01*
X130919499Y-134370000D02*
X130919499Y-119588000D01*
X132359499Y-115108000D02*
X132359499Y-100018000D01*
X120680499Y-127113000D02*
X120680499Y-107583000D01*
X118920499Y-123751000D02*
X118920499Y-110945000D01*
X128279499Y-115108000D02*
X128279499Y-101235000D01*
X131839499Y-115108000D02*
X131839499Y-100115000D01*
X128719499Y-115108000D02*
X128719499Y-101050000D01*
X131679499Y-115108000D02*
X131679499Y-100148000D01*
X118680499Y-123103000D02*
X118680499Y-111593000D01*
X131879499Y-115108000D02*
X131879499Y-100107000D01*
X121120499Y-127740000D02*
X121120499Y-106956000D01*
X134079499Y-134885000D02*
X134079499Y-99811000D01*
X129879499Y-115108000D02*
X129879499Y-100628000D01*
X119520499Y-125107000D02*
X119520499Y-109589000D01*
X132479499Y-115108000D02*
X132479499Y-99998000D01*
X130279499Y-134192000D02*
X130279499Y-119588000D01*
X128839499Y-133694000D02*
X128839499Y-119588000D01*
X130159499Y-134156000D02*
X130159499Y-119588000D01*
X134680499Y-134917000D02*
X134680499Y-99779000D01*
X122880499Y-129787000D02*
X122880499Y-104909000D01*
X118760499Y-123328000D02*
X118760499Y-111368000D01*
X121080499Y-127686000D02*
X121080499Y-107010000D01*
X133279499Y-134810000D02*
X133279499Y-99886000D01*
X121800499Y-128608000D02*
X121800499Y-106088000D01*
X128119499Y-115108000D02*
X128119499Y-101306000D01*
X128799499Y-115108000D02*
X128799499Y-101018000D01*
X130519499Y-134262000D02*
X130519499Y-119588000D01*
X133799499Y-134863000D02*
X133799499Y-99833000D01*
X122440499Y-129332000D02*
X122440499Y-105364000D01*
X132199499Y-115108000D02*
X132199499Y-100046000D01*
X126520499Y-132574000D02*
X126520499Y-102122000D01*
X131879499Y-134589000D02*
X131879499Y-119588000D01*
X118000499Y-120546000D02*
X118000499Y-114150000D01*
X125080499Y-131647000D02*
X125080499Y-103049000D01*
X127479499Y-133088000D02*
X127479499Y-101608000D01*
X126200499Y-132385000D02*
X126200499Y-102311000D01*
X129919499Y-134081000D02*
X129919499Y-119588000D01*
X135120499Y-134927000D02*
X135120499Y-99769000D01*
X124320499Y-131073000D02*
X124320499Y-103623000D01*
X129359499Y-133890000D02*
X129359499Y-119588000D01*
X119400499Y-124860000D02*
X119400499Y-109836000D01*
X133599499Y-134844000D02*
X133599499Y-99852000D01*
X132359499Y-134678000D02*
X132359499Y-119588000D01*
X131639499Y-134540000D02*
X131639499Y-119588000D01*
X130559499Y-134273000D02*
X130559499Y-119588000D01*
X133119499Y-134791000D02*
X133119499Y-99905000D01*
X128159499Y-115108000D02*
X128159499Y-101288000D01*
X119000499Y-123951000D02*
X119000499Y-110745000D01*
X123520499Y-130394000D02*
X123520499Y-104302000D01*
X120560499Y-126932000D02*
X120560499Y-107764000D01*
X122760499Y-129666000D02*
X122760499Y-105030000D01*
X129159499Y-133817000D02*
X129159499Y-119588000D01*
X133479499Y-134832000D02*
X133479499Y-99864000D01*
X131479499Y-134505000D02*
X131479499Y-119588000D01*
X118440499Y-122361000D02*
X118440499Y-112335000D01*
X119080499Y-124144000D02*
X119080499Y-110552000D01*
X132879499Y-134759000D02*
X132879499Y-99937000D01*
X127639499Y-133167000D02*
X127639499Y-101529000D01*
X123680499Y-130536000D02*
X123680499Y-104160000D01*
X121360499Y-128059000D02*
X121360499Y-106637000D01*
X129799499Y-115108000D02*
X129799499Y-100654000D01*
X134720499Y-134918000D02*
X134720499Y-99778000D01*
X126960499Y-132819000D02*
X126960499Y-101877000D01*
X133439499Y-134828000D02*
X133439499Y-99868000D01*
X128359499Y-133496000D02*
X128359499Y-119588000D01*
X125640499Y-132031000D02*
X125640499Y-102665000D01*
X123240499Y-130136000D02*
X123240499Y-104560000D01*
X123560499Y-130430000D02*
X123560499Y-104266000D01*
X125200499Y-131732000D02*
X125200499Y-102964000D01*
X129519499Y-115108000D02*
X129519499Y-100749000D01*
X129959499Y-115108000D02*
X129959499Y-100603000D01*
X131079499Y-115108000D02*
X131079499Y-100285000D01*
X131959499Y-115108000D02*
X131959499Y-100091000D01*
X133839499Y-134866000D02*
X133839499Y-99830000D01*
X129759499Y-134028000D02*
X129759499Y-119588000D01*
X129159499Y-115108000D02*
X129159499Y-100879000D01*
X120040499Y-126083000D02*
X120040499Y-108613000D01*
X128399499Y-115108000D02*
X128399499Y-101183000D01*
X129359499Y-115108000D02*
X129359499Y-100806000D01*
X122280499Y-129159000D02*
X122280499Y-105537000D01*
X122480499Y-129375000D02*
X122480499Y-105321000D01*
X117800499Y-119183000D02*
X117800499Y-115513000D01*
X124840499Y-131473000D02*
X124840499Y-103223000D01*
X125240499Y-131760000D02*
X125240499Y-102936000D01*
X126760499Y-132709000D02*
X126760499Y-101987000D01*
X130959499Y-134381000D02*
X130959499Y-119588000D01*
X122240499Y-129114000D02*
X122240499Y-105582000D01*
X117760499Y-118761000D02*
X117760499Y-115935000D01*
X130079499Y-134131000D02*
X130079499Y-119588000D01*
X130799499Y-134339000D02*
X130799499Y-119588000D01*
X130319499Y-134204000D02*
X130319499Y-119588000D01*
X134239499Y-134895000D02*
X134239499Y-99801000D01*
X129039499Y-133771000D02*
X129039499Y-119588000D01*
X120600499Y-126993000D02*
X120600499Y-107703000D01*
X130959499Y-115108000D02*
X130959499Y-100315000D01*
X122400499Y-129289000D02*
X122400499Y-105407000D01*
X130999499Y-134391000D02*
X130999499Y-119588000D01*
X119640499Y-125346000D02*
X119640499Y-109350000D01*
X130319499Y-115108000D02*
X130319499Y-100492000D01*
X128879499Y-133709000D02*
X128879499Y-119588000D01*
X129399499Y-133904000D02*
X129399499Y-119588000D01*
X130079499Y-115108000D02*
X130079499Y-100565000D01*
X128479499Y-115108000D02*
X128479499Y-101149000D01*
X128159499Y-133408000D02*
X128159499Y-119588000D01*
X119440499Y-124943000D02*
X119440499Y-109753000D01*
X118520499Y-122621000D02*
X118520499Y-112075000D01*
X121840499Y-128655000D02*
X121840499Y-106041000D01*
X118240499Y-121637000D02*
X118240499Y-113059000D01*
X133359499Y-134819000D02*
X133359499Y-99877000D01*
X129039499Y-115108000D02*
X129039499Y-100925000D01*
X130599499Y-134285000D02*
X130599499Y-119588000D01*
X129559499Y-133960000D02*
X129559499Y-119588000D01*
X123200499Y-130098000D02*
X123200499Y-104598000D01*
X129719499Y-115108000D02*
X129719499Y-100681000D01*
X134119499Y-134888000D02*
X134119499Y-99808000D01*
X121920499Y-128750000D02*
X121920499Y-105946000D01*
X133319499Y-134815000D02*
X133319499Y-99881000D01*
X130399499Y-134228000D02*
X130399499Y-119588000D01*
X125400499Y-131871000D02*
X125400499Y-102825000D01*
X127159499Y-132925000D02*
X127159499Y-101771000D01*
X127919499Y-133299000D02*
X127919499Y-101397000D01*
X129999499Y-115108000D02*
X129999499Y-100590000D01*
X122560499Y-129459000D02*
X122560499Y-105237000D01*
X124560499Y-131262000D02*
X124560499Y-103434000D01*
X131719499Y-115108000D02*
X131719499Y-100139000D01*
X128959499Y-115108000D02*
X128959499Y-100955000D01*
X122720499Y-129625000D02*
X122720499Y-105071000D01*
X125880499Y-132186000D02*
X125880499Y-102510000D01*
X124720499Y-131383000D02*
X124720499Y-103313000D01*
X117920499Y-120084000D02*
X117920499Y-114612000D01*
X118320499Y-121941000D02*
X118320499Y-112755000D01*
X128839499Y-115108000D02*
X128839499Y-101002000D01*
X131039499Y-115108000D02*
X131039499Y-100295000D01*
X128079499Y-133372000D02*
X128079499Y-101324000D01*
X120880499Y-127406000D02*
X120880499Y-107290000D01*
X130359499Y-134216000D02*
X130359499Y-119588000D01*
X126840499Y-132754000D02*
X126840499Y-101942000D01*
X131199499Y-134440000D02*
X131199499Y-119588000D01*
X130799499Y-115108000D02*
X130799499Y-100357000D01*
X129839499Y-134055000D02*
X129839499Y-119588000D01*
X128359499Y-115108000D02*
X128359499Y-101200000D01*
X131199499Y-115108000D02*
X131199499Y-100256000D01*
X126080499Y-132311000D02*
X126080499Y-102385000D01*
X131079499Y-134411000D02*
X131079499Y-119588000D01*
X130719499Y-134317000D02*
X130719499Y-119588000D01*
X123280499Y-130173000D02*
X123280499Y-104523000D01*
X126280499Y-132433000D02*
X126280499Y-102263000D01*
X124280499Y-131041000D02*
X124280499Y-103655000D01*
X125160499Y-131704000D02*
X125160499Y-102992000D01*
X134880499Y-134923000D02*
X134880499Y-99773000D01*
X130639499Y-115108000D02*
X130639499Y-100400000D01*
X130879499Y-134360000D02*
X130879499Y-119588000D01*
X134479499Y-134908000D02*
X134479499Y-99788000D01*
X123600499Y-130465000D02*
X123600499Y-104231000D01*
X118400499Y-122226000D02*
X118400499Y-112470000D01*
X127719499Y-133205000D02*
X127719499Y-101491000D01*
X120360499Y-126618000D02*
X120360499Y-108078000D01*
X134279499Y-134898000D02*
X134279499Y-99798000D01*
X122800499Y-129707000D02*
X122800499Y-104989000D01*
X129199499Y-133832000D02*
X129199499Y-119588000D01*
X132559499Y-134711000D02*
X132559499Y-119588000D01*
X118480499Y-122493000D02*
X118480499Y-112203000D01*
X124200499Y-130976000D02*
X124200499Y-103720000D01*
X132519499Y-134705000D02*
X132519499Y-119588000D01*
X123320499Y-130211000D02*
X123320499Y-104485000D01*
X122120499Y-128980000D02*
X122120499Y-105716000D01*
X118160499Y-121308000D02*
X118160499Y-113388000D01*
X126480499Y-132551000D02*
X126480499Y-102145000D01*
X135080499Y-134927000D02*
X135080499Y-99769000D01*
X134960499Y-134925000D02*
X134960499Y-99771000D01*
X129759499Y-115108000D02*
X129759499Y-100668000D01*
X119280499Y-124601000D02*
X119280499Y-110095000D01*
X130599499Y-115108000D02*
X130599499Y-100411000D01*
X120760499Y-127232000D02*
X120760499Y-107464000D01*
X121760499Y-128560000D02*
X121760499Y-106136000D01*
X121720499Y-128511000D02*
X121720499Y-106185000D01*
X126640499Y-132642000D02*
X126640499Y-102054000D01*
X133959499Y-134876000D02*
X133959499Y-99820000D01*
X132559499Y-115108000D02*
X132559499Y-99985000D01*
X135280499Y-134928000D02*
X135280499Y-99768000D01*
X120200499Y-126356000D02*
X120200499Y-108340000D01*
X130119499Y-115108000D02*
X130119499Y-100552000D01*
X130039499Y-115108000D02*
X130039499Y-100577000D01*
X132039499Y-115108000D02*
X132039499Y-100075000D01*
X126400499Y-132504000D02*
X126400499Y-102192000D01*
X119120499Y-124238000D02*
X119120499Y-110458000D01*
X126440499Y-132527000D02*
X126440499Y-102169000D01*
X132479499Y-134698000D02*
X132479499Y-119588000D01*
X128719499Y-133646000D02*
X128719499Y-119588000D01*
X131239499Y-134450000D02*
X131239499Y-119588000D01*
X122520499Y-129417000D02*
X122520499Y-105279000D01*
X130359499Y-115108000D02*
X130359499Y-100480000D01*
X131239499Y-115108000D02*
X131239499Y-100246000D01*
X125560499Y-131978000D02*
X125560499Y-102718000D01*
X119240499Y-124513000D02*
X119240499Y-110183000D01*
X127120499Y-132904000D02*
X127120499Y-101792000D01*
X134760499Y-134920000D02*
X134760499Y-99776000D01*
X131399499Y-115108000D02*
X131399499Y-100209000D01*
X118640499Y-122987000D02*
X118640499Y-111709000D01*
X117840499Y-119525000D02*
X117840499Y-115171000D01*
X128439499Y-115108000D02*
X128439499Y-101166000D01*
X119360499Y-124775000D02*
X119360499Y-109921000D01*
X119720499Y-125500000D02*
X119720499Y-109196000D01*
X134840499Y-134922000D02*
X134840499Y-99774000D01*
X133879499Y-134870000D02*
X133879499Y-99826000D01*
X126880499Y-132776000D02*
X126880499Y-101920000D01*
X124160499Y-130944000D02*
X124160499Y-103752000D01*
X129399499Y-115108000D02*
X129399499Y-100792000D01*
X132999499Y-134775000D02*
X132999499Y-99921000D01*
X128239499Y-133443000D02*
X128239499Y-119588000D01*
X125440499Y-131898000D02*
X125440499Y-102798000D01*
X120480499Y-126808000D02*
X120480499Y-107888000D01*
X127519499Y-133108000D02*
X127519499Y-101588000D01*
X120440499Y-126745000D02*
X120440499Y-107951000D01*
X129479499Y-115108000D02*
X129479499Y-100763000D01*
X130999499Y-115108000D02*
X130999499Y-100305000D01*
X120080499Y-126152000D02*
X120080499Y-108544000D01*
X119680499Y-125424000D02*
X119680499Y-109272000D01*
X131919499Y-115108000D02*
X131919499Y-100099000D01*
X130159499Y-115108000D02*
X130159499Y-100540000D01*
X124760499Y-131413000D02*
X124760499Y-103283000D01*
X122160499Y-129025000D02*
X122160499Y-105671000D01*
X128559499Y-115108000D02*
X128559499Y-101116000D01*
X121240499Y-127902000D02*
X121240499Y-106794000D01*
X119600499Y-125268000D02*
X119600499Y-109428000D01*
X132719499Y-134736000D02*
X132719499Y-99960000D01*
X128639499Y-115108000D02*
X128639499Y-101083000D01*
X124480499Y-131199000D02*
X124480499Y-103497000D01*
X123800499Y-130641000D02*
X123800499Y-104055000D01*
X124080499Y-130878000D02*
X124080499Y-103818000D01*
X124040499Y-130845000D02*
X124040499Y-103851000D01*
X132159499Y-115108000D02*
X132159499Y-100053000D01*
X130399499Y-115108000D02*
X130399499Y-100468000D01*
X134800499Y-134921000D02*
X134800499Y-99775000D01*
X128399499Y-133513000D02*
X128399499Y-119588000D01*
X121480499Y-128213000D02*
X121480499Y-106483000D01*
X152424501Y-128973000D02*
X152424501Y-125473000D01*
X118720499Y-123216000D02*
X118720499Y-111480000D01*
X120320499Y-126553000D02*
X120320499Y-108143000D01*
X124360499Y-131105000D02*
X124360499Y-103591000D01*
X118600499Y-122868000D02*
X118600499Y-111828000D01*
X123400499Y-130285000D02*
X123400499Y-104411000D01*
X118360499Y-122086000D02*
X118360499Y-112610000D01*
X130479499Y-115108000D02*
X130479499Y-100445000D01*
X131359499Y-134478000D02*
X131359499Y-119588000D01*
X124000499Y-130811000D02*
X124000499Y-103885000D01*
X127839499Y-133262000D02*
X127839499Y-101434000D01*
X134439499Y-134907000D02*
X134439499Y-99789000D01*
X128799499Y-133678000D02*
X128799499Y-119588000D01*
X132159499Y-134643000D02*
X132159499Y-119588000D01*
X128319499Y-133478000D02*
X128319499Y-119588000D01*
X130479499Y-134251000D02*
X130479499Y-119588000D01*
X131399499Y-134487000D02*
X131399499Y-119588000D01*
X129839499Y-115108000D02*
X129839499Y-100641000D01*
X126800499Y-132732000D02*
X126800499Y-101964000D01*
X135320499Y-134928000D02*
X135320499Y-99768000D01*
X134039499Y-134882000D02*
X134039499Y-99814000D01*
X130039499Y-134119000D02*
X130039499Y-119588000D01*
X131119499Y-115108000D02*
X131119499Y-100275000D01*
X130639499Y-134296000D02*
X130639499Y-119588000D01*
X125320499Y-131816000D02*
X125320499Y-102880000D01*
X129439499Y-115108000D02*
X129439499Y-100778000D01*
X123920499Y-130744000D02*
X123920499Y-103952000D01*
X122840499Y-129747000D02*
X122840499Y-104949000D01*
X133199499Y-134800000D02*
X133199499Y-99896000D01*
X131839499Y-134581000D02*
X131839499Y-119588000D01*
X125760499Y-132110000D02*
X125760499Y-102586000D01*
X130239499Y-115108000D02*
X130239499Y-100516000D01*
X129479499Y-133933000D02*
X129479499Y-119588000D01*
X124240499Y-131009000D02*
X124240499Y-103687000D01*
X133919499Y-134873000D02*
X133919499Y-99823000D01*
X121960499Y-128797000D02*
X121960499Y-105899000D01*
X129679499Y-115108000D02*
X129679499Y-100695000D01*
X129639499Y-133988000D02*
X129639499Y-119588000D01*
X131319499Y-115108000D02*
X131319499Y-100228000D01*
X119160499Y-124331000D02*
X119160499Y-110365000D01*
X124600499Y-131292000D02*
X124600499Y-103404000D01*
X123880499Y-130710000D02*
X123880499Y-103986000D01*
X134519499Y-134910000D02*
X134519499Y-99786000D01*
X130919499Y-115108000D02*
X130919499Y-100326000D01*
X122360499Y-129246000D02*
X122360499Y-105450000D01*
X124960499Y-131561000D02*
X124960499Y-103135000D01*
X127359499Y-133028000D02*
X127359499Y-101668000D01*
X123760499Y-130606000D02*
X123760499Y-104090000D01*
X129719499Y-134015000D02*
X129719499Y-119588000D01*
X128599499Y-133597000D02*
X128599499Y-119588000D01*
X128759499Y-115108000D02*
X128759499Y-101034000D01*
X123080499Y-129983000D02*
X123080499Y-104713000D01*
X121880499Y-128703000D02*
X121880499Y-105993000D01*
X129079499Y-133787000D02*
X129079499Y-119588000D01*
X127239499Y-132967000D02*
X127239499Y-101729000D01*
X126720499Y-132687000D02*
X126720499Y-102009000D01*
X135240499Y-134928000D02*
X135240499Y-99768000D01*
X129999499Y-134106000D02*
X129999499Y-119588000D01*
X132959499Y-134770000D02*
X132959499Y-99926000D01*
X120960499Y-127519000D02*
X120960499Y-107177000D01*
X130199499Y-134168000D02*
X130199499Y-119588000D01*
X126560499Y-132597000D02*
X126560499Y-102099000D01*
X132319499Y-115108000D02*
X132319499Y-100025000D01*
X127759499Y-133224000D02*
X127759499Y-101472000D01*
X127080499Y-132883000D02*
X127080499Y-101813000D01*
X133519499Y-134836000D02*
X133519499Y-99860000D01*
X133399499Y-134824000D02*
X133399499Y-99872000D01*
X133639499Y-134848000D02*
X133639499Y-99848000D01*
X118560499Y-122746000D02*
X118560499Y-111950000D01*
X125680499Y-132058000D02*
X125680499Y-102638000D01*
X131279499Y-134459000D02*
X131279499Y-119588000D01*
X125480499Y-131925000D02*
X125480499Y-102771000D01*
X128919499Y-133725000D02*
X128919499Y-119588000D01*
X133679499Y-134852000D02*
X133679499Y-99844000D01*
X130519499Y-115108000D02*
X130519499Y-100434000D01*
X121200499Y-127848000D02*
X121200499Y-106848000D01*
X129599499Y-133974000D02*
X129599499Y-119588000D01*
X131039499Y-134401000D02*
X131039499Y-119588000D01*
X132279499Y-134664000D02*
X132279499Y-119588000D01*
X119320499Y-124689000D02*
X119320499Y-110007000D01*
X127679499Y-133186000D02*
X127679499Y-101510000D01*
X128439499Y-133530000D02*
X128439499Y-119588000D01*
X126680499Y-132665000D02*
X126680499Y-102031000D01*
X129919499Y-115108000D02*
X129919499Y-100615000D01*
X125600499Y-132005000D02*
X125600499Y-102691000D01*
X131439499Y-134496000D02*
X131439499Y-119588000D01*
X128519499Y-115108000D02*
X128519499Y-101133000D01*
X123640499Y-130501000D02*
X123640499Y-104195000D01*
X118880499Y-123648000D02*
X118880499Y-111048000D01*
X123440499Y-130321000D02*
X123440499Y-104375000D01*
X125920499Y-132212000D02*
X125920499Y-102484000D01*
X119880499Y-125798000D02*
X119880499Y-108898000D01*
X124120499Y-130911000D02*
X124120499Y-103785000D01*
X132919499Y-134764000D02*
X132919499Y-99932000D01*
X119760499Y-125576000D02*
X119760499Y-109120000D01*
X131439499Y-115108000D02*
X131439499Y-100200000D01*
X127999499Y-133336000D02*
X127999499Y-101360000D01*
X132599499Y-134717000D02*
X132599499Y-99979000D01*
X123720499Y-130571000D02*
X123720499Y-104125000D01*
X130679499Y-134307000D02*
X130679499Y-119588000D01*
X120400499Y-126682000D02*
X120400499Y-108014000D01*
X128319499Y-115108000D02*
X128319499Y-101218000D01*
X118080499Y-120948000D02*
X118080499Y-113748000D01*
X132839499Y-134753000D02*
X132839499Y-99943000D01*
X134159499Y-134890000D02*
X134159499Y-99806000D01*
X126360499Y-132480000D02*
X126360499Y-102216000D01*
X122680499Y-129584000D02*
X122680499Y-105112000D01*
X134920499Y-134924000D02*
X134920499Y-99772000D01*
X132239499Y-115108000D02*
X132239499Y-100039000D01*
X123160499Y-130060000D02*
X123160499Y-104636000D01*
X128119499Y-133390000D02*
X128119499Y-119588000D01*
X131359499Y-115108000D02*
X131359499Y-100218000D01*
X129119499Y-115108000D02*
X129119499Y-100894000D01*
X132319499Y-134671000D02*
X132319499Y-119588000D01*
X127959499Y-133318000D02*
X127959499Y-101378000D01*
X128679499Y-133629000D02*
X128679499Y-119588000D01*
X128559499Y-133580000D02*
X128559499Y-119588000D01*
X117960499Y-120324000D02*
X117960499Y-114372000D01*
X132399499Y-134685000D02*
X132399499Y-119588000D01*
X129319499Y-133875000D02*
X129319499Y-119588000D01*
X131759499Y-134565000D02*
X131759499Y-119588000D01*
X128279499Y-133461000D02*
X128279499Y-119588000D01*
X123480499Y-130358000D02*
X123480499Y-104338000D01*
X125720499Y-132084000D02*
X125720499Y-102612000D01*
X125280499Y-131788000D02*
X125280499Y-102908000D01*
X125040499Y-131619000D02*
X125040499Y-103077000D01*
X133999499Y-134879000D02*
X133999499Y-99817000D01*
X120240499Y-126422000D02*
X120240499Y-108274000D01*
X125520499Y-131952000D02*
X125520499Y-102744000D01*
X129959499Y-134093000D02*
X129959499Y-119588000D01*
X132079499Y-115108000D02*
X132079499Y-100068000D01*
X131959499Y-134605000D02*
X131959499Y-119588000D01*
X122960499Y-129866000D02*
X122960499Y-104830000D01*
X122640499Y-129543000D02*
X122640499Y-105153000D01*
X132039499Y-134621000D02*
X132039499Y-119588000D01*
X127000499Y-132840000D02*
X127000499Y-101856000D01*
X129679499Y-134001000D02*
X129679499Y-119588000D01*
X122080499Y-128935000D02*
X122080499Y-105761000D01*
X126600499Y-132619000D02*
X126600499Y-102077000D01*
X129199499Y-115108000D02*
X129199499Y-100864000D01*
X130839499Y-115108000D02*
X130839499Y-100347000D01*
X132439499Y-115108000D02*
X132439499Y-100004000D01*
X123040499Y-129944000D02*
X123040499Y-104752000D01*
X135160499Y-134928000D02*
X135160499Y-99768000D01*
X128999499Y-115108000D02*
X128999499Y-100940000D01*
X121320499Y-128007000D02*
X121320499Y-106689000D01*
X119800499Y-125651000D02*
X119800499Y-109045000D01*
X126920499Y-132797000D02*
X126920499Y-101899000D01*
X117720499Y-118148000D02*
X117720499Y-116548000D01*
X123840499Y-130675000D02*
X123840499Y-104021000D01*
X134559499Y-134912000D02*
X134559499Y-99784000D01*
X132279499Y-115108000D02*
X132279499Y-100032000D01*
X133719499Y-134856000D02*
X133719499Y-99840000D01*
X123000499Y-129905000D02*
X123000499Y-104791000D01*
X130119499Y-134144000D02*
X130119499Y-119588000D01*
X120800499Y-127290000D02*
X120800499Y-107406000D01*
X128199499Y-133426000D02*
X128199499Y-119588000D01*
X131719499Y-134557000D02*
X131719499Y-119588000D01*
X129319499Y-115108000D02*
X129319499Y-100821000D01*
X130679499Y-115108000D02*
X130679499Y-100389000D01*
X120000499Y-126013000D02*
X120000499Y-108683000D01*
X134199499Y-134893000D02*
X134199499Y-99803000D01*
X120160499Y-126288000D02*
X120160499Y-108408000D01*
X129519499Y-133947000D02*
X129519499Y-119588000D01*
X121640499Y-128414000D02*
X121640499Y-106282000D01*
X128199499Y-115108000D02*
X128199499Y-101270000D01*
X128519499Y-133563000D02*
X128519499Y-119588000D01*
X134319499Y-134900000D02*
X134319499Y-99796000D01*
X129119499Y-133802000D02*
X129119499Y-119588000D01*
X118040499Y-120753000D02*
X118040499Y-113943000D01*
X120840499Y-127348000D02*
X120840499Y-107348000D01*
X127399499Y-133048000D02*
X127399499Y-101648000D01*
X119040499Y-124048000D02*
X119040499Y-110648000D01*
X126240499Y-132409000D02*
X126240499Y-102287000D01*
X121160499Y-127795000D02*
X121160499Y-106901000D01*
X129559499Y-115108000D02*
X129559499Y-100736000D01*
X122920499Y-129827000D02*
X122920499Y-104869000D01*
X131599499Y-134531000D02*
X131599499Y-119588000D01*
X129079499Y-115108000D02*
X129079499Y-100909000D01*
X131519499Y-115108000D02*
X131519499Y-100182000D01*
X117880499Y-119821000D02*
X117880499Y-114875000D01*
X131599499Y-115108000D02*
X131599499Y-100165000D01*
X118960499Y-123852000D02*
X118960499Y-110844000D01*
X130759499Y-115108000D02*
X130759499Y-100368000D01*
X126040499Y-132287000D02*
X126040499Y-102409000D01*
X122600499Y-129501000D02*
X122600499Y-105195000D01*
X121560499Y-128314000D02*
X121560499Y-106382000D01*
X130439499Y-134239000D02*
X130439499Y-119588000D01*
X129239499Y-115108000D02*
X129239499Y-100850000D01*
X118280499Y-121792000D02*
X118280499Y-112904000D01*
X121440499Y-128163000D02*
X121440499Y-106533000D01*
X131799499Y-115108000D02*
X131799499Y-100123000D01*
X132679499Y-134730000D02*
X132679499Y-99966000D01*
X132399499Y-115108000D02*
X132399499Y-100011000D01*
X131559499Y-134523000D02*
X131559499Y-119588000D01*
X129439499Y-133918000D02*
X129439499Y-119588000D01*
X134399499Y-134904000D02*
X134399499Y-99792000D01*
X120120499Y-126221000D02*
X120120499Y-108475000D01*
X124800499Y-131443000D02*
X124800499Y-103253000D01*
X119960499Y-125942000D02*
X119960499Y-108754000D01*
X125840499Y-132161000D02*
X125840499Y-102535000D01*
X120720499Y-127173000D02*
X120720499Y-107523000D01*
X128679499Y-115108000D02*
X128679499Y-101067000D01*
X128639499Y-133613000D02*
X128639499Y-119588000D01*
X128919499Y-115108000D02*
X128919499Y-100971000D01*
X120280499Y-126488000D02*
X120280499Y-108208000D01*
X126160499Y-132360000D02*
X126160499Y-102336000D01*
X133079499Y-134786000D02*
X133079499Y-99910000D01*
X121280499Y-127955000D02*
X121280499Y-106741000D01*
X122000499Y-128843000D02*
X122000499Y-105853000D01*
X123960499Y-130778000D02*
X123960499Y-103918000D01*
X119920499Y-125870000D02*
X119920499Y-108826000D01*
X129279499Y-133861000D02*
X129279499Y-119588000D01*
X135040499Y-134926000D02*
X135040499Y-99770000D01*
X132759499Y-134742000D02*
X132759499Y-99954000D01*
X120640499Y-127053000D02*
X120640499Y-107643000D01*
X131759499Y-115108000D02*
X131759499Y-100131000D01*
X131159499Y-134430000D02*
X131159499Y-119588000D01*
X135000499Y-134926000D02*
X135000499Y-99770000D01*
X131159499Y-115108000D02*
X131159499Y-100266000D01*
X120920499Y-127463000D02*
X120920499Y-107233000D01*
X133759499Y-134859000D02*
X133759499Y-99837000D01*
X118120499Y-121133000D02*
X118120499Y-113563000D01*
X124880499Y-131503000D02*
X124880499Y-103193000D01*
X132519499Y-115108000D02*
X132519499Y-99991000D01*
X119480499Y-125026000D02*
X119480499Y-109670000D01*
X131639499Y-115108000D02*
X131639499Y-100156000D01*
X131999499Y-115108000D02*
X131999499Y-100083000D01*
X128999499Y-133756000D02*
X128999499Y-119588000D01*
X127199499Y-132946000D02*
X127199499Y-101750000D01*
X127559499Y-133128000D02*
X127559499Y-101568000D01*
X124680499Y-131353000D02*
X124680499Y-103343000D01*
X132799499Y-134747000D02*
X132799499Y-99949000D01*
X120520499Y-126870000D02*
X120520499Y-107826000D01*
X133159499Y-134796000D02*
X133159499Y-99900000D01*
X134599499Y-134914000D02*
X134599499Y-99782000D01*
X129639499Y-115108000D02*
X129639499Y-100708000D01*
X125960499Y-132237000D02*
X125960499Y-102459000D01*
X131999499Y-134613000D02*
X131999499Y-119588000D01*
X133039499Y-134780000D02*
X133039499Y-99916000D01*
X124520499Y-131231000D02*
X124520499Y-103465000D01*
X127439499Y-133068000D02*
X127439499Y-101628000D01*
X131319499Y-134468000D02*
X131319499Y-119588000D01*
X127319499Y-133008000D02*
X127319499Y-101688000D01*
X127799499Y-133243000D02*
X127799499Y-101453000D01*
X121040499Y-127631000D02*
X121040499Y-107065000D01*
X131479499Y-115108000D02*
X131479499Y-100191000D01*
X131559499Y-115108000D02*
X131559499Y-100173000D01*
X131519499Y-134514000D02*
X131519499Y-119588000D01*
X132119499Y-115108000D02*
X132119499Y-100061000D01*
X119560499Y-125188000D02*
X119560499Y-109508000D01*
X128599499Y-115108000D02*
X128599499Y-101099000D01*
X122320499Y-129202000D02*
X122320499Y-105494000D01*
X127040499Y-132862000D02*
X127040499Y-101834000D01*
X126000499Y-132262000D02*
X126000499Y-102434000D01*
X127279499Y-132987000D02*
X127279499Y-101709000D01*
X121600499Y-128364000D02*
X121600499Y-106332000D01*
X132079499Y-134628000D02*
X132079499Y-119588000D01*
X125800499Y-132135000D02*
X125800499Y-102561000D01*
X121400499Y-128111000D02*
X121400499Y-106585000D01*
X124400499Y-131137000D02*
X124400499Y-103559000D01*
X130559499Y-115108000D02*
X130559499Y-100423000D01*
X135200499Y-134928000D02*
X135200499Y-99768000D01*
X122200499Y-129070000D02*
X122200499Y-105626000D01*
X124920499Y-131532000D02*
X124920499Y-103164000D01*
X131119499Y-134421000D02*
X131119499Y-119588000D01*
X128759499Y-133662000D02*
X128759499Y-119588000D01*
X131679499Y-134548000D02*
X131679499Y-119588000D01*
X126320499Y-132457000D02*
X126320499Y-102239000D01*
X121520499Y-128264000D02*
X121520499Y-106432000D01*
X122040499Y-128889000D02*
X122040499Y-105807000D01*
X152940499Y-117348000D02*
G75*
G03*
X152940499Y-117348000I-17620000J0D01*
G01*
%TO.C,SW1*%
X85445000Y-61935000D02*
X85445000Y-62985000D01*
X88545000Y-66335000D02*
X88545000Y-61935000D01*
X87045000Y-66335000D02*
X86945000Y-66335000D01*
X87045000Y-61935000D02*
X86945000Y-61935000D01*
X85445000Y-65285000D02*
X85445000Y-66335000D01*
%TO.C,C56*%
X146100748Y-82530126D02*
X147523252Y-82530126D01*
X146100748Y-80710126D02*
X147523252Y-80710126D01*
%TO.C,U1*%
X84165000Y-85090000D02*
X84165000Y-84290000D01*
X87285000Y-85090000D02*
X87285000Y-83290000D01*
X87285000Y-85090000D02*
X87285000Y-85890000D01*
X84165000Y-85090000D02*
X84165000Y-85890000D01*
%TO.C,R7*%
X121665276Y-58532500D02*
X122174724Y-58532500D01*
X121665276Y-59577500D02*
X122174724Y-59577500D01*
D16*
%TO.C,J3*%
X96125000Y-133085000D02*
X96125000Y-140335000D01*
X96125000Y-133085000D02*
X110885000Y-133085000D01*
X110885000Y-133085000D02*
X110885000Y-140335000D01*
D12*
%TO.C,C11*%
X195942252Y-70936000D02*
X198773748Y-70936000D01*
X195942252Y-65716000D02*
X198773748Y-65716000D01*
%TO.C,FB1*%
X176481665Y-95398000D02*
X176713335Y-95398000D01*
X176481665Y-96118000D02*
X176713335Y-96118000D01*
%TO.C,D16*%
X173772000Y-115267500D02*
X173772000Y-115917500D01*
X170652000Y-115267500D02*
X170652000Y-115917500D01*
X173772000Y-115267500D02*
X173772000Y-113592500D01*
X170652000Y-115267500D02*
X170652000Y-114617500D01*
%TO.C,C21*%
X171169000Y-128411248D02*
X171169000Y-128933752D01*
X169699000Y-128411248D02*
X169699000Y-128933752D01*
%TO.C,C54*%
X146100748Y-87610126D02*
X147523252Y-87610126D01*
X146100748Y-85790126D02*
X147523252Y-85790126D01*
%TO.C,RV1*%
X115660000Y-125070000D02*
X116840000Y-125070000D01*
X111800000Y-121330000D02*
X111800000Y-125070000D01*
X111800000Y-125070000D02*
X113180000Y-125070000D01*
X116460000Y-121330000D02*
X116840000Y-121330000D01*
X116840000Y-121330000D02*
X116840000Y-125070000D01*
X111800000Y-121330000D02*
X112381000Y-121330000D01*
X114160000Y-121330000D02*
X114680000Y-121330000D01*
%TO.C,C27*%
X172688000Y-87991733D02*
X172688000Y-88284267D01*
X171668000Y-87991733D02*
X171668000Y-88284267D01*
%TO.C,C51*%
X139866000Y-84802233D02*
X139866000Y-85094767D01*
X138846000Y-84802233D02*
X138846000Y-85094767D01*
%TO.C,C37*%
X167134000Y-120376733D02*
X167134000Y-120669267D01*
X166114000Y-120376733D02*
X166114000Y-120669267D01*
%TO.C,D5*%
X188380000Y-122258000D02*
X188380000Y-124918000D01*
X190080000Y-122258000D02*
X190080000Y-124918000D01*
X190080000Y-122258000D02*
X188380000Y-122258000D01*
%TO.C,R31*%
X162291500Y-96012724D02*
X162291500Y-95503276D01*
X163336500Y-96012724D02*
X163336500Y-95503276D01*
%TO.C,C52*%
X137961000Y-84802233D02*
X137961000Y-85094767D01*
X136941000Y-84802233D02*
X136941000Y-85094767D01*
%TO.C,D2*%
X87935000Y-72660000D02*
X84075000Y-72660000D01*
X87935000Y-74660000D02*
X87935000Y-72660000D01*
X87935000Y-74660000D02*
X84075000Y-74660000D01*
%TO.C,R23*%
X98741250Y-123571724D02*
X98741250Y-123062276D01*
X99786250Y-123571724D02*
X99786250Y-123062276D01*
%TO.C,C8*%
X190645748Y-79305000D02*
X187814252Y-79305000D01*
X190645748Y-84525000D02*
X187814252Y-84525000D01*
%TO.C,C4*%
X86851267Y-68455000D02*
X86558733Y-68455000D01*
X86851267Y-67435000D02*
X86558733Y-67435000D01*
%TO.C,C9*%
X190645748Y-72320000D02*
X187814252Y-72320000D01*
X190645748Y-77540000D02*
X187814252Y-77540000D01*
%TO.C,C30*%
X161546000Y-95611733D02*
X161546000Y-95904267D01*
X160526000Y-95611733D02*
X160526000Y-95904267D01*
%TO.C,C43*%
X133078267Y-89168000D02*
X132785733Y-89168000D01*
X133078267Y-88148000D02*
X132785733Y-88148000D01*
%TO.C,R13*%
X183770536Y-128445500D02*
X184224664Y-128445500D01*
X183770536Y-129915500D02*
X184224664Y-129915500D01*
%TO.C,C57*%
X151132000Y-78933859D02*
X151132000Y-79226393D01*
X150112000Y-78933859D02*
X150112000Y-79226393D01*
%TO.C,C41*%
X133078267Y-86120000D02*
X132785733Y-86120000D01*
X133078267Y-85100000D02*
X132785733Y-85100000D01*
%TO.C,C38*%
X139553733Y-74572400D02*
X139846267Y-74572400D01*
X139553733Y-75592400D02*
X139846267Y-75592400D01*
D16*
%TO.C,J2*%
X90435000Y-96760000D02*
X83185000Y-96760000D01*
X90435000Y-96760000D02*
X90435000Y-111520000D01*
X90435000Y-111520000D02*
X83185000Y-111520000D01*
D12*
%TO.C,C10*%
X195942252Y-77540000D02*
X198773748Y-77540000D01*
X195942252Y-72320000D02*
X198773748Y-72320000D01*
%TO.C,C25*%
X167354000Y-84181733D02*
X167354000Y-84474267D01*
X166334000Y-84181733D02*
X166334000Y-84474267D01*
%TO.C,R28*%
X105247250Y-126745276D02*
X105247250Y-127254724D01*
X104202250Y-126745276D02*
X104202250Y-127254724D01*
%TO.C,C26*%
X97868750Y-123170733D02*
X97868750Y-123463267D01*
X96848750Y-123170733D02*
X96848750Y-123463267D01*
%TO.C,C44*%
X136538748Y-89187000D02*
X137961252Y-89187000D01*
X136538748Y-87367000D02*
X137961252Y-87367000D01*
%TO.C,L1*%
X130296000Y-65729000D02*
X138516000Y-65729000D01*
X130296000Y-74249000D02*
X138516000Y-74249000D01*
X130296000Y-65729000D02*
X130296000Y-66479000D01*
X138516000Y-65729000D02*
X138516000Y-66479000D01*
X130296000Y-74249000D02*
X130296000Y-73499000D01*
X138516000Y-74249000D02*
X138516000Y-73499000D01*
%TO.C,D14*%
X173645000Y-104345500D02*
X173645000Y-104995500D01*
X170525000Y-104345500D02*
X170525000Y-104995500D01*
X173645000Y-104345500D02*
X173645000Y-102670500D01*
X170525000Y-104345500D02*
X170525000Y-103695500D01*
%TO.C,C17*%
X178056000Y-127356733D02*
X178056000Y-127649267D01*
X177036000Y-127356733D02*
X177036000Y-127649267D01*
%TO.C,R40*%
X164577500Y-109680224D02*
X164577500Y-109170776D01*
X165622500Y-109680224D02*
X165622500Y-109170776D01*
%TO.C,R24*%
X167941224Y-82366500D02*
X167431776Y-82366500D01*
X167941224Y-81321500D02*
X167431776Y-81321500D01*
%TO.C,TP23*%
X157406000Y-65024000D02*
G75*
G03*
X157406000Y-65024000I-1450000J0D01*
G01*
%TO.C,R17*%
X190370000Y-105063936D02*
X190370000Y-106518064D01*
X188550000Y-105063936D02*
X188550000Y-106518064D01*
%TO.C,Q2*%
X94615000Y-63210000D02*
X95265000Y-63210000D01*
X94615000Y-66330000D02*
X95265000Y-66330000D01*
X94615000Y-63210000D02*
X92940000Y-63210000D01*
X94615000Y-66330000D02*
X93965000Y-66330000D01*
%TO.C,D11*%
X107518750Y-127417000D02*
X106868750Y-127417000D01*
X107518750Y-124297000D02*
X106868750Y-124297000D01*
X107518750Y-127417000D02*
X109193750Y-127417000D01*
X107518750Y-124297000D02*
X108168750Y-124297000D01*
%TO.C,C46*%
X133121835Y-75175000D02*
X132890165Y-75175000D01*
X133121835Y-74455000D02*
X132890165Y-74455000D01*
%TO.C,C5*%
X88775000Y-77323733D02*
X88775000Y-77616267D01*
X87755000Y-77323733D02*
X87755000Y-77616267D01*
%TO.C,R12*%
X183770536Y-126493600D02*
X184224664Y-126493600D01*
X183770536Y-127963600D02*
X184224664Y-127963600D01*
%TO.C,R10*%
X191390000Y-91055936D02*
X191390000Y-94110064D01*
X188670000Y-91055936D02*
X188670000Y-94110064D01*
%TO.C,C47*%
X139299665Y-78011000D02*
X139531335Y-78011000D01*
X139299665Y-78731000D02*
X139531335Y-78731000D01*
%TO.C,U6*%
X165010000Y-130503000D02*
X165010000Y-129193000D01*
X167730000Y-130503000D02*
X165010000Y-130503000D01*
X167730000Y-130503000D02*
X167730000Y-130273000D01*
X165010000Y-127093000D02*
X165010000Y-125783000D01*
X168870000Y-130273000D02*
X167730000Y-130273000D01*
X167730000Y-125783000D02*
X167730000Y-126013000D01*
X165010000Y-125783000D02*
X167730000Y-125783000D01*
%TO.C,C6*%
X90426000Y-77323733D02*
X90426000Y-77616267D01*
X89406000Y-77323733D02*
X89406000Y-77616267D01*
%TO.C,R48*%
X129704724Y-80163500D02*
X129195276Y-80163500D01*
X129704724Y-79118500D02*
X129195276Y-79118500D01*
%TO.C,C28*%
X103456750Y-126853733D02*
X103456750Y-127146267D01*
X102436750Y-126853733D02*
X102436750Y-127146267D01*
%TO.C,D17*%
X171196000Y-120559000D02*
X170546000Y-120559000D01*
X171196000Y-117439000D02*
X170546000Y-117439000D01*
X171196000Y-120559000D02*
X172871000Y-120559000D01*
X171196000Y-117439000D02*
X171846000Y-117439000D01*
%TO.C,J1*%
X81670000Y-73710000D02*
X81670000Y-74130000D01*
X79690000Y-73710000D02*
X81670000Y-73710000D01*
X77320000Y-73710000D02*
X77720000Y-73710000D01*
X81900000Y-75710000D02*
X82350000Y-75710000D01*
X82350000Y-76160000D02*
X82350000Y-75710000D01*
X81670000Y-81230000D02*
X81670000Y-80810000D01*
X79690000Y-81230000D02*
X81670000Y-81230000D01*
X77720000Y-81230000D02*
X77320000Y-81230000D01*
%TO.C,R8*%
X98312500Y-79120276D02*
X98312500Y-79629724D01*
X97267500Y-79120276D02*
X97267500Y-79629724D01*
%TO.C,R38*%
X168807224Y-102328000D02*
X168297776Y-102328000D01*
X168807224Y-101283000D02*
X168297776Y-101283000D01*
%TO.C,R27*%
X171096000Y-87883276D02*
X171096000Y-88392724D01*
X170051000Y-87883276D02*
X170051000Y-88392724D01*
%TO.C,C29*%
X165588733Y-95883000D02*
X165881267Y-95883000D01*
X165588733Y-96903000D02*
X165881267Y-96903000D01*
%TO.C,JP2*%
X144720000Y-137100000D02*
X144720000Y-139760000D01*
X149860000Y-137100000D02*
X144720000Y-137100000D01*
X151130000Y-137100000D02*
X152460000Y-137100000D01*
X149860000Y-139760000D02*
X144720000Y-139760000D01*
X152460000Y-137100000D02*
X152460000Y-138430000D01*
X149860000Y-137100000D02*
X149860000Y-139760000D01*
%TO.C,C35*%
X165588733Y-117473000D02*
X165881267Y-117473000D01*
X165588733Y-118493000D02*
X165881267Y-118493000D01*
%TO.C,R37*%
X162179724Y-104233000D02*
X161670276Y-104233000D01*
X162179724Y-103188000D02*
X161670276Y-103188000D01*
%TO.C,D10*%
X177004000Y-88174000D02*
X176354000Y-88174000D01*
X177004000Y-85054000D02*
X176354000Y-85054000D01*
X177004000Y-88174000D02*
X178679000Y-88174000D01*
X177004000Y-85054000D02*
X177654000Y-85054000D01*
%TO.C,R43*%
X168807224Y-113425500D02*
X168297776Y-113425500D01*
X168807224Y-112380500D02*
X168297776Y-112380500D01*
%TO.C,D12*%
X173518000Y-93599000D02*
X173518000Y-94249000D01*
X170398000Y-93599000D02*
X170398000Y-94249000D01*
X173518000Y-93599000D02*
X173518000Y-91924000D01*
X170398000Y-93599000D02*
X170398000Y-92949000D01*
%TO.C,C3*%
X87876748Y-89181000D02*
X88399252Y-89181000D01*
X87876748Y-90651000D02*
X88399252Y-90651000D01*
%TO.C,R39*%
X169432500Y-109170776D02*
X169432500Y-109680224D01*
X168387500Y-109170776D02*
X168387500Y-109680224D01*
%TO.C,R49*%
X139505776Y-76578500D02*
X140015224Y-76578500D01*
X139505776Y-77623500D02*
X140015224Y-77623500D01*
%TO.C,R25*%
X98629474Y-121299500D02*
X98120026Y-121299500D01*
X98629474Y-120254500D02*
X98120026Y-120254500D01*
%TO.C,R22*%
X168099500Y-84582724D02*
X168099500Y-84073276D01*
X169144500Y-84582724D02*
X169144500Y-84073276D01*
%TO.C,R30*%
X100646250Y-127254724D02*
X100646250Y-126745276D01*
X101691250Y-127254724D02*
X101691250Y-126745276D01*
%TO.C,D13*%
X171274500Y-98969000D02*
X170624500Y-98969000D01*
X171274500Y-95849000D02*
X170624500Y-95849000D01*
X171274500Y-98969000D02*
X172949500Y-98969000D01*
X171274500Y-95849000D02*
X171924500Y-95849000D01*
%TO.C,D1*%
X84620000Y-87530000D02*
X82160000Y-87530000D01*
X82160000Y-89000000D02*
X84620000Y-89000000D01*
X82160000Y-87530000D02*
X82160000Y-89000000D01*
%TO.C,R26*%
X174291224Y-81096500D02*
X173781776Y-81096500D01*
X174291224Y-80051500D02*
X173781776Y-80051500D01*
%TO.C,C24*%
X101911483Y-123950000D02*
X102204017Y-123950000D01*
X101911483Y-124970000D02*
X102204017Y-124970000D01*
%TO.C,R44*%
X168797500Y-120268276D02*
X168797500Y-120777724D01*
X167752500Y-120268276D02*
X167752500Y-120777724D01*
%TO.C,R45*%
X164323500Y-120777724D02*
X164323500Y-120268276D01*
X165368500Y-120777724D02*
X165368500Y-120268276D01*
%TO.C,C22*%
X173201000Y-128411248D02*
X173201000Y-128933752D01*
X171731000Y-128411248D02*
X171731000Y-128933752D01*
%TO.C,R46*%
X141029776Y-80642500D02*
X141539224Y-80642500D01*
X141029776Y-81687500D02*
X141539224Y-81687500D01*
%TO.C,C49*%
X135938165Y-74455000D02*
X136169835Y-74455000D01*
X135938165Y-75175000D02*
X136169835Y-75175000D01*
%TO.C,C1*%
X89381000Y-84828748D02*
X89381000Y-85351252D01*
X87911000Y-84828748D02*
X87911000Y-85351252D01*
%TO.C,C18*%
X180486267Y-125245500D02*
X180193733Y-125245500D01*
X180486267Y-124225500D02*
X180193733Y-124225500D01*
%TO.C,C12*%
X195942252Y-84525000D02*
X198773748Y-84525000D01*
X195942252Y-79305000D02*
X198773748Y-79305000D01*
%TO.C,R34*%
X165368500Y-98678276D02*
X165368500Y-99187724D01*
X164323500Y-98678276D02*
X164323500Y-99187724D01*
%TO.C,D8*%
X179406500Y-82804000D02*
X179406500Y-83454000D01*
X176286500Y-82804000D02*
X176286500Y-83454000D01*
X179406500Y-82804000D02*
X179406500Y-81129000D01*
X176286500Y-82804000D02*
X176286500Y-82154000D01*
%TO.C,C55*%
X146100748Y-85070126D02*
X147523252Y-85070126D01*
X146100748Y-83250126D02*
X147523252Y-83250126D01*
%TO.C,R9*%
X96407500Y-79120276D02*
X96407500Y-79629724D01*
X95362500Y-79120276D02*
X95362500Y-79629724D01*
%TO.C,R11*%
X187415000Y-91055936D02*
X187415000Y-94110064D01*
X184695000Y-91055936D02*
X184695000Y-94110064D01*
%TO.C,D4*%
X93815000Y-83285000D02*
X96275000Y-83285000D01*
X96275000Y-81815000D02*
X93815000Y-81815000D01*
X96275000Y-83285000D02*
X96275000Y-81815000D01*
%TO.C,R16*%
X187415000Y-98040936D02*
X187415000Y-101095064D01*
X184695000Y-98040936D02*
X184695000Y-101095064D01*
%TO.C,R50*%
X143255276Y-73899500D02*
X143764724Y-73899500D01*
X143255276Y-74944500D02*
X143764724Y-74944500D01*
%TO.C,R2*%
X90402500Y-64515276D02*
X90402500Y-65024724D01*
X89357500Y-64515276D02*
X89357500Y-65024724D01*
%TO.C,C50*%
X137814267Y-81790000D02*
X137521733Y-81790000D01*
X137814267Y-80770000D02*
X137521733Y-80770000D01*
%TO.C,D9*%
X109967750Y-122047000D02*
X109967750Y-122697000D01*
X106847750Y-122047000D02*
X106847750Y-122697000D01*
X109967750Y-122047000D02*
X109967750Y-120372000D01*
X106847750Y-122047000D02*
X106847750Y-121397000D01*
%TO.C,C40*%
X133051767Y-84596000D02*
X132759233Y-84596000D01*
X133051767Y-83576000D02*
X132759233Y-83576000D01*
%TO.C,FB2*%
X176160165Y-124989000D02*
X176391835Y-124989000D01*
X176160165Y-125709000D02*
X176391835Y-125709000D01*
%TO.C,C33*%
X161165000Y-106104233D02*
X161165000Y-106396767D01*
X160145000Y-106104233D02*
X160145000Y-106396767D01*
%TO.C,R3*%
X85979724Y-82564500D02*
X85470276Y-82564500D01*
X85979724Y-81519500D02*
X85470276Y-81519500D01*
%TO.C,C20*%
X163832000Y-128758733D02*
X163832000Y-129051267D01*
X162812000Y-128758733D02*
X162812000Y-129051267D01*
%TO.C,C59*%
X125982000Y-76739267D02*
X125982000Y-76446733D01*
X127002000Y-76739267D02*
X127002000Y-76446733D01*
%TO.C,C7*%
X96264000Y-74060267D02*
X96264000Y-73767733D01*
X97284000Y-74060267D02*
X97284000Y-73767733D01*
%TO.C,C58*%
X153356437Y-81385126D02*
X152292000Y-82449563D01*
X159112000Y-88205126D02*
X156762000Y-88205126D01*
X152292000Y-88205126D02*
X154642000Y-88205126D01*
X153356437Y-81385126D02*
X154642000Y-81385126D01*
X157549500Y-80357626D02*
X157549500Y-81145126D01*
X159112000Y-82449563D02*
X159112000Y-88205126D01*
X158047563Y-81385126D02*
X159112000Y-82449563D01*
X158047563Y-81385126D02*
X156762000Y-81385126D01*
X157943250Y-80751376D02*
X157155750Y-80751376D01*
X152292000Y-82449563D02*
X152292000Y-88205126D01*
%TO.C,R14*%
X187212500Y-128925776D02*
X187212500Y-129435224D01*
X186167500Y-128925776D02*
X186167500Y-129435224D01*
%TO.C,R5*%
X91962500Y-64515276D02*
X91962500Y-65024724D01*
X90917500Y-64515276D02*
X90917500Y-65024724D01*
%TO.C,R21*%
X174766500Y-126110276D02*
X174766500Y-126619724D01*
X173721500Y-126110276D02*
X173721500Y-126619724D01*
%TO.C,U2*%
X100200000Y-50976200D02*
X100200000Y-57391200D01*
X118440000Y-75936200D02*
X118440000Y-76716200D01*
X100200000Y-50976200D02*
X118440000Y-50976200D01*
X100200000Y-75936200D02*
X100200000Y-76716200D01*
X118440000Y-50976200D02*
X118440000Y-57391200D01*
X118440000Y-76716200D02*
X117440000Y-76716200D01*
X100200000Y-57391200D02*
X99820000Y-57391200D01*
X100200000Y-76716200D02*
X101200000Y-76716200D01*
%TO.C,R52*%
X146084936Y-76900126D02*
X147539064Y-76900126D01*
X146084936Y-78720126D02*
X147539064Y-78720126D01*
%TO.C,C39*%
X129533867Y-75592400D02*
X129241333Y-75592400D01*
X129533867Y-74572400D02*
X129241333Y-74572400D01*
%TO.C,C48*%
X143974500Y-80346665D02*
X143974500Y-80578335D01*
X143254500Y-80346665D02*
X143254500Y-80578335D01*
%TO.C,Q1*%
X94615000Y-59400000D02*
X95265000Y-59400000D01*
X94615000Y-62520000D02*
X95265000Y-62520000D01*
X94615000Y-59400000D02*
X92940000Y-59400000D01*
X94615000Y-62520000D02*
X93965000Y-62520000D01*
%TO.C,JP1*%
X95825000Y-97730000D02*
X95825000Y-100390000D01*
X100965000Y-97730000D02*
X95825000Y-97730000D01*
X102235000Y-97730000D02*
X103565000Y-97730000D01*
X100965000Y-100390000D02*
X95825000Y-100390000D01*
X103565000Y-97730000D02*
X103565000Y-99060000D01*
X100965000Y-97730000D02*
X100965000Y-100390000D01*
%TO.C,R47*%
X141029776Y-79118500D02*
X141539224Y-79118500D01*
X141029776Y-80163500D02*
X141539224Y-80163500D01*
%TD*%
M02*
