M48
INCH
T1C0.0079
T2C0.0118
T3C0.0157
T4C0.0197
T5C0.0217
T6C0.0350
T7C0.0394
T8C0.0787
T9C0.0900
%
G90
G05
T1
X4.1898Y-2.5829
X4.1898Y-2.638
X4.2173Y-2.5554
X4.2173Y-2.6105
X4.2173Y-2.6656
X4.2439Y-2.5829
X4.2439Y-2.638
X4.2724Y-2.5554
X4.2724Y-2.6105
X4.2724Y-2.6656
X4.3Y-2.5829
X4.3Y-2.638
T2
X3.26Y-3.1
X3.2824Y-3.0257
X3.34Y-3.6
X3.37Y-3.36
X3.371Y-3.41
X3.39Y-2.97
X3.43Y-2.5
X3.47Y-2.9648
X3.47Y-3.13
X3.5135Y-2.9692
X3.53Y-2.94
X3.54Y-2.45
X3.54Y-2.63
X3.54Y-3.13
X3.55Y-2.9
X3.56Y-3.54
X3.58Y-2.75
X3.62Y-3.07
X3.64Y-2.95
X3.65Y-3.23
X3.675Y-2.95
X3.6877Y-2.5577
X3.69Y-2.63
X3.6976Y-2.82
X3.71Y-2.95
X3.72Y-2.73
X3.81Y-2.45
X3.833Y-4.945
X3.84Y-2.39
X3.85Y-2.7
X3.86Y-2.88
X3.893Y-4.945
X3.9Y-2.3
X3.9Y-2.35
X3.933Y-5.02
X3.98Y-3.22
X4.03Y-2.85
X4.04Y-2.71
X4.08Y-3.07
X4.103Y-4.905
X4.123Y-5.085
X4.15Y-4.73
X4.271Y-2.899
X4.3Y-2.76
X4.333Y-4.835
X4.3924Y-2.7224
X4.45Y-2.62
X4.49Y-2.65
X4.52Y-2.55
X4.55Y-2.58
X4.57Y-2.66
X4.58Y-2.3
X4.58Y-2.82
X4.58Y-2.93
X6.32Y-4.265
X6.34Y-3.855
X6.34Y-4.705
X6.4Y-4.705
X6.43Y-3.865
X6.43Y-5.165
X6.44Y-3.935
X6.44Y-4.225
X6.44Y-4.715
X6.45Y-4.175
X6.45Y-4.275
X6.46Y-4.615
X6.5488Y-3.6886
X6.55Y-3.725
X6.56Y-3.655
X6.56Y-4.595
X6.5687Y-3.4
X6.57Y-4.075
X6.6006Y-3.6544
X6.61Y-3.795
X6.61Y-4.205
X6.6387Y-3.4
X6.65Y-3.795
X6.6687Y-3.5
X6.67Y-3.935
X6.67Y-4.785
X6.69Y-4.055
X6.7Y-4.355
X6.7Y-4.485
X6.72Y-4.555
X6.7787Y-3.31
X6.804Y-4.881
X6.8287Y-3.22
X6.8387Y-3.3654
X6.85Y-5.105
X6.8887Y-3.51
X6.92Y-3.735
X6.97Y-3.955
X6.99Y-5.105
X7.01Y-4.205
X7.01Y-4.885
X7.0387Y-3.17
X7.04Y-3.985
X7.06Y-5.095
X7.08Y-4.215
X7.1506Y-4.0456
X7.21Y-4.225
X7.26Y-4.145
X7.33Y-5.175
X7.47Y-4.635
X7.59Y-3.545
X7.61Y-5.315
T3
X3.615Y-3.515
X3.74Y-3.94
X3.75Y-3.79
X4.38Y-5.3
X4.39Y-4.73
X4.46Y-5.22
X4.47Y-2.77
X4.51Y-2.93
X4.59Y-2.62
X4.6983Y-2.91
X4.81Y-2.41
X4.81Y-2.91
X4.83Y-2.53
X4.89Y-2.325
X4.89Y-2.45
X4.89Y-2.89
X4.92Y-2.97
X4.995Y-2.93
X5.0Y-5.4083
X5.0249Y-3.0209
X5.072Y-2.912
X5.095Y-3.0583
X5.11Y-3.02
X5.14Y-3.28
X5.14Y-3.32
X5.14Y-3.36
X5.14Y-3.4
X5.14Y-3.44
X5.14Y-3.48
X5.14Y-3.52
X5.145Y-3.0774
X5.1565Y-3.0183
X5.296Y-2.82
X5.296Y-2.862
X5.296Y-2.904
X5.4Y-3.25
X5.45Y-3.155
X5.452Y-2.906
X5.5315Y-2.9085
X5.54Y-3.38
X5.54Y-3.42
X5.54Y-3.46
X5.55Y-3.54
X5.55Y-3.59
X5.55Y-3.64
X5.55Y-3.81
X5.55Y-3.86
X5.58Y-2.3
X5.58Y-3.38
X5.58Y-3.42
X5.58Y-3.46
X5.582Y-3.044
X5.6Y-3.084
X5.6Y-3.54
X5.6Y-3.59
X5.6Y-3.64
X5.6Y-3.7
X5.6Y-3.76
X5.6Y-3.81
X5.6Y-3.86
X5.61Y-2.99
X5.62Y-3.38
X5.62Y-3.42
X5.62Y-3.46
X5.626Y-3.244
X5.65Y-3.54
X5.65Y-3.59
X5.65Y-3.64
X5.65Y-3.7
X5.65Y-3.76
X5.65Y-3.81
X5.65Y-3.86
X5.7Y-2.73
X5.765Y-2.98
X5.85Y-3.49
X5.86Y-3.14
X5.9Y-3.21
X5.9Y-3.25
X5.9Y-3.29
X5.9Y-3.33
X5.9Y-3.37
X5.9Y-3.41
X5.9Y-3.45
X5.9Y-3.49
X5.94Y-3.21
X5.94Y-3.25
X5.94Y-3.29
X5.94Y-3.33
X5.94Y-3.37
X5.94Y-3.41
X5.94Y-3.45
X5.94Y-3.49
X6.0Y-2.62
X6.37Y-4.02
X6.47Y-3.09
X6.52Y-3.09
X6.53Y-3.2
X6.54Y-3.13
X6.805Y-4.945
X6.92Y-4.09
X6.94Y-2.94
X7.1017Y-2.6562
X7.11Y-3.17
X7.11Y-3.79
X7.13Y-2.71
X7.13Y-2.75
X7.17Y-2.71
X7.17Y-2.75
X7.175Y-3.97
X7.21Y-2.71
X7.21Y-2.75
X7.21Y-3.82
X7.21Y-4.06
X7.25Y-2.71
X7.25Y-2.75
X7.29Y-2.71
X7.29Y-2.75
X7.325Y-3.92
X7.33Y-2.71
X7.33Y-2.75
X7.33Y-2.79
X7.37Y-2.71
X7.37Y-2.75
X7.37Y-2.79
X7.41Y-2.71
X7.41Y-2.75
X7.41Y-2.79
X7.42Y-5.15
X7.45Y-2.71
X7.45Y-2.75
X7.45Y-2.79
X7.465Y-5.15
X7.51Y-5.15
X7.86Y-2.48
X7.86Y-2.52
X7.9Y-2.48
X7.9Y-2.52
X7.94Y-2.48
X7.94Y-2.52
X7.94Y-2.56
X7.94Y-2.6
X7.94Y-2.64
X7.94Y-2.68
X7.94Y-2.72
X7.94Y-2.76
X7.94Y-2.8
X7.94Y-2.84
X7.94Y-2.88
X7.94Y-2.92
X7.94Y-2.96
X7.94Y-3.0
X7.94Y-3.04
X7.94Y-3.08
X7.94Y-3.12
X7.94Y-3.16
X7.94Y-3.2
X7.94Y-3.24
X7.94Y-3.28
X7.94Y-3.32
T6
X3.475Y-4.1
X3.475Y-4.2
X4.075Y-5.325
X4.175Y-5.325
T7
X3.825Y-3.9
X3.925Y-3.9
X4.025Y-3.9
X5.75Y-5.45
X5.85Y-5.45
X5.95Y-5.45
T8
X5.1307Y-4.62
X5.5244Y-4.62
T9
X3.275Y-4.65
X3.275Y-4.95
X3.575Y-5.425
X4.625Y-5.675
X5.0Y-5.675
X5.15Y-2.375
X5.3Y-5.675
X5.4Y-2.375
X5.525Y-5.675
X5.65Y-2.1
X5.825Y-2.375
X6.05Y-2.1
X6.225Y-2.375
X6.45Y-2.1
X6.625Y-2.375
X6.8Y-2.8
X6.85Y-2.1
X6.925Y-5.22
X7.025Y-2.375
X7.25Y-2.1
X7.65Y-4.4084
X7.65Y-4.82
T4
G00X3.1116Y-2.9122
M15
G01X3.086Y-2.9122
M16
G05
G00X3.1116Y-3.1878
M15
G01X3.086Y-3.1878
M16
G05
T5
G00X3.2051Y-2.9457
M15
G01X3.2051Y-2.9575
M16
G05
G00X3.2051Y-3.1425
M15
G01X3.2051Y-3.1543
M16
G05
T0
M30
