%TF.GenerationSoftware,KiCad,Pcbnew,7.0.8*%
%TF.CreationDate,2024-02-01T17:09:28-05:00*%
%TF.ProjectId,cc_laser_supply_rev-B,63635f6c-6173-4657-925f-737570706c79,rev?*%
%TF.SameCoordinates,Original*%
%TF.FileFunction,Soldermask,Top*%
%TF.FilePolarity,Negative*%
%FSLAX46Y46*%
G04 Gerber Fmt 4.6, Leading zero omitted, Abs format (unit mm)*
G04 Created by KiCad (PCBNEW 7.0.8) date 2024-02-01 17:09:28*
%MOMM*%
%LPD*%
G01*
G04 APERTURE LIST*
G04 Aperture macros list*
%AMRoundRect*
0 Rectangle with rounded corners*
0 $1 Rounding radius*
0 $2 $3 $4 $5 $6 $7 $8 $9 X,Y pos of 4 corners*
0 Add a 4 corners polygon primitive as box body*
4,1,4,$2,$3,$4,$5,$6,$7,$8,$9,$2,$3,0*
0 Add four circle primitives for the rounded corners*
1,1,$1+$1,$2,$3*
1,1,$1+$1,$4,$5*
1,1,$1+$1,$6,$7*
1,1,$1+$1,$8,$9*
0 Add four rect primitives between the rounded corners*
20,1,$1+$1,$2,$3,$4,$5,0*
20,1,$1+$1,$4,$5,$6,$7,0*
20,1,$1+$1,$6,$7,$8,$9,0*
20,1,$1+$1,$8,$9,$2,$3,0*%
%AMFreePoly0*
4,1,9,3.862500,-0.866500,0.737500,-0.866500,0.737500,-0.450000,-0.737500,-0.450000,-0.737500,0.450000,0.737500,0.450000,0.737500,0.866500,3.862500,0.866500,3.862500,-0.866500,3.862500,-0.866500,$1*%
G04 Aperture macros list end*
%ADD10C,0.010000*%
%ADD11C,3.048000*%
%ADD12RoundRect,0.237500X0.237500X-0.300000X0.237500X0.300000X-0.237500X0.300000X-0.237500X-0.300000X0*%
%ADD13R,3.810000X1.498600*%
%ADD14RoundRect,0.237500X-0.237500X0.250000X-0.237500X-0.250000X0.237500X-0.250000X0.237500X0.250000X0*%
%ADD15RoundRect,0.150000X0.587500X0.150000X-0.587500X0.150000X-0.587500X-0.150000X0.587500X-0.150000X0*%
%ADD16RoundRect,0.237500X-0.300000X-0.237500X0.300000X-0.237500X0.300000X0.237500X-0.300000X0.237500X0*%
%ADD17RoundRect,0.237500X-0.237500X0.300000X-0.237500X-0.300000X0.237500X-0.300000X0.237500X0.300000X0*%
%ADD18RoundRect,0.249999X-1.075001X0.450001X-1.075001X-0.450001X1.075001X-0.450001X1.075001X0.450001X0*%
%ADD19RoundRect,0.237500X0.300000X0.237500X-0.300000X0.237500X-0.300000X-0.237500X0.300000X-0.237500X0*%
%ADD20RoundRect,0.250000X-0.650000X1.000000X-0.650000X-1.000000X0.650000X-1.000000X0.650000X1.000000X0*%
%ADD21RoundRect,0.237500X-0.250000X-0.237500X0.250000X-0.237500X0.250000X0.237500X-0.250000X0.237500X0*%
%ADD22R,0.310000X0.850000*%
%ADD23R,2.950000X0.654000*%
%ADD24R,2.200000X0.850000*%
%ADD25RoundRect,0.237500X0.250000X0.237500X-0.250000X0.237500X-0.250000X-0.237500X0.250000X-0.237500X0*%
%ADD26RoundRect,0.237500X-0.287500X-0.237500X0.287500X-0.237500X0.287500X0.237500X-0.287500X0.237500X0*%
%ADD27RoundRect,0.250000X-0.625000X0.400000X-0.625000X-0.400000X0.625000X-0.400000X0.625000X0.400000X0*%
%ADD28RoundRect,0.125000X-0.125000X0.125000X-0.125000X-0.125000X0.125000X-0.125000X0.125000X0.125000X0*%
%ADD29RoundRect,0.237500X0.237500X-0.250000X0.237500X0.250000X-0.237500X0.250000X-0.237500X-0.250000X0*%
%ADD30RoundRect,0.250000X-0.475000X0.337500X-0.475000X-0.337500X0.475000X-0.337500X0.475000X0.337500X0*%
%ADD31R,0.690000X0.320000*%
%ADD32R,1.000000X1.600000*%
%ADD33RoundRect,0.100000X0.712500X0.100000X-0.712500X0.100000X-0.712500X-0.100000X0.712500X-0.100000X0*%
%ADD34RoundRect,0.100000X-0.100000X0.637500X-0.100000X-0.637500X0.100000X-0.637500X0.100000X0.637500X0*%
%ADD35R,4.000000X4.000000*%
%ADD36C,4.000000*%
%ADD37R,1.000000X0.900000*%
%ADD38R,0.550000X1.700000*%
%ADD39RoundRect,0.250000X-0.412500X-0.650000X0.412500X-0.650000X0.412500X0.650000X-0.412500X0.650000X0*%
%ADD40RoundRect,0.150000X-0.150000X0.512500X-0.150000X-0.512500X0.150000X-0.512500X0.150000X0.512500X0*%
%ADD41C,3.000000*%
%ADD42C,1.524000*%
%ADD43RoundRect,0.250000X-0.650000X-2.450000X0.650000X-2.450000X0.650000X2.450000X-0.650000X2.450000X0*%
%ADD44RoundRect,0.155000X-0.212500X-0.155000X0.212500X-0.155000X0.212500X0.155000X-0.212500X0.155000X0*%
%ADD45RoundRect,0.150000X-0.150000X0.587500X-0.150000X-0.587500X0.150000X-0.587500X0.150000X0.587500X0*%
%ADD46C,3.500000*%
%ADD47R,1.300000X1.900000*%
%ADD48R,2.000000X1.900000*%
%ADD49RoundRect,0.250000X0.300000X0.300000X-0.300000X0.300000X-0.300000X-0.300000X0.300000X-0.300000X0*%
%ADD50RoundRect,0.250000X0.650000X2.450000X-0.650000X2.450000X-0.650000X-2.450000X0.650000X-2.450000X0*%
%ADD51RoundRect,0.250000X-0.350000X-0.450000X0.350000X-0.450000X0.350000X0.450000X-0.350000X0.450000X0*%
%ADD52R,1.920000X6.500000*%
%ADD53RoundRect,0.062500X-0.350000X-0.062500X0.350000X-0.062500X0.350000X0.062500X-0.350000X0.062500X0*%
%ADD54RoundRect,0.062500X-0.062500X-0.350000X0.062500X-0.350000X0.062500X0.350000X-0.062500X0.350000X0*%
%ADD55R,2.600000X2.600000*%
%ADD56C,2.500000*%
%ADD57RoundRect,0.150000X-0.587500X-0.150000X0.587500X-0.150000X0.587500X0.150000X-0.587500X0.150000X0*%
%ADD58RoundRect,0.155000X0.212500X0.155000X-0.212500X0.155000X-0.212500X-0.155000X0.212500X-0.155000X0*%
%ADD59R,1.300000X0.900000*%
%ADD60FreePoly0,180.000000*%
%ADD61R,1.350000X0.400000*%
%ADD62O,1.550000X0.890000*%
%ADD63R,1.550000X1.200000*%
%ADD64O,0.950000X1.250000*%
%ADD65R,1.550000X1.500000*%
%ADD66R,1.700000X1.700000*%
%ADD67O,1.700000X1.700000*%
%ADD68RoundRect,0.250000X-0.337500X-0.475000X0.337500X-0.475000X0.337500X0.475000X-0.337500X0.475000X0*%
%ADD69RoundRect,0.177800X-1.270000X-3.175000X1.270000X-3.175000X1.270000X3.175000X-1.270000X3.175000X0*%
%ADD70RoundRect,0.237500X0.287500X0.237500X-0.287500X0.237500X-0.287500X-0.237500X0.287500X-0.237500X0*%
%ADD71RoundRect,0.250000X-0.550000X1.500000X-0.550000X-1.500000X0.550000X-1.500000X0.550000X1.500000X0*%
%ADD72R,1.500000X0.900000*%
%ADD73R,0.900000X1.500000*%
%ADD74C,0.600000*%
%ADD75R,3.800000X3.800000*%
%ADD76RoundRect,0.250000X-0.400000X-0.625000X0.400000X-0.625000X0.400000X0.625000X-0.400000X0.625000X0*%
%ADD77RoundRect,0.155000X-0.155000X0.212500X-0.155000X-0.212500X0.155000X-0.212500X0.155000X0.212500X0*%
G04 APERTURE END LIST*
%TO.C,U12*%
D10*
X132253000Y-77026000D02*
X132259000Y-77026000D01*
X132265000Y-77028000D01*
X132271000Y-77029000D01*
X132277000Y-77031000D01*
X132283000Y-77033000D01*
X132289000Y-77035000D01*
X132294000Y-77038000D01*
X132300000Y-77041000D01*
X132305000Y-77044000D01*
X132311000Y-77048000D01*
X132316000Y-77052000D01*
X132320000Y-77056000D01*
X132325000Y-77060000D01*
X132329000Y-77065000D01*
X132333000Y-77069000D01*
X132337000Y-77074000D01*
X132341000Y-77080000D01*
X132344000Y-77085000D01*
X132347000Y-77091000D01*
X132350000Y-77096000D01*
X132352000Y-77102000D01*
X132354000Y-77108000D01*
X132356000Y-77114000D01*
X132357000Y-77120000D01*
X132359000Y-77126000D01*
X132359000Y-77132000D01*
X132360000Y-77139000D01*
X132360000Y-77145000D01*
X132360000Y-77295000D01*
X132360000Y-77301000D01*
X132359000Y-77308000D01*
X132359000Y-77314000D01*
X132357000Y-77320000D01*
X132356000Y-77326000D01*
X132354000Y-77332000D01*
X132352000Y-77338000D01*
X132350000Y-77344000D01*
X132347000Y-77349000D01*
X132344000Y-77355000D01*
X132341000Y-77360000D01*
X132337000Y-77366000D01*
X132333000Y-77371000D01*
X132329000Y-77375000D01*
X132325000Y-77380000D01*
X132320000Y-77384000D01*
X132316000Y-77388000D01*
X132311000Y-77392000D01*
X132305000Y-77396000D01*
X132300000Y-77399000D01*
X132294000Y-77402000D01*
X132289000Y-77405000D01*
X132283000Y-77407000D01*
X132277000Y-77409000D01*
X132271000Y-77411000D01*
X132265000Y-77412000D01*
X132259000Y-77414000D01*
X132253000Y-77414000D01*
X132246000Y-77415000D01*
X132240000Y-77415000D01*
X131740000Y-77415000D01*
X131734000Y-77415000D01*
X131727000Y-77414000D01*
X131721000Y-77414000D01*
X131715000Y-77412000D01*
X131709000Y-77411000D01*
X131703000Y-77409000D01*
X131697000Y-77407000D01*
X131691000Y-77405000D01*
X131686000Y-77402000D01*
X131680000Y-77399000D01*
X131675000Y-77396000D01*
X131669000Y-77392000D01*
X131664000Y-77388000D01*
X131660000Y-77384000D01*
X131655000Y-77380000D01*
X131651000Y-77375000D01*
X131647000Y-77371000D01*
X131643000Y-77366000D01*
X131639000Y-77360000D01*
X131636000Y-77355000D01*
X131633000Y-77349000D01*
X131630000Y-77344000D01*
X131628000Y-77338000D01*
X131626000Y-77332000D01*
X131624000Y-77326000D01*
X131623000Y-77320000D01*
X131621000Y-77314000D01*
X131621000Y-77308000D01*
X131620000Y-77301000D01*
X131620000Y-77295000D01*
X131620000Y-77145000D01*
X131620000Y-77139000D01*
X131621000Y-77132000D01*
X131621000Y-77126000D01*
X131623000Y-77120000D01*
X131624000Y-77114000D01*
X131626000Y-77108000D01*
X131628000Y-77102000D01*
X131630000Y-77096000D01*
X131633000Y-77091000D01*
X131636000Y-77085000D01*
X131639000Y-77080000D01*
X131643000Y-77074000D01*
X131647000Y-77069000D01*
X131651000Y-77065000D01*
X131655000Y-77060000D01*
X131660000Y-77056000D01*
X131664000Y-77052000D01*
X131669000Y-77048000D01*
X131675000Y-77044000D01*
X131680000Y-77041000D01*
X131686000Y-77038000D01*
X131691000Y-77035000D01*
X131697000Y-77033000D01*
X131703000Y-77031000D01*
X131709000Y-77029000D01*
X131715000Y-77028000D01*
X131721000Y-77026000D01*
X131727000Y-77026000D01*
X131734000Y-77025000D01*
X131740000Y-77025000D01*
X132240000Y-77025000D01*
X132246000Y-77025000D01*
X132253000Y-77026000D01*
G36*
X132253000Y-77026000D02*
G01*
X132259000Y-77026000D01*
X132265000Y-77028000D01*
X132271000Y-77029000D01*
X132277000Y-77031000D01*
X132283000Y-77033000D01*
X132289000Y-77035000D01*
X132294000Y-77038000D01*
X132300000Y-77041000D01*
X132305000Y-77044000D01*
X132311000Y-77048000D01*
X132316000Y-77052000D01*
X132320000Y-77056000D01*
X132325000Y-77060000D01*
X132329000Y-77065000D01*
X132333000Y-77069000D01*
X132337000Y-77074000D01*
X132341000Y-77080000D01*
X132344000Y-77085000D01*
X132347000Y-77091000D01*
X132350000Y-77096000D01*
X132352000Y-77102000D01*
X132354000Y-77108000D01*
X132356000Y-77114000D01*
X132357000Y-77120000D01*
X132359000Y-77126000D01*
X132359000Y-77132000D01*
X132360000Y-77139000D01*
X132360000Y-77145000D01*
X132360000Y-77295000D01*
X132360000Y-77301000D01*
X132359000Y-77308000D01*
X132359000Y-77314000D01*
X132357000Y-77320000D01*
X132356000Y-77326000D01*
X132354000Y-77332000D01*
X132352000Y-77338000D01*
X132350000Y-77344000D01*
X132347000Y-77349000D01*
X132344000Y-77355000D01*
X132341000Y-77360000D01*
X132337000Y-77366000D01*
X132333000Y-77371000D01*
X132329000Y-77375000D01*
X132325000Y-77380000D01*
X132320000Y-77384000D01*
X132316000Y-77388000D01*
X132311000Y-77392000D01*
X132305000Y-77396000D01*
X132300000Y-77399000D01*
X132294000Y-77402000D01*
X132289000Y-77405000D01*
X132283000Y-77407000D01*
X132277000Y-77409000D01*
X132271000Y-77411000D01*
X132265000Y-77412000D01*
X132259000Y-77414000D01*
X132253000Y-77414000D01*
X132246000Y-77415000D01*
X132240000Y-77415000D01*
X131740000Y-77415000D01*
X131734000Y-77415000D01*
X131727000Y-77414000D01*
X131721000Y-77414000D01*
X131715000Y-77412000D01*
X131709000Y-77411000D01*
X131703000Y-77409000D01*
X131697000Y-77407000D01*
X131691000Y-77405000D01*
X131686000Y-77402000D01*
X131680000Y-77399000D01*
X131675000Y-77396000D01*
X131669000Y-77392000D01*
X131664000Y-77388000D01*
X131660000Y-77384000D01*
X131655000Y-77380000D01*
X131651000Y-77375000D01*
X131647000Y-77371000D01*
X131643000Y-77366000D01*
X131639000Y-77360000D01*
X131636000Y-77355000D01*
X131633000Y-77349000D01*
X131630000Y-77344000D01*
X131628000Y-77338000D01*
X131626000Y-77332000D01*
X131624000Y-77326000D01*
X131623000Y-77320000D01*
X131621000Y-77314000D01*
X131621000Y-77308000D01*
X131620000Y-77301000D01*
X131620000Y-77295000D01*
X131620000Y-77145000D01*
X131620000Y-77139000D01*
X131621000Y-77132000D01*
X131621000Y-77126000D01*
X131623000Y-77120000D01*
X131624000Y-77114000D01*
X131626000Y-77108000D01*
X131628000Y-77102000D01*
X131630000Y-77096000D01*
X131633000Y-77091000D01*
X131636000Y-77085000D01*
X131639000Y-77080000D01*
X131643000Y-77074000D01*
X131647000Y-77069000D01*
X131651000Y-77065000D01*
X131655000Y-77060000D01*
X131660000Y-77056000D01*
X131664000Y-77052000D01*
X131669000Y-77048000D01*
X131675000Y-77044000D01*
X131680000Y-77041000D01*
X131686000Y-77038000D01*
X131691000Y-77035000D01*
X131697000Y-77033000D01*
X131703000Y-77031000D01*
X131709000Y-77029000D01*
X131715000Y-77028000D01*
X131721000Y-77026000D01*
X131727000Y-77026000D01*
X131734000Y-77025000D01*
X131740000Y-77025000D01*
X132240000Y-77025000D01*
X132246000Y-77025000D01*
X132253000Y-77026000D01*
G37*
X132253000Y-76526000D02*
X132259000Y-76526000D01*
X132265000Y-76528000D01*
X132271000Y-76529000D01*
X132277000Y-76531000D01*
X132283000Y-76533000D01*
X132289000Y-76535000D01*
X132294000Y-76538000D01*
X132300000Y-76541000D01*
X132305000Y-76544000D01*
X132311000Y-76548000D01*
X132316000Y-76552000D01*
X132320000Y-76556000D01*
X132325000Y-76560000D01*
X132329000Y-76565000D01*
X132333000Y-76569000D01*
X132337000Y-76574000D01*
X132341000Y-76580000D01*
X132344000Y-76585000D01*
X132347000Y-76591000D01*
X132350000Y-76596000D01*
X132352000Y-76602000D01*
X132354000Y-76608000D01*
X132356000Y-76614000D01*
X132357000Y-76620000D01*
X132359000Y-76626000D01*
X132359000Y-76632000D01*
X132360000Y-76639000D01*
X132360000Y-76645000D01*
X132360000Y-76795000D01*
X132360000Y-76801000D01*
X132359000Y-76808000D01*
X132359000Y-76814000D01*
X132357000Y-76820000D01*
X132356000Y-76826000D01*
X132354000Y-76832000D01*
X132352000Y-76838000D01*
X132350000Y-76844000D01*
X132347000Y-76849000D01*
X132344000Y-76855000D01*
X132341000Y-76860000D01*
X132337000Y-76866000D01*
X132333000Y-76871000D01*
X132329000Y-76875000D01*
X132325000Y-76880000D01*
X132320000Y-76884000D01*
X132316000Y-76888000D01*
X132311000Y-76892000D01*
X132305000Y-76896000D01*
X132300000Y-76899000D01*
X132294000Y-76902000D01*
X132289000Y-76905000D01*
X132283000Y-76907000D01*
X132277000Y-76909000D01*
X132271000Y-76911000D01*
X132265000Y-76912000D01*
X132259000Y-76914000D01*
X132253000Y-76914000D01*
X132246000Y-76915000D01*
X132240000Y-76915000D01*
X131740000Y-76915000D01*
X131734000Y-76915000D01*
X131727000Y-76914000D01*
X131721000Y-76914000D01*
X131715000Y-76912000D01*
X131709000Y-76911000D01*
X131703000Y-76909000D01*
X131697000Y-76907000D01*
X131691000Y-76905000D01*
X131686000Y-76902000D01*
X131680000Y-76899000D01*
X131675000Y-76896000D01*
X131669000Y-76892000D01*
X131664000Y-76888000D01*
X131660000Y-76884000D01*
X131655000Y-76880000D01*
X131651000Y-76875000D01*
X131647000Y-76871000D01*
X131643000Y-76866000D01*
X131639000Y-76860000D01*
X131636000Y-76855000D01*
X131633000Y-76849000D01*
X131630000Y-76844000D01*
X131628000Y-76838000D01*
X131626000Y-76832000D01*
X131624000Y-76826000D01*
X131623000Y-76820000D01*
X131621000Y-76814000D01*
X131621000Y-76808000D01*
X131620000Y-76801000D01*
X131620000Y-76795000D01*
X131620000Y-76645000D01*
X131620000Y-76639000D01*
X131621000Y-76632000D01*
X131621000Y-76626000D01*
X131623000Y-76620000D01*
X131624000Y-76614000D01*
X131626000Y-76608000D01*
X131628000Y-76602000D01*
X131630000Y-76596000D01*
X131633000Y-76591000D01*
X131636000Y-76585000D01*
X131639000Y-76580000D01*
X131643000Y-76574000D01*
X131647000Y-76569000D01*
X131651000Y-76565000D01*
X131655000Y-76560000D01*
X131660000Y-76556000D01*
X131664000Y-76552000D01*
X131669000Y-76548000D01*
X131675000Y-76544000D01*
X131680000Y-76541000D01*
X131686000Y-76538000D01*
X131691000Y-76535000D01*
X131697000Y-76533000D01*
X131703000Y-76531000D01*
X131709000Y-76529000D01*
X131715000Y-76528000D01*
X131721000Y-76526000D01*
X131727000Y-76526000D01*
X131734000Y-76525000D01*
X131740000Y-76525000D01*
X132240000Y-76525000D01*
X132246000Y-76525000D01*
X132253000Y-76526000D01*
G36*
X132253000Y-76526000D02*
G01*
X132259000Y-76526000D01*
X132265000Y-76528000D01*
X132271000Y-76529000D01*
X132277000Y-76531000D01*
X132283000Y-76533000D01*
X132289000Y-76535000D01*
X132294000Y-76538000D01*
X132300000Y-76541000D01*
X132305000Y-76544000D01*
X132311000Y-76548000D01*
X132316000Y-76552000D01*
X132320000Y-76556000D01*
X132325000Y-76560000D01*
X132329000Y-76565000D01*
X132333000Y-76569000D01*
X132337000Y-76574000D01*
X132341000Y-76580000D01*
X132344000Y-76585000D01*
X132347000Y-76591000D01*
X132350000Y-76596000D01*
X132352000Y-76602000D01*
X132354000Y-76608000D01*
X132356000Y-76614000D01*
X132357000Y-76620000D01*
X132359000Y-76626000D01*
X132359000Y-76632000D01*
X132360000Y-76639000D01*
X132360000Y-76645000D01*
X132360000Y-76795000D01*
X132360000Y-76801000D01*
X132359000Y-76808000D01*
X132359000Y-76814000D01*
X132357000Y-76820000D01*
X132356000Y-76826000D01*
X132354000Y-76832000D01*
X132352000Y-76838000D01*
X132350000Y-76844000D01*
X132347000Y-76849000D01*
X132344000Y-76855000D01*
X132341000Y-76860000D01*
X132337000Y-76866000D01*
X132333000Y-76871000D01*
X132329000Y-76875000D01*
X132325000Y-76880000D01*
X132320000Y-76884000D01*
X132316000Y-76888000D01*
X132311000Y-76892000D01*
X132305000Y-76896000D01*
X132300000Y-76899000D01*
X132294000Y-76902000D01*
X132289000Y-76905000D01*
X132283000Y-76907000D01*
X132277000Y-76909000D01*
X132271000Y-76911000D01*
X132265000Y-76912000D01*
X132259000Y-76914000D01*
X132253000Y-76914000D01*
X132246000Y-76915000D01*
X132240000Y-76915000D01*
X131740000Y-76915000D01*
X131734000Y-76915000D01*
X131727000Y-76914000D01*
X131721000Y-76914000D01*
X131715000Y-76912000D01*
X131709000Y-76911000D01*
X131703000Y-76909000D01*
X131697000Y-76907000D01*
X131691000Y-76905000D01*
X131686000Y-76902000D01*
X131680000Y-76899000D01*
X131675000Y-76896000D01*
X131669000Y-76892000D01*
X131664000Y-76888000D01*
X131660000Y-76884000D01*
X131655000Y-76880000D01*
X131651000Y-76875000D01*
X131647000Y-76871000D01*
X131643000Y-76866000D01*
X131639000Y-76860000D01*
X131636000Y-76855000D01*
X131633000Y-76849000D01*
X131630000Y-76844000D01*
X131628000Y-76838000D01*
X131626000Y-76832000D01*
X131624000Y-76826000D01*
X131623000Y-76820000D01*
X131621000Y-76814000D01*
X131621000Y-76808000D01*
X131620000Y-76801000D01*
X131620000Y-76795000D01*
X131620000Y-76645000D01*
X131620000Y-76639000D01*
X131621000Y-76632000D01*
X131621000Y-76626000D01*
X131623000Y-76620000D01*
X131624000Y-76614000D01*
X131626000Y-76608000D01*
X131628000Y-76602000D01*
X131630000Y-76596000D01*
X131633000Y-76591000D01*
X131636000Y-76585000D01*
X131639000Y-76580000D01*
X131643000Y-76574000D01*
X131647000Y-76569000D01*
X131651000Y-76565000D01*
X131655000Y-76560000D01*
X131660000Y-76556000D01*
X131664000Y-76552000D01*
X131669000Y-76548000D01*
X131675000Y-76544000D01*
X131680000Y-76541000D01*
X131686000Y-76538000D01*
X131691000Y-76535000D01*
X131697000Y-76533000D01*
X131703000Y-76531000D01*
X131709000Y-76529000D01*
X131715000Y-76528000D01*
X131721000Y-76526000D01*
X131727000Y-76526000D01*
X131734000Y-76525000D01*
X131740000Y-76525000D01*
X132240000Y-76525000D01*
X132246000Y-76525000D01*
X132253000Y-76526000D01*
G37*
X132253000Y-78026000D02*
X132259000Y-78026000D01*
X132265000Y-78028000D01*
X132271000Y-78029000D01*
X132277000Y-78031000D01*
X132283000Y-78033000D01*
X132289000Y-78035000D01*
X132294000Y-78038000D01*
X132300000Y-78041000D01*
X132305000Y-78044000D01*
X132311000Y-78048000D01*
X132316000Y-78052000D01*
X132320000Y-78056000D01*
X132325000Y-78060000D01*
X132329000Y-78065000D01*
X132333000Y-78069000D01*
X132337000Y-78074000D01*
X132341000Y-78080000D01*
X132344000Y-78085000D01*
X132347000Y-78091000D01*
X132350000Y-78096000D01*
X132352000Y-78102000D01*
X132354000Y-78108000D01*
X132356000Y-78114000D01*
X132357000Y-78120000D01*
X132359000Y-78126000D01*
X132359000Y-78132000D01*
X132360000Y-78139000D01*
X132360000Y-78145000D01*
X132360000Y-78295000D01*
X132360000Y-78301000D01*
X132359000Y-78308000D01*
X132359000Y-78314000D01*
X132357000Y-78320000D01*
X132356000Y-78326000D01*
X132354000Y-78332000D01*
X132352000Y-78338000D01*
X132350000Y-78344000D01*
X132347000Y-78349000D01*
X132344000Y-78355000D01*
X132341000Y-78360000D01*
X132337000Y-78366000D01*
X132333000Y-78371000D01*
X132329000Y-78375000D01*
X132325000Y-78380000D01*
X132320000Y-78384000D01*
X132316000Y-78388000D01*
X132311000Y-78392000D01*
X132305000Y-78396000D01*
X132300000Y-78399000D01*
X132294000Y-78402000D01*
X132289000Y-78405000D01*
X132283000Y-78407000D01*
X132277000Y-78409000D01*
X132271000Y-78411000D01*
X132265000Y-78412000D01*
X132259000Y-78414000D01*
X132253000Y-78414000D01*
X132246000Y-78415000D01*
X132240000Y-78415000D01*
X131740000Y-78415000D01*
X131734000Y-78415000D01*
X131727000Y-78414000D01*
X131721000Y-78414000D01*
X131715000Y-78412000D01*
X131709000Y-78411000D01*
X131703000Y-78409000D01*
X131697000Y-78407000D01*
X131691000Y-78405000D01*
X131686000Y-78402000D01*
X131680000Y-78399000D01*
X131675000Y-78396000D01*
X131669000Y-78392000D01*
X131664000Y-78388000D01*
X131660000Y-78384000D01*
X131655000Y-78380000D01*
X131651000Y-78375000D01*
X131647000Y-78371000D01*
X131643000Y-78366000D01*
X131639000Y-78360000D01*
X131636000Y-78355000D01*
X131633000Y-78349000D01*
X131630000Y-78344000D01*
X131628000Y-78338000D01*
X131626000Y-78332000D01*
X131624000Y-78326000D01*
X131623000Y-78320000D01*
X131621000Y-78314000D01*
X131621000Y-78308000D01*
X131620000Y-78301000D01*
X131620000Y-78295000D01*
X131620000Y-78145000D01*
X131620000Y-78139000D01*
X131621000Y-78132000D01*
X131621000Y-78126000D01*
X131623000Y-78120000D01*
X131624000Y-78114000D01*
X131626000Y-78108000D01*
X131628000Y-78102000D01*
X131630000Y-78096000D01*
X131633000Y-78091000D01*
X131636000Y-78085000D01*
X131639000Y-78080000D01*
X131643000Y-78074000D01*
X131647000Y-78069000D01*
X131651000Y-78065000D01*
X131655000Y-78060000D01*
X131660000Y-78056000D01*
X131664000Y-78052000D01*
X131669000Y-78048000D01*
X131675000Y-78044000D01*
X131680000Y-78041000D01*
X131686000Y-78038000D01*
X131691000Y-78035000D01*
X131697000Y-78033000D01*
X131703000Y-78031000D01*
X131709000Y-78029000D01*
X131715000Y-78028000D01*
X131721000Y-78026000D01*
X131727000Y-78026000D01*
X131734000Y-78025000D01*
X131740000Y-78025000D01*
X132240000Y-78025000D01*
X132246000Y-78025000D01*
X132253000Y-78026000D01*
G36*
X132253000Y-78026000D02*
G01*
X132259000Y-78026000D01*
X132265000Y-78028000D01*
X132271000Y-78029000D01*
X132277000Y-78031000D01*
X132283000Y-78033000D01*
X132289000Y-78035000D01*
X132294000Y-78038000D01*
X132300000Y-78041000D01*
X132305000Y-78044000D01*
X132311000Y-78048000D01*
X132316000Y-78052000D01*
X132320000Y-78056000D01*
X132325000Y-78060000D01*
X132329000Y-78065000D01*
X132333000Y-78069000D01*
X132337000Y-78074000D01*
X132341000Y-78080000D01*
X132344000Y-78085000D01*
X132347000Y-78091000D01*
X132350000Y-78096000D01*
X132352000Y-78102000D01*
X132354000Y-78108000D01*
X132356000Y-78114000D01*
X132357000Y-78120000D01*
X132359000Y-78126000D01*
X132359000Y-78132000D01*
X132360000Y-78139000D01*
X132360000Y-78145000D01*
X132360000Y-78295000D01*
X132360000Y-78301000D01*
X132359000Y-78308000D01*
X132359000Y-78314000D01*
X132357000Y-78320000D01*
X132356000Y-78326000D01*
X132354000Y-78332000D01*
X132352000Y-78338000D01*
X132350000Y-78344000D01*
X132347000Y-78349000D01*
X132344000Y-78355000D01*
X132341000Y-78360000D01*
X132337000Y-78366000D01*
X132333000Y-78371000D01*
X132329000Y-78375000D01*
X132325000Y-78380000D01*
X132320000Y-78384000D01*
X132316000Y-78388000D01*
X132311000Y-78392000D01*
X132305000Y-78396000D01*
X132300000Y-78399000D01*
X132294000Y-78402000D01*
X132289000Y-78405000D01*
X132283000Y-78407000D01*
X132277000Y-78409000D01*
X132271000Y-78411000D01*
X132265000Y-78412000D01*
X132259000Y-78414000D01*
X132253000Y-78414000D01*
X132246000Y-78415000D01*
X132240000Y-78415000D01*
X131740000Y-78415000D01*
X131734000Y-78415000D01*
X131727000Y-78414000D01*
X131721000Y-78414000D01*
X131715000Y-78412000D01*
X131709000Y-78411000D01*
X131703000Y-78409000D01*
X131697000Y-78407000D01*
X131691000Y-78405000D01*
X131686000Y-78402000D01*
X131680000Y-78399000D01*
X131675000Y-78396000D01*
X131669000Y-78392000D01*
X131664000Y-78388000D01*
X131660000Y-78384000D01*
X131655000Y-78380000D01*
X131651000Y-78375000D01*
X131647000Y-78371000D01*
X131643000Y-78366000D01*
X131639000Y-78360000D01*
X131636000Y-78355000D01*
X131633000Y-78349000D01*
X131630000Y-78344000D01*
X131628000Y-78338000D01*
X131626000Y-78332000D01*
X131624000Y-78326000D01*
X131623000Y-78320000D01*
X131621000Y-78314000D01*
X131621000Y-78308000D01*
X131620000Y-78301000D01*
X131620000Y-78295000D01*
X131620000Y-78145000D01*
X131620000Y-78139000D01*
X131621000Y-78132000D01*
X131621000Y-78126000D01*
X131623000Y-78120000D01*
X131624000Y-78114000D01*
X131626000Y-78108000D01*
X131628000Y-78102000D01*
X131630000Y-78096000D01*
X131633000Y-78091000D01*
X131636000Y-78085000D01*
X131639000Y-78080000D01*
X131643000Y-78074000D01*
X131647000Y-78069000D01*
X131651000Y-78065000D01*
X131655000Y-78060000D01*
X131660000Y-78056000D01*
X131664000Y-78052000D01*
X131669000Y-78048000D01*
X131675000Y-78044000D01*
X131680000Y-78041000D01*
X131686000Y-78038000D01*
X131691000Y-78035000D01*
X131697000Y-78033000D01*
X131703000Y-78031000D01*
X131709000Y-78029000D01*
X131715000Y-78028000D01*
X131721000Y-78026000D01*
X131727000Y-78026000D01*
X131734000Y-78025000D01*
X131740000Y-78025000D01*
X132240000Y-78025000D01*
X132246000Y-78025000D01*
X132253000Y-78026000D01*
G37*
X132253000Y-77526000D02*
X132259000Y-77526000D01*
X132265000Y-77528000D01*
X132271000Y-77529000D01*
X132277000Y-77531000D01*
X132283000Y-77533000D01*
X132289000Y-77535000D01*
X132294000Y-77538000D01*
X132300000Y-77541000D01*
X132305000Y-77544000D01*
X132311000Y-77548000D01*
X132316000Y-77552000D01*
X132320000Y-77556000D01*
X132325000Y-77560000D01*
X132329000Y-77565000D01*
X132333000Y-77569000D01*
X132337000Y-77574000D01*
X132341000Y-77580000D01*
X132344000Y-77585000D01*
X132347000Y-77591000D01*
X132350000Y-77596000D01*
X132352000Y-77602000D01*
X132354000Y-77608000D01*
X132356000Y-77614000D01*
X132357000Y-77620000D01*
X132359000Y-77626000D01*
X132359000Y-77632000D01*
X132360000Y-77639000D01*
X132360000Y-77645000D01*
X132360000Y-77795000D01*
X132360000Y-77801000D01*
X132359000Y-77808000D01*
X132359000Y-77814000D01*
X132357000Y-77820000D01*
X132356000Y-77826000D01*
X132354000Y-77832000D01*
X132352000Y-77838000D01*
X132350000Y-77844000D01*
X132347000Y-77849000D01*
X132344000Y-77855000D01*
X132341000Y-77860000D01*
X132337000Y-77866000D01*
X132333000Y-77871000D01*
X132329000Y-77875000D01*
X132325000Y-77880000D01*
X132320000Y-77884000D01*
X132316000Y-77888000D01*
X132311000Y-77892000D01*
X132305000Y-77896000D01*
X132300000Y-77899000D01*
X132294000Y-77902000D01*
X132289000Y-77905000D01*
X132283000Y-77907000D01*
X132277000Y-77909000D01*
X132271000Y-77911000D01*
X132265000Y-77912000D01*
X132259000Y-77914000D01*
X132253000Y-77914000D01*
X132246000Y-77915000D01*
X132240000Y-77915000D01*
X131740000Y-77915000D01*
X131734000Y-77915000D01*
X131727000Y-77914000D01*
X131721000Y-77914000D01*
X131715000Y-77912000D01*
X131709000Y-77911000D01*
X131703000Y-77909000D01*
X131697000Y-77907000D01*
X131691000Y-77905000D01*
X131686000Y-77902000D01*
X131680000Y-77899000D01*
X131675000Y-77896000D01*
X131669000Y-77892000D01*
X131664000Y-77888000D01*
X131660000Y-77884000D01*
X131655000Y-77880000D01*
X131651000Y-77875000D01*
X131647000Y-77871000D01*
X131643000Y-77866000D01*
X131639000Y-77860000D01*
X131636000Y-77855000D01*
X131633000Y-77849000D01*
X131630000Y-77844000D01*
X131628000Y-77838000D01*
X131626000Y-77832000D01*
X131624000Y-77826000D01*
X131623000Y-77820000D01*
X131621000Y-77814000D01*
X131621000Y-77808000D01*
X131620000Y-77801000D01*
X131620000Y-77795000D01*
X131620000Y-77645000D01*
X131620000Y-77639000D01*
X131621000Y-77632000D01*
X131621000Y-77626000D01*
X131623000Y-77620000D01*
X131624000Y-77614000D01*
X131626000Y-77608000D01*
X131628000Y-77602000D01*
X131630000Y-77596000D01*
X131633000Y-77591000D01*
X131636000Y-77585000D01*
X131639000Y-77580000D01*
X131643000Y-77574000D01*
X131647000Y-77569000D01*
X131651000Y-77565000D01*
X131655000Y-77560000D01*
X131660000Y-77556000D01*
X131664000Y-77552000D01*
X131669000Y-77548000D01*
X131675000Y-77544000D01*
X131680000Y-77541000D01*
X131686000Y-77538000D01*
X131691000Y-77535000D01*
X131697000Y-77533000D01*
X131703000Y-77531000D01*
X131709000Y-77529000D01*
X131715000Y-77528000D01*
X131721000Y-77526000D01*
X131727000Y-77526000D01*
X131734000Y-77525000D01*
X131740000Y-77525000D01*
X132240000Y-77525000D01*
X132246000Y-77525000D01*
X132253000Y-77526000D01*
G36*
X132253000Y-77526000D02*
G01*
X132259000Y-77526000D01*
X132265000Y-77528000D01*
X132271000Y-77529000D01*
X132277000Y-77531000D01*
X132283000Y-77533000D01*
X132289000Y-77535000D01*
X132294000Y-77538000D01*
X132300000Y-77541000D01*
X132305000Y-77544000D01*
X132311000Y-77548000D01*
X132316000Y-77552000D01*
X132320000Y-77556000D01*
X132325000Y-77560000D01*
X132329000Y-77565000D01*
X132333000Y-77569000D01*
X132337000Y-77574000D01*
X132341000Y-77580000D01*
X132344000Y-77585000D01*
X132347000Y-77591000D01*
X132350000Y-77596000D01*
X132352000Y-77602000D01*
X132354000Y-77608000D01*
X132356000Y-77614000D01*
X132357000Y-77620000D01*
X132359000Y-77626000D01*
X132359000Y-77632000D01*
X132360000Y-77639000D01*
X132360000Y-77645000D01*
X132360000Y-77795000D01*
X132360000Y-77801000D01*
X132359000Y-77808000D01*
X132359000Y-77814000D01*
X132357000Y-77820000D01*
X132356000Y-77826000D01*
X132354000Y-77832000D01*
X132352000Y-77838000D01*
X132350000Y-77844000D01*
X132347000Y-77849000D01*
X132344000Y-77855000D01*
X132341000Y-77860000D01*
X132337000Y-77866000D01*
X132333000Y-77871000D01*
X132329000Y-77875000D01*
X132325000Y-77880000D01*
X132320000Y-77884000D01*
X132316000Y-77888000D01*
X132311000Y-77892000D01*
X132305000Y-77896000D01*
X132300000Y-77899000D01*
X132294000Y-77902000D01*
X132289000Y-77905000D01*
X132283000Y-77907000D01*
X132277000Y-77909000D01*
X132271000Y-77911000D01*
X132265000Y-77912000D01*
X132259000Y-77914000D01*
X132253000Y-77914000D01*
X132246000Y-77915000D01*
X132240000Y-77915000D01*
X131740000Y-77915000D01*
X131734000Y-77915000D01*
X131727000Y-77914000D01*
X131721000Y-77914000D01*
X131715000Y-77912000D01*
X131709000Y-77911000D01*
X131703000Y-77909000D01*
X131697000Y-77907000D01*
X131691000Y-77905000D01*
X131686000Y-77902000D01*
X131680000Y-77899000D01*
X131675000Y-77896000D01*
X131669000Y-77892000D01*
X131664000Y-77888000D01*
X131660000Y-77884000D01*
X131655000Y-77880000D01*
X131651000Y-77875000D01*
X131647000Y-77871000D01*
X131643000Y-77866000D01*
X131639000Y-77860000D01*
X131636000Y-77855000D01*
X131633000Y-77849000D01*
X131630000Y-77844000D01*
X131628000Y-77838000D01*
X131626000Y-77832000D01*
X131624000Y-77826000D01*
X131623000Y-77820000D01*
X131621000Y-77814000D01*
X131621000Y-77808000D01*
X131620000Y-77801000D01*
X131620000Y-77795000D01*
X131620000Y-77645000D01*
X131620000Y-77639000D01*
X131621000Y-77632000D01*
X131621000Y-77626000D01*
X131623000Y-77620000D01*
X131624000Y-77614000D01*
X131626000Y-77608000D01*
X131628000Y-77602000D01*
X131630000Y-77596000D01*
X131633000Y-77591000D01*
X131636000Y-77585000D01*
X131639000Y-77580000D01*
X131643000Y-77574000D01*
X131647000Y-77569000D01*
X131651000Y-77565000D01*
X131655000Y-77560000D01*
X131660000Y-77556000D01*
X131664000Y-77552000D01*
X131669000Y-77548000D01*
X131675000Y-77544000D01*
X131680000Y-77541000D01*
X131686000Y-77538000D01*
X131691000Y-77535000D01*
X131697000Y-77533000D01*
X131703000Y-77531000D01*
X131709000Y-77529000D01*
X131715000Y-77528000D01*
X131721000Y-77526000D01*
X131727000Y-77526000D01*
X131734000Y-77525000D01*
X131740000Y-77525000D01*
X132240000Y-77525000D01*
X132246000Y-77525000D01*
X132253000Y-77526000D01*
G37*
X132438000Y-75701000D02*
X132444000Y-75701000D01*
X132450000Y-75703000D01*
X132456000Y-75704000D01*
X132462000Y-75706000D01*
X132468000Y-75708000D01*
X132474000Y-75710000D01*
X132479000Y-75713000D01*
X132485000Y-75716000D01*
X132490000Y-75719000D01*
X132496000Y-75723000D01*
X132501000Y-75727000D01*
X132505000Y-75731000D01*
X132510000Y-75735000D01*
X132514000Y-75740000D01*
X132518000Y-75744000D01*
X132522000Y-75749000D01*
X132526000Y-75755000D01*
X132529000Y-75760000D01*
X132532000Y-75766000D01*
X132535000Y-75771000D01*
X132537000Y-75777000D01*
X132539000Y-75783000D01*
X132541000Y-75789000D01*
X132542000Y-75795000D01*
X132544000Y-75801000D01*
X132544000Y-75807000D01*
X132545000Y-75814000D01*
X132545000Y-75820000D01*
X132545000Y-76370000D01*
X132545000Y-76376000D01*
X132544000Y-76383000D01*
X132544000Y-76389000D01*
X132542000Y-76395000D01*
X132541000Y-76401000D01*
X132539000Y-76407000D01*
X132537000Y-76413000D01*
X132535000Y-76419000D01*
X132532000Y-76424000D01*
X132529000Y-76430000D01*
X132526000Y-76435000D01*
X132522000Y-76441000D01*
X132518000Y-76446000D01*
X132514000Y-76450000D01*
X132510000Y-76455000D01*
X132505000Y-76459000D01*
X132501000Y-76463000D01*
X132496000Y-76467000D01*
X132490000Y-76471000D01*
X132485000Y-76474000D01*
X132479000Y-76477000D01*
X132474000Y-76480000D01*
X132468000Y-76482000D01*
X132462000Y-76484000D01*
X132456000Y-76486000D01*
X132450000Y-76487000D01*
X132444000Y-76489000D01*
X132438000Y-76489000D01*
X132431000Y-76490000D01*
X132425000Y-76490000D01*
X132275000Y-76490000D01*
X132269000Y-76490000D01*
X132262000Y-76489000D01*
X132256000Y-76489000D01*
X132250000Y-76487000D01*
X132244000Y-76486000D01*
X132238000Y-76484000D01*
X132232000Y-76482000D01*
X132226000Y-76480000D01*
X132221000Y-76477000D01*
X132215000Y-76474000D01*
X132210000Y-76471000D01*
X132204000Y-76467000D01*
X132199000Y-76463000D01*
X132195000Y-76459000D01*
X132190000Y-76455000D01*
X132186000Y-76450000D01*
X132182000Y-76446000D01*
X132178000Y-76441000D01*
X132174000Y-76435000D01*
X132171000Y-76430000D01*
X132168000Y-76424000D01*
X132165000Y-76419000D01*
X132163000Y-76413000D01*
X132161000Y-76407000D01*
X132159000Y-76401000D01*
X132158000Y-76395000D01*
X132156000Y-76389000D01*
X132156000Y-76383000D01*
X132155000Y-76376000D01*
X132155000Y-76370000D01*
X132155000Y-75820000D01*
X132155000Y-75814000D01*
X132156000Y-75807000D01*
X132156000Y-75801000D01*
X132158000Y-75795000D01*
X132159000Y-75789000D01*
X132161000Y-75783000D01*
X132163000Y-75777000D01*
X132165000Y-75771000D01*
X132168000Y-75766000D01*
X132171000Y-75760000D01*
X132174000Y-75755000D01*
X132178000Y-75749000D01*
X132182000Y-75744000D01*
X132186000Y-75740000D01*
X132190000Y-75735000D01*
X132195000Y-75731000D01*
X132199000Y-75727000D01*
X132204000Y-75723000D01*
X132210000Y-75719000D01*
X132215000Y-75716000D01*
X132221000Y-75713000D01*
X132226000Y-75710000D01*
X132232000Y-75708000D01*
X132238000Y-75706000D01*
X132244000Y-75704000D01*
X132250000Y-75703000D01*
X132256000Y-75701000D01*
X132262000Y-75701000D01*
X132269000Y-75700000D01*
X132275000Y-75700000D01*
X132425000Y-75700000D01*
X132431000Y-75700000D01*
X132438000Y-75701000D01*
G36*
X132438000Y-75701000D02*
G01*
X132444000Y-75701000D01*
X132450000Y-75703000D01*
X132456000Y-75704000D01*
X132462000Y-75706000D01*
X132468000Y-75708000D01*
X132474000Y-75710000D01*
X132479000Y-75713000D01*
X132485000Y-75716000D01*
X132490000Y-75719000D01*
X132496000Y-75723000D01*
X132501000Y-75727000D01*
X132505000Y-75731000D01*
X132510000Y-75735000D01*
X132514000Y-75740000D01*
X132518000Y-75744000D01*
X132522000Y-75749000D01*
X132526000Y-75755000D01*
X132529000Y-75760000D01*
X132532000Y-75766000D01*
X132535000Y-75771000D01*
X132537000Y-75777000D01*
X132539000Y-75783000D01*
X132541000Y-75789000D01*
X132542000Y-75795000D01*
X132544000Y-75801000D01*
X132544000Y-75807000D01*
X132545000Y-75814000D01*
X132545000Y-75820000D01*
X132545000Y-76370000D01*
X132545000Y-76376000D01*
X132544000Y-76383000D01*
X132544000Y-76389000D01*
X132542000Y-76395000D01*
X132541000Y-76401000D01*
X132539000Y-76407000D01*
X132537000Y-76413000D01*
X132535000Y-76419000D01*
X132532000Y-76424000D01*
X132529000Y-76430000D01*
X132526000Y-76435000D01*
X132522000Y-76441000D01*
X132518000Y-76446000D01*
X132514000Y-76450000D01*
X132510000Y-76455000D01*
X132505000Y-76459000D01*
X132501000Y-76463000D01*
X132496000Y-76467000D01*
X132490000Y-76471000D01*
X132485000Y-76474000D01*
X132479000Y-76477000D01*
X132474000Y-76480000D01*
X132468000Y-76482000D01*
X132462000Y-76484000D01*
X132456000Y-76486000D01*
X132450000Y-76487000D01*
X132444000Y-76489000D01*
X132438000Y-76489000D01*
X132431000Y-76490000D01*
X132425000Y-76490000D01*
X132275000Y-76490000D01*
X132269000Y-76490000D01*
X132262000Y-76489000D01*
X132256000Y-76489000D01*
X132250000Y-76487000D01*
X132244000Y-76486000D01*
X132238000Y-76484000D01*
X132232000Y-76482000D01*
X132226000Y-76480000D01*
X132221000Y-76477000D01*
X132215000Y-76474000D01*
X132210000Y-76471000D01*
X132204000Y-76467000D01*
X132199000Y-76463000D01*
X132195000Y-76459000D01*
X132190000Y-76455000D01*
X132186000Y-76450000D01*
X132182000Y-76446000D01*
X132178000Y-76441000D01*
X132174000Y-76435000D01*
X132171000Y-76430000D01*
X132168000Y-76424000D01*
X132165000Y-76419000D01*
X132163000Y-76413000D01*
X132161000Y-76407000D01*
X132159000Y-76401000D01*
X132158000Y-76395000D01*
X132156000Y-76389000D01*
X132156000Y-76383000D01*
X132155000Y-76376000D01*
X132155000Y-76370000D01*
X132155000Y-75820000D01*
X132155000Y-75814000D01*
X132156000Y-75807000D01*
X132156000Y-75801000D01*
X132158000Y-75795000D01*
X132159000Y-75789000D01*
X132161000Y-75783000D01*
X132163000Y-75777000D01*
X132165000Y-75771000D01*
X132168000Y-75766000D01*
X132171000Y-75760000D01*
X132174000Y-75755000D01*
X132178000Y-75749000D01*
X132182000Y-75744000D01*
X132186000Y-75740000D01*
X132190000Y-75735000D01*
X132195000Y-75731000D01*
X132199000Y-75727000D01*
X132204000Y-75723000D01*
X132210000Y-75719000D01*
X132215000Y-75716000D01*
X132221000Y-75713000D01*
X132226000Y-75710000D01*
X132232000Y-75708000D01*
X132238000Y-75706000D01*
X132244000Y-75704000D01*
X132250000Y-75703000D01*
X132256000Y-75701000D01*
X132262000Y-75701000D01*
X132269000Y-75700000D01*
X132275000Y-75700000D01*
X132425000Y-75700000D01*
X132431000Y-75700000D01*
X132438000Y-75701000D01*
G37*
X132438000Y-78451000D02*
X132444000Y-78451000D01*
X132450000Y-78453000D01*
X132456000Y-78454000D01*
X132462000Y-78456000D01*
X132468000Y-78458000D01*
X132474000Y-78460000D01*
X132479000Y-78463000D01*
X132485000Y-78466000D01*
X132490000Y-78469000D01*
X132496000Y-78473000D01*
X132501000Y-78477000D01*
X132505000Y-78481000D01*
X132510000Y-78485000D01*
X132514000Y-78490000D01*
X132518000Y-78494000D01*
X132522000Y-78499000D01*
X132526000Y-78505000D01*
X132529000Y-78510000D01*
X132532000Y-78516000D01*
X132535000Y-78521000D01*
X132537000Y-78527000D01*
X132539000Y-78533000D01*
X132541000Y-78539000D01*
X132542000Y-78545000D01*
X132544000Y-78551000D01*
X132544000Y-78557000D01*
X132545000Y-78564000D01*
X132545000Y-78570000D01*
X132545000Y-79120000D01*
X132545000Y-79126000D01*
X132544000Y-79133000D01*
X132544000Y-79139000D01*
X132542000Y-79145000D01*
X132541000Y-79151000D01*
X132539000Y-79157000D01*
X132537000Y-79163000D01*
X132535000Y-79169000D01*
X132532000Y-79174000D01*
X132529000Y-79180000D01*
X132526000Y-79185000D01*
X132522000Y-79191000D01*
X132518000Y-79196000D01*
X132514000Y-79200000D01*
X132510000Y-79205000D01*
X132505000Y-79209000D01*
X132501000Y-79213000D01*
X132496000Y-79217000D01*
X132490000Y-79221000D01*
X132485000Y-79224000D01*
X132479000Y-79227000D01*
X132474000Y-79230000D01*
X132468000Y-79232000D01*
X132462000Y-79234000D01*
X132456000Y-79236000D01*
X132450000Y-79237000D01*
X132444000Y-79239000D01*
X132438000Y-79239000D01*
X132431000Y-79240000D01*
X132425000Y-79240000D01*
X132275000Y-79240000D01*
X132269000Y-79240000D01*
X132262000Y-79239000D01*
X132256000Y-79239000D01*
X132250000Y-79237000D01*
X132244000Y-79236000D01*
X132238000Y-79234000D01*
X132232000Y-79232000D01*
X132226000Y-79230000D01*
X132221000Y-79227000D01*
X132215000Y-79224000D01*
X132210000Y-79221000D01*
X132204000Y-79217000D01*
X132199000Y-79213000D01*
X132195000Y-79209000D01*
X132190000Y-79205000D01*
X132186000Y-79200000D01*
X132182000Y-79196000D01*
X132178000Y-79191000D01*
X132174000Y-79185000D01*
X132171000Y-79180000D01*
X132168000Y-79174000D01*
X132165000Y-79169000D01*
X132163000Y-79163000D01*
X132161000Y-79157000D01*
X132159000Y-79151000D01*
X132158000Y-79145000D01*
X132156000Y-79139000D01*
X132156000Y-79133000D01*
X132155000Y-79126000D01*
X132155000Y-79120000D01*
X132155000Y-78570000D01*
X132155000Y-78564000D01*
X132156000Y-78557000D01*
X132156000Y-78551000D01*
X132158000Y-78545000D01*
X132159000Y-78539000D01*
X132161000Y-78533000D01*
X132163000Y-78527000D01*
X132165000Y-78521000D01*
X132168000Y-78516000D01*
X132171000Y-78510000D01*
X132174000Y-78505000D01*
X132178000Y-78499000D01*
X132182000Y-78494000D01*
X132186000Y-78490000D01*
X132190000Y-78485000D01*
X132195000Y-78481000D01*
X132199000Y-78477000D01*
X132204000Y-78473000D01*
X132210000Y-78469000D01*
X132215000Y-78466000D01*
X132221000Y-78463000D01*
X132226000Y-78460000D01*
X132232000Y-78458000D01*
X132238000Y-78456000D01*
X132244000Y-78454000D01*
X132250000Y-78453000D01*
X132256000Y-78451000D01*
X132262000Y-78451000D01*
X132269000Y-78450000D01*
X132275000Y-78450000D01*
X132425000Y-78450000D01*
X132431000Y-78450000D01*
X132438000Y-78451000D01*
G36*
X132438000Y-78451000D02*
G01*
X132444000Y-78451000D01*
X132450000Y-78453000D01*
X132456000Y-78454000D01*
X132462000Y-78456000D01*
X132468000Y-78458000D01*
X132474000Y-78460000D01*
X132479000Y-78463000D01*
X132485000Y-78466000D01*
X132490000Y-78469000D01*
X132496000Y-78473000D01*
X132501000Y-78477000D01*
X132505000Y-78481000D01*
X132510000Y-78485000D01*
X132514000Y-78490000D01*
X132518000Y-78494000D01*
X132522000Y-78499000D01*
X132526000Y-78505000D01*
X132529000Y-78510000D01*
X132532000Y-78516000D01*
X132535000Y-78521000D01*
X132537000Y-78527000D01*
X132539000Y-78533000D01*
X132541000Y-78539000D01*
X132542000Y-78545000D01*
X132544000Y-78551000D01*
X132544000Y-78557000D01*
X132545000Y-78564000D01*
X132545000Y-78570000D01*
X132545000Y-79120000D01*
X132545000Y-79126000D01*
X132544000Y-79133000D01*
X132544000Y-79139000D01*
X132542000Y-79145000D01*
X132541000Y-79151000D01*
X132539000Y-79157000D01*
X132537000Y-79163000D01*
X132535000Y-79169000D01*
X132532000Y-79174000D01*
X132529000Y-79180000D01*
X132526000Y-79185000D01*
X132522000Y-79191000D01*
X132518000Y-79196000D01*
X132514000Y-79200000D01*
X132510000Y-79205000D01*
X132505000Y-79209000D01*
X132501000Y-79213000D01*
X132496000Y-79217000D01*
X132490000Y-79221000D01*
X132485000Y-79224000D01*
X132479000Y-79227000D01*
X132474000Y-79230000D01*
X132468000Y-79232000D01*
X132462000Y-79234000D01*
X132456000Y-79236000D01*
X132450000Y-79237000D01*
X132444000Y-79239000D01*
X132438000Y-79239000D01*
X132431000Y-79240000D01*
X132425000Y-79240000D01*
X132275000Y-79240000D01*
X132269000Y-79240000D01*
X132262000Y-79239000D01*
X132256000Y-79239000D01*
X132250000Y-79237000D01*
X132244000Y-79236000D01*
X132238000Y-79234000D01*
X132232000Y-79232000D01*
X132226000Y-79230000D01*
X132221000Y-79227000D01*
X132215000Y-79224000D01*
X132210000Y-79221000D01*
X132204000Y-79217000D01*
X132199000Y-79213000D01*
X132195000Y-79209000D01*
X132190000Y-79205000D01*
X132186000Y-79200000D01*
X132182000Y-79196000D01*
X132178000Y-79191000D01*
X132174000Y-79185000D01*
X132171000Y-79180000D01*
X132168000Y-79174000D01*
X132165000Y-79169000D01*
X132163000Y-79163000D01*
X132161000Y-79157000D01*
X132159000Y-79151000D01*
X132158000Y-79145000D01*
X132156000Y-79139000D01*
X132156000Y-79133000D01*
X132155000Y-79126000D01*
X132155000Y-79120000D01*
X132155000Y-78570000D01*
X132155000Y-78564000D01*
X132156000Y-78557000D01*
X132156000Y-78551000D01*
X132158000Y-78545000D01*
X132159000Y-78539000D01*
X132161000Y-78533000D01*
X132163000Y-78527000D01*
X132165000Y-78521000D01*
X132168000Y-78516000D01*
X132171000Y-78510000D01*
X132174000Y-78505000D01*
X132178000Y-78499000D01*
X132182000Y-78494000D01*
X132186000Y-78490000D01*
X132190000Y-78485000D01*
X132195000Y-78481000D01*
X132199000Y-78477000D01*
X132204000Y-78473000D01*
X132210000Y-78469000D01*
X132215000Y-78466000D01*
X132221000Y-78463000D01*
X132226000Y-78460000D01*
X132232000Y-78458000D01*
X132238000Y-78456000D01*
X132244000Y-78454000D01*
X132250000Y-78453000D01*
X132256000Y-78451000D01*
X132262000Y-78451000D01*
X132269000Y-78450000D01*
X132275000Y-78450000D01*
X132425000Y-78450000D01*
X132431000Y-78450000D01*
X132438000Y-78451000D01*
G37*
X132938000Y-75701000D02*
X132944000Y-75701000D01*
X132950000Y-75703000D01*
X132956000Y-75704000D01*
X132962000Y-75706000D01*
X132968000Y-75708000D01*
X132974000Y-75710000D01*
X132979000Y-75713000D01*
X132985000Y-75716000D01*
X132990000Y-75719000D01*
X132996000Y-75723000D01*
X133001000Y-75727000D01*
X133005000Y-75731000D01*
X133010000Y-75735000D01*
X133014000Y-75740000D01*
X133018000Y-75744000D01*
X133022000Y-75749000D01*
X133026000Y-75755000D01*
X133029000Y-75760000D01*
X133032000Y-75766000D01*
X133035000Y-75771000D01*
X133037000Y-75777000D01*
X133039000Y-75783000D01*
X133041000Y-75789000D01*
X133042000Y-75795000D01*
X133044000Y-75801000D01*
X133044000Y-75807000D01*
X133045000Y-75814000D01*
X133045000Y-75820000D01*
X133045000Y-76320000D01*
X133045000Y-76326000D01*
X133044000Y-76333000D01*
X133044000Y-76339000D01*
X133042000Y-76345000D01*
X133041000Y-76351000D01*
X133039000Y-76357000D01*
X133037000Y-76363000D01*
X133035000Y-76369000D01*
X133032000Y-76374000D01*
X133029000Y-76380000D01*
X133026000Y-76385000D01*
X133022000Y-76391000D01*
X133018000Y-76396000D01*
X133014000Y-76400000D01*
X133010000Y-76405000D01*
X133005000Y-76409000D01*
X133001000Y-76413000D01*
X132996000Y-76417000D01*
X132990000Y-76421000D01*
X132985000Y-76424000D01*
X132979000Y-76427000D01*
X132974000Y-76430000D01*
X132968000Y-76432000D01*
X132962000Y-76434000D01*
X132956000Y-76436000D01*
X132950000Y-76437000D01*
X132944000Y-76439000D01*
X132938000Y-76439000D01*
X132931000Y-76440000D01*
X132925000Y-76440000D01*
X132775000Y-76440000D01*
X132769000Y-76440000D01*
X132762000Y-76439000D01*
X132756000Y-76439000D01*
X132750000Y-76437000D01*
X132744000Y-76436000D01*
X132738000Y-76434000D01*
X132732000Y-76432000D01*
X132726000Y-76430000D01*
X132721000Y-76427000D01*
X132715000Y-76424000D01*
X132710000Y-76421000D01*
X132704000Y-76417000D01*
X132699000Y-76413000D01*
X132695000Y-76409000D01*
X132690000Y-76405000D01*
X132686000Y-76400000D01*
X132682000Y-76396000D01*
X132678000Y-76391000D01*
X132674000Y-76385000D01*
X132671000Y-76380000D01*
X132668000Y-76374000D01*
X132665000Y-76369000D01*
X132663000Y-76363000D01*
X132661000Y-76357000D01*
X132659000Y-76351000D01*
X132658000Y-76345000D01*
X132656000Y-76339000D01*
X132656000Y-76333000D01*
X132655000Y-76326000D01*
X132655000Y-76320000D01*
X132655000Y-75820000D01*
X132655000Y-75814000D01*
X132656000Y-75807000D01*
X132656000Y-75801000D01*
X132658000Y-75795000D01*
X132659000Y-75789000D01*
X132661000Y-75783000D01*
X132663000Y-75777000D01*
X132665000Y-75771000D01*
X132668000Y-75766000D01*
X132671000Y-75760000D01*
X132674000Y-75755000D01*
X132678000Y-75749000D01*
X132682000Y-75744000D01*
X132686000Y-75740000D01*
X132690000Y-75735000D01*
X132695000Y-75731000D01*
X132699000Y-75727000D01*
X132704000Y-75723000D01*
X132710000Y-75719000D01*
X132715000Y-75716000D01*
X132721000Y-75713000D01*
X132726000Y-75710000D01*
X132732000Y-75708000D01*
X132738000Y-75706000D01*
X132744000Y-75704000D01*
X132750000Y-75703000D01*
X132756000Y-75701000D01*
X132762000Y-75701000D01*
X132769000Y-75700000D01*
X132775000Y-75700000D01*
X132925000Y-75700000D01*
X132931000Y-75700000D01*
X132938000Y-75701000D01*
G36*
X132938000Y-75701000D02*
G01*
X132944000Y-75701000D01*
X132950000Y-75703000D01*
X132956000Y-75704000D01*
X132962000Y-75706000D01*
X132968000Y-75708000D01*
X132974000Y-75710000D01*
X132979000Y-75713000D01*
X132985000Y-75716000D01*
X132990000Y-75719000D01*
X132996000Y-75723000D01*
X133001000Y-75727000D01*
X133005000Y-75731000D01*
X133010000Y-75735000D01*
X133014000Y-75740000D01*
X133018000Y-75744000D01*
X133022000Y-75749000D01*
X133026000Y-75755000D01*
X133029000Y-75760000D01*
X133032000Y-75766000D01*
X133035000Y-75771000D01*
X133037000Y-75777000D01*
X133039000Y-75783000D01*
X133041000Y-75789000D01*
X133042000Y-75795000D01*
X133044000Y-75801000D01*
X133044000Y-75807000D01*
X133045000Y-75814000D01*
X133045000Y-75820000D01*
X133045000Y-76320000D01*
X133045000Y-76326000D01*
X133044000Y-76333000D01*
X133044000Y-76339000D01*
X133042000Y-76345000D01*
X133041000Y-76351000D01*
X133039000Y-76357000D01*
X133037000Y-76363000D01*
X133035000Y-76369000D01*
X133032000Y-76374000D01*
X133029000Y-76380000D01*
X133026000Y-76385000D01*
X133022000Y-76391000D01*
X133018000Y-76396000D01*
X133014000Y-76400000D01*
X133010000Y-76405000D01*
X133005000Y-76409000D01*
X133001000Y-76413000D01*
X132996000Y-76417000D01*
X132990000Y-76421000D01*
X132985000Y-76424000D01*
X132979000Y-76427000D01*
X132974000Y-76430000D01*
X132968000Y-76432000D01*
X132962000Y-76434000D01*
X132956000Y-76436000D01*
X132950000Y-76437000D01*
X132944000Y-76439000D01*
X132938000Y-76439000D01*
X132931000Y-76440000D01*
X132925000Y-76440000D01*
X132775000Y-76440000D01*
X132769000Y-76440000D01*
X132762000Y-76439000D01*
X132756000Y-76439000D01*
X132750000Y-76437000D01*
X132744000Y-76436000D01*
X132738000Y-76434000D01*
X132732000Y-76432000D01*
X132726000Y-76430000D01*
X132721000Y-76427000D01*
X132715000Y-76424000D01*
X132710000Y-76421000D01*
X132704000Y-76417000D01*
X132699000Y-76413000D01*
X132695000Y-76409000D01*
X132690000Y-76405000D01*
X132686000Y-76400000D01*
X132682000Y-76396000D01*
X132678000Y-76391000D01*
X132674000Y-76385000D01*
X132671000Y-76380000D01*
X132668000Y-76374000D01*
X132665000Y-76369000D01*
X132663000Y-76363000D01*
X132661000Y-76357000D01*
X132659000Y-76351000D01*
X132658000Y-76345000D01*
X132656000Y-76339000D01*
X132656000Y-76333000D01*
X132655000Y-76326000D01*
X132655000Y-76320000D01*
X132655000Y-75820000D01*
X132655000Y-75814000D01*
X132656000Y-75807000D01*
X132656000Y-75801000D01*
X132658000Y-75795000D01*
X132659000Y-75789000D01*
X132661000Y-75783000D01*
X132663000Y-75777000D01*
X132665000Y-75771000D01*
X132668000Y-75766000D01*
X132671000Y-75760000D01*
X132674000Y-75755000D01*
X132678000Y-75749000D01*
X132682000Y-75744000D01*
X132686000Y-75740000D01*
X132690000Y-75735000D01*
X132695000Y-75731000D01*
X132699000Y-75727000D01*
X132704000Y-75723000D01*
X132710000Y-75719000D01*
X132715000Y-75716000D01*
X132721000Y-75713000D01*
X132726000Y-75710000D01*
X132732000Y-75708000D01*
X132738000Y-75706000D01*
X132744000Y-75704000D01*
X132750000Y-75703000D01*
X132756000Y-75701000D01*
X132762000Y-75701000D01*
X132769000Y-75700000D01*
X132775000Y-75700000D01*
X132925000Y-75700000D01*
X132931000Y-75700000D01*
X132938000Y-75701000D01*
G37*
X132938000Y-78501000D02*
X132944000Y-78501000D01*
X132950000Y-78503000D01*
X132956000Y-78504000D01*
X132962000Y-78506000D01*
X132968000Y-78508000D01*
X132974000Y-78510000D01*
X132979000Y-78513000D01*
X132985000Y-78516000D01*
X132990000Y-78519000D01*
X132996000Y-78523000D01*
X133001000Y-78527000D01*
X133005000Y-78531000D01*
X133010000Y-78535000D01*
X133014000Y-78540000D01*
X133018000Y-78544000D01*
X133022000Y-78549000D01*
X133026000Y-78555000D01*
X133029000Y-78560000D01*
X133032000Y-78566000D01*
X133035000Y-78571000D01*
X133037000Y-78577000D01*
X133039000Y-78583000D01*
X133041000Y-78589000D01*
X133042000Y-78595000D01*
X133044000Y-78601000D01*
X133044000Y-78607000D01*
X133045000Y-78614000D01*
X133045000Y-78620000D01*
X133045000Y-79120000D01*
X133045000Y-79126000D01*
X133044000Y-79133000D01*
X133044000Y-79139000D01*
X133042000Y-79145000D01*
X133041000Y-79151000D01*
X133039000Y-79157000D01*
X133037000Y-79163000D01*
X133035000Y-79169000D01*
X133032000Y-79174000D01*
X133029000Y-79180000D01*
X133026000Y-79185000D01*
X133022000Y-79191000D01*
X133018000Y-79196000D01*
X133014000Y-79200000D01*
X133010000Y-79205000D01*
X133005000Y-79209000D01*
X133001000Y-79213000D01*
X132996000Y-79217000D01*
X132990000Y-79221000D01*
X132985000Y-79224000D01*
X132979000Y-79227000D01*
X132974000Y-79230000D01*
X132968000Y-79232000D01*
X132962000Y-79234000D01*
X132956000Y-79236000D01*
X132950000Y-79237000D01*
X132944000Y-79239000D01*
X132938000Y-79239000D01*
X132931000Y-79240000D01*
X132925000Y-79240000D01*
X132775000Y-79240000D01*
X132769000Y-79240000D01*
X132762000Y-79239000D01*
X132756000Y-79239000D01*
X132750000Y-79237000D01*
X132744000Y-79236000D01*
X132738000Y-79234000D01*
X132732000Y-79232000D01*
X132726000Y-79230000D01*
X132721000Y-79227000D01*
X132715000Y-79224000D01*
X132710000Y-79221000D01*
X132704000Y-79217000D01*
X132699000Y-79213000D01*
X132695000Y-79209000D01*
X132690000Y-79205000D01*
X132686000Y-79200000D01*
X132682000Y-79196000D01*
X132678000Y-79191000D01*
X132674000Y-79185000D01*
X132671000Y-79180000D01*
X132668000Y-79174000D01*
X132665000Y-79169000D01*
X132663000Y-79163000D01*
X132661000Y-79157000D01*
X132659000Y-79151000D01*
X132658000Y-79145000D01*
X132656000Y-79139000D01*
X132656000Y-79133000D01*
X132655000Y-79126000D01*
X132655000Y-79120000D01*
X132655000Y-78620000D01*
X132655000Y-78614000D01*
X132656000Y-78607000D01*
X132656000Y-78601000D01*
X132658000Y-78595000D01*
X132659000Y-78589000D01*
X132661000Y-78583000D01*
X132663000Y-78577000D01*
X132665000Y-78571000D01*
X132668000Y-78566000D01*
X132671000Y-78560000D01*
X132674000Y-78555000D01*
X132678000Y-78549000D01*
X132682000Y-78544000D01*
X132686000Y-78540000D01*
X132690000Y-78535000D01*
X132695000Y-78531000D01*
X132699000Y-78527000D01*
X132704000Y-78523000D01*
X132710000Y-78519000D01*
X132715000Y-78516000D01*
X132721000Y-78513000D01*
X132726000Y-78510000D01*
X132732000Y-78508000D01*
X132738000Y-78506000D01*
X132744000Y-78504000D01*
X132750000Y-78503000D01*
X132756000Y-78501000D01*
X132762000Y-78501000D01*
X132769000Y-78500000D01*
X132775000Y-78500000D01*
X132925000Y-78500000D01*
X132931000Y-78500000D01*
X132938000Y-78501000D01*
G36*
X132938000Y-78501000D02*
G01*
X132944000Y-78501000D01*
X132950000Y-78503000D01*
X132956000Y-78504000D01*
X132962000Y-78506000D01*
X132968000Y-78508000D01*
X132974000Y-78510000D01*
X132979000Y-78513000D01*
X132985000Y-78516000D01*
X132990000Y-78519000D01*
X132996000Y-78523000D01*
X133001000Y-78527000D01*
X133005000Y-78531000D01*
X133010000Y-78535000D01*
X133014000Y-78540000D01*
X133018000Y-78544000D01*
X133022000Y-78549000D01*
X133026000Y-78555000D01*
X133029000Y-78560000D01*
X133032000Y-78566000D01*
X133035000Y-78571000D01*
X133037000Y-78577000D01*
X133039000Y-78583000D01*
X133041000Y-78589000D01*
X133042000Y-78595000D01*
X133044000Y-78601000D01*
X133044000Y-78607000D01*
X133045000Y-78614000D01*
X133045000Y-78620000D01*
X133045000Y-79120000D01*
X133045000Y-79126000D01*
X133044000Y-79133000D01*
X133044000Y-79139000D01*
X133042000Y-79145000D01*
X133041000Y-79151000D01*
X133039000Y-79157000D01*
X133037000Y-79163000D01*
X133035000Y-79169000D01*
X133032000Y-79174000D01*
X133029000Y-79180000D01*
X133026000Y-79185000D01*
X133022000Y-79191000D01*
X133018000Y-79196000D01*
X133014000Y-79200000D01*
X133010000Y-79205000D01*
X133005000Y-79209000D01*
X133001000Y-79213000D01*
X132996000Y-79217000D01*
X132990000Y-79221000D01*
X132985000Y-79224000D01*
X132979000Y-79227000D01*
X132974000Y-79230000D01*
X132968000Y-79232000D01*
X132962000Y-79234000D01*
X132956000Y-79236000D01*
X132950000Y-79237000D01*
X132944000Y-79239000D01*
X132938000Y-79239000D01*
X132931000Y-79240000D01*
X132925000Y-79240000D01*
X132775000Y-79240000D01*
X132769000Y-79240000D01*
X132762000Y-79239000D01*
X132756000Y-79239000D01*
X132750000Y-79237000D01*
X132744000Y-79236000D01*
X132738000Y-79234000D01*
X132732000Y-79232000D01*
X132726000Y-79230000D01*
X132721000Y-79227000D01*
X132715000Y-79224000D01*
X132710000Y-79221000D01*
X132704000Y-79217000D01*
X132699000Y-79213000D01*
X132695000Y-79209000D01*
X132690000Y-79205000D01*
X132686000Y-79200000D01*
X132682000Y-79196000D01*
X132678000Y-79191000D01*
X132674000Y-79185000D01*
X132671000Y-79180000D01*
X132668000Y-79174000D01*
X132665000Y-79169000D01*
X132663000Y-79163000D01*
X132661000Y-79157000D01*
X132659000Y-79151000D01*
X132658000Y-79145000D01*
X132656000Y-79139000D01*
X132656000Y-79133000D01*
X132655000Y-79126000D01*
X132655000Y-79120000D01*
X132655000Y-78620000D01*
X132655000Y-78614000D01*
X132656000Y-78607000D01*
X132656000Y-78601000D01*
X132658000Y-78595000D01*
X132659000Y-78589000D01*
X132661000Y-78583000D01*
X132663000Y-78577000D01*
X132665000Y-78571000D01*
X132668000Y-78566000D01*
X132671000Y-78560000D01*
X132674000Y-78555000D01*
X132678000Y-78549000D01*
X132682000Y-78544000D01*
X132686000Y-78540000D01*
X132690000Y-78535000D01*
X132695000Y-78531000D01*
X132699000Y-78527000D01*
X132704000Y-78523000D01*
X132710000Y-78519000D01*
X132715000Y-78516000D01*
X132721000Y-78513000D01*
X132726000Y-78510000D01*
X132732000Y-78508000D01*
X132738000Y-78506000D01*
X132744000Y-78504000D01*
X132750000Y-78503000D01*
X132756000Y-78501000D01*
X132762000Y-78501000D01*
X132769000Y-78500000D01*
X132775000Y-78500000D01*
X132925000Y-78500000D01*
X132931000Y-78500000D01*
X132938000Y-78501000D01*
G37*
X133438000Y-75701000D02*
X133444000Y-75701000D01*
X133450000Y-75703000D01*
X133456000Y-75704000D01*
X133462000Y-75706000D01*
X133468000Y-75708000D01*
X133474000Y-75710000D01*
X133479000Y-75713000D01*
X133485000Y-75716000D01*
X133490000Y-75719000D01*
X133496000Y-75723000D01*
X133501000Y-75727000D01*
X133505000Y-75731000D01*
X133510000Y-75735000D01*
X133514000Y-75740000D01*
X133518000Y-75744000D01*
X133522000Y-75749000D01*
X133526000Y-75755000D01*
X133529000Y-75760000D01*
X133532000Y-75766000D01*
X133535000Y-75771000D01*
X133537000Y-75777000D01*
X133539000Y-75783000D01*
X133541000Y-75789000D01*
X133542000Y-75795000D01*
X133544000Y-75801000D01*
X133544000Y-75807000D01*
X133545000Y-75814000D01*
X133545000Y-75820000D01*
X133545000Y-79120000D01*
X133545000Y-79126000D01*
X133544000Y-79133000D01*
X133544000Y-79139000D01*
X133542000Y-79145000D01*
X133541000Y-79151000D01*
X133539000Y-79157000D01*
X133537000Y-79163000D01*
X133535000Y-79169000D01*
X133532000Y-79174000D01*
X133529000Y-79180000D01*
X133526000Y-79185000D01*
X133522000Y-79191000D01*
X133518000Y-79196000D01*
X133514000Y-79200000D01*
X133510000Y-79205000D01*
X133505000Y-79209000D01*
X133501000Y-79213000D01*
X133496000Y-79217000D01*
X133490000Y-79221000D01*
X133485000Y-79224000D01*
X133479000Y-79227000D01*
X133474000Y-79230000D01*
X133468000Y-79232000D01*
X133462000Y-79234000D01*
X133456000Y-79236000D01*
X133450000Y-79237000D01*
X133444000Y-79239000D01*
X133438000Y-79239000D01*
X133431000Y-79240000D01*
X133425000Y-79240000D01*
X133275000Y-79240000D01*
X133269000Y-79240000D01*
X133262000Y-79239000D01*
X133256000Y-79239000D01*
X133250000Y-79237000D01*
X133244000Y-79236000D01*
X133238000Y-79234000D01*
X133232000Y-79232000D01*
X133226000Y-79230000D01*
X133221000Y-79227000D01*
X133215000Y-79224000D01*
X133210000Y-79221000D01*
X133204000Y-79217000D01*
X133199000Y-79213000D01*
X133195000Y-79209000D01*
X133190000Y-79205000D01*
X133186000Y-79200000D01*
X133182000Y-79196000D01*
X133178000Y-79191000D01*
X133174000Y-79185000D01*
X133171000Y-79180000D01*
X133168000Y-79174000D01*
X133165000Y-79169000D01*
X133163000Y-79163000D01*
X133161000Y-79157000D01*
X133159000Y-79151000D01*
X133158000Y-79145000D01*
X133156000Y-79139000D01*
X133156000Y-79133000D01*
X133155000Y-79126000D01*
X133155000Y-79120000D01*
X133155000Y-75820000D01*
X133155000Y-75814000D01*
X133156000Y-75807000D01*
X133156000Y-75801000D01*
X133158000Y-75795000D01*
X133159000Y-75789000D01*
X133161000Y-75783000D01*
X133163000Y-75777000D01*
X133165000Y-75771000D01*
X133168000Y-75766000D01*
X133171000Y-75760000D01*
X133174000Y-75755000D01*
X133178000Y-75749000D01*
X133182000Y-75744000D01*
X133186000Y-75740000D01*
X133190000Y-75735000D01*
X133195000Y-75731000D01*
X133199000Y-75727000D01*
X133204000Y-75723000D01*
X133210000Y-75719000D01*
X133215000Y-75716000D01*
X133221000Y-75713000D01*
X133226000Y-75710000D01*
X133232000Y-75708000D01*
X133238000Y-75706000D01*
X133244000Y-75704000D01*
X133250000Y-75703000D01*
X133256000Y-75701000D01*
X133262000Y-75701000D01*
X133269000Y-75700000D01*
X133275000Y-75700000D01*
X133425000Y-75700000D01*
X133431000Y-75700000D01*
X133438000Y-75701000D01*
G36*
X133438000Y-75701000D02*
G01*
X133444000Y-75701000D01*
X133450000Y-75703000D01*
X133456000Y-75704000D01*
X133462000Y-75706000D01*
X133468000Y-75708000D01*
X133474000Y-75710000D01*
X133479000Y-75713000D01*
X133485000Y-75716000D01*
X133490000Y-75719000D01*
X133496000Y-75723000D01*
X133501000Y-75727000D01*
X133505000Y-75731000D01*
X133510000Y-75735000D01*
X133514000Y-75740000D01*
X133518000Y-75744000D01*
X133522000Y-75749000D01*
X133526000Y-75755000D01*
X133529000Y-75760000D01*
X133532000Y-75766000D01*
X133535000Y-75771000D01*
X133537000Y-75777000D01*
X133539000Y-75783000D01*
X133541000Y-75789000D01*
X133542000Y-75795000D01*
X133544000Y-75801000D01*
X133544000Y-75807000D01*
X133545000Y-75814000D01*
X133545000Y-75820000D01*
X133545000Y-79120000D01*
X133545000Y-79126000D01*
X133544000Y-79133000D01*
X133544000Y-79139000D01*
X133542000Y-79145000D01*
X133541000Y-79151000D01*
X133539000Y-79157000D01*
X133537000Y-79163000D01*
X133535000Y-79169000D01*
X133532000Y-79174000D01*
X133529000Y-79180000D01*
X133526000Y-79185000D01*
X133522000Y-79191000D01*
X133518000Y-79196000D01*
X133514000Y-79200000D01*
X133510000Y-79205000D01*
X133505000Y-79209000D01*
X133501000Y-79213000D01*
X133496000Y-79217000D01*
X133490000Y-79221000D01*
X133485000Y-79224000D01*
X133479000Y-79227000D01*
X133474000Y-79230000D01*
X133468000Y-79232000D01*
X133462000Y-79234000D01*
X133456000Y-79236000D01*
X133450000Y-79237000D01*
X133444000Y-79239000D01*
X133438000Y-79239000D01*
X133431000Y-79240000D01*
X133425000Y-79240000D01*
X133275000Y-79240000D01*
X133269000Y-79240000D01*
X133262000Y-79239000D01*
X133256000Y-79239000D01*
X133250000Y-79237000D01*
X133244000Y-79236000D01*
X133238000Y-79234000D01*
X133232000Y-79232000D01*
X133226000Y-79230000D01*
X133221000Y-79227000D01*
X133215000Y-79224000D01*
X133210000Y-79221000D01*
X133204000Y-79217000D01*
X133199000Y-79213000D01*
X133195000Y-79209000D01*
X133190000Y-79205000D01*
X133186000Y-79200000D01*
X133182000Y-79196000D01*
X133178000Y-79191000D01*
X133174000Y-79185000D01*
X133171000Y-79180000D01*
X133168000Y-79174000D01*
X133165000Y-79169000D01*
X133163000Y-79163000D01*
X133161000Y-79157000D01*
X133159000Y-79151000D01*
X133158000Y-79145000D01*
X133156000Y-79139000D01*
X133156000Y-79133000D01*
X133155000Y-79126000D01*
X133155000Y-79120000D01*
X133155000Y-75820000D01*
X133155000Y-75814000D01*
X133156000Y-75807000D01*
X133156000Y-75801000D01*
X133158000Y-75795000D01*
X133159000Y-75789000D01*
X133161000Y-75783000D01*
X133163000Y-75777000D01*
X133165000Y-75771000D01*
X133168000Y-75766000D01*
X133171000Y-75760000D01*
X133174000Y-75755000D01*
X133178000Y-75749000D01*
X133182000Y-75744000D01*
X133186000Y-75740000D01*
X133190000Y-75735000D01*
X133195000Y-75731000D01*
X133199000Y-75727000D01*
X133204000Y-75723000D01*
X133210000Y-75719000D01*
X133215000Y-75716000D01*
X133221000Y-75713000D01*
X133226000Y-75710000D01*
X133232000Y-75708000D01*
X133238000Y-75706000D01*
X133244000Y-75704000D01*
X133250000Y-75703000D01*
X133256000Y-75701000D01*
X133262000Y-75701000D01*
X133269000Y-75700000D01*
X133275000Y-75700000D01*
X133425000Y-75700000D01*
X133431000Y-75700000D01*
X133438000Y-75701000D01*
G37*
X133938000Y-75701000D02*
X133944000Y-75701000D01*
X133950000Y-75703000D01*
X133956000Y-75704000D01*
X133962000Y-75706000D01*
X133968000Y-75708000D01*
X133974000Y-75710000D01*
X133979000Y-75713000D01*
X133985000Y-75716000D01*
X133990000Y-75719000D01*
X133996000Y-75723000D01*
X134001000Y-75727000D01*
X134005000Y-75731000D01*
X134010000Y-75735000D01*
X134014000Y-75740000D01*
X134018000Y-75744000D01*
X134022000Y-75749000D01*
X134026000Y-75755000D01*
X134029000Y-75760000D01*
X134032000Y-75766000D01*
X134035000Y-75771000D01*
X134037000Y-75777000D01*
X134039000Y-75783000D01*
X134041000Y-75789000D01*
X134042000Y-75795000D01*
X134044000Y-75801000D01*
X134044000Y-75807000D01*
X134045000Y-75814000D01*
X134045000Y-75820000D01*
X134045000Y-79120000D01*
X134045000Y-79126000D01*
X134044000Y-79133000D01*
X134044000Y-79139000D01*
X134042000Y-79145000D01*
X134041000Y-79151000D01*
X134039000Y-79157000D01*
X134037000Y-79163000D01*
X134035000Y-79169000D01*
X134032000Y-79174000D01*
X134029000Y-79180000D01*
X134026000Y-79185000D01*
X134022000Y-79191000D01*
X134018000Y-79196000D01*
X134014000Y-79200000D01*
X134010000Y-79205000D01*
X134005000Y-79209000D01*
X134001000Y-79213000D01*
X133996000Y-79217000D01*
X133990000Y-79221000D01*
X133985000Y-79224000D01*
X133979000Y-79227000D01*
X133974000Y-79230000D01*
X133968000Y-79232000D01*
X133962000Y-79234000D01*
X133956000Y-79236000D01*
X133950000Y-79237000D01*
X133944000Y-79239000D01*
X133938000Y-79239000D01*
X133931000Y-79240000D01*
X133925000Y-79240000D01*
X133775000Y-79240000D01*
X133769000Y-79240000D01*
X133762000Y-79239000D01*
X133756000Y-79239000D01*
X133750000Y-79237000D01*
X133744000Y-79236000D01*
X133738000Y-79234000D01*
X133732000Y-79232000D01*
X133726000Y-79230000D01*
X133721000Y-79227000D01*
X133715000Y-79224000D01*
X133710000Y-79221000D01*
X133704000Y-79217000D01*
X133699000Y-79213000D01*
X133695000Y-79209000D01*
X133690000Y-79205000D01*
X133686000Y-79200000D01*
X133682000Y-79196000D01*
X133678000Y-79191000D01*
X133674000Y-79185000D01*
X133671000Y-79180000D01*
X133668000Y-79174000D01*
X133665000Y-79169000D01*
X133663000Y-79163000D01*
X133661000Y-79157000D01*
X133659000Y-79151000D01*
X133658000Y-79145000D01*
X133656000Y-79139000D01*
X133656000Y-79133000D01*
X133655000Y-79126000D01*
X133655000Y-79120000D01*
X133655000Y-75820000D01*
X133655000Y-75814000D01*
X133656000Y-75807000D01*
X133656000Y-75801000D01*
X133658000Y-75795000D01*
X133659000Y-75789000D01*
X133661000Y-75783000D01*
X133663000Y-75777000D01*
X133665000Y-75771000D01*
X133668000Y-75766000D01*
X133671000Y-75760000D01*
X133674000Y-75755000D01*
X133678000Y-75749000D01*
X133682000Y-75744000D01*
X133686000Y-75740000D01*
X133690000Y-75735000D01*
X133695000Y-75731000D01*
X133699000Y-75727000D01*
X133704000Y-75723000D01*
X133710000Y-75719000D01*
X133715000Y-75716000D01*
X133721000Y-75713000D01*
X133726000Y-75710000D01*
X133732000Y-75708000D01*
X133738000Y-75706000D01*
X133744000Y-75704000D01*
X133750000Y-75703000D01*
X133756000Y-75701000D01*
X133762000Y-75701000D01*
X133769000Y-75700000D01*
X133775000Y-75700000D01*
X133925000Y-75700000D01*
X133931000Y-75700000D01*
X133938000Y-75701000D01*
G36*
X133938000Y-75701000D02*
G01*
X133944000Y-75701000D01*
X133950000Y-75703000D01*
X133956000Y-75704000D01*
X133962000Y-75706000D01*
X133968000Y-75708000D01*
X133974000Y-75710000D01*
X133979000Y-75713000D01*
X133985000Y-75716000D01*
X133990000Y-75719000D01*
X133996000Y-75723000D01*
X134001000Y-75727000D01*
X134005000Y-75731000D01*
X134010000Y-75735000D01*
X134014000Y-75740000D01*
X134018000Y-75744000D01*
X134022000Y-75749000D01*
X134026000Y-75755000D01*
X134029000Y-75760000D01*
X134032000Y-75766000D01*
X134035000Y-75771000D01*
X134037000Y-75777000D01*
X134039000Y-75783000D01*
X134041000Y-75789000D01*
X134042000Y-75795000D01*
X134044000Y-75801000D01*
X134044000Y-75807000D01*
X134045000Y-75814000D01*
X134045000Y-75820000D01*
X134045000Y-79120000D01*
X134045000Y-79126000D01*
X134044000Y-79133000D01*
X134044000Y-79139000D01*
X134042000Y-79145000D01*
X134041000Y-79151000D01*
X134039000Y-79157000D01*
X134037000Y-79163000D01*
X134035000Y-79169000D01*
X134032000Y-79174000D01*
X134029000Y-79180000D01*
X134026000Y-79185000D01*
X134022000Y-79191000D01*
X134018000Y-79196000D01*
X134014000Y-79200000D01*
X134010000Y-79205000D01*
X134005000Y-79209000D01*
X134001000Y-79213000D01*
X133996000Y-79217000D01*
X133990000Y-79221000D01*
X133985000Y-79224000D01*
X133979000Y-79227000D01*
X133974000Y-79230000D01*
X133968000Y-79232000D01*
X133962000Y-79234000D01*
X133956000Y-79236000D01*
X133950000Y-79237000D01*
X133944000Y-79239000D01*
X133938000Y-79239000D01*
X133931000Y-79240000D01*
X133925000Y-79240000D01*
X133775000Y-79240000D01*
X133769000Y-79240000D01*
X133762000Y-79239000D01*
X133756000Y-79239000D01*
X133750000Y-79237000D01*
X133744000Y-79236000D01*
X133738000Y-79234000D01*
X133732000Y-79232000D01*
X133726000Y-79230000D01*
X133721000Y-79227000D01*
X133715000Y-79224000D01*
X133710000Y-79221000D01*
X133704000Y-79217000D01*
X133699000Y-79213000D01*
X133695000Y-79209000D01*
X133690000Y-79205000D01*
X133686000Y-79200000D01*
X133682000Y-79196000D01*
X133678000Y-79191000D01*
X133674000Y-79185000D01*
X133671000Y-79180000D01*
X133668000Y-79174000D01*
X133665000Y-79169000D01*
X133663000Y-79163000D01*
X133661000Y-79157000D01*
X133659000Y-79151000D01*
X133658000Y-79145000D01*
X133656000Y-79139000D01*
X133656000Y-79133000D01*
X133655000Y-79126000D01*
X133655000Y-79120000D01*
X133655000Y-75820000D01*
X133655000Y-75814000D01*
X133656000Y-75807000D01*
X133656000Y-75801000D01*
X133658000Y-75795000D01*
X133659000Y-75789000D01*
X133661000Y-75783000D01*
X133663000Y-75777000D01*
X133665000Y-75771000D01*
X133668000Y-75766000D01*
X133671000Y-75760000D01*
X133674000Y-75755000D01*
X133678000Y-75749000D01*
X133682000Y-75744000D01*
X133686000Y-75740000D01*
X133690000Y-75735000D01*
X133695000Y-75731000D01*
X133699000Y-75727000D01*
X133704000Y-75723000D01*
X133710000Y-75719000D01*
X133715000Y-75716000D01*
X133721000Y-75713000D01*
X133726000Y-75710000D01*
X133732000Y-75708000D01*
X133738000Y-75706000D01*
X133744000Y-75704000D01*
X133750000Y-75703000D01*
X133756000Y-75701000D01*
X133762000Y-75701000D01*
X133769000Y-75700000D01*
X133775000Y-75700000D01*
X133925000Y-75700000D01*
X133931000Y-75700000D01*
X133938000Y-75701000D01*
G37*
X135018000Y-75701000D02*
X135024000Y-75701000D01*
X135030000Y-75703000D01*
X135036000Y-75704000D01*
X135042000Y-75706000D01*
X135048000Y-75708000D01*
X135054000Y-75710000D01*
X135059000Y-75713000D01*
X135065000Y-75716000D01*
X135070000Y-75719000D01*
X135076000Y-75723000D01*
X135081000Y-75727000D01*
X135085000Y-75731000D01*
X135090000Y-75735000D01*
X135094000Y-75740000D01*
X135098000Y-75744000D01*
X135102000Y-75749000D01*
X135106000Y-75755000D01*
X135109000Y-75760000D01*
X135112000Y-75766000D01*
X135115000Y-75771000D01*
X135117000Y-75777000D01*
X135119000Y-75783000D01*
X135121000Y-75789000D01*
X135122000Y-75795000D01*
X135124000Y-75801000D01*
X135124000Y-75807000D01*
X135125000Y-75814000D01*
X135125000Y-75820000D01*
X135125000Y-79120000D01*
X135125000Y-79126000D01*
X135124000Y-79133000D01*
X135124000Y-79139000D01*
X135122000Y-79145000D01*
X135121000Y-79151000D01*
X135119000Y-79157000D01*
X135117000Y-79163000D01*
X135115000Y-79169000D01*
X135112000Y-79174000D01*
X135109000Y-79180000D01*
X135106000Y-79185000D01*
X135102000Y-79191000D01*
X135098000Y-79196000D01*
X135094000Y-79200000D01*
X135090000Y-79205000D01*
X135085000Y-79209000D01*
X135081000Y-79213000D01*
X135076000Y-79217000D01*
X135070000Y-79221000D01*
X135065000Y-79224000D01*
X135059000Y-79227000D01*
X135054000Y-79230000D01*
X135048000Y-79232000D01*
X135042000Y-79234000D01*
X135036000Y-79236000D01*
X135030000Y-79237000D01*
X135024000Y-79239000D01*
X135018000Y-79239000D01*
X135011000Y-79240000D01*
X135005000Y-79240000D01*
X134855000Y-79240000D01*
X134849000Y-79240000D01*
X134842000Y-79239000D01*
X134836000Y-79239000D01*
X134830000Y-79237000D01*
X134824000Y-79236000D01*
X134818000Y-79234000D01*
X134812000Y-79232000D01*
X134806000Y-79230000D01*
X134801000Y-79227000D01*
X134795000Y-79224000D01*
X134790000Y-79221000D01*
X134784000Y-79217000D01*
X134779000Y-79213000D01*
X134775000Y-79209000D01*
X134770000Y-79205000D01*
X134766000Y-79200000D01*
X134762000Y-79196000D01*
X134758000Y-79191000D01*
X134754000Y-79185000D01*
X134751000Y-79180000D01*
X134748000Y-79174000D01*
X134745000Y-79169000D01*
X134743000Y-79163000D01*
X134741000Y-79157000D01*
X134739000Y-79151000D01*
X134738000Y-79145000D01*
X134736000Y-79139000D01*
X134736000Y-79133000D01*
X134735000Y-79126000D01*
X134735000Y-79120000D01*
X134735000Y-75820000D01*
X134735000Y-75814000D01*
X134736000Y-75807000D01*
X134736000Y-75801000D01*
X134738000Y-75795000D01*
X134739000Y-75789000D01*
X134741000Y-75783000D01*
X134743000Y-75777000D01*
X134745000Y-75771000D01*
X134748000Y-75766000D01*
X134751000Y-75760000D01*
X134754000Y-75755000D01*
X134758000Y-75749000D01*
X134762000Y-75744000D01*
X134766000Y-75740000D01*
X134770000Y-75735000D01*
X134775000Y-75731000D01*
X134779000Y-75727000D01*
X134784000Y-75723000D01*
X134790000Y-75719000D01*
X134795000Y-75716000D01*
X134801000Y-75713000D01*
X134806000Y-75710000D01*
X134812000Y-75708000D01*
X134818000Y-75706000D01*
X134824000Y-75704000D01*
X134830000Y-75703000D01*
X134836000Y-75701000D01*
X134842000Y-75701000D01*
X134849000Y-75700000D01*
X134855000Y-75700000D01*
X135005000Y-75700000D01*
X135011000Y-75700000D01*
X135018000Y-75701000D01*
G36*
X135018000Y-75701000D02*
G01*
X135024000Y-75701000D01*
X135030000Y-75703000D01*
X135036000Y-75704000D01*
X135042000Y-75706000D01*
X135048000Y-75708000D01*
X135054000Y-75710000D01*
X135059000Y-75713000D01*
X135065000Y-75716000D01*
X135070000Y-75719000D01*
X135076000Y-75723000D01*
X135081000Y-75727000D01*
X135085000Y-75731000D01*
X135090000Y-75735000D01*
X135094000Y-75740000D01*
X135098000Y-75744000D01*
X135102000Y-75749000D01*
X135106000Y-75755000D01*
X135109000Y-75760000D01*
X135112000Y-75766000D01*
X135115000Y-75771000D01*
X135117000Y-75777000D01*
X135119000Y-75783000D01*
X135121000Y-75789000D01*
X135122000Y-75795000D01*
X135124000Y-75801000D01*
X135124000Y-75807000D01*
X135125000Y-75814000D01*
X135125000Y-75820000D01*
X135125000Y-79120000D01*
X135125000Y-79126000D01*
X135124000Y-79133000D01*
X135124000Y-79139000D01*
X135122000Y-79145000D01*
X135121000Y-79151000D01*
X135119000Y-79157000D01*
X135117000Y-79163000D01*
X135115000Y-79169000D01*
X135112000Y-79174000D01*
X135109000Y-79180000D01*
X135106000Y-79185000D01*
X135102000Y-79191000D01*
X135098000Y-79196000D01*
X135094000Y-79200000D01*
X135090000Y-79205000D01*
X135085000Y-79209000D01*
X135081000Y-79213000D01*
X135076000Y-79217000D01*
X135070000Y-79221000D01*
X135065000Y-79224000D01*
X135059000Y-79227000D01*
X135054000Y-79230000D01*
X135048000Y-79232000D01*
X135042000Y-79234000D01*
X135036000Y-79236000D01*
X135030000Y-79237000D01*
X135024000Y-79239000D01*
X135018000Y-79239000D01*
X135011000Y-79240000D01*
X135005000Y-79240000D01*
X134855000Y-79240000D01*
X134849000Y-79240000D01*
X134842000Y-79239000D01*
X134836000Y-79239000D01*
X134830000Y-79237000D01*
X134824000Y-79236000D01*
X134818000Y-79234000D01*
X134812000Y-79232000D01*
X134806000Y-79230000D01*
X134801000Y-79227000D01*
X134795000Y-79224000D01*
X134790000Y-79221000D01*
X134784000Y-79217000D01*
X134779000Y-79213000D01*
X134775000Y-79209000D01*
X134770000Y-79205000D01*
X134766000Y-79200000D01*
X134762000Y-79196000D01*
X134758000Y-79191000D01*
X134754000Y-79185000D01*
X134751000Y-79180000D01*
X134748000Y-79174000D01*
X134745000Y-79169000D01*
X134743000Y-79163000D01*
X134741000Y-79157000D01*
X134739000Y-79151000D01*
X134738000Y-79145000D01*
X134736000Y-79139000D01*
X134736000Y-79133000D01*
X134735000Y-79126000D01*
X134735000Y-79120000D01*
X134735000Y-75820000D01*
X134735000Y-75814000D01*
X134736000Y-75807000D01*
X134736000Y-75801000D01*
X134738000Y-75795000D01*
X134739000Y-75789000D01*
X134741000Y-75783000D01*
X134743000Y-75777000D01*
X134745000Y-75771000D01*
X134748000Y-75766000D01*
X134751000Y-75760000D01*
X134754000Y-75755000D01*
X134758000Y-75749000D01*
X134762000Y-75744000D01*
X134766000Y-75740000D01*
X134770000Y-75735000D01*
X134775000Y-75731000D01*
X134779000Y-75727000D01*
X134784000Y-75723000D01*
X134790000Y-75719000D01*
X134795000Y-75716000D01*
X134801000Y-75713000D01*
X134806000Y-75710000D01*
X134812000Y-75708000D01*
X134818000Y-75706000D01*
X134824000Y-75704000D01*
X134830000Y-75703000D01*
X134836000Y-75701000D01*
X134842000Y-75701000D01*
X134849000Y-75700000D01*
X134855000Y-75700000D01*
X135005000Y-75700000D01*
X135011000Y-75700000D01*
X135018000Y-75701000D01*
G37*
X135518000Y-75701000D02*
X135524000Y-75701000D01*
X135530000Y-75703000D01*
X135536000Y-75704000D01*
X135542000Y-75706000D01*
X135548000Y-75708000D01*
X135554000Y-75710000D01*
X135559000Y-75713000D01*
X135565000Y-75716000D01*
X135570000Y-75719000D01*
X135576000Y-75723000D01*
X135581000Y-75727000D01*
X135585000Y-75731000D01*
X135590000Y-75735000D01*
X135594000Y-75740000D01*
X135598000Y-75744000D01*
X135602000Y-75749000D01*
X135606000Y-75755000D01*
X135609000Y-75760000D01*
X135612000Y-75766000D01*
X135615000Y-75771000D01*
X135617000Y-75777000D01*
X135619000Y-75783000D01*
X135621000Y-75789000D01*
X135622000Y-75795000D01*
X135624000Y-75801000D01*
X135624000Y-75807000D01*
X135625000Y-75814000D01*
X135625000Y-75820000D01*
X135625000Y-79120000D01*
X135625000Y-79126000D01*
X135624000Y-79133000D01*
X135624000Y-79139000D01*
X135622000Y-79145000D01*
X135621000Y-79151000D01*
X135619000Y-79157000D01*
X135617000Y-79163000D01*
X135615000Y-79169000D01*
X135612000Y-79174000D01*
X135609000Y-79180000D01*
X135606000Y-79185000D01*
X135602000Y-79191000D01*
X135598000Y-79196000D01*
X135594000Y-79200000D01*
X135590000Y-79205000D01*
X135585000Y-79209000D01*
X135581000Y-79213000D01*
X135576000Y-79217000D01*
X135570000Y-79221000D01*
X135565000Y-79224000D01*
X135559000Y-79227000D01*
X135554000Y-79230000D01*
X135548000Y-79232000D01*
X135542000Y-79234000D01*
X135536000Y-79236000D01*
X135530000Y-79237000D01*
X135524000Y-79239000D01*
X135518000Y-79239000D01*
X135511000Y-79240000D01*
X135505000Y-79240000D01*
X135355000Y-79240000D01*
X135349000Y-79240000D01*
X135342000Y-79239000D01*
X135336000Y-79239000D01*
X135330000Y-79237000D01*
X135324000Y-79236000D01*
X135318000Y-79234000D01*
X135312000Y-79232000D01*
X135306000Y-79230000D01*
X135301000Y-79227000D01*
X135295000Y-79224000D01*
X135290000Y-79221000D01*
X135284000Y-79217000D01*
X135279000Y-79213000D01*
X135275000Y-79209000D01*
X135270000Y-79205000D01*
X135266000Y-79200000D01*
X135262000Y-79196000D01*
X135258000Y-79191000D01*
X135254000Y-79185000D01*
X135251000Y-79180000D01*
X135248000Y-79174000D01*
X135245000Y-79169000D01*
X135243000Y-79163000D01*
X135241000Y-79157000D01*
X135239000Y-79151000D01*
X135238000Y-79145000D01*
X135236000Y-79139000D01*
X135236000Y-79133000D01*
X135235000Y-79126000D01*
X135235000Y-79120000D01*
X135235000Y-75820000D01*
X135235000Y-75814000D01*
X135236000Y-75807000D01*
X135236000Y-75801000D01*
X135238000Y-75795000D01*
X135239000Y-75789000D01*
X135241000Y-75783000D01*
X135243000Y-75777000D01*
X135245000Y-75771000D01*
X135248000Y-75766000D01*
X135251000Y-75760000D01*
X135254000Y-75755000D01*
X135258000Y-75749000D01*
X135262000Y-75744000D01*
X135266000Y-75740000D01*
X135270000Y-75735000D01*
X135275000Y-75731000D01*
X135279000Y-75727000D01*
X135284000Y-75723000D01*
X135290000Y-75719000D01*
X135295000Y-75716000D01*
X135301000Y-75713000D01*
X135306000Y-75710000D01*
X135312000Y-75708000D01*
X135318000Y-75706000D01*
X135324000Y-75704000D01*
X135330000Y-75703000D01*
X135336000Y-75701000D01*
X135342000Y-75701000D01*
X135349000Y-75700000D01*
X135355000Y-75700000D01*
X135505000Y-75700000D01*
X135511000Y-75700000D01*
X135518000Y-75701000D01*
G36*
X135518000Y-75701000D02*
G01*
X135524000Y-75701000D01*
X135530000Y-75703000D01*
X135536000Y-75704000D01*
X135542000Y-75706000D01*
X135548000Y-75708000D01*
X135554000Y-75710000D01*
X135559000Y-75713000D01*
X135565000Y-75716000D01*
X135570000Y-75719000D01*
X135576000Y-75723000D01*
X135581000Y-75727000D01*
X135585000Y-75731000D01*
X135590000Y-75735000D01*
X135594000Y-75740000D01*
X135598000Y-75744000D01*
X135602000Y-75749000D01*
X135606000Y-75755000D01*
X135609000Y-75760000D01*
X135612000Y-75766000D01*
X135615000Y-75771000D01*
X135617000Y-75777000D01*
X135619000Y-75783000D01*
X135621000Y-75789000D01*
X135622000Y-75795000D01*
X135624000Y-75801000D01*
X135624000Y-75807000D01*
X135625000Y-75814000D01*
X135625000Y-75820000D01*
X135625000Y-79120000D01*
X135625000Y-79126000D01*
X135624000Y-79133000D01*
X135624000Y-79139000D01*
X135622000Y-79145000D01*
X135621000Y-79151000D01*
X135619000Y-79157000D01*
X135617000Y-79163000D01*
X135615000Y-79169000D01*
X135612000Y-79174000D01*
X135609000Y-79180000D01*
X135606000Y-79185000D01*
X135602000Y-79191000D01*
X135598000Y-79196000D01*
X135594000Y-79200000D01*
X135590000Y-79205000D01*
X135585000Y-79209000D01*
X135581000Y-79213000D01*
X135576000Y-79217000D01*
X135570000Y-79221000D01*
X135565000Y-79224000D01*
X135559000Y-79227000D01*
X135554000Y-79230000D01*
X135548000Y-79232000D01*
X135542000Y-79234000D01*
X135536000Y-79236000D01*
X135530000Y-79237000D01*
X135524000Y-79239000D01*
X135518000Y-79239000D01*
X135511000Y-79240000D01*
X135505000Y-79240000D01*
X135355000Y-79240000D01*
X135349000Y-79240000D01*
X135342000Y-79239000D01*
X135336000Y-79239000D01*
X135330000Y-79237000D01*
X135324000Y-79236000D01*
X135318000Y-79234000D01*
X135312000Y-79232000D01*
X135306000Y-79230000D01*
X135301000Y-79227000D01*
X135295000Y-79224000D01*
X135290000Y-79221000D01*
X135284000Y-79217000D01*
X135279000Y-79213000D01*
X135275000Y-79209000D01*
X135270000Y-79205000D01*
X135266000Y-79200000D01*
X135262000Y-79196000D01*
X135258000Y-79191000D01*
X135254000Y-79185000D01*
X135251000Y-79180000D01*
X135248000Y-79174000D01*
X135245000Y-79169000D01*
X135243000Y-79163000D01*
X135241000Y-79157000D01*
X135239000Y-79151000D01*
X135238000Y-79145000D01*
X135236000Y-79139000D01*
X135236000Y-79133000D01*
X135235000Y-79126000D01*
X135235000Y-79120000D01*
X135235000Y-75820000D01*
X135235000Y-75814000D01*
X135236000Y-75807000D01*
X135236000Y-75801000D01*
X135238000Y-75795000D01*
X135239000Y-75789000D01*
X135241000Y-75783000D01*
X135243000Y-75777000D01*
X135245000Y-75771000D01*
X135248000Y-75766000D01*
X135251000Y-75760000D01*
X135254000Y-75755000D01*
X135258000Y-75749000D01*
X135262000Y-75744000D01*
X135266000Y-75740000D01*
X135270000Y-75735000D01*
X135275000Y-75731000D01*
X135279000Y-75727000D01*
X135284000Y-75723000D01*
X135290000Y-75719000D01*
X135295000Y-75716000D01*
X135301000Y-75713000D01*
X135306000Y-75710000D01*
X135312000Y-75708000D01*
X135318000Y-75706000D01*
X135324000Y-75704000D01*
X135330000Y-75703000D01*
X135336000Y-75701000D01*
X135342000Y-75701000D01*
X135349000Y-75700000D01*
X135355000Y-75700000D01*
X135505000Y-75700000D01*
X135511000Y-75700000D01*
X135518000Y-75701000D01*
G37*
X136018000Y-75701000D02*
X136024000Y-75701000D01*
X136030000Y-75703000D01*
X136036000Y-75704000D01*
X136042000Y-75706000D01*
X136048000Y-75708000D01*
X136054000Y-75710000D01*
X136059000Y-75713000D01*
X136065000Y-75716000D01*
X136070000Y-75719000D01*
X136076000Y-75723000D01*
X136081000Y-75727000D01*
X136085000Y-75731000D01*
X136090000Y-75735000D01*
X136094000Y-75740000D01*
X136098000Y-75744000D01*
X136102000Y-75749000D01*
X136106000Y-75755000D01*
X136109000Y-75760000D01*
X136112000Y-75766000D01*
X136115000Y-75771000D01*
X136117000Y-75777000D01*
X136119000Y-75783000D01*
X136121000Y-75789000D01*
X136122000Y-75795000D01*
X136124000Y-75801000D01*
X136124000Y-75807000D01*
X136125000Y-75814000D01*
X136125000Y-75820000D01*
X136125000Y-76320000D01*
X136125000Y-76326000D01*
X136124000Y-76333000D01*
X136124000Y-76339000D01*
X136122000Y-76345000D01*
X136121000Y-76351000D01*
X136119000Y-76357000D01*
X136117000Y-76363000D01*
X136115000Y-76369000D01*
X136112000Y-76374000D01*
X136109000Y-76380000D01*
X136106000Y-76385000D01*
X136102000Y-76391000D01*
X136098000Y-76396000D01*
X136094000Y-76400000D01*
X136090000Y-76405000D01*
X136085000Y-76409000D01*
X136081000Y-76413000D01*
X136076000Y-76417000D01*
X136070000Y-76421000D01*
X136065000Y-76424000D01*
X136059000Y-76427000D01*
X136054000Y-76430000D01*
X136048000Y-76432000D01*
X136042000Y-76434000D01*
X136036000Y-76436000D01*
X136030000Y-76437000D01*
X136024000Y-76439000D01*
X136018000Y-76439000D01*
X136011000Y-76440000D01*
X136005000Y-76440000D01*
X135855000Y-76440000D01*
X135849000Y-76440000D01*
X135842000Y-76439000D01*
X135836000Y-76439000D01*
X135830000Y-76437000D01*
X135824000Y-76436000D01*
X135818000Y-76434000D01*
X135812000Y-76432000D01*
X135806000Y-76430000D01*
X135801000Y-76427000D01*
X135795000Y-76424000D01*
X135790000Y-76421000D01*
X135784000Y-76417000D01*
X135779000Y-76413000D01*
X135775000Y-76409000D01*
X135770000Y-76405000D01*
X135766000Y-76400000D01*
X135762000Y-76396000D01*
X135758000Y-76391000D01*
X135754000Y-76385000D01*
X135751000Y-76380000D01*
X135748000Y-76374000D01*
X135745000Y-76369000D01*
X135743000Y-76363000D01*
X135741000Y-76357000D01*
X135739000Y-76351000D01*
X135738000Y-76345000D01*
X135736000Y-76339000D01*
X135736000Y-76333000D01*
X135735000Y-76326000D01*
X135735000Y-76320000D01*
X135735000Y-75820000D01*
X135735000Y-75814000D01*
X135736000Y-75807000D01*
X135736000Y-75801000D01*
X135738000Y-75795000D01*
X135739000Y-75789000D01*
X135741000Y-75783000D01*
X135743000Y-75777000D01*
X135745000Y-75771000D01*
X135748000Y-75766000D01*
X135751000Y-75760000D01*
X135754000Y-75755000D01*
X135758000Y-75749000D01*
X135762000Y-75744000D01*
X135766000Y-75740000D01*
X135770000Y-75735000D01*
X135775000Y-75731000D01*
X135779000Y-75727000D01*
X135784000Y-75723000D01*
X135790000Y-75719000D01*
X135795000Y-75716000D01*
X135801000Y-75713000D01*
X135806000Y-75710000D01*
X135812000Y-75708000D01*
X135818000Y-75706000D01*
X135824000Y-75704000D01*
X135830000Y-75703000D01*
X135836000Y-75701000D01*
X135842000Y-75701000D01*
X135849000Y-75700000D01*
X135855000Y-75700000D01*
X136005000Y-75700000D01*
X136011000Y-75700000D01*
X136018000Y-75701000D01*
G36*
X136018000Y-75701000D02*
G01*
X136024000Y-75701000D01*
X136030000Y-75703000D01*
X136036000Y-75704000D01*
X136042000Y-75706000D01*
X136048000Y-75708000D01*
X136054000Y-75710000D01*
X136059000Y-75713000D01*
X136065000Y-75716000D01*
X136070000Y-75719000D01*
X136076000Y-75723000D01*
X136081000Y-75727000D01*
X136085000Y-75731000D01*
X136090000Y-75735000D01*
X136094000Y-75740000D01*
X136098000Y-75744000D01*
X136102000Y-75749000D01*
X136106000Y-75755000D01*
X136109000Y-75760000D01*
X136112000Y-75766000D01*
X136115000Y-75771000D01*
X136117000Y-75777000D01*
X136119000Y-75783000D01*
X136121000Y-75789000D01*
X136122000Y-75795000D01*
X136124000Y-75801000D01*
X136124000Y-75807000D01*
X136125000Y-75814000D01*
X136125000Y-75820000D01*
X136125000Y-76320000D01*
X136125000Y-76326000D01*
X136124000Y-76333000D01*
X136124000Y-76339000D01*
X136122000Y-76345000D01*
X136121000Y-76351000D01*
X136119000Y-76357000D01*
X136117000Y-76363000D01*
X136115000Y-76369000D01*
X136112000Y-76374000D01*
X136109000Y-76380000D01*
X136106000Y-76385000D01*
X136102000Y-76391000D01*
X136098000Y-76396000D01*
X136094000Y-76400000D01*
X136090000Y-76405000D01*
X136085000Y-76409000D01*
X136081000Y-76413000D01*
X136076000Y-76417000D01*
X136070000Y-76421000D01*
X136065000Y-76424000D01*
X136059000Y-76427000D01*
X136054000Y-76430000D01*
X136048000Y-76432000D01*
X136042000Y-76434000D01*
X136036000Y-76436000D01*
X136030000Y-76437000D01*
X136024000Y-76439000D01*
X136018000Y-76439000D01*
X136011000Y-76440000D01*
X136005000Y-76440000D01*
X135855000Y-76440000D01*
X135849000Y-76440000D01*
X135842000Y-76439000D01*
X135836000Y-76439000D01*
X135830000Y-76437000D01*
X135824000Y-76436000D01*
X135818000Y-76434000D01*
X135812000Y-76432000D01*
X135806000Y-76430000D01*
X135801000Y-76427000D01*
X135795000Y-76424000D01*
X135790000Y-76421000D01*
X135784000Y-76417000D01*
X135779000Y-76413000D01*
X135775000Y-76409000D01*
X135770000Y-76405000D01*
X135766000Y-76400000D01*
X135762000Y-76396000D01*
X135758000Y-76391000D01*
X135754000Y-76385000D01*
X135751000Y-76380000D01*
X135748000Y-76374000D01*
X135745000Y-76369000D01*
X135743000Y-76363000D01*
X135741000Y-76357000D01*
X135739000Y-76351000D01*
X135738000Y-76345000D01*
X135736000Y-76339000D01*
X135736000Y-76333000D01*
X135735000Y-76326000D01*
X135735000Y-76320000D01*
X135735000Y-75820000D01*
X135735000Y-75814000D01*
X135736000Y-75807000D01*
X135736000Y-75801000D01*
X135738000Y-75795000D01*
X135739000Y-75789000D01*
X135741000Y-75783000D01*
X135743000Y-75777000D01*
X135745000Y-75771000D01*
X135748000Y-75766000D01*
X135751000Y-75760000D01*
X135754000Y-75755000D01*
X135758000Y-75749000D01*
X135762000Y-75744000D01*
X135766000Y-75740000D01*
X135770000Y-75735000D01*
X135775000Y-75731000D01*
X135779000Y-75727000D01*
X135784000Y-75723000D01*
X135790000Y-75719000D01*
X135795000Y-75716000D01*
X135801000Y-75713000D01*
X135806000Y-75710000D01*
X135812000Y-75708000D01*
X135818000Y-75706000D01*
X135824000Y-75704000D01*
X135830000Y-75703000D01*
X135836000Y-75701000D01*
X135842000Y-75701000D01*
X135849000Y-75700000D01*
X135855000Y-75700000D01*
X136005000Y-75700000D01*
X136011000Y-75700000D01*
X136018000Y-75701000D01*
G37*
X136018000Y-78501000D02*
X136024000Y-78501000D01*
X136030000Y-78503000D01*
X136036000Y-78504000D01*
X136042000Y-78506000D01*
X136048000Y-78508000D01*
X136054000Y-78510000D01*
X136059000Y-78513000D01*
X136065000Y-78516000D01*
X136070000Y-78519000D01*
X136076000Y-78523000D01*
X136081000Y-78527000D01*
X136085000Y-78531000D01*
X136090000Y-78535000D01*
X136094000Y-78540000D01*
X136098000Y-78544000D01*
X136102000Y-78549000D01*
X136106000Y-78555000D01*
X136109000Y-78560000D01*
X136112000Y-78566000D01*
X136115000Y-78571000D01*
X136117000Y-78577000D01*
X136119000Y-78583000D01*
X136121000Y-78589000D01*
X136122000Y-78595000D01*
X136124000Y-78601000D01*
X136124000Y-78607000D01*
X136125000Y-78614000D01*
X136125000Y-78620000D01*
X136125000Y-79120000D01*
X136125000Y-79126000D01*
X136124000Y-79133000D01*
X136124000Y-79139000D01*
X136122000Y-79145000D01*
X136121000Y-79151000D01*
X136119000Y-79157000D01*
X136117000Y-79163000D01*
X136115000Y-79169000D01*
X136112000Y-79174000D01*
X136109000Y-79180000D01*
X136106000Y-79185000D01*
X136102000Y-79191000D01*
X136098000Y-79196000D01*
X136094000Y-79200000D01*
X136090000Y-79205000D01*
X136085000Y-79209000D01*
X136081000Y-79213000D01*
X136076000Y-79217000D01*
X136070000Y-79221000D01*
X136065000Y-79224000D01*
X136059000Y-79227000D01*
X136054000Y-79230000D01*
X136048000Y-79232000D01*
X136042000Y-79234000D01*
X136036000Y-79236000D01*
X136030000Y-79237000D01*
X136024000Y-79239000D01*
X136018000Y-79239000D01*
X136011000Y-79240000D01*
X136005000Y-79240000D01*
X135855000Y-79240000D01*
X135849000Y-79240000D01*
X135842000Y-79239000D01*
X135836000Y-79239000D01*
X135830000Y-79237000D01*
X135824000Y-79236000D01*
X135818000Y-79234000D01*
X135812000Y-79232000D01*
X135806000Y-79230000D01*
X135801000Y-79227000D01*
X135795000Y-79224000D01*
X135790000Y-79221000D01*
X135784000Y-79217000D01*
X135779000Y-79213000D01*
X135775000Y-79209000D01*
X135770000Y-79205000D01*
X135766000Y-79200000D01*
X135762000Y-79196000D01*
X135758000Y-79191000D01*
X135754000Y-79185000D01*
X135751000Y-79180000D01*
X135748000Y-79174000D01*
X135745000Y-79169000D01*
X135743000Y-79163000D01*
X135741000Y-79157000D01*
X135739000Y-79151000D01*
X135738000Y-79145000D01*
X135736000Y-79139000D01*
X135736000Y-79133000D01*
X135735000Y-79126000D01*
X135735000Y-79120000D01*
X135735000Y-78620000D01*
X135735000Y-78614000D01*
X135736000Y-78607000D01*
X135736000Y-78601000D01*
X135738000Y-78595000D01*
X135739000Y-78589000D01*
X135741000Y-78583000D01*
X135743000Y-78577000D01*
X135745000Y-78571000D01*
X135748000Y-78566000D01*
X135751000Y-78560000D01*
X135754000Y-78555000D01*
X135758000Y-78549000D01*
X135762000Y-78544000D01*
X135766000Y-78540000D01*
X135770000Y-78535000D01*
X135775000Y-78531000D01*
X135779000Y-78527000D01*
X135784000Y-78523000D01*
X135790000Y-78519000D01*
X135795000Y-78516000D01*
X135801000Y-78513000D01*
X135806000Y-78510000D01*
X135812000Y-78508000D01*
X135818000Y-78506000D01*
X135824000Y-78504000D01*
X135830000Y-78503000D01*
X135836000Y-78501000D01*
X135842000Y-78501000D01*
X135849000Y-78500000D01*
X135855000Y-78500000D01*
X136005000Y-78500000D01*
X136011000Y-78500000D01*
X136018000Y-78501000D01*
G36*
X136018000Y-78501000D02*
G01*
X136024000Y-78501000D01*
X136030000Y-78503000D01*
X136036000Y-78504000D01*
X136042000Y-78506000D01*
X136048000Y-78508000D01*
X136054000Y-78510000D01*
X136059000Y-78513000D01*
X136065000Y-78516000D01*
X136070000Y-78519000D01*
X136076000Y-78523000D01*
X136081000Y-78527000D01*
X136085000Y-78531000D01*
X136090000Y-78535000D01*
X136094000Y-78540000D01*
X136098000Y-78544000D01*
X136102000Y-78549000D01*
X136106000Y-78555000D01*
X136109000Y-78560000D01*
X136112000Y-78566000D01*
X136115000Y-78571000D01*
X136117000Y-78577000D01*
X136119000Y-78583000D01*
X136121000Y-78589000D01*
X136122000Y-78595000D01*
X136124000Y-78601000D01*
X136124000Y-78607000D01*
X136125000Y-78614000D01*
X136125000Y-78620000D01*
X136125000Y-79120000D01*
X136125000Y-79126000D01*
X136124000Y-79133000D01*
X136124000Y-79139000D01*
X136122000Y-79145000D01*
X136121000Y-79151000D01*
X136119000Y-79157000D01*
X136117000Y-79163000D01*
X136115000Y-79169000D01*
X136112000Y-79174000D01*
X136109000Y-79180000D01*
X136106000Y-79185000D01*
X136102000Y-79191000D01*
X136098000Y-79196000D01*
X136094000Y-79200000D01*
X136090000Y-79205000D01*
X136085000Y-79209000D01*
X136081000Y-79213000D01*
X136076000Y-79217000D01*
X136070000Y-79221000D01*
X136065000Y-79224000D01*
X136059000Y-79227000D01*
X136054000Y-79230000D01*
X136048000Y-79232000D01*
X136042000Y-79234000D01*
X136036000Y-79236000D01*
X136030000Y-79237000D01*
X136024000Y-79239000D01*
X136018000Y-79239000D01*
X136011000Y-79240000D01*
X136005000Y-79240000D01*
X135855000Y-79240000D01*
X135849000Y-79240000D01*
X135842000Y-79239000D01*
X135836000Y-79239000D01*
X135830000Y-79237000D01*
X135824000Y-79236000D01*
X135818000Y-79234000D01*
X135812000Y-79232000D01*
X135806000Y-79230000D01*
X135801000Y-79227000D01*
X135795000Y-79224000D01*
X135790000Y-79221000D01*
X135784000Y-79217000D01*
X135779000Y-79213000D01*
X135775000Y-79209000D01*
X135770000Y-79205000D01*
X135766000Y-79200000D01*
X135762000Y-79196000D01*
X135758000Y-79191000D01*
X135754000Y-79185000D01*
X135751000Y-79180000D01*
X135748000Y-79174000D01*
X135745000Y-79169000D01*
X135743000Y-79163000D01*
X135741000Y-79157000D01*
X135739000Y-79151000D01*
X135738000Y-79145000D01*
X135736000Y-79139000D01*
X135736000Y-79133000D01*
X135735000Y-79126000D01*
X135735000Y-79120000D01*
X135735000Y-78620000D01*
X135735000Y-78614000D01*
X135736000Y-78607000D01*
X135736000Y-78601000D01*
X135738000Y-78595000D01*
X135739000Y-78589000D01*
X135741000Y-78583000D01*
X135743000Y-78577000D01*
X135745000Y-78571000D01*
X135748000Y-78566000D01*
X135751000Y-78560000D01*
X135754000Y-78555000D01*
X135758000Y-78549000D01*
X135762000Y-78544000D01*
X135766000Y-78540000D01*
X135770000Y-78535000D01*
X135775000Y-78531000D01*
X135779000Y-78527000D01*
X135784000Y-78523000D01*
X135790000Y-78519000D01*
X135795000Y-78516000D01*
X135801000Y-78513000D01*
X135806000Y-78510000D01*
X135812000Y-78508000D01*
X135818000Y-78506000D01*
X135824000Y-78504000D01*
X135830000Y-78503000D01*
X135836000Y-78501000D01*
X135842000Y-78501000D01*
X135849000Y-78500000D01*
X135855000Y-78500000D01*
X136005000Y-78500000D01*
X136011000Y-78500000D01*
X136018000Y-78501000D01*
G37*
X137053000Y-77526000D02*
X137059000Y-77526000D01*
X137065000Y-77528000D01*
X137071000Y-77529000D01*
X137077000Y-77531000D01*
X137083000Y-77533000D01*
X137089000Y-77535000D01*
X137094000Y-77538000D01*
X137100000Y-77541000D01*
X137105000Y-77544000D01*
X137111000Y-77548000D01*
X137116000Y-77552000D01*
X137120000Y-77556000D01*
X137125000Y-77560000D01*
X137129000Y-77565000D01*
X137133000Y-77569000D01*
X137137000Y-77574000D01*
X137141000Y-77580000D01*
X137144000Y-77585000D01*
X137147000Y-77591000D01*
X137150000Y-77596000D01*
X137152000Y-77602000D01*
X137154000Y-77608000D01*
X137156000Y-77614000D01*
X137157000Y-77620000D01*
X137159000Y-77626000D01*
X137159000Y-77632000D01*
X137160000Y-77639000D01*
X137160000Y-77645000D01*
X137160000Y-77795000D01*
X137160000Y-77801000D01*
X137159000Y-77808000D01*
X137159000Y-77814000D01*
X137157000Y-77820000D01*
X137156000Y-77826000D01*
X137154000Y-77832000D01*
X137152000Y-77838000D01*
X137150000Y-77844000D01*
X137147000Y-77849000D01*
X137144000Y-77855000D01*
X137141000Y-77860000D01*
X137137000Y-77866000D01*
X137133000Y-77871000D01*
X137129000Y-77875000D01*
X137125000Y-77880000D01*
X137120000Y-77884000D01*
X137116000Y-77888000D01*
X137111000Y-77892000D01*
X137105000Y-77896000D01*
X137100000Y-77899000D01*
X137094000Y-77902000D01*
X137089000Y-77905000D01*
X137083000Y-77907000D01*
X137077000Y-77909000D01*
X137071000Y-77911000D01*
X137065000Y-77912000D01*
X137059000Y-77914000D01*
X137053000Y-77914000D01*
X137046000Y-77915000D01*
X137040000Y-77915000D01*
X136540000Y-77915000D01*
X136534000Y-77915000D01*
X136527000Y-77914000D01*
X136521000Y-77914000D01*
X136515000Y-77912000D01*
X136509000Y-77911000D01*
X136503000Y-77909000D01*
X136497000Y-77907000D01*
X136491000Y-77905000D01*
X136486000Y-77902000D01*
X136480000Y-77899000D01*
X136475000Y-77896000D01*
X136469000Y-77892000D01*
X136464000Y-77888000D01*
X136460000Y-77884000D01*
X136455000Y-77880000D01*
X136451000Y-77875000D01*
X136447000Y-77871000D01*
X136443000Y-77866000D01*
X136439000Y-77860000D01*
X136436000Y-77855000D01*
X136433000Y-77849000D01*
X136430000Y-77844000D01*
X136428000Y-77838000D01*
X136426000Y-77832000D01*
X136424000Y-77826000D01*
X136423000Y-77820000D01*
X136421000Y-77814000D01*
X136421000Y-77808000D01*
X136420000Y-77801000D01*
X136420000Y-77795000D01*
X136420000Y-77645000D01*
X136420000Y-77639000D01*
X136421000Y-77632000D01*
X136421000Y-77626000D01*
X136423000Y-77620000D01*
X136424000Y-77614000D01*
X136426000Y-77608000D01*
X136428000Y-77602000D01*
X136430000Y-77596000D01*
X136433000Y-77591000D01*
X136436000Y-77585000D01*
X136439000Y-77580000D01*
X136443000Y-77574000D01*
X136447000Y-77569000D01*
X136451000Y-77565000D01*
X136455000Y-77560000D01*
X136460000Y-77556000D01*
X136464000Y-77552000D01*
X136469000Y-77548000D01*
X136475000Y-77544000D01*
X136480000Y-77541000D01*
X136486000Y-77538000D01*
X136491000Y-77535000D01*
X136497000Y-77533000D01*
X136503000Y-77531000D01*
X136509000Y-77529000D01*
X136515000Y-77528000D01*
X136521000Y-77526000D01*
X136527000Y-77526000D01*
X136534000Y-77525000D01*
X136540000Y-77525000D01*
X137040000Y-77525000D01*
X137046000Y-77525000D01*
X137053000Y-77526000D01*
G36*
X137053000Y-77526000D02*
G01*
X137059000Y-77526000D01*
X137065000Y-77528000D01*
X137071000Y-77529000D01*
X137077000Y-77531000D01*
X137083000Y-77533000D01*
X137089000Y-77535000D01*
X137094000Y-77538000D01*
X137100000Y-77541000D01*
X137105000Y-77544000D01*
X137111000Y-77548000D01*
X137116000Y-77552000D01*
X137120000Y-77556000D01*
X137125000Y-77560000D01*
X137129000Y-77565000D01*
X137133000Y-77569000D01*
X137137000Y-77574000D01*
X137141000Y-77580000D01*
X137144000Y-77585000D01*
X137147000Y-77591000D01*
X137150000Y-77596000D01*
X137152000Y-77602000D01*
X137154000Y-77608000D01*
X137156000Y-77614000D01*
X137157000Y-77620000D01*
X137159000Y-77626000D01*
X137159000Y-77632000D01*
X137160000Y-77639000D01*
X137160000Y-77645000D01*
X137160000Y-77795000D01*
X137160000Y-77801000D01*
X137159000Y-77808000D01*
X137159000Y-77814000D01*
X137157000Y-77820000D01*
X137156000Y-77826000D01*
X137154000Y-77832000D01*
X137152000Y-77838000D01*
X137150000Y-77844000D01*
X137147000Y-77849000D01*
X137144000Y-77855000D01*
X137141000Y-77860000D01*
X137137000Y-77866000D01*
X137133000Y-77871000D01*
X137129000Y-77875000D01*
X137125000Y-77880000D01*
X137120000Y-77884000D01*
X137116000Y-77888000D01*
X137111000Y-77892000D01*
X137105000Y-77896000D01*
X137100000Y-77899000D01*
X137094000Y-77902000D01*
X137089000Y-77905000D01*
X137083000Y-77907000D01*
X137077000Y-77909000D01*
X137071000Y-77911000D01*
X137065000Y-77912000D01*
X137059000Y-77914000D01*
X137053000Y-77914000D01*
X137046000Y-77915000D01*
X137040000Y-77915000D01*
X136540000Y-77915000D01*
X136534000Y-77915000D01*
X136527000Y-77914000D01*
X136521000Y-77914000D01*
X136515000Y-77912000D01*
X136509000Y-77911000D01*
X136503000Y-77909000D01*
X136497000Y-77907000D01*
X136491000Y-77905000D01*
X136486000Y-77902000D01*
X136480000Y-77899000D01*
X136475000Y-77896000D01*
X136469000Y-77892000D01*
X136464000Y-77888000D01*
X136460000Y-77884000D01*
X136455000Y-77880000D01*
X136451000Y-77875000D01*
X136447000Y-77871000D01*
X136443000Y-77866000D01*
X136439000Y-77860000D01*
X136436000Y-77855000D01*
X136433000Y-77849000D01*
X136430000Y-77844000D01*
X136428000Y-77838000D01*
X136426000Y-77832000D01*
X136424000Y-77826000D01*
X136423000Y-77820000D01*
X136421000Y-77814000D01*
X136421000Y-77808000D01*
X136420000Y-77801000D01*
X136420000Y-77795000D01*
X136420000Y-77645000D01*
X136420000Y-77639000D01*
X136421000Y-77632000D01*
X136421000Y-77626000D01*
X136423000Y-77620000D01*
X136424000Y-77614000D01*
X136426000Y-77608000D01*
X136428000Y-77602000D01*
X136430000Y-77596000D01*
X136433000Y-77591000D01*
X136436000Y-77585000D01*
X136439000Y-77580000D01*
X136443000Y-77574000D01*
X136447000Y-77569000D01*
X136451000Y-77565000D01*
X136455000Y-77560000D01*
X136460000Y-77556000D01*
X136464000Y-77552000D01*
X136469000Y-77548000D01*
X136475000Y-77544000D01*
X136480000Y-77541000D01*
X136486000Y-77538000D01*
X136491000Y-77535000D01*
X136497000Y-77533000D01*
X136503000Y-77531000D01*
X136509000Y-77529000D01*
X136515000Y-77528000D01*
X136521000Y-77526000D01*
X136527000Y-77526000D01*
X136534000Y-77525000D01*
X136540000Y-77525000D01*
X137040000Y-77525000D01*
X137046000Y-77525000D01*
X137053000Y-77526000D01*
G37*
X136518000Y-75701000D02*
X136524000Y-75701000D01*
X136530000Y-75703000D01*
X136536000Y-75704000D01*
X136542000Y-75706000D01*
X136548000Y-75708000D01*
X136554000Y-75710000D01*
X136559000Y-75713000D01*
X136565000Y-75716000D01*
X136570000Y-75719000D01*
X136576000Y-75723000D01*
X136581000Y-75727000D01*
X136585000Y-75731000D01*
X136590000Y-75735000D01*
X136594000Y-75740000D01*
X136598000Y-75744000D01*
X136602000Y-75749000D01*
X136606000Y-75755000D01*
X136609000Y-75760000D01*
X136612000Y-75766000D01*
X136615000Y-75771000D01*
X136617000Y-75777000D01*
X136619000Y-75783000D01*
X136621000Y-75789000D01*
X136622000Y-75795000D01*
X136624000Y-75801000D01*
X136624000Y-75807000D01*
X136625000Y-75814000D01*
X136625000Y-75820000D01*
X136625000Y-76370000D01*
X136625000Y-76376000D01*
X136624000Y-76383000D01*
X136624000Y-76389000D01*
X136622000Y-76395000D01*
X136621000Y-76401000D01*
X136619000Y-76407000D01*
X136617000Y-76413000D01*
X136615000Y-76419000D01*
X136612000Y-76424000D01*
X136609000Y-76430000D01*
X136606000Y-76435000D01*
X136602000Y-76441000D01*
X136598000Y-76446000D01*
X136594000Y-76450000D01*
X136590000Y-76455000D01*
X136585000Y-76459000D01*
X136581000Y-76463000D01*
X136576000Y-76467000D01*
X136570000Y-76471000D01*
X136565000Y-76474000D01*
X136559000Y-76477000D01*
X136554000Y-76480000D01*
X136548000Y-76482000D01*
X136542000Y-76484000D01*
X136536000Y-76486000D01*
X136530000Y-76487000D01*
X136524000Y-76489000D01*
X136518000Y-76489000D01*
X136511000Y-76490000D01*
X136505000Y-76490000D01*
X136355000Y-76490000D01*
X136349000Y-76490000D01*
X136342000Y-76489000D01*
X136336000Y-76489000D01*
X136330000Y-76487000D01*
X136324000Y-76486000D01*
X136318000Y-76484000D01*
X136312000Y-76482000D01*
X136306000Y-76480000D01*
X136301000Y-76477000D01*
X136295000Y-76474000D01*
X136290000Y-76471000D01*
X136284000Y-76467000D01*
X136279000Y-76463000D01*
X136275000Y-76459000D01*
X136270000Y-76455000D01*
X136266000Y-76450000D01*
X136262000Y-76446000D01*
X136258000Y-76441000D01*
X136254000Y-76435000D01*
X136251000Y-76430000D01*
X136248000Y-76424000D01*
X136245000Y-76419000D01*
X136243000Y-76413000D01*
X136241000Y-76407000D01*
X136239000Y-76401000D01*
X136238000Y-76395000D01*
X136236000Y-76389000D01*
X136236000Y-76383000D01*
X136235000Y-76376000D01*
X136235000Y-76370000D01*
X136235000Y-75820000D01*
X136235000Y-75814000D01*
X136236000Y-75807000D01*
X136236000Y-75801000D01*
X136238000Y-75795000D01*
X136239000Y-75789000D01*
X136241000Y-75783000D01*
X136243000Y-75777000D01*
X136245000Y-75771000D01*
X136248000Y-75766000D01*
X136251000Y-75760000D01*
X136254000Y-75755000D01*
X136258000Y-75749000D01*
X136262000Y-75744000D01*
X136266000Y-75740000D01*
X136270000Y-75735000D01*
X136275000Y-75731000D01*
X136279000Y-75727000D01*
X136284000Y-75723000D01*
X136290000Y-75719000D01*
X136295000Y-75716000D01*
X136301000Y-75713000D01*
X136306000Y-75710000D01*
X136312000Y-75708000D01*
X136318000Y-75706000D01*
X136324000Y-75704000D01*
X136330000Y-75703000D01*
X136336000Y-75701000D01*
X136342000Y-75701000D01*
X136349000Y-75700000D01*
X136355000Y-75700000D01*
X136505000Y-75700000D01*
X136511000Y-75700000D01*
X136518000Y-75701000D01*
G36*
X136518000Y-75701000D02*
G01*
X136524000Y-75701000D01*
X136530000Y-75703000D01*
X136536000Y-75704000D01*
X136542000Y-75706000D01*
X136548000Y-75708000D01*
X136554000Y-75710000D01*
X136559000Y-75713000D01*
X136565000Y-75716000D01*
X136570000Y-75719000D01*
X136576000Y-75723000D01*
X136581000Y-75727000D01*
X136585000Y-75731000D01*
X136590000Y-75735000D01*
X136594000Y-75740000D01*
X136598000Y-75744000D01*
X136602000Y-75749000D01*
X136606000Y-75755000D01*
X136609000Y-75760000D01*
X136612000Y-75766000D01*
X136615000Y-75771000D01*
X136617000Y-75777000D01*
X136619000Y-75783000D01*
X136621000Y-75789000D01*
X136622000Y-75795000D01*
X136624000Y-75801000D01*
X136624000Y-75807000D01*
X136625000Y-75814000D01*
X136625000Y-75820000D01*
X136625000Y-76370000D01*
X136625000Y-76376000D01*
X136624000Y-76383000D01*
X136624000Y-76389000D01*
X136622000Y-76395000D01*
X136621000Y-76401000D01*
X136619000Y-76407000D01*
X136617000Y-76413000D01*
X136615000Y-76419000D01*
X136612000Y-76424000D01*
X136609000Y-76430000D01*
X136606000Y-76435000D01*
X136602000Y-76441000D01*
X136598000Y-76446000D01*
X136594000Y-76450000D01*
X136590000Y-76455000D01*
X136585000Y-76459000D01*
X136581000Y-76463000D01*
X136576000Y-76467000D01*
X136570000Y-76471000D01*
X136565000Y-76474000D01*
X136559000Y-76477000D01*
X136554000Y-76480000D01*
X136548000Y-76482000D01*
X136542000Y-76484000D01*
X136536000Y-76486000D01*
X136530000Y-76487000D01*
X136524000Y-76489000D01*
X136518000Y-76489000D01*
X136511000Y-76490000D01*
X136505000Y-76490000D01*
X136355000Y-76490000D01*
X136349000Y-76490000D01*
X136342000Y-76489000D01*
X136336000Y-76489000D01*
X136330000Y-76487000D01*
X136324000Y-76486000D01*
X136318000Y-76484000D01*
X136312000Y-76482000D01*
X136306000Y-76480000D01*
X136301000Y-76477000D01*
X136295000Y-76474000D01*
X136290000Y-76471000D01*
X136284000Y-76467000D01*
X136279000Y-76463000D01*
X136275000Y-76459000D01*
X136270000Y-76455000D01*
X136266000Y-76450000D01*
X136262000Y-76446000D01*
X136258000Y-76441000D01*
X136254000Y-76435000D01*
X136251000Y-76430000D01*
X136248000Y-76424000D01*
X136245000Y-76419000D01*
X136243000Y-76413000D01*
X136241000Y-76407000D01*
X136239000Y-76401000D01*
X136238000Y-76395000D01*
X136236000Y-76389000D01*
X136236000Y-76383000D01*
X136235000Y-76376000D01*
X136235000Y-76370000D01*
X136235000Y-75820000D01*
X136235000Y-75814000D01*
X136236000Y-75807000D01*
X136236000Y-75801000D01*
X136238000Y-75795000D01*
X136239000Y-75789000D01*
X136241000Y-75783000D01*
X136243000Y-75777000D01*
X136245000Y-75771000D01*
X136248000Y-75766000D01*
X136251000Y-75760000D01*
X136254000Y-75755000D01*
X136258000Y-75749000D01*
X136262000Y-75744000D01*
X136266000Y-75740000D01*
X136270000Y-75735000D01*
X136275000Y-75731000D01*
X136279000Y-75727000D01*
X136284000Y-75723000D01*
X136290000Y-75719000D01*
X136295000Y-75716000D01*
X136301000Y-75713000D01*
X136306000Y-75710000D01*
X136312000Y-75708000D01*
X136318000Y-75706000D01*
X136324000Y-75704000D01*
X136330000Y-75703000D01*
X136336000Y-75701000D01*
X136342000Y-75701000D01*
X136349000Y-75700000D01*
X136355000Y-75700000D01*
X136505000Y-75700000D01*
X136511000Y-75700000D01*
X136518000Y-75701000D01*
G37*
X136518000Y-78451000D02*
X136524000Y-78451000D01*
X136530000Y-78453000D01*
X136536000Y-78454000D01*
X136542000Y-78456000D01*
X136548000Y-78458000D01*
X136554000Y-78460000D01*
X136559000Y-78463000D01*
X136565000Y-78466000D01*
X136570000Y-78469000D01*
X136576000Y-78473000D01*
X136581000Y-78477000D01*
X136585000Y-78481000D01*
X136590000Y-78485000D01*
X136594000Y-78490000D01*
X136598000Y-78494000D01*
X136602000Y-78499000D01*
X136606000Y-78505000D01*
X136609000Y-78510000D01*
X136612000Y-78516000D01*
X136615000Y-78521000D01*
X136617000Y-78527000D01*
X136619000Y-78533000D01*
X136621000Y-78539000D01*
X136622000Y-78545000D01*
X136624000Y-78551000D01*
X136624000Y-78557000D01*
X136625000Y-78564000D01*
X136625000Y-78570000D01*
X136625000Y-79120000D01*
X136625000Y-79126000D01*
X136624000Y-79133000D01*
X136624000Y-79139000D01*
X136622000Y-79145000D01*
X136621000Y-79151000D01*
X136619000Y-79157000D01*
X136617000Y-79163000D01*
X136615000Y-79169000D01*
X136612000Y-79174000D01*
X136609000Y-79180000D01*
X136606000Y-79185000D01*
X136602000Y-79191000D01*
X136598000Y-79196000D01*
X136594000Y-79200000D01*
X136590000Y-79205000D01*
X136585000Y-79209000D01*
X136581000Y-79213000D01*
X136576000Y-79217000D01*
X136570000Y-79221000D01*
X136565000Y-79224000D01*
X136559000Y-79227000D01*
X136554000Y-79230000D01*
X136548000Y-79232000D01*
X136542000Y-79234000D01*
X136536000Y-79236000D01*
X136530000Y-79237000D01*
X136524000Y-79239000D01*
X136518000Y-79239000D01*
X136511000Y-79240000D01*
X136505000Y-79240000D01*
X136355000Y-79240000D01*
X136349000Y-79240000D01*
X136342000Y-79239000D01*
X136336000Y-79239000D01*
X136330000Y-79237000D01*
X136324000Y-79236000D01*
X136318000Y-79234000D01*
X136312000Y-79232000D01*
X136306000Y-79230000D01*
X136301000Y-79227000D01*
X136295000Y-79224000D01*
X136290000Y-79221000D01*
X136284000Y-79217000D01*
X136279000Y-79213000D01*
X136275000Y-79209000D01*
X136270000Y-79205000D01*
X136266000Y-79200000D01*
X136262000Y-79196000D01*
X136258000Y-79191000D01*
X136254000Y-79185000D01*
X136251000Y-79180000D01*
X136248000Y-79174000D01*
X136245000Y-79169000D01*
X136243000Y-79163000D01*
X136241000Y-79157000D01*
X136239000Y-79151000D01*
X136238000Y-79145000D01*
X136236000Y-79139000D01*
X136236000Y-79133000D01*
X136235000Y-79126000D01*
X136235000Y-79120000D01*
X136235000Y-78570000D01*
X136235000Y-78564000D01*
X136236000Y-78557000D01*
X136236000Y-78551000D01*
X136238000Y-78545000D01*
X136239000Y-78539000D01*
X136241000Y-78533000D01*
X136243000Y-78527000D01*
X136245000Y-78521000D01*
X136248000Y-78516000D01*
X136251000Y-78510000D01*
X136254000Y-78505000D01*
X136258000Y-78499000D01*
X136262000Y-78494000D01*
X136266000Y-78490000D01*
X136270000Y-78485000D01*
X136275000Y-78481000D01*
X136279000Y-78477000D01*
X136284000Y-78473000D01*
X136290000Y-78469000D01*
X136295000Y-78466000D01*
X136301000Y-78463000D01*
X136306000Y-78460000D01*
X136312000Y-78458000D01*
X136318000Y-78456000D01*
X136324000Y-78454000D01*
X136330000Y-78453000D01*
X136336000Y-78451000D01*
X136342000Y-78451000D01*
X136349000Y-78450000D01*
X136355000Y-78450000D01*
X136505000Y-78450000D01*
X136511000Y-78450000D01*
X136518000Y-78451000D01*
G36*
X136518000Y-78451000D02*
G01*
X136524000Y-78451000D01*
X136530000Y-78453000D01*
X136536000Y-78454000D01*
X136542000Y-78456000D01*
X136548000Y-78458000D01*
X136554000Y-78460000D01*
X136559000Y-78463000D01*
X136565000Y-78466000D01*
X136570000Y-78469000D01*
X136576000Y-78473000D01*
X136581000Y-78477000D01*
X136585000Y-78481000D01*
X136590000Y-78485000D01*
X136594000Y-78490000D01*
X136598000Y-78494000D01*
X136602000Y-78499000D01*
X136606000Y-78505000D01*
X136609000Y-78510000D01*
X136612000Y-78516000D01*
X136615000Y-78521000D01*
X136617000Y-78527000D01*
X136619000Y-78533000D01*
X136621000Y-78539000D01*
X136622000Y-78545000D01*
X136624000Y-78551000D01*
X136624000Y-78557000D01*
X136625000Y-78564000D01*
X136625000Y-78570000D01*
X136625000Y-79120000D01*
X136625000Y-79126000D01*
X136624000Y-79133000D01*
X136624000Y-79139000D01*
X136622000Y-79145000D01*
X136621000Y-79151000D01*
X136619000Y-79157000D01*
X136617000Y-79163000D01*
X136615000Y-79169000D01*
X136612000Y-79174000D01*
X136609000Y-79180000D01*
X136606000Y-79185000D01*
X136602000Y-79191000D01*
X136598000Y-79196000D01*
X136594000Y-79200000D01*
X136590000Y-79205000D01*
X136585000Y-79209000D01*
X136581000Y-79213000D01*
X136576000Y-79217000D01*
X136570000Y-79221000D01*
X136565000Y-79224000D01*
X136559000Y-79227000D01*
X136554000Y-79230000D01*
X136548000Y-79232000D01*
X136542000Y-79234000D01*
X136536000Y-79236000D01*
X136530000Y-79237000D01*
X136524000Y-79239000D01*
X136518000Y-79239000D01*
X136511000Y-79240000D01*
X136505000Y-79240000D01*
X136355000Y-79240000D01*
X136349000Y-79240000D01*
X136342000Y-79239000D01*
X136336000Y-79239000D01*
X136330000Y-79237000D01*
X136324000Y-79236000D01*
X136318000Y-79234000D01*
X136312000Y-79232000D01*
X136306000Y-79230000D01*
X136301000Y-79227000D01*
X136295000Y-79224000D01*
X136290000Y-79221000D01*
X136284000Y-79217000D01*
X136279000Y-79213000D01*
X136275000Y-79209000D01*
X136270000Y-79205000D01*
X136266000Y-79200000D01*
X136262000Y-79196000D01*
X136258000Y-79191000D01*
X136254000Y-79185000D01*
X136251000Y-79180000D01*
X136248000Y-79174000D01*
X136245000Y-79169000D01*
X136243000Y-79163000D01*
X136241000Y-79157000D01*
X136239000Y-79151000D01*
X136238000Y-79145000D01*
X136236000Y-79139000D01*
X136236000Y-79133000D01*
X136235000Y-79126000D01*
X136235000Y-79120000D01*
X136235000Y-78570000D01*
X136235000Y-78564000D01*
X136236000Y-78557000D01*
X136236000Y-78551000D01*
X136238000Y-78545000D01*
X136239000Y-78539000D01*
X136241000Y-78533000D01*
X136243000Y-78527000D01*
X136245000Y-78521000D01*
X136248000Y-78516000D01*
X136251000Y-78510000D01*
X136254000Y-78505000D01*
X136258000Y-78499000D01*
X136262000Y-78494000D01*
X136266000Y-78490000D01*
X136270000Y-78485000D01*
X136275000Y-78481000D01*
X136279000Y-78477000D01*
X136284000Y-78473000D01*
X136290000Y-78469000D01*
X136295000Y-78466000D01*
X136301000Y-78463000D01*
X136306000Y-78460000D01*
X136312000Y-78458000D01*
X136318000Y-78456000D01*
X136324000Y-78454000D01*
X136330000Y-78453000D01*
X136336000Y-78451000D01*
X136342000Y-78451000D01*
X136349000Y-78450000D01*
X136355000Y-78450000D01*
X136505000Y-78450000D01*
X136511000Y-78450000D01*
X136518000Y-78451000D01*
G37*
X137053000Y-77026000D02*
X137059000Y-77026000D01*
X137065000Y-77028000D01*
X137071000Y-77029000D01*
X137077000Y-77031000D01*
X137083000Y-77033000D01*
X137089000Y-77035000D01*
X137094000Y-77038000D01*
X137100000Y-77041000D01*
X137105000Y-77044000D01*
X137111000Y-77048000D01*
X137116000Y-77052000D01*
X137120000Y-77056000D01*
X137125000Y-77060000D01*
X137129000Y-77065000D01*
X137133000Y-77069000D01*
X137137000Y-77074000D01*
X137141000Y-77080000D01*
X137144000Y-77085000D01*
X137147000Y-77091000D01*
X137150000Y-77096000D01*
X137152000Y-77102000D01*
X137154000Y-77108000D01*
X137156000Y-77114000D01*
X137157000Y-77120000D01*
X137159000Y-77126000D01*
X137159000Y-77132000D01*
X137160000Y-77139000D01*
X137160000Y-77145000D01*
X137160000Y-77295000D01*
X137160000Y-77301000D01*
X137159000Y-77308000D01*
X137159000Y-77314000D01*
X137157000Y-77320000D01*
X137156000Y-77326000D01*
X137154000Y-77332000D01*
X137152000Y-77338000D01*
X137150000Y-77344000D01*
X137147000Y-77349000D01*
X137144000Y-77355000D01*
X137141000Y-77360000D01*
X137137000Y-77366000D01*
X137133000Y-77371000D01*
X137129000Y-77375000D01*
X137125000Y-77380000D01*
X137120000Y-77384000D01*
X137116000Y-77388000D01*
X137111000Y-77392000D01*
X137105000Y-77396000D01*
X137100000Y-77399000D01*
X137094000Y-77402000D01*
X137089000Y-77405000D01*
X137083000Y-77407000D01*
X137077000Y-77409000D01*
X137071000Y-77411000D01*
X137065000Y-77412000D01*
X137059000Y-77414000D01*
X137053000Y-77414000D01*
X137046000Y-77415000D01*
X137040000Y-77415000D01*
X136540000Y-77415000D01*
X136534000Y-77415000D01*
X136527000Y-77414000D01*
X136521000Y-77414000D01*
X136515000Y-77412000D01*
X136509000Y-77411000D01*
X136503000Y-77409000D01*
X136497000Y-77407000D01*
X136491000Y-77405000D01*
X136486000Y-77402000D01*
X136480000Y-77399000D01*
X136475000Y-77396000D01*
X136469000Y-77392000D01*
X136464000Y-77388000D01*
X136460000Y-77384000D01*
X136455000Y-77380000D01*
X136451000Y-77375000D01*
X136447000Y-77371000D01*
X136443000Y-77366000D01*
X136439000Y-77360000D01*
X136436000Y-77355000D01*
X136433000Y-77349000D01*
X136430000Y-77344000D01*
X136428000Y-77338000D01*
X136426000Y-77332000D01*
X136424000Y-77326000D01*
X136423000Y-77320000D01*
X136421000Y-77314000D01*
X136421000Y-77308000D01*
X136420000Y-77301000D01*
X136420000Y-77295000D01*
X136420000Y-77145000D01*
X136420000Y-77139000D01*
X136421000Y-77132000D01*
X136421000Y-77126000D01*
X136423000Y-77120000D01*
X136424000Y-77114000D01*
X136426000Y-77108000D01*
X136428000Y-77102000D01*
X136430000Y-77096000D01*
X136433000Y-77091000D01*
X136436000Y-77085000D01*
X136439000Y-77080000D01*
X136443000Y-77074000D01*
X136447000Y-77069000D01*
X136451000Y-77065000D01*
X136455000Y-77060000D01*
X136460000Y-77056000D01*
X136464000Y-77052000D01*
X136469000Y-77048000D01*
X136475000Y-77044000D01*
X136480000Y-77041000D01*
X136486000Y-77038000D01*
X136491000Y-77035000D01*
X136497000Y-77033000D01*
X136503000Y-77031000D01*
X136509000Y-77029000D01*
X136515000Y-77028000D01*
X136521000Y-77026000D01*
X136527000Y-77026000D01*
X136534000Y-77025000D01*
X136540000Y-77025000D01*
X137040000Y-77025000D01*
X137046000Y-77025000D01*
X137053000Y-77026000D01*
G36*
X137053000Y-77026000D02*
G01*
X137059000Y-77026000D01*
X137065000Y-77028000D01*
X137071000Y-77029000D01*
X137077000Y-77031000D01*
X137083000Y-77033000D01*
X137089000Y-77035000D01*
X137094000Y-77038000D01*
X137100000Y-77041000D01*
X137105000Y-77044000D01*
X137111000Y-77048000D01*
X137116000Y-77052000D01*
X137120000Y-77056000D01*
X137125000Y-77060000D01*
X137129000Y-77065000D01*
X137133000Y-77069000D01*
X137137000Y-77074000D01*
X137141000Y-77080000D01*
X137144000Y-77085000D01*
X137147000Y-77091000D01*
X137150000Y-77096000D01*
X137152000Y-77102000D01*
X137154000Y-77108000D01*
X137156000Y-77114000D01*
X137157000Y-77120000D01*
X137159000Y-77126000D01*
X137159000Y-77132000D01*
X137160000Y-77139000D01*
X137160000Y-77145000D01*
X137160000Y-77295000D01*
X137160000Y-77301000D01*
X137159000Y-77308000D01*
X137159000Y-77314000D01*
X137157000Y-77320000D01*
X137156000Y-77326000D01*
X137154000Y-77332000D01*
X137152000Y-77338000D01*
X137150000Y-77344000D01*
X137147000Y-77349000D01*
X137144000Y-77355000D01*
X137141000Y-77360000D01*
X137137000Y-77366000D01*
X137133000Y-77371000D01*
X137129000Y-77375000D01*
X137125000Y-77380000D01*
X137120000Y-77384000D01*
X137116000Y-77388000D01*
X137111000Y-77392000D01*
X137105000Y-77396000D01*
X137100000Y-77399000D01*
X137094000Y-77402000D01*
X137089000Y-77405000D01*
X137083000Y-77407000D01*
X137077000Y-77409000D01*
X137071000Y-77411000D01*
X137065000Y-77412000D01*
X137059000Y-77414000D01*
X137053000Y-77414000D01*
X137046000Y-77415000D01*
X137040000Y-77415000D01*
X136540000Y-77415000D01*
X136534000Y-77415000D01*
X136527000Y-77414000D01*
X136521000Y-77414000D01*
X136515000Y-77412000D01*
X136509000Y-77411000D01*
X136503000Y-77409000D01*
X136497000Y-77407000D01*
X136491000Y-77405000D01*
X136486000Y-77402000D01*
X136480000Y-77399000D01*
X136475000Y-77396000D01*
X136469000Y-77392000D01*
X136464000Y-77388000D01*
X136460000Y-77384000D01*
X136455000Y-77380000D01*
X136451000Y-77375000D01*
X136447000Y-77371000D01*
X136443000Y-77366000D01*
X136439000Y-77360000D01*
X136436000Y-77355000D01*
X136433000Y-77349000D01*
X136430000Y-77344000D01*
X136428000Y-77338000D01*
X136426000Y-77332000D01*
X136424000Y-77326000D01*
X136423000Y-77320000D01*
X136421000Y-77314000D01*
X136421000Y-77308000D01*
X136420000Y-77301000D01*
X136420000Y-77295000D01*
X136420000Y-77145000D01*
X136420000Y-77139000D01*
X136421000Y-77132000D01*
X136421000Y-77126000D01*
X136423000Y-77120000D01*
X136424000Y-77114000D01*
X136426000Y-77108000D01*
X136428000Y-77102000D01*
X136430000Y-77096000D01*
X136433000Y-77091000D01*
X136436000Y-77085000D01*
X136439000Y-77080000D01*
X136443000Y-77074000D01*
X136447000Y-77069000D01*
X136451000Y-77065000D01*
X136455000Y-77060000D01*
X136460000Y-77056000D01*
X136464000Y-77052000D01*
X136469000Y-77048000D01*
X136475000Y-77044000D01*
X136480000Y-77041000D01*
X136486000Y-77038000D01*
X136491000Y-77035000D01*
X136497000Y-77033000D01*
X136503000Y-77031000D01*
X136509000Y-77029000D01*
X136515000Y-77028000D01*
X136521000Y-77026000D01*
X136527000Y-77026000D01*
X136534000Y-77025000D01*
X136540000Y-77025000D01*
X137040000Y-77025000D01*
X137046000Y-77025000D01*
X137053000Y-77026000D01*
G37*
X137053000Y-76526000D02*
X137059000Y-76526000D01*
X137065000Y-76528000D01*
X137071000Y-76529000D01*
X137077000Y-76531000D01*
X137083000Y-76533000D01*
X137089000Y-76535000D01*
X137094000Y-76538000D01*
X137100000Y-76541000D01*
X137105000Y-76544000D01*
X137111000Y-76548000D01*
X137116000Y-76552000D01*
X137120000Y-76556000D01*
X137125000Y-76560000D01*
X137129000Y-76565000D01*
X137133000Y-76569000D01*
X137137000Y-76574000D01*
X137141000Y-76580000D01*
X137144000Y-76585000D01*
X137147000Y-76591000D01*
X137150000Y-76596000D01*
X137152000Y-76602000D01*
X137154000Y-76608000D01*
X137156000Y-76614000D01*
X137157000Y-76620000D01*
X137159000Y-76626000D01*
X137159000Y-76632000D01*
X137160000Y-76639000D01*
X137160000Y-76645000D01*
X137160000Y-76795000D01*
X137160000Y-76801000D01*
X137159000Y-76808000D01*
X137159000Y-76814000D01*
X137157000Y-76820000D01*
X137156000Y-76826000D01*
X137154000Y-76832000D01*
X137152000Y-76838000D01*
X137150000Y-76844000D01*
X137147000Y-76849000D01*
X137144000Y-76855000D01*
X137141000Y-76860000D01*
X137137000Y-76866000D01*
X137133000Y-76871000D01*
X137129000Y-76875000D01*
X137125000Y-76880000D01*
X137120000Y-76884000D01*
X137116000Y-76888000D01*
X137111000Y-76892000D01*
X137105000Y-76896000D01*
X137100000Y-76899000D01*
X137094000Y-76902000D01*
X137089000Y-76905000D01*
X137083000Y-76907000D01*
X137077000Y-76909000D01*
X137071000Y-76911000D01*
X137065000Y-76912000D01*
X137059000Y-76914000D01*
X137053000Y-76914000D01*
X137046000Y-76915000D01*
X137040000Y-76915000D01*
X136540000Y-76915000D01*
X136534000Y-76915000D01*
X136527000Y-76914000D01*
X136521000Y-76914000D01*
X136515000Y-76912000D01*
X136509000Y-76911000D01*
X136503000Y-76909000D01*
X136497000Y-76907000D01*
X136491000Y-76905000D01*
X136486000Y-76902000D01*
X136480000Y-76899000D01*
X136475000Y-76896000D01*
X136469000Y-76892000D01*
X136464000Y-76888000D01*
X136460000Y-76884000D01*
X136455000Y-76880000D01*
X136451000Y-76875000D01*
X136447000Y-76871000D01*
X136443000Y-76866000D01*
X136439000Y-76860000D01*
X136436000Y-76855000D01*
X136433000Y-76849000D01*
X136430000Y-76844000D01*
X136428000Y-76838000D01*
X136426000Y-76832000D01*
X136424000Y-76826000D01*
X136423000Y-76820000D01*
X136421000Y-76814000D01*
X136421000Y-76808000D01*
X136420000Y-76801000D01*
X136420000Y-76795000D01*
X136420000Y-76645000D01*
X136420000Y-76639000D01*
X136421000Y-76632000D01*
X136421000Y-76626000D01*
X136423000Y-76620000D01*
X136424000Y-76614000D01*
X136426000Y-76608000D01*
X136428000Y-76602000D01*
X136430000Y-76596000D01*
X136433000Y-76591000D01*
X136436000Y-76585000D01*
X136439000Y-76580000D01*
X136443000Y-76574000D01*
X136447000Y-76569000D01*
X136451000Y-76565000D01*
X136455000Y-76560000D01*
X136460000Y-76556000D01*
X136464000Y-76552000D01*
X136469000Y-76548000D01*
X136475000Y-76544000D01*
X136480000Y-76541000D01*
X136486000Y-76538000D01*
X136491000Y-76535000D01*
X136497000Y-76533000D01*
X136503000Y-76531000D01*
X136509000Y-76529000D01*
X136515000Y-76528000D01*
X136521000Y-76526000D01*
X136527000Y-76526000D01*
X136534000Y-76525000D01*
X136540000Y-76525000D01*
X137040000Y-76525000D01*
X137046000Y-76525000D01*
X137053000Y-76526000D01*
G36*
X137053000Y-76526000D02*
G01*
X137059000Y-76526000D01*
X137065000Y-76528000D01*
X137071000Y-76529000D01*
X137077000Y-76531000D01*
X137083000Y-76533000D01*
X137089000Y-76535000D01*
X137094000Y-76538000D01*
X137100000Y-76541000D01*
X137105000Y-76544000D01*
X137111000Y-76548000D01*
X137116000Y-76552000D01*
X137120000Y-76556000D01*
X137125000Y-76560000D01*
X137129000Y-76565000D01*
X137133000Y-76569000D01*
X137137000Y-76574000D01*
X137141000Y-76580000D01*
X137144000Y-76585000D01*
X137147000Y-76591000D01*
X137150000Y-76596000D01*
X137152000Y-76602000D01*
X137154000Y-76608000D01*
X137156000Y-76614000D01*
X137157000Y-76620000D01*
X137159000Y-76626000D01*
X137159000Y-76632000D01*
X137160000Y-76639000D01*
X137160000Y-76645000D01*
X137160000Y-76795000D01*
X137160000Y-76801000D01*
X137159000Y-76808000D01*
X137159000Y-76814000D01*
X137157000Y-76820000D01*
X137156000Y-76826000D01*
X137154000Y-76832000D01*
X137152000Y-76838000D01*
X137150000Y-76844000D01*
X137147000Y-76849000D01*
X137144000Y-76855000D01*
X137141000Y-76860000D01*
X137137000Y-76866000D01*
X137133000Y-76871000D01*
X137129000Y-76875000D01*
X137125000Y-76880000D01*
X137120000Y-76884000D01*
X137116000Y-76888000D01*
X137111000Y-76892000D01*
X137105000Y-76896000D01*
X137100000Y-76899000D01*
X137094000Y-76902000D01*
X137089000Y-76905000D01*
X137083000Y-76907000D01*
X137077000Y-76909000D01*
X137071000Y-76911000D01*
X137065000Y-76912000D01*
X137059000Y-76914000D01*
X137053000Y-76914000D01*
X137046000Y-76915000D01*
X137040000Y-76915000D01*
X136540000Y-76915000D01*
X136534000Y-76915000D01*
X136527000Y-76914000D01*
X136521000Y-76914000D01*
X136515000Y-76912000D01*
X136509000Y-76911000D01*
X136503000Y-76909000D01*
X136497000Y-76907000D01*
X136491000Y-76905000D01*
X136486000Y-76902000D01*
X136480000Y-76899000D01*
X136475000Y-76896000D01*
X136469000Y-76892000D01*
X136464000Y-76888000D01*
X136460000Y-76884000D01*
X136455000Y-76880000D01*
X136451000Y-76875000D01*
X136447000Y-76871000D01*
X136443000Y-76866000D01*
X136439000Y-76860000D01*
X136436000Y-76855000D01*
X136433000Y-76849000D01*
X136430000Y-76844000D01*
X136428000Y-76838000D01*
X136426000Y-76832000D01*
X136424000Y-76826000D01*
X136423000Y-76820000D01*
X136421000Y-76814000D01*
X136421000Y-76808000D01*
X136420000Y-76801000D01*
X136420000Y-76795000D01*
X136420000Y-76645000D01*
X136420000Y-76639000D01*
X136421000Y-76632000D01*
X136421000Y-76626000D01*
X136423000Y-76620000D01*
X136424000Y-76614000D01*
X136426000Y-76608000D01*
X136428000Y-76602000D01*
X136430000Y-76596000D01*
X136433000Y-76591000D01*
X136436000Y-76585000D01*
X136439000Y-76580000D01*
X136443000Y-76574000D01*
X136447000Y-76569000D01*
X136451000Y-76565000D01*
X136455000Y-76560000D01*
X136460000Y-76556000D01*
X136464000Y-76552000D01*
X136469000Y-76548000D01*
X136475000Y-76544000D01*
X136480000Y-76541000D01*
X136486000Y-76538000D01*
X136491000Y-76535000D01*
X136497000Y-76533000D01*
X136503000Y-76531000D01*
X136509000Y-76529000D01*
X136515000Y-76528000D01*
X136521000Y-76526000D01*
X136527000Y-76526000D01*
X136534000Y-76525000D01*
X136540000Y-76525000D01*
X137040000Y-76525000D01*
X137046000Y-76525000D01*
X137053000Y-76526000D01*
G37*
X137053000Y-78026000D02*
X137059000Y-78026000D01*
X137065000Y-78028000D01*
X137071000Y-78029000D01*
X137077000Y-78031000D01*
X137083000Y-78033000D01*
X137089000Y-78035000D01*
X137094000Y-78038000D01*
X137100000Y-78041000D01*
X137105000Y-78044000D01*
X137111000Y-78048000D01*
X137116000Y-78052000D01*
X137120000Y-78056000D01*
X137125000Y-78060000D01*
X137129000Y-78065000D01*
X137133000Y-78069000D01*
X137137000Y-78074000D01*
X137141000Y-78080000D01*
X137144000Y-78085000D01*
X137147000Y-78091000D01*
X137150000Y-78096000D01*
X137152000Y-78102000D01*
X137154000Y-78108000D01*
X137156000Y-78114000D01*
X137157000Y-78120000D01*
X137159000Y-78126000D01*
X137159000Y-78132000D01*
X137160000Y-78139000D01*
X137160000Y-78145000D01*
X137160000Y-78295000D01*
X137160000Y-78301000D01*
X137159000Y-78308000D01*
X137159000Y-78314000D01*
X137157000Y-78320000D01*
X137156000Y-78326000D01*
X137154000Y-78332000D01*
X137152000Y-78338000D01*
X137150000Y-78344000D01*
X137147000Y-78349000D01*
X137144000Y-78355000D01*
X137141000Y-78360000D01*
X137137000Y-78366000D01*
X137133000Y-78371000D01*
X137129000Y-78375000D01*
X137125000Y-78380000D01*
X137120000Y-78384000D01*
X137116000Y-78388000D01*
X137111000Y-78392000D01*
X137105000Y-78396000D01*
X137100000Y-78399000D01*
X137094000Y-78402000D01*
X137089000Y-78405000D01*
X137083000Y-78407000D01*
X137077000Y-78409000D01*
X137071000Y-78411000D01*
X137065000Y-78412000D01*
X137059000Y-78414000D01*
X137053000Y-78414000D01*
X137046000Y-78415000D01*
X137040000Y-78415000D01*
X136540000Y-78415000D01*
X136534000Y-78415000D01*
X136527000Y-78414000D01*
X136521000Y-78414000D01*
X136515000Y-78412000D01*
X136509000Y-78411000D01*
X136503000Y-78409000D01*
X136497000Y-78407000D01*
X136491000Y-78405000D01*
X136486000Y-78402000D01*
X136480000Y-78399000D01*
X136475000Y-78396000D01*
X136469000Y-78392000D01*
X136464000Y-78388000D01*
X136460000Y-78384000D01*
X136455000Y-78380000D01*
X136451000Y-78375000D01*
X136447000Y-78371000D01*
X136443000Y-78366000D01*
X136439000Y-78360000D01*
X136436000Y-78355000D01*
X136433000Y-78349000D01*
X136430000Y-78344000D01*
X136428000Y-78338000D01*
X136426000Y-78332000D01*
X136424000Y-78326000D01*
X136423000Y-78320000D01*
X136421000Y-78314000D01*
X136421000Y-78308000D01*
X136420000Y-78301000D01*
X136420000Y-78295000D01*
X136420000Y-78145000D01*
X136420000Y-78139000D01*
X136421000Y-78132000D01*
X136421000Y-78126000D01*
X136423000Y-78120000D01*
X136424000Y-78114000D01*
X136426000Y-78108000D01*
X136428000Y-78102000D01*
X136430000Y-78096000D01*
X136433000Y-78091000D01*
X136436000Y-78085000D01*
X136439000Y-78080000D01*
X136443000Y-78074000D01*
X136447000Y-78069000D01*
X136451000Y-78065000D01*
X136455000Y-78060000D01*
X136460000Y-78056000D01*
X136464000Y-78052000D01*
X136469000Y-78048000D01*
X136475000Y-78044000D01*
X136480000Y-78041000D01*
X136486000Y-78038000D01*
X136491000Y-78035000D01*
X136497000Y-78033000D01*
X136503000Y-78031000D01*
X136509000Y-78029000D01*
X136515000Y-78028000D01*
X136521000Y-78026000D01*
X136527000Y-78026000D01*
X136534000Y-78025000D01*
X136540000Y-78025000D01*
X137040000Y-78025000D01*
X137046000Y-78025000D01*
X137053000Y-78026000D01*
G36*
X137053000Y-78026000D02*
G01*
X137059000Y-78026000D01*
X137065000Y-78028000D01*
X137071000Y-78029000D01*
X137077000Y-78031000D01*
X137083000Y-78033000D01*
X137089000Y-78035000D01*
X137094000Y-78038000D01*
X137100000Y-78041000D01*
X137105000Y-78044000D01*
X137111000Y-78048000D01*
X137116000Y-78052000D01*
X137120000Y-78056000D01*
X137125000Y-78060000D01*
X137129000Y-78065000D01*
X137133000Y-78069000D01*
X137137000Y-78074000D01*
X137141000Y-78080000D01*
X137144000Y-78085000D01*
X137147000Y-78091000D01*
X137150000Y-78096000D01*
X137152000Y-78102000D01*
X137154000Y-78108000D01*
X137156000Y-78114000D01*
X137157000Y-78120000D01*
X137159000Y-78126000D01*
X137159000Y-78132000D01*
X137160000Y-78139000D01*
X137160000Y-78145000D01*
X137160000Y-78295000D01*
X137160000Y-78301000D01*
X137159000Y-78308000D01*
X137159000Y-78314000D01*
X137157000Y-78320000D01*
X137156000Y-78326000D01*
X137154000Y-78332000D01*
X137152000Y-78338000D01*
X137150000Y-78344000D01*
X137147000Y-78349000D01*
X137144000Y-78355000D01*
X137141000Y-78360000D01*
X137137000Y-78366000D01*
X137133000Y-78371000D01*
X137129000Y-78375000D01*
X137125000Y-78380000D01*
X137120000Y-78384000D01*
X137116000Y-78388000D01*
X137111000Y-78392000D01*
X137105000Y-78396000D01*
X137100000Y-78399000D01*
X137094000Y-78402000D01*
X137089000Y-78405000D01*
X137083000Y-78407000D01*
X137077000Y-78409000D01*
X137071000Y-78411000D01*
X137065000Y-78412000D01*
X137059000Y-78414000D01*
X137053000Y-78414000D01*
X137046000Y-78415000D01*
X137040000Y-78415000D01*
X136540000Y-78415000D01*
X136534000Y-78415000D01*
X136527000Y-78414000D01*
X136521000Y-78414000D01*
X136515000Y-78412000D01*
X136509000Y-78411000D01*
X136503000Y-78409000D01*
X136497000Y-78407000D01*
X136491000Y-78405000D01*
X136486000Y-78402000D01*
X136480000Y-78399000D01*
X136475000Y-78396000D01*
X136469000Y-78392000D01*
X136464000Y-78388000D01*
X136460000Y-78384000D01*
X136455000Y-78380000D01*
X136451000Y-78375000D01*
X136447000Y-78371000D01*
X136443000Y-78366000D01*
X136439000Y-78360000D01*
X136436000Y-78355000D01*
X136433000Y-78349000D01*
X136430000Y-78344000D01*
X136428000Y-78338000D01*
X136426000Y-78332000D01*
X136424000Y-78326000D01*
X136423000Y-78320000D01*
X136421000Y-78314000D01*
X136421000Y-78308000D01*
X136420000Y-78301000D01*
X136420000Y-78295000D01*
X136420000Y-78145000D01*
X136420000Y-78139000D01*
X136421000Y-78132000D01*
X136421000Y-78126000D01*
X136423000Y-78120000D01*
X136424000Y-78114000D01*
X136426000Y-78108000D01*
X136428000Y-78102000D01*
X136430000Y-78096000D01*
X136433000Y-78091000D01*
X136436000Y-78085000D01*
X136439000Y-78080000D01*
X136443000Y-78074000D01*
X136447000Y-78069000D01*
X136451000Y-78065000D01*
X136455000Y-78060000D01*
X136460000Y-78056000D01*
X136464000Y-78052000D01*
X136469000Y-78048000D01*
X136475000Y-78044000D01*
X136480000Y-78041000D01*
X136486000Y-78038000D01*
X136491000Y-78035000D01*
X136497000Y-78033000D01*
X136503000Y-78031000D01*
X136509000Y-78029000D01*
X136515000Y-78028000D01*
X136521000Y-78026000D01*
X136527000Y-78026000D01*
X136534000Y-78025000D01*
X136540000Y-78025000D01*
X137040000Y-78025000D01*
X137046000Y-78025000D01*
X137053000Y-78026000D01*
G37*
X134478000Y-75701000D02*
X134484000Y-75701000D01*
X134490000Y-75703000D01*
X134496000Y-75704000D01*
X134502000Y-75706000D01*
X134508000Y-75708000D01*
X134514000Y-75710000D01*
X134519000Y-75713000D01*
X134525000Y-75716000D01*
X134530000Y-75719000D01*
X134536000Y-75723000D01*
X134541000Y-75727000D01*
X134545000Y-75731000D01*
X134550000Y-75735000D01*
X134554000Y-75740000D01*
X134558000Y-75744000D01*
X134562000Y-75749000D01*
X134566000Y-75755000D01*
X134569000Y-75760000D01*
X134572000Y-75766000D01*
X134575000Y-75771000D01*
X134577000Y-75777000D01*
X134579000Y-75783000D01*
X134581000Y-75789000D01*
X134582000Y-75795000D01*
X134584000Y-75801000D01*
X134584000Y-75807000D01*
X134585000Y-75814000D01*
X134585000Y-75820000D01*
X134585000Y-76225000D01*
X134625000Y-76225000D01*
X134625000Y-78715000D01*
X134585000Y-78715000D01*
X134585000Y-79120000D01*
X134585000Y-79126000D01*
X134584000Y-79133000D01*
X134584000Y-79139000D01*
X134582000Y-79145000D01*
X134581000Y-79151000D01*
X134579000Y-79157000D01*
X134577000Y-79163000D01*
X134575000Y-79169000D01*
X134572000Y-79174000D01*
X134569000Y-79180000D01*
X134566000Y-79185000D01*
X134562000Y-79191000D01*
X134558000Y-79196000D01*
X134554000Y-79200000D01*
X134550000Y-79205000D01*
X134545000Y-79209000D01*
X134541000Y-79213000D01*
X134536000Y-79217000D01*
X134530000Y-79221000D01*
X134525000Y-79224000D01*
X134519000Y-79227000D01*
X134514000Y-79230000D01*
X134508000Y-79232000D01*
X134502000Y-79234000D01*
X134496000Y-79236000D01*
X134490000Y-79237000D01*
X134484000Y-79239000D01*
X134478000Y-79239000D01*
X134471000Y-79240000D01*
X134465000Y-79240000D01*
X134315000Y-79240000D01*
X134309000Y-79240000D01*
X134302000Y-79239000D01*
X134296000Y-79239000D01*
X134290000Y-79237000D01*
X134284000Y-79236000D01*
X134278000Y-79234000D01*
X134272000Y-79232000D01*
X134266000Y-79230000D01*
X134261000Y-79227000D01*
X134255000Y-79224000D01*
X134250000Y-79221000D01*
X134244000Y-79217000D01*
X134239000Y-79213000D01*
X134235000Y-79209000D01*
X134230000Y-79205000D01*
X134226000Y-79200000D01*
X134222000Y-79196000D01*
X134218000Y-79191000D01*
X134214000Y-79185000D01*
X134211000Y-79180000D01*
X134208000Y-79174000D01*
X134205000Y-79169000D01*
X134203000Y-79163000D01*
X134201000Y-79157000D01*
X134199000Y-79151000D01*
X134198000Y-79145000D01*
X134196000Y-79139000D01*
X134196000Y-79133000D01*
X134195000Y-79126000D01*
X134195000Y-79120000D01*
X134195000Y-78715000D01*
X134155000Y-78715000D01*
X134155000Y-76225000D01*
X134195000Y-76225000D01*
X134195000Y-75820000D01*
X134195000Y-75814000D01*
X134196000Y-75807000D01*
X134196000Y-75801000D01*
X134198000Y-75795000D01*
X134199000Y-75789000D01*
X134201000Y-75783000D01*
X134203000Y-75777000D01*
X134205000Y-75771000D01*
X134208000Y-75766000D01*
X134211000Y-75760000D01*
X134214000Y-75755000D01*
X134218000Y-75749000D01*
X134222000Y-75744000D01*
X134226000Y-75740000D01*
X134230000Y-75735000D01*
X134235000Y-75731000D01*
X134239000Y-75727000D01*
X134244000Y-75723000D01*
X134250000Y-75719000D01*
X134255000Y-75716000D01*
X134261000Y-75713000D01*
X134266000Y-75710000D01*
X134272000Y-75708000D01*
X134278000Y-75706000D01*
X134284000Y-75704000D01*
X134290000Y-75703000D01*
X134296000Y-75701000D01*
X134302000Y-75701000D01*
X134309000Y-75700000D01*
X134315000Y-75700000D01*
X134465000Y-75700000D01*
X134471000Y-75700000D01*
X134478000Y-75701000D01*
G36*
X134478000Y-75701000D02*
G01*
X134484000Y-75701000D01*
X134490000Y-75703000D01*
X134496000Y-75704000D01*
X134502000Y-75706000D01*
X134508000Y-75708000D01*
X134514000Y-75710000D01*
X134519000Y-75713000D01*
X134525000Y-75716000D01*
X134530000Y-75719000D01*
X134536000Y-75723000D01*
X134541000Y-75727000D01*
X134545000Y-75731000D01*
X134550000Y-75735000D01*
X134554000Y-75740000D01*
X134558000Y-75744000D01*
X134562000Y-75749000D01*
X134566000Y-75755000D01*
X134569000Y-75760000D01*
X134572000Y-75766000D01*
X134575000Y-75771000D01*
X134577000Y-75777000D01*
X134579000Y-75783000D01*
X134581000Y-75789000D01*
X134582000Y-75795000D01*
X134584000Y-75801000D01*
X134584000Y-75807000D01*
X134585000Y-75814000D01*
X134585000Y-75820000D01*
X134585000Y-76225000D01*
X134625000Y-76225000D01*
X134625000Y-78715000D01*
X134585000Y-78715000D01*
X134585000Y-79120000D01*
X134585000Y-79126000D01*
X134584000Y-79133000D01*
X134584000Y-79139000D01*
X134582000Y-79145000D01*
X134581000Y-79151000D01*
X134579000Y-79157000D01*
X134577000Y-79163000D01*
X134575000Y-79169000D01*
X134572000Y-79174000D01*
X134569000Y-79180000D01*
X134566000Y-79185000D01*
X134562000Y-79191000D01*
X134558000Y-79196000D01*
X134554000Y-79200000D01*
X134550000Y-79205000D01*
X134545000Y-79209000D01*
X134541000Y-79213000D01*
X134536000Y-79217000D01*
X134530000Y-79221000D01*
X134525000Y-79224000D01*
X134519000Y-79227000D01*
X134514000Y-79230000D01*
X134508000Y-79232000D01*
X134502000Y-79234000D01*
X134496000Y-79236000D01*
X134490000Y-79237000D01*
X134484000Y-79239000D01*
X134478000Y-79239000D01*
X134471000Y-79240000D01*
X134465000Y-79240000D01*
X134315000Y-79240000D01*
X134309000Y-79240000D01*
X134302000Y-79239000D01*
X134296000Y-79239000D01*
X134290000Y-79237000D01*
X134284000Y-79236000D01*
X134278000Y-79234000D01*
X134272000Y-79232000D01*
X134266000Y-79230000D01*
X134261000Y-79227000D01*
X134255000Y-79224000D01*
X134250000Y-79221000D01*
X134244000Y-79217000D01*
X134239000Y-79213000D01*
X134235000Y-79209000D01*
X134230000Y-79205000D01*
X134226000Y-79200000D01*
X134222000Y-79196000D01*
X134218000Y-79191000D01*
X134214000Y-79185000D01*
X134211000Y-79180000D01*
X134208000Y-79174000D01*
X134205000Y-79169000D01*
X134203000Y-79163000D01*
X134201000Y-79157000D01*
X134199000Y-79151000D01*
X134198000Y-79145000D01*
X134196000Y-79139000D01*
X134196000Y-79133000D01*
X134195000Y-79126000D01*
X134195000Y-79120000D01*
X134195000Y-78715000D01*
X134155000Y-78715000D01*
X134155000Y-76225000D01*
X134195000Y-76225000D01*
X134195000Y-75820000D01*
X134195000Y-75814000D01*
X134196000Y-75807000D01*
X134196000Y-75801000D01*
X134198000Y-75795000D01*
X134199000Y-75789000D01*
X134201000Y-75783000D01*
X134203000Y-75777000D01*
X134205000Y-75771000D01*
X134208000Y-75766000D01*
X134211000Y-75760000D01*
X134214000Y-75755000D01*
X134218000Y-75749000D01*
X134222000Y-75744000D01*
X134226000Y-75740000D01*
X134230000Y-75735000D01*
X134235000Y-75731000D01*
X134239000Y-75727000D01*
X134244000Y-75723000D01*
X134250000Y-75719000D01*
X134255000Y-75716000D01*
X134261000Y-75713000D01*
X134266000Y-75710000D01*
X134272000Y-75708000D01*
X134278000Y-75706000D01*
X134284000Y-75704000D01*
X134290000Y-75703000D01*
X134296000Y-75701000D01*
X134302000Y-75701000D01*
X134309000Y-75700000D01*
X134315000Y-75700000D01*
X134465000Y-75700000D01*
X134471000Y-75700000D01*
X134478000Y-75701000D01*
G37*
%TD*%
D11*
%TO.C,TP15*%
X127000000Y-144145000D03*
%TD*%
D12*
%TO.C,C14*%
X177165000Y-99160500D03*
X177165000Y-97435500D03*
%TD*%
D13*
%TO.C,C45*%
X138964500Y-94627000D03*
X131750900Y-94627000D03*
%TD*%
D14*
%TO.C,R35*%
X168148000Y-98020500D03*
X168148000Y-99845500D03*
%TD*%
D15*
%TO.C,D15*%
X173022500Y-109105500D03*
X173022500Y-107205500D03*
X171147500Y-108155500D03*
%TD*%
D16*
%TO.C,C32*%
X164872500Y-106885500D03*
X166597500Y-106885500D03*
%TD*%
D17*
%TO.C,C36*%
X161036000Y-116612500D03*
X161036000Y-118337500D03*
%TD*%
D18*
%TO.C,R15*%
X190030000Y-97168000D03*
X190030000Y-101968000D03*
%TD*%
D17*
%TO.C,C31*%
X166370000Y-98070500D03*
X166370000Y-99795500D03*
%TD*%
%TO.C,C34*%
X167005000Y-108563000D03*
X167005000Y-110288000D03*
%TD*%
D19*
%TO.C,C42*%
X133821000Y-87134000D03*
X132096000Y-87134000D03*
%TD*%
D20*
%TO.C,D7*%
X193294000Y-128937000D03*
X193294000Y-132937000D03*
%TD*%
D21*
%TO.C,R6*%
X121007500Y-62230000D03*
X122832500Y-62230000D03*
%TD*%
D11*
%TO.C,TP9*%
X83185000Y-118110000D03*
%TD*%
%TO.C,TP21*%
X173990000Y-53340000D03*
%TD*%
D22*
%TO.C,Q3*%
X188164000Y-128360000D03*
D23*
X189484000Y-129555000D03*
D24*
X189859000Y-128360000D03*
%TD*%
D12*
%TO.C,C15*%
X175260000Y-99160500D03*
X175260000Y-97435500D03*
%TD*%
D16*
%TO.C,C23*%
X170634000Y-85654000D03*
X172359000Y-85654000D03*
%TD*%
D21*
%TO.C,R33*%
X167362500Y-91313000D03*
X169187500Y-91313000D03*
%TD*%
D25*
%TO.C,R42*%
X162964500Y-114808000D03*
X161139500Y-114808000D03*
%TD*%
D16*
%TO.C,C2*%
X87021500Y-88138000D03*
X88746500Y-88138000D03*
%TD*%
D26*
%TO.C,D3*%
X98185000Y-82550000D03*
X99935000Y-82550000D03*
%TD*%
D21*
%TO.C,R51*%
X146511000Y-74422000D03*
X148336000Y-74422000D03*
%TD*%
D27*
%TO.C,R18*%
X186690000Y-104241000D03*
X186690000Y-107341000D03*
%TD*%
D28*
%TO.C,D6*%
X186690000Y-122768000D03*
X186690000Y-124968000D03*
%TD*%
D25*
%TO.C,R32*%
X162837500Y-93218000D03*
X161012500Y-93218000D03*
%TD*%
D29*
%TO.C,R41*%
X162814000Y-118387500D03*
X162814000Y-116562500D03*
%TD*%
D27*
%TO.C,R19*%
X189460000Y-109448000D03*
X189460000Y-112548000D03*
%TD*%
D29*
%TO.C,R1*%
X91440000Y-61872500D03*
X91440000Y-60047500D03*
%TD*%
D11*
%TO.C,TP22*%
X117475000Y-144145000D03*
%TD*%
D29*
%TO.C,R36*%
X162560000Y-107163000D03*
X162560000Y-105338000D03*
%TD*%
D30*
%TO.C,C19*%
X161544000Y-128121500D03*
X161544000Y-130196500D03*
%TD*%
D11*
%TO.C,TP17*%
X143510000Y-53340000D03*
%TD*%
D31*
%TO.C,U5*%
X179320000Y-126625500D03*
X179320000Y-127275500D03*
X179320000Y-127925500D03*
X181360000Y-127925500D03*
X181360000Y-127275500D03*
X181360000Y-126625500D03*
D32*
X180340000Y-127275500D03*
%TD*%
D25*
%TO.C,R4*%
X84732500Y-89916000D03*
X82907500Y-89916000D03*
%TD*%
D17*
%TO.C,C16*%
X176022000Y-126640500D03*
X176022000Y-128365500D03*
%TD*%
%TO.C,C53*%
X135546000Y-84086000D03*
X135546000Y-85811000D03*
%TD*%
D11*
%TO.C,TP16*%
X134620000Y-144145000D03*
%TD*%
D33*
%TO.C,U9*%
X169117500Y-94828000D03*
X169117500Y-94178000D03*
X169117500Y-93528000D03*
X169117500Y-92878000D03*
X164892500Y-92878000D03*
X164892500Y-93528000D03*
X164892500Y-94178000D03*
X164892500Y-94828000D03*
%TD*%
D34*
%TO.C,U4*%
X182925000Y-99245500D03*
X182275000Y-99245500D03*
X181625000Y-99245500D03*
X180975000Y-99245500D03*
X180325000Y-99245500D03*
X179675000Y-99245500D03*
X179025000Y-99245500D03*
X179025000Y-104970500D03*
X179675000Y-104970500D03*
X180325000Y-104970500D03*
X180975000Y-104970500D03*
X181625000Y-104970500D03*
X182275000Y-104970500D03*
X182925000Y-104970500D03*
%TD*%
D14*
%TO.C,R29*%
X173875500Y-87225500D03*
X173875500Y-89050500D03*
%TD*%
D27*
%TO.C,R20*%
X186690000Y-109448000D03*
X186690000Y-112548000D03*
%TD*%
D35*
%TO.C,C13*%
X140320499Y-117348000D03*
D36*
X130320499Y-117348000D03*
%TD*%
D37*
%TO.C,SW1*%
X86195000Y-66185000D03*
X86195000Y-62085000D03*
X87795000Y-66185000D03*
X87795000Y-62085000D03*
D38*
X85570000Y-64135000D03*
%TD*%
D39*
%TO.C,C56*%
X145249500Y-81620126D03*
X148374500Y-81620126D03*
%TD*%
D11*
%TO.C,TP18*%
X90805000Y-137795000D03*
%TD*%
D40*
%TO.C,U1*%
X86675000Y-83952500D03*
X85725000Y-83952500D03*
X84775000Y-83952500D03*
X84775000Y-86227500D03*
X86675000Y-86227500D03*
%TD*%
D21*
%TO.C,R7*%
X121007500Y-59055000D03*
X122832500Y-59055000D03*
%TD*%
D41*
%TO.C,J3*%
X98425000Y-140335000D03*
X108585000Y-140335000D03*
D42*
X103505000Y-135255000D03*
X106045000Y-135255000D03*
%TD*%
D43*
%TO.C,C11*%
X194808000Y-68326000D03*
X199908000Y-68326000D03*
%TD*%
D44*
%TO.C,FB1*%
X176030000Y-95758000D03*
X177165000Y-95758000D03*
%TD*%
D45*
%TO.C,D16*%
X173162000Y-114330000D03*
X171262000Y-114330000D03*
X172212000Y-116205000D03*
%TD*%
D30*
%TO.C,C21*%
X170434000Y-127635000D03*
X170434000Y-129710000D03*
%TD*%
D46*
%TO.C,H2*%
X199390000Y-54610000D03*
%TD*%
D39*
%TO.C,C54*%
X145249500Y-86700126D03*
X148374500Y-86700126D03*
%TD*%
D47*
%TO.C,RV1*%
X115570000Y-120650000D03*
D48*
X114420000Y-125750000D03*
D47*
X113270000Y-120650000D03*
%TD*%
D17*
%TO.C,C27*%
X172178000Y-87275500D03*
X172178000Y-89000500D03*
%TD*%
%TO.C,C51*%
X139356000Y-84086000D03*
X139356000Y-85811000D03*
%TD*%
%TO.C,C37*%
X166624000Y-119660500D03*
X166624000Y-121385500D03*
%TD*%
D33*
%TO.C,U11*%
X169117500Y-116418000D03*
X169117500Y-115768000D03*
X169117500Y-115118000D03*
X169117500Y-114468000D03*
X164892500Y-114468000D03*
X164892500Y-115118000D03*
X164892500Y-115768000D03*
X164892500Y-116418000D03*
%TD*%
%TO.C,U10*%
X169117500Y-105320500D03*
X169117500Y-104670500D03*
X169117500Y-104020500D03*
X169117500Y-103370500D03*
X164892500Y-103370500D03*
X164892500Y-104020500D03*
X164892500Y-104670500D03*
X164892500Y-105320500D03*
%TD*%
D28*
%TO.C,D5*%
X189230000Y-122768000D03*
X189230000Y-124968000D03*
%TD*%
D29*
%TO.C,R31*%
X162814000Y-96670500D03*
X162814000Y-94845500D03*
%TD*%
D46*
%TO.C,H3*%
X199390000Y-143510000D03*
%TD*%
D11*
%TO.C,TP2*%
X130810000Y-60325000D03*
%TD*%
%TO.C,TP7*%
X194310000Y-122428000D03*
%TD*%
D17*
%TO.C,C52*%
X137451000Y-84086000D03*
X137451000Y-85811000D03*
%TD*%
D49*
%TO.C,D2*%
X87125000Y-73660000D03*
X84325000Y-73660000D03*
%TD*%
D11*
%TO.C,TP14*%
X140335000Y-144145000D03*
%TD*%
%TO.C,TP19*%
X153670000Y-53340000D03*
%TD*%
D29*
%TO.C,R23*%
X99263750Y-124229500D03*
X99263750Y-122404500D03*
%TD*%
D50*
%TO.C,C8*%
X191780000Y-81915000D03*
X186680000Y-81915000D03*
%TD*%
D19*
%TO.C,C4*%
X87567500Y-67945000D03*
X85842500Y-67945000D03*
%TD*%
D50*
%TO.C,C9*%
X191780000Y-74930000D03*
X186680000Y-74930000D03*
%TD*%
D17*
%TO.C,C30*%
X161036000Y-94895500D03*
X161036000Y-96620500D03*
%TD*%
D19*
%TO.C,C43*%
X133794500Y-88658000D03*
X132069500Y-88658000D03*
%TD*%
D51*
%TO.C,R13*%
X182997600Y-129180500D03*
X184997600Y-129180500D03*
%TD*%
D17*
%TO.C,C57*%
X150622000Y-78217626D03*
X150622000Y-79942626D03*
%TD*%
D19*
%TO.C,C41*%
X133794500Y-85610000D03*
X132069500Y-85610000D03*
%TD*%
D16*
%TO.C,C38*%
X138837500Y-75082400D03*
X140562500Y-75082400D03*
%TD*%
D41*
%TO.C,J2*%
X83185000Y-99060000D03*
X83185000Y-109220000D03*
D42*
X88265000Y-104140000D03*
X88265000Y-106680000D03*
%TD*%
D11*
%TO.C,TP8*%
X147955000Y-60325000D03*
%TD*%
D43*
%TO.C,C10*%
X194808000Y-74930000D03*
X199908000Y-74930000D03*
%TD*%
D17*
%TO.C,C25*%
X166844000Y-83465500D03*
X166844000Y-85190500D03*
%TD*%
D14*
%TO.C,R28*%
X104724750Y-126087500D03*
X104724750Y-127912500D03*
%TD*%
D17*
%TO.C,C26*%
X97358750Y-122454500D03*
X97358750Y-124179500D03*
%TD*%
D39*
%TO.C,C44*%
X135687500Y-88277000D03*
X138812500Y-88277000D03*
%TD*%
D52*
%TO.C,L1*%
X131996000Y-69989000D03*
X136816000Y-69989000D03*
%TD*%
D45*
%TO.C,D14*%
X173035000Y-103408000D03*
X171135000Y-103408000D03*
X172085000Y-105283000D03*
%TD*%
D17*
%TO.C,C17*%
X177546000Y-126640500D03*
X177546000Y-128365500D03*
%TD*%
D29*
%TO.C,R40*%
X165100000Y-110338000D03*
X165100000Y-108513000D03*
%TD*%
D53*
%TO.C,U3*%
X91407500Y-73680000D03*
X91407500Y-74180000D03*
X91407500Y-74680000D03*
X91407500Y-75180000D03*
X91407500Y-75680000D03*
X91407500Y-76180000D03*
D54*
X92095000Y-76867500D03*
X92595000Y-76867500D03*
X93095000Y-76867500D03*
X93595000Y-76867500D03*
X94095000Y-76867500D03*
X94595000Y-76867500D03*
D53*
X95282500Y-76180000D03*
X95282500Y-75680000D03*
X95282500Y-75180000D03*
X95282500Y-74680000D03*
X95282500Y-74180000D03*
X95282500Y-73680000D03*
D54*
X94595000Y-72992500D03*
X94095000Y-72992500D03*
X93595000Y-72992500D03*
X93095000Y-72992500D03*
X92595000Y-72992500D03*
X92095000Y-72992500D03*
D55*
X93345000Y-74930000D03*
%TD*%
D25*
%TO.C,R24*%
X168599000Y-81844000D03*
X166774000Y-81844000D03*
%TD*%
D11*
%TO.C,TP3*%
X172720000Y-71120000D03*
%TD*%
D56*
%TO.C,TP23*%
X155956000Y-65024000D03*
%TD*%
D11*
%TO.C,TP5*%
X194310000Y-111973000D03*
%TD*%
D27*
%TO.C,R17*%
X189460000Y-104241000D03*
X189460000Y-107341000D03*
%TD*%
D11*
%TO.C,TP4*%
X184150000Y-53340000D03*
%TD*%
D57*
%TO.C,Q2*%
X93677500Y-63820000D03*
X93677500Y-65720000D03*
X95552500Y-64770000D03*
%TD*%
D11*
%TO.C,TP20*%
X163830000Y-53340000D03*
%TD*%
D15*
%TO.C,D11*%
X108456250Y-126807000D03*
X108456250Y-124907000D03*
X106581250Y-125857000D03*
%TD*%
D58*
%TO.C,C46*%
X133573500Y-74815000D03*
X132438500Y-74815000D03*
%TD*%
D17*
%TO.C,C5*%
X88265000Y-76607500D03*
X88265000Y-78332500D03*
%TD*%
D51*
%TO.C,R12*%
X182997600Y-127228600D03*
X184997600Y-127228600D03*
%TD*%
D18*
%TO.C,R10*%
X190030000Y-90183000D03*
X190030000Y-94983000D03*
%TD*%
D44*
%TO.C,C47*%
X138848000Y-78371000D03*
X139983000Y-78371000D03*
%TD*%
D59*
%TO.C,U6*%
X168320000Y-129643000D03*
D60*
X168232500Y-128143000D03*
D59*
X168320000Y-126643000D03*
%TD*%
D17*
%TO.C,C6*%
X89916000Y-76607500D03*
X89916000Y-78332500D03*
%TD*%
D11*
%TO.C,TP12*%
X168275000Y-60325000D03*
%TD*%
D33*
%TO.C,U7*%
X174879000Y-84089000D03*
X174879000Y-83439000D03*
X174879000Y-82789000D03*
X174879000Y-82139000D03*
X170654000Y-82139000D03*
X170654000Y-82789000D03*
X170654000Y-83439000D03*
X170654000Y-84089000D03*
%TD*%
D25*
%TO.C,R48*%
X130362500Y-79641000D03*
X128537500Y-79641000D03*
%TD*%
D17*
%TO.C,C28*%
X102946750Y-126137500D03*
X102946750Y-127862500D03*
%TD*%
D11*
%TO.C,TP6*%
X175895000Y-132588000D03*
%TD*%
D15*
%TO.C,D17*%
X172133500Y-119949000D03*
X172133500Y-118049000D03*
X170258500Y-118999000D03*
%TD*%
D61*
%TO.C,J1*%
X81410000Y-76170000D03*
X81410000Y-76820000D03*
X81410000Y-77470000D03*
X81410000Y-78120000D03*
X81410000Y-78770000D03*
D62*
X78710000Y-73970000D03*
D63*
X78710000Y-74570000D03*
D64*
X81410000Y-74970000D03*
D65*
X78710000Y-76470000D03*
X78710000Y-78470000D03*
D64*
X81410000Y-79970000D03*
D63*
X78710000Y-80370000D03*
D62*
X78710000Y-80970000D03*
%TD*%
D14*
%TO.C,R8*%
X97790000Y-78462500D03*
X97790000Y-80287500D03*
%TD*%
D11*
%TO.C,TP1*%
X137160000Y-60325000D03*
%TD*%
D25*
%TO.C,R38*%
X169465000Y-101805500D03*
X167640000Y-101805500D03*
%TD*%
D14*
%TO.C,R27*%
X170573500Y-87225500D03*
X170573500Y-89050500D03*
%TD*%
D16*
%TO.C,C29*%
X164872500Y-96393000D03*
X166597500Y-96393000D03*
%TD*%
D66*
%TO.C,JP2*%
X151130000Y-138430000D03*
D67*
X148590000Y-138430000D03*
X146050000Y-138430000D03*
%TD*%
D16*
%TO.C,C35*%
X164872500Y-117983000D03*
X166597500Y-117983000D03*
%TD*%
D25*
%TO.C,R37*%
X162837500Y-103710500D03*
X161012500Y-103710500D03*
%TD*%
D46*
%TO.C,H4*%
X80010000Y-143510000D03*
%TD*%
D15*
%TO.C,D10*%
X177941500Y-87564000D03*
X177941500Y-85664000D03*
X176066500Y-86614000D03*
%TD*%
D25*
%TO.C,R43*%
X169465000Y-112903000D03*
X167640000Y-112903000D03*
%TD*%
D45*
%TO.C,D12*%
X172908000Y-92661500D03*
X171008000Y-92661500D03*
X171958000Y-94536500D03*
%TD*%
D68*
%TO.C,C3*%
X87100500Y-89916000D03*
X89175500Y-89916000D03*
%TD*%
D14*
%TO.C,R39*%
X168910000Y-108513000D03*
X168910000Y-110338000D03*
%TD*%
D69*
%TO.C,JP3*%
X159385000Y-71120000D03*
X162560000Y-71120000D03*
X165735000Y-71120000D03*
%TD*%
D21*
%TO.C,R49*%
X138848000Y-77101000D03*
X140673000Y-77101000D03*
%TD*%
D25*
%TO.C,R25*%
X99287250Y-120777000D03*
X97462250Y-120777000D03*
%TD*%
D29*
%TO.C,R22*%
X168622000Y-85240500D03*
X168622000Y-83415500D03*
%TD*%
%TO.C,R30*%
X101168750Y-127912500D03*
X101168750Y-126087500D03*
%TD*%
D11*
%TO.C,TP11*%
X158115000Y-60325000D03*
%TD*%
%TO.C,TP10*%
X83185000Y-125730000D03*
%TD*%
D15*
%TO.C,D13*%
X172212000Y-98359000D03*
X172212000Y-96459000D03*
X170337000Y-97409000D03*
%TD*%
D26*
%TO.C,D1*%
X82945000Y-88265000D03*
X84695000Y-88265000D03*
%TD*%
D25*
%TO.C,R26*%
X174949000Y-80574000D03*
X173124000Y-80574000D03*
%TD*%
D16*
%TO.C,C24*%
X101195250Y-124460000D03*
X102920250Y-124460000D03*
%TD*%
D14*
%TO.C,R44*%
X168275000Y-119610500D03*
X168275000Y-121435500D03*
%TD*%
D29*
%TO.C,R45*%
X164846000Y-121435500D03*
X164846000Y-119610500D03*
%TD*%
D30*
%TO.C,C22*%
X172466000Y-127635000D03*
X172466000Y-129710000D03*
%TD*%
D21*
%TO.C,R46*%
X140372000Y-81165000D03*
X142197000Y-81165000D03*
%TD*%
D44*
%TO.C,C49*%
X135486500Y-74815000D03*
X136621500Y-74815000D03*
%TD*%
D30*
%TO.C,C1*%
X88646000Y-84052500D03*
X88646000Y-86127500D03*
%TD*%
D19*
%TO.C,C18*%
X181202500Y-124735500D03*
X179477500Y-124735500D03*
%TD*%
D43*
%TO.C,C12*%
X194808000Y-81915000D03*
X199908000Y-81915000D03*
%TD*%
D14*
%TO.C,R34*%
X164846000Y-98020500D03*
X164846000Y-99845500D03*
%TD*%
D45*
%TO.C,D8*%
X178796500Y-81866500D03*
X176896500Y-81866500D03*
X177846500Y-83741500D03*
%TD*%
D39*
%TO.C,C55*%
X145249500Y-84160126D03*
X148374500Y-84160126D03*
%TD*%
D14*
%TO.C,R9*%
X95885000Y-78462500D03*
X95885000Y-80287500D03*
%TD*%
D18*
%TO.C,R11*%
X186055000Y-90183000D03*
X186055000Y-94983000D03*
%TD*%
D70*
%TO.C,D4*%
X95490000Y-82550000D03*
X93740000Y-82550000D03*
%TD*%
D18*
%TO.C,R16*%
X186055000Y-97168000D03*
X186055000Y-101968000D03*
%TD*%
D21*
%TO.C,R50*%
X142597500Y-74422000D03*
X144422500Y-74422000D03*
%TD*%
D14*
%TO.C,R2*%
X89880000Y-63857500D03*
X89880000Y-65682500D03*
%TD*%
D19*
%TO.C,C50*%
X138530500Y-81280000D03*
X136805500Y-81280000D03*
%TD*%
D45*
%TO.C,D9*%
X109357750Y-121109500D03*
X107457750Y-121109500D03*
X108407750Y-122984500D03*
%TD*%
D19*
%TO.C,C40*%
X133768000Y-84086000D03*
X132043000Y-84086000D03*
%TD*%
D46*
%TO.C,H1*%
X80010000Y-54610000D03*
%TD*%
D44*
%TO.C,FB2*%
X175708500Y-125349000D03*
X176843500Y-125349000D03*
%TD*%
D17*
%TO.C,C33*%
X160655000Y-105388000D03*
X160655000Y-107113000D03*
%TD*%
D25*
%TO.C,R3*%
X86637500Y-82042000D03*
X84812500Y-82042000D03*
%TD*%
D33*
%TO.C,U8*%
X105440250Y-122895000D03*
X105440250Y-122245000D03*
X105440250Y-121595000D03*
X105440250Y-120945000D03*
X101215250Y-120945000D03*
X101215250Y-121595000D03*
X101215250Y-122245000D03*
X101215250Y-122895000D03*
%TD*%
D17*
%TO.C,C20*%
X163322000Y-128042500D03*
X163322000Y-129767500D03*
%TD*%
D12*
%TO.C,C59*%
X126492000Y-77455500D03*
X126492000Y-75730500D03*
%TD*%
%TO.C,C7*%
X96774000Y-74776500D03*
X96774000Y-73051500D03*
%TD*%
D71*
%TO.C,C58*%
X155702000Y-82095126D03*
X155702000Y-87495126D03*
%TD*%
D14*
%TO.C,R14*%
X186690000Y-128268000D03*
X186690000Y-130093000D03*
%TD*%
%TO.C,R5*%
X91440000Y-63857500D03*
X91440000Y-65682500D03*
%TD*%
%TO.C,R21*%
X174244000Y-125452500D03*
X174244000Y-127277500D03*
%TD*%
D72*
%TO.C,U2*%
X100570000Y-58586200D03*
X100570000Y-59856200D03*
X100570000Y-61126200D03*
X100570000Y-62396200D03*
X100570000Y-63666200D03*
X100570000Y-64936200D03*
X100570000Y-66206200D03*
X100570000Y-67476200D03*
X100570000Y-68746200D03*
X100570000Y-70016200D03*
X100570000Y-71286200D03*
X100570000Y-72556200D03*
X100570000Y-73826200D03*
X100570000Y-75096200D03*
D73*
X103610000Y-76346200D03*
X104880000Y-76346200D03*
X106150000Y-76346200D03*
X107420000Y-76346200D03*
X108690000Y-76346200D03*
X109960000Y-76346200D03*
X111230000Y-76346200D03*
X112500000Y-76346200D03*
X113770000Y-76346200D03*
X115040000Y-76346200D03*
D72*
X118070000Y-75096200D03*
X118070000Y-73826200D03*
X118070000Y-72556200D03*
X118070000Y-71286200D03*
X118070000Y-70016200D03*
X118070000Y-68746200D03*
X118070000Y-67476200D03*
X118070000Y-66206200D03*
X118070000Y-64936200D03*
X118070000Y-63666200D03*
X118070000Y-62396200D03*
X118070000Y-61126200D03*
X118070000Y-59856200D03*
X118070000Y-58586200D03*
D74*
X106420000Y-65606200D03*
X106420000Y-67006200D03*
X107120000Y-64906200D03*
X107120000Y-66306200D03*
X107120000Y-67706200D03*
X107795000Y-65606200D03*
X107795000Y-67006200D03*
D75*
X107820000Y-66306200D03*
D74*
X108520000Y-64906200D03*
X108520000Y-66306200D03*
X108520000Y-67706200D03*
X109220000Y-65606200D03*
X109220000Y-67006200D03*
%TD*%
D76*
%TO.C,R52*%
X145262000Y-77810126D03*
X148362000Y-77810126D03*
%TD*%
D19*
%TO.C,C39*%
X130250100Y-75082400D03*
X128525100Y-75082400D03*
%TD*%
D77*
%TO.C,C48*%
X143614500Y-79895000D03*
X143614500Y-81030000D03*
%TD*%
D57*
%TO.C,Q1*%
X93677500Y-60010000D03*
X93677500Y-61910000D03*
X95552500Y-60960000D03*
%TD*%
D11*
%TO.C,TP13*%
X178435000Y-60325000D03*
%TD*%
D66*
%TO.C,JP1*%
X102235000Y-99060000D03*
D67*
X99695000Y-99060000D03*
X97155000Y-99060000D03*
%TD*%
D21*
%TO.C,R47*%
X140372000Y-79641000D03*
X142197000Y-79641000D03*
%TD*%
G36*
X201873039Y-119018685D02*
G01*
X201918794Y-119071489D01*
X201930000Y-119123000D01*
X201930000Y-126495000D01*
X201910315Y-126562039D01*
X201857511Y-126607794D01*
X201806000Y-126619000D01*
X198244000Y-126619000D01*
X198176961Y-126599315D01*
X198131206Y-126546511D01*
X198120000Y-126495000D01*
X198120000Y-119123000D01*
X198139685Y-119055961D01*
X198192489Y-119010206D01*
X198244000Y-118999000D01*
X201806000Y-118999000D01*
X201873039Y-119018685D01*
G37*
G36*
X201873039Y-108604685D02*
G01*
X201918794Y-108657489D01*
X201930000Y-108709000D01*
X201930000Y-116081000D01*
X201910315Y-116148039D01*
X201857511Y-116193794D01*
X201806000Y-116205000D01*
X198244000Y-116205000D01*
X198176961Y-116185315D01*
X198131206Y-116132511D01*
X198120000Y-116081000D01*
X198120000Y-108709000D01*
X198139685Y-108641961D01*
X198192489Y-108596206D01*
X198244000Y-108585000D01*
X201806000Y-108585000D01*
X201873039Y-108604685D01*
G37*
M02*
