%TF.GenerationSoftware,KiCad,Pcbnew,7.0.8*%
%TF.CreationDate,2024-01-29T15:42:32-05:00*%
%TF.ProjectId,cc_laser_supply_rev-B,63635f6c-6173-4657-925f-737570706c79,rev?*%
%TF.SameCoordinates,Original*%
%TF.FileFunction,Plated,1,2,Blind,Drill*%
%TF.FilePolarity,Positive*%
%FSLAX46Y46*%
G04 Gerber Fmt 4.6, Leading zero omitted, Abs format (unit mm)*
G04 Created by KiCad (PCBNEW 7.0.8) date 2024-01-29 15:42:32*
%MOMM*%
%LPD*%
G01*
G04 APERTURE LIST*
%TA.AperFunction,ViaDrill*%
%ADD10C,0.300000*%
%TD*%
%TA.AperFunction,ViaDrill*%
%ADD11C,0.400000*%
%TD*%
G04 APERTURE END LIST*
D10*
X188468000Y-130429000D03*
X188468000Y-131191000D03*
X189484000Y-130429000D03*
X189484000Y-131191000D03*
X190500000Y-130429000D03*
X190500000Y-131191000D03*
D11*
X130556000Y-83312000D03*
X130556000Y-84328000D03*
X130556000Y-85344000D03*
X130556000Y-86360000D03*
X130556000Y-87376000D03*
X130556000Y-88392000D03*
X130556000Y-89408000D03*
X134518400Y-71628000D03*
X134518400Y-72694800D03*
X134518400Y-73761600D03*
X140716000Y-85852000D03*
X140716000Y-86868000D03*
X140716000Y-87884000D03*
X141732000Y-85852000D03*
X141732000Y-86868000D03*
X141732000Y-87884000D03*
X142748000Y-85852000D03*
X142748000Y-86868000D03*
X142748000Y-87884000D03*
X148590000Y-88646000D03*
X148844000Y-79756000D03*
X149860000Y-81534000D03*
X149860000Y-82550000D03*
X149860000Y-83566000D03*
X149860000Y-84582000D03*
X149860000Y-85598000D03*
X149860000Y-86614000D03*
X149860000Y-87630000D03*
X149860000Y-88646000D03*
X150876000Y-81534000D03*
X150876000Y-82550000D03*
X150876000Y-83566000D03*
X150876000Y-84582000D03*
X150876000Y-85598000D03*
X150876000Y-86614000D03*
X150876000Y-87630000D03*
X150876000Y-88646000D03*
X181102000Y-68834000D03*
X181102000Y-69850000D03*
X182118000Y-68834000D03*
X182118000Y-69850000D03*
X183134000Y-68834000D03*
X183134000Y-69850000D03*
X184150000Y-68834000D03*
X184150000Y-69850000D03*
X185166000Y-68834000D03*
X185166000Y-69850000D03*
X186182000Y-68834000D03*
X186182000Y-69850000D03*
X186182000Y-70866000D03*
X187198000Y-68834000D03*
X187198000Y-69850000D03*
X187198000Y-70866000D03*
X188214000Y-68834000D03*
X188214000Y-69850000D03*
X188214000Y-70866000D03*
X189230000Y-68834000D03*
X189230000Y-69850000D03*
X189230000Y-70866000D03*
X199644000Y-62992000D03*
X199644000Y-64008000D03*
X200660000Y-62992000D03*
X200660000Y-64008000D03*
X201676000Y-62992000D03*
X201676000Y-64008000D03*
X201676000Y-65024000D03*
X201676000Y-66040000D03*
X201676000Y-67056000D03*
X201676000Y-68072000D03*
X201676000Y-69088000D03*
X201676000Y-70104000D03*
X201676000Y-71120000D03*
X201676000Y-72136000D03*
X201676000Y-73152000D03*
X201676000Y-74168000D03*
X201676000Y-75184000D03*
X201676000Y-76200000D03*
X201676000Y-77216000D03*
X201676000Y-78232000D03*
X201676000Y-79248000D03*
X201676000Y-80264000D03*
X201676000Y-81280000D03*
X201676000Y-82296000D03*
X201676000Y-83312000D03*
X201676000Y-84328000D03*
M02*
