%TF.GenerationSoftware,KiCad,Pcbnew,7.0.8*%
%TF.CreationDate,2024-01-29T15:42:32-05:00*%
%TF.ProjectId,cc_laser_supply_rev-B,63635f6c-6173-4657-925f-737570706c79,rev?*%
%TF.SameCoordinates,Original*%
%TF.FileFunction,Plated,1,4,PTH,Mixed*%
%TF.FilePolarity,Positive*%
%FSLAX46Y46*%
G04 Gerber Fmt 4.6, Leading zero omitted, Abs format (unit mm)*
G04 Created by KiCad (PCBNEW 7.0.8) date 2024-01-29 15:42:32*
%MOMM*%
%LPD*%
G01*
G04 APERTURE LIST*
%TA.AperFunction,ComponentDrill*%
%ADD10C,0.200000*%
%TD*%
%TA.AperFunction,ViaDrill*%
%ADD11C,0.300000*%
%TD*%
%TA.AperFunction,ViaDrill*%
%ADD12C,0.400000*%
%TD*%
G04 aperture for slot hole*
%TA.AperFunction,ComponentDrill*%
%ADD13O,1.150000X0.500000*%
%TD*%
G04 aperture for slot hole*
%TA.AperFunction,ComponentDrill*%
%ADD14O,0.550000X0.850000*%
%TD*%
%TA.AperFunction,ComponentDrill*%
%ADD15C,0.890000*%
%TD*%
%TA.AperFunction,ComponentDrill*%
%ADD16C,1.000000*%
%TD*%
%TA.AperFunction,ComponentDrill*%
%ADD17C,2.000000*%
%TD*%
%TA.AperFunction,ComponentDrill*%
%ADD18C,2.286000*%
%TD*%
G04 APERTURE END LIST*
D10*
%TO.C,U2*%
X106420000Y-65606200D03*
X106420000Y-67006200D03*
X107120000Y-64906200D03*
X107120000Y-66306200D03*
X107120000Y-67706200D03*
X107795000Y-65606200D03*
X107795000Y-67006200D03*
X108520000Y-64906200D03*
X108520000Y-66306200D03*
X108520000Y-67706200D03*
X109220000Y-65606200D03*
X109220000Y-67006200D03*
%TD*%
D11*
X82804000Y-78740000D03*
X83372436Y-76853153D03*
X84836000Y-91440000D03*
X85598000Y-85344000D03*
X85624500Y-86614000D03*
X86106000Y-75438000D03*
X87122000Y-63500000D03*
X88138000Y-75304900D03*
X88138000Y-79502000D03*
X89243309Y-75417914D03*
X89662000Y-74676000D03*
X89916000Y-62230000D03*
X89916000Y-66802000D03*
X89916000Y-79502000D03*
X90170000Y-73660000D03*
X90424000Y-89916000D03*
X90932000Y-69850000D03*
X91948000Y-77978000D03*
X92456000Y-74930000D03*
X92710000Y-82042000D03*
X93345000Y-74930000D03*
X93667911Y-64965911D03*
X93726000Y-66802000D03*
X93918500Y-71628000D03*
X94234000Y-74930000D03*
X94488000Y-69342000D03*
X96774000Y-62230000D03*
X97358750Y-125603000D03*
X97536000Y-60706000D03*
X97790000Y-68580000D03*
X98044000Y-73152000D03*
X98882750Y-125603000D03*
X99060000Y-58420000D03*
X99060000Y-59690000D03*
X99898750Y-127508000D03*
X101092000Y-81788000D03*
X102362000Y-72390000D03*
X102616000Y-68834000D03*
X103632000Y-77978000D03*
X104216750Y-124587000D03*
X104724750Y-129159000D03*
X105410000Y-120142000D03*
X108484503Y-73633497D03*
X109220000Y-70104000D03*
X110058750Y-122809000D03*
X111566161Y-69148161D03*
X113030000Y-66548000D03*
X114046000Y-67310000D03*
X114808000Y-64770000D03*
X115570000Y-65532000D03*
X116078000Y-67564000D03*
X116332000Y-58420000D03*
X116332000Y-71628000D03*
X116332000Y-74422000D03*
X160528000Y-108331000D03*
X161036000Y-97917000D03*
X161036000Y-119507000D03*
X162560000Y-119507000D03*
X163322000Y-98171000D03*
X163322000Y-131191000D03*
X163576000Y-99949000D03*
X163576000Y-107315000D03*
X163576000Y-119761000D03*
X163830000Y-106045000D03*
X163830000Y-108585000D03*
X164084000Y-117221000D03*
X166339552Y-93690343D03*
X166370000Y-94615000D03*
X166624000Y-92837000D03*
X166624000Y-116713000D03*
X166844000Y-86360000D03*
X166878000Y-103505000D03*
X167655260Y-92821740D03*
X167894000Y-96393000D03*
X167894000Y-106807000D03*
X168622000Y-86360000D03*
X168910000Y-96393000D03*
X169384000Y-88900000D03*
X169418000Y-99949000D03*
X169418000Y-121539000D03*
X169926000Y-102997000D03*
X170180000Y-110617000D03*
X170180000Y-113919000D03*
X170688000Y-115697000D03*
X172178000Y-84074000D03*
X172820497Y-123978503D03*
X173448000Y-81788000D03*
X173702000Y-85480500D03*
X173990000Y-129667000D03*
X174972000Y-89154000D03*
X175768000Y-94869000D03*
X177038000Y-100457000D03*
X177546000Y-129667000D03*
X178054000Y-106807000D03*
X178054000Y-124079000D03*
X178782000Y-80518000D03*
X178816000Y-101219000D03*
X179324000Y-129413000D03*
X179832000Y-107061000D03*
X181625260Y-102758260D03*
X183134000Y-107315000D03*
X184404000Y-105283000D03*
X186182000Y-131445000D03*
X189738000Y-117729000D03*
X192786000Y-90043000D03*
X193294000Y-135001000D03*
D12*
X91821000Y-89281000D03*
X94996000Y-100076000D03*
X95250000Y-96266000D03*
X111252000Y-134620000D03*
X111506000Y-120142000D03*
X113284000Y-132588000D03*
X113538000Y-70358000D03*
X114554000Y-74422000D03*
X116586000Y-66548000D03*
X119336100Y-73914000D03*
X122174000Y-61214000D03*
X122174000Y-73914000D03*
X122682000Y-64262000D03*
X124206000Y-59055000D03*
X124206000Y-62230000D03*
X124206000Y-73406000D03*
X124968000Y-75438000D03*
X126873000Y-74422000D03*
X127000000Y-137370100D03*
X127633550Y-76731950D03*
X128828800Y-73964800D03*
X129413000Y-77680100D03*
X129794000Y-76708000D03*
X130683000Y-78166100D03*
X130973995Y-76664105D03*
X137160000Y-82550000D03*
X138430000Y-80137000D03*
X138480800Y-73812400D03*
X140501200Y-73876600D03*
X141732000Y-58420000D03*
X141782800Y-77317600D03*
X142240000Y-78333600D03*
X142494000Y-75946000D03*
X142900400Y-82397600D03*
X144780000Y-69342000D03*
X146431000Y-75692000D03*
X152400000Y-66548000D03*
X161798000Y-102108000D03*
X164338000Y-78486000D03*
X165608000Y-78486000D03*
X165862000Y-81280000D03*
X166116000Y-79502000D03*
X172847000Y-125603000D03*
X175768000Y-103886000D03*
X176276000Y-74676000D03*
X180383900Y-67467929D03*
X180594000Y-80518000D03*
X180594000Y-96266000D03*
X182245000Y-100838000D03*
X183134000Y-97028000D03*
X183134000Y-103124000D03*
X186055000Y-99568000D03*
D13*
%TO.C,J1*%
X78710000Y-73970000D03*
X78710000Y-80970000D03*
D14*
X81410000Y-74970000D03*
X81410000Y-79970000D03*
D15*
%TO.C,J2*%
X88265000Y-104140000D03*
X88265000Y-106680000D03*
%TO.C,J3*%
X103505000Y-135255000D03*
X106045000Y-135255000D03*
D16*
%TO.C,JP1*%
X97155000Y-99060000D03*
X99695000Y-99060000D03*
X102235000Y-99060000D03*
%TO.C,JP2*%
X146050000Y-138430000D03*
X148590000Y-138430000D03*
X151130000Y-138430000D03*
D17*
%TO.C,C13*%
X130320499Y-117348000D03*
X140320499Y-117348000D03*
D18*
%TO.C,TP9*%
X83185000Y-118110000D03*
%TO.C,TP10*%
X83185000Y-125730000D03*
%TO.C,TP18*%
X90805000Y-137795000D03*
%TO.C,TP22*%
X117475000Y-144145000D03*
%TO.C,TP15*%
X127000000Y-144145000D03*
%TO.C,TP2*%
X130810000Y-60325000D03*
%TO.C,TP16*%
X134620000Y-144145000D03*
%TO.C,TP1*%
X137160000Y-60325000D03*
%TO.C,TP14*%
X140335000Y-144145000D03*
%TO.C,TP17*%
X143510000Y-53340000D03*
%TO.C,TP8*%
X147955000Y-60325000D03*
%TO.C,TP19*%
X153670000Y-53340000D03*
%TO.C,TP11*%
X158115000Y-60325000D03*
%TO.C,TP20*%
X163830000Y-53340000D03*
%TO.C,TP12*%
X168275000Y-60325000D03*
%TO.C,TP3*%
X172720000Y-71120000D03*
%TO.C,TP21*%
X173990000Y-53340000D03*
%TO.C,TP6*%
X175895000Y-132588000D03*
%TO.C,TP13*%
X178435000Y-60325000D03*
%TO.C,TP4*%
X184150000Y-53340000D03*
%TO.C,TP5*%
X194310000Y-111973000D03*
%TO.C,TP7*%
X194310000Y-122428000D03*
M02*
